M48
;DRILL file {KiCad (5.0.1-3-g963ef8bb5)} date Tuesday, April 02, 2019 at 02:03:12 PM
;FORMAT={-:-/ absolute / inch / decimal}
FMAT,2
INCH,TZ
T1C0.0300
T2C0.0315
T3C0.0394
T4C0.0400
T5C0.0450
%
G90
G05
M72
T1
X7.05Y-3.4463
X7.05Y-3.525
X7.05Y-3.6037
X7.5713Y-3.15
X7.65Y-3.15
X7.7287Y-3.15
T2
X7.65Y-3.675
X7.4016Y-3.5
X7.5Y-3.5
X7.65Y-3.525
X7.95Y-3.525
X7.4266Y-3.675
X7.525Y-3.675
X7.95Y-3.675
T3
X8.175Y-3.65
X8.275Y-3.65
X8.375Y-3.65
X8.418Y-3.1311
X8.518Y-3.1311
X8.118Y-3.1311
T4
X7.125Y-3.95
X7.125Y-4.55
X7.225Y-3.95
X7.225Y-4.55
X7.325Y-3.95
X7.325Y-4.55
X7.425Y-3.95
X7.425Y-4.55
X7.525Y-3.95
X7.525Y-4.55
X7.625Y-3.95
X7.625Y-4.55
X7.725Y-3.95
X7.725Y-4.55
X7.825Y-3.95
X7.825Y-4.55
X7.925Y-3.95
X7.925Y-4.55
X8.025Y-3.95
X8.025Y-4.55
X8.125Y-3.95
X8.125Y-4.55
X8.225Y-3.95
X8.225Y-4.55
X8.325Y-3.95
X8.325Y-4.55
X8.425Y-3.95
X8.425Y-4.55
X8.525Y-3.95
X8.525Y-4.55
X8.625Y-3.95
X8.625Y-4.55
X8.725Y-3.95
X8.725Y-4.55
X8.825Y-3.95
X8.825Y-4.55
X8.925Y-3.95
X8.925Y-4.55
X9.025Y-3.95
X9.025Y-4.55
T5
X7.8Y-4.875
X7.8Y-4.975
X7.9Y-4.875
X7.9Y-4.975
X8.Y-4.875
X8.Y-4.975
X8.1Y-4.875
X8.1Y-4.975
X8.2Y-4.875
X8.2Y-4.975
X8.65Y-3.65
X8.75Y-3.65
X8.85Y-3.65
T0
M30
