G04 #@! TF.GenerationSoftware,KiCad,Pcbnew,(5.0.1-3-g963ef8bb5)*
G04 #@! TF.CreationDate,2019-04-02T14:03:19+07:00*
G04 #@! TF.ProjectId,STMaytal32v04,53544D617974616C33327630342E6B69,rev?*
G04 #@! TF.SameCoordinates,Original*
G04 #@! TF.FileFunction,Soldermask,Top*
G04 #@! TF.FilePolarity,Negative*
%FSLAX46Y46*%
G04 Gerber Fmt 4.6, Leading zero omitted, Abs format (unit mm)*
G04 Created by KiCad (PCBNEW (5.0.1-3-g963ef8bb5)) date Tuesday, April 02, 2019 at 02:03:19 PM*
%MOMM*%
%LPD*%
G01*
G04 APERTURE LIST*
%ADD10C,0.100000*%
G04 APERTURE END LIST*
D10*
G36*
X208402988Y-125366304D02*
X208572710Y-125400063D01*
X208755336Y-125475709D01*
X208919694Y-125585530D01*
X209059470Y-125725306D01*
X209169291Y-125889664D01*
X209244937Y-126072290D01*
X209283500Y-126266164D01*
X209283500Y-126463836D01*
X209244937Y-126657710D01*
X209169291Y-126840336D01*
X209059470Y-127004694D01*
X208919694Y-127144470D01*
X208755336Y-127254291D01*
X208572710Y-127329937D01*
X208402988Y-127363696D01*
X208378837Y-127368500D01*
X208181163Y-127368500D01*
X208157012Y-127363696D01*
X207987290Y-127329937D01*
X207804664Y-127254291D01*
X207640306Y-127144470D01*
X207500530Y-127004694D01*
X207390709Y-126840336D01*
X207315063Y-126657710D01*
X207276500Y-126463836D01*
X207276500Y-126266164D01*
X207315063Y-126072290D01*
X207390709Y-125889664D01*
X207500530Y-125725306D01*
X207640306Y-125585530D01*
X207804664Y-125475709D01*
X207987290Y-125400063D01*
X208157012Y-125366304D01*
X208181163Y-125361500D01*
X208378837Y-125361500D01*
X208402988Y-125366304D01*
X208402988Y-125366304D01*
G37*
G36*
X205862988Y-125366304D02*
X206032710Y-125400063D01*
X206215336Y-125475709D01*
X206379694Y-125585530D01*
X206519470Y-125725306D01*
X206629291Y-125889664D01*
X206704937Y-126072290D01*
X206743500Y-126266164D01*
X206743500Y-126463836D01*
X206704937Y-126657710D01*
X206629291Y-126840336D01*
X206519470Y-127004694D01*
X206379694Y-127144470D01*
X206215336Y-127254291D01*
X206032710Y-127329937D01*
X205862988Y-127363696D01*
X205838837Y-127368500D01*
X205641163Y-127368500D01*
X205617012Y-127363696D01*
X205447290Y-127329937D01*
X205264664Y-127254291D01*
X205100306Y-127144470D01*
X204960530Y-127004694D01*
X204850709Y-126840336D01*
X204775063Y-126657710D01*
X204736500Y-126463836D01*
X204736500Y-126266164D01*
X204775063Y-126072290D01*
X204850709Y-125889664D01*
X204960530Y-125725306D01*
X205100306Y-125585530D01*
X205264664Y-125475709D01*
X205447290Y-125400063D01*
X205617012Y-125366304D01*
X205641163Y-125361500D01*
X205838837Y-125361500D01*
X205862988Y-125366304D01*
X205862988Y-125366304D01*
G37*
G36*
X203322988Y-125366304D02*
X203492710Y-125400063D01*
X203675336Y-125475709D01*
X203839694Y-125585530D01*
X203979470Y-125725306D01*
X204089291Y-125889664D01*
X204164937Y-126072290D01*
X204203500Y-126266164D01*
X204203500Y-126463836D01*
X204164937Y-126657710D01*
X204089291Y-126840336D01*
X203979470Y-127004694D01*
X203839694Y-127144470D01*
X203675336Y-127254291D01*
X203492710Y-127329937D01*
X203322988Y-127363696D01*
X203298837Y-127368500D01*
X203101163Y-127368500D01*
X203077012Y-127363696D01*
X202907290Y-127329937D01*
X202724664Y-127254291D01*
X202560306Y-127144470D01*
X202420530Y-127004694D01*
X202310709Y-126840336D01*
X202235063Y-126657710D01*
X202196500Y-126463836D01*
X202196500Y-126266164D01*
X202235063Y-126072290D01*
X202310709Y-125889664D01*
X202420530Y-125725306D01*
X202560306Y-125585530D01*
X202724664Y-125475709D01*
X202907290Y-125400063D01*
X203077012Y-125366304D01*
X203101163Y-125361500D01*
X203298837Y-125361500D01*
X203322988Y-125366304D01*
X203322988Y-125366304D01*
G37*
G36*
X200782988Y-125366304D02*
X200952710Y-125400063D01*
X201135336Y-125475709D01*
X201299694Y-125585530D01*
X201439470Y-125725306D01*
X201549291Y-125889664D01*
X201624937Y-126072290D01*
X201663500Y-126266164D01*
X201663500Y-126463836D01*
X201624937Y-126657710D01*
X201549291Y-126840336D01*
X201439470Y-127004694D01*
X201299694Y-127144470D01*
X201135336Y-127254291D01*
X200952710Y-127329937D01*
X200782988Y-127363696D01*
X200758837Y-127368500D01*
X200561163Y-127368500D01*
X200537012Y-127363696D01*
X200367290Y-127329937D01*
X200184664Y-127254291D01*
X200020306Y-127144470D01*
X199880530Y-127004694D01*
X199770709Y-126840336D01*
X199695063Y-126657710D01*
X199656500Y-126463836D01*
X199656500Y-126266164D01*
X199695063Y-126072290D01*
X199770709Y-125889664D01*
X199880530Y-125725306D01*
X200020306Y-125585530D01*
X200184664Y-125475709D01*
X200367290Y-125400063D01*
X200537012Y-125366304D01*
X200561163Y-125361500D01*
X200758837Y-125361500D01*
X200782988Y-125366304D01*
X200782988Y-125366304D01*
G37*
G36*
X199123500Y-127368500D02*
X197116500Y-127368500D01*
X197116500Y-125361500D01*
X199123500Y-125361500D01*
X199123500Y-127368500D01*
X199123500Y-127368500D01*
G37*
G36*
X225142527Y-122948736D02*
X225242410Y-122968604D01*
X225524674Y-123085521D01*
X225778705Y-123255259D01*
X225994741Y-123471295D01*
X226164479Y-123725326D01*
X226281396Y-124007590D01*
X226341000Y-124307240D01*
X226341000Y-124612760D01*
X226281396Y-124912410D01*
X226164479Y-125194674D01*
X225994741Y-125448705D01*
X225778705Y-125664741D01*
X225524674Y-125834479D01*
X225242410Y-125951396D01*
X225142527Y-125971264D01*
X224942762Y-126011000D01*
X224637238Y-126011000D01*
X224437473Y-125971264D01*
X224337590Y-125951396D01*
X224055326Y-125834479D01*
X223801295Y-125664741D01*
X223585259Y-125448705D01*
X223415521Y-125194674D01*
X223298604Y-124912410D01*
X223239000Y-124612760D01*
X223239000Y-124307240D01*
X223298604Y-124007590D01*
X223415521Y-123725326D01*
X223585259Y-123471295D01*
X223801295Y-123255259D01*
X224055326Y-123085521D01*
X224337590Y-122968604D01*
X224437473Y-122948736D01*
X224637238Y-122909000D01*
X224942762Y-122909000D01*
X225142527Y-122948736D01*
X225142527Y-122948736D01*
G37*
G36*
X179422527Y-122948736D02*
X179522410Y-122968604D01*
X179804674Y-123085521D01*
X180058705Y-123255259D01*
X180274741Y-123471295D01*
X180444479Y-123725326D01*
X180561396Y-124007590D01*
X180621000Y-124307240D01*
X180621000Y-124612760D01*
X180561396Y-124912410D01*
X180444479Y-125194674D01*
X180274741Y-125448705D01*
X180058705Y-125664741D01*
X179804674Y-125834479D01*
X179522410Y-125951396D01*
X179422527Y-125971264D01*
X179222762Y-126011000D01*
X178917238Y-126011000D01*
X178717473Y-125971264D01*
X178617590Y-125951396D01*
X178335326Y-125834479D01*
X178081295Y-125664741D01*
X177865259Y-125448705D01*
X177695521Y-125194674D01*
X177578604Y-124912410D01*
X177519000Y-124612760D01*
X177519000Y-124307240D01*
X177578604Y-124007590D01*
X177695521Y-123725326D01*
X177865259Y-123471295D01*
X178081295Y-123255259D01*
X178335326Y-123085521D01*
X178617590Y-122968604D01*
X178717473Y-122948736D01*
X178917238Y-122909000D01*
X179222762Y-122909000D01*
X179422527Y-122948736D01*
X179422527Y-122948736D01*
G37*
G36*
X208402988Y-122826304D02*
X208572710Y-122860063D01*
X208755336Y-122935709D01*
X208919694Y-123045530D01*
X209059470Y-123185306D01*
X209169291Y-123349664D01*
X209244937Y-123532290D01*
X209278696Y-123702012D01*
X209283334Y-123725326D01*
X209283500Y-123726164D01*
X209283500Y-123923836D01*
X209244937Y-124117710D01*
X209169291Y-124300336D01*
X209059470Y-124464694D01*
X208919694Y-124604470D01*
X208755336Y-124714291D01*
X208572710Y-124789937D01*
X208402988Y-124823696D01*
X208378837Y-124828500D01*
X208181163Y-124828500D01*
X208157012Y-124823696D01*
X207987290Y-124789937D01*
X207804664Y-124714291D01*
X207640306Y-124604470D01*
X207500530Y-124464694D01*
X207390709Y-124300336D01*
X207315063Y-124117710D01*
X207276500Y-123923836D01*
X207276500Y-123726164D01*
X207276667Y-123725326D01*
X207281304Y-123702012D01*
X207315063Y-123532290D01*
X207390709Y-123349664D01*
X207500530Y-123185306D01*
X207640306Y-123045530D01*
X207804664Y-122935709D01*
X207987290Y-122860063D01*
X208157012Y-122826304D01*
X208181163Y-122821500D01*
X208378837Y-122821500D01*
X208402988Y-122826304D01*
X208402988Y-122826304D01*
G37*
G36*
X205862988Y-122826304D02*
X206032710Y-122860063D01*
X206215336Y-122935709D01*
X206379694Y-123045530D01*
X206519470Y-123185306D01*
X206629291Y-123349664D01*
X206704937Y-123532290D01*
X206738696Y-123702012D01*
X206743334Y-123725326D01*
X206743500Y-123726164D01*
X206743500Y-123923836D01*
X206704937Y-124117710D01*
X206629291Y-124300336D01*
X206519470Y-124464694D01*
X206379694Y-124604470D01*
X206215336Y-124714291D01*
X206032710Y-124789937D01*
X205862988Y-124823696D01*
X205838837Y-124828500D01*
X205641163Y-124828500D01*
X205617012Y-124823696D01*
X205447290Y-124789937D01*
X205264664Y-124714291D01*
X205100306Y-124604470D01*
X204960530Y-124464694D01*
X204850709Y-124300336D01*
X204775063Y-124117710D01*
X204736500Y-123923836D01*
X204736500Y-123726164D01*
X204736667Y-123725326D01*
X204741304Y-123702012D01*
X204775063Y-123532290D01*
X204850709Y-123349664D01*
X204960530Y-123185306D01*
X205100306Y-123045530D01*
X205264664Y-122935709D01*
X205447290Y-122860063D01*
X205617012Y-122826304D01*
X205641163Y-122821500D01*
X205838837Y-122821500D01*
X205862988Y-122826304D01*
X205862988Y-122826304D01*
G37*
G36*
X203322988Y-122826304D02*
X203492710Y-122860063D01*
X203675336Y-122935709D01*
X203839694Y-123045530D01*
X203979470Y-123185306D01*
X204089291Y-123349664D01*
X204164937Y-123532290D01*
X204198696Y-123702012D01*
X204203334Y-123725326D01*
X204203500Y-123726164D01*
X204203500Y-123923836D01*
X204164937Y-124117710D01*
X204089291Y-124300336D01*
X203979470Y-124464694D01*
X203839694Y-124604470D01*
X203675336Y-124714291D01*
X203492710Y-124789937D01*
X203322988Y-124823696D01*
X203298837Y-124828500D01*
X203101163Y-124828500D01*
X203077012Y-124823696D01*
X202907290Y-124789937D01*
X202724664Y-124714291D01*
X202560306Y-124604470D01*
X202420530Y-124464694D01*
X202310709Y-124300336D01*
X202235063Y-124117710D01*
X202196500Y-123923836D01*
X202196500Y-123726164D01*
X202196667Y-123725326D01*
X202201304Y-123702012D01*
X202235063Y-123532290D01*
X202310709Y-123349664D01*
X202420530Y-123185306D01*
X202560306Y-123045530D01*
X202724664Y-122935709D01*
X202907290Y-122860063D01*
X203077012Y-122826304D01*
X203101163Y-122821500D01*
X203298837Y-122821500D01*
X203322988Y-122826304D01*
X203322988Y-122826304D01*
G37*
G36*
X200782988Y-122826304D02*
X200952710Y-122860063D01*
X201135336Y-122935709D01*
X201299694Y-123045530D01*
X201439470Y-123185306D01*
X201549291Y-123349664D01*
X201624937Y-123532290D01*
X201658696Y-123702012D01*
X201663334Y-123725326D01*
X201663500Y-123726164D01*
X201663500Y-123923836D01*
X201624937Y-124117710D01*
X201549291Y-124300336D01*
X201439470Y-124464694D01*
X201299694Y-124604470D01*
X201135336Y-124714291D01*
X200952710Y-124789937D01*
X200782988Y-124823696D01*
X200758837Y-124828500D01*
X200561163Y-124828500D01*
X200537012Y-124823696D01*
X200367290Y-124789937D01*
X200184664Y-124714291D01*
X200020306Y-124604470D01*
X199880530Y-124464694D01*
X199770709Y-124300336D01*
X199695063Y-124117710D01*
X199656500Y-123923836D01*
X199656500Y-123726164D01*
X199656667Y-123725326D01*
X199661304Y-123702012D01*
X199695063Y-123532290D01*
X199770709Y-123349664D01*
X199880530Y-123185306D01*
X200020306Y-123045530D01*
X200184664Y-122935709D01*
X200367290Y-122860063D01*
X200537012Y-122826304D01*
X200561163Y-122821500D01*
X200758837Y-122821500D01*
X200782988Y-122826304D01*
X200782988Y-122826304D01*
G37*
G36*
X198242988Y-122826304D02*
X198412710Y-122860063D01*
X198595336Y-122935709D01*
X198759694Y-123045530D01*
X198899470Y-123185306D01*
X199009291Y-123349664D01*
X199084937Y-123532290D01*
X199118696Y-123702012D01*
X199123334Y-123725326D01*
X199123500Y-123726164D01*
X199123500Y-123923836D01*
X199084937Y-124117710D01*
X199009291Y-124300336D01*
X198899470Y-124464694D01*
X198759694Y-124604470D01*
X198595336Y-124714291D01*
X198412710Y-124789937D01*
X198242988Y-124823696D01*
X198218837Y-124828500D01*
X198021163Y-124828500D01*
X197997012Y-124823696D01*
X197827290Y-124789937D01*
X197644664Y-124714291D01*
X197480306Y-124604470D01*
X197340530Y-124464694D01*
X197230709Y-124300336D01*
X197155063Y-124117710D01*
X197116500Y-123923836D01*
X197116500Y-123726164D01*
X197116667Y-123725326D01*
X197121304Y-123702012D01*
X197155063Y-123532290D01*
X197230709Y-123349664D01*
X197340530Y-123185306D01*
X197480306Y-123045530D01*
X197644664Y-122935709D01*
X197827290Y-122860063D01*
X197997012Y-122826304D01*
X198021163Y-122821500D01*
X198218837Y-122821500D01*
X198242988Y-122826304D01*
X198242988Y-122826304D01*
G37*
G36*
X198992142Y-114788242D02*
X199140102Y-114849530D01*
X199273258Y-114938502D01*
X199386498Y-115051742D01*
X199475470Y-115184898D01*
X199536758Y-115332858D01*
X199568000Y-115489925D01*
X199568000Y-115650075D01*
X199536758Y-115807142D01*
X199475470Y-115955102D01*
X199386498Y-116088258D01*
X199273258Y-116201498D01*
X199140102Y-116290470D01*
X198992142Y-116351758D01*
X198835075Y-116383000D01*
X198674925Y-116383000D01*
X198517858Y-116351758D01*
X198369898Y-116290470D01*
X198236742Y-116201498D01*
X198123502Y-116088258D01*
X198034530Y-115955102D01*
X197973242Y-115807142D01*
X197942000Y-115650075D01*
X197942000Y-115489925D01*
X197973242Y-115332858D01*
X198034530Y-115184898D01*
X198123502Y-115051742D01*
X198236742Y-114938502D01*
X198369898Y-114849530D01*
X198517858Y-114788242D01*
X198674925Y-114757000D01*
X198835075Y-114757000D01*
X198992142Y-114788242D01*
X198992142Y-114788242D01*
G37*
G36*
X196452142Y-114788242D02*
X196600102Y-114849530D01*
X196733258Y-114938502D01*
X196846498Y-115051742D01*
X196935470Y-115184898D01*
X196996758Y-115332858D01*
X197028000Y-115489925D01*
X197028000Y-115650075D01*
X196996758Y-115807142D01*
X196935470Y-115955102D01*
X196846498Y-116088258D01*
X196733258Y-116201498D01*
X196600102Y-116290470D01*
X196452142Y-116351758D01*
X196295075Y-116383000D01*
X196134925Y-116383000D01*
X195977858Y-116351758D01*
X195829898Y-116290470D01*
X195696742Y-116201498D01*
X195583502Y-116088258D01*
X195494530Y-115955102D01*
X195433242Y-115807142D01*
X195402000Y-115650075D01*
X195402000Y-115489925D01*
X195433242Y-115332858D01*
X195494530Y-115184898D01*
X195583502Y-115051742D01*
X195696742Y-114938502D01*
X195829898Y-114849530D01*
X195977858Y-114788242D01*
X196134925Y-114757000D01*
X196295075Y-114757000D01*
X196452142Y-114788242D01*
X196452142Y-114788242D01*
G37*
G36*
X193912142Y-114788242D02*
X194060102Y-114849530D01*
X194193258Y-114938502D01*
X194306498Y-115051742D01*
X194395470Y-115184898D01*
X194456758Y-115332858D01*
X194488000Y-115489925D01*
X194488000Y-115650075D01*
X194456758Y-115807142D01*
X194395470Y-115955102D01*
X194306498Y-116088258D01*
X194193258Y-116201498D01*
X194060102Y-116290470D01*
X193912142Y-116351758D01*
X193755075Y-116383000D01*
X193594925Y-116383000D01*
X193437858Y-116351758D01*
X193289898Y-116290470D01*
X193156742Y-116201498D01*
X193043502Y-116088258D01*
X192954530Y-115955102D01*
X192893242Y-115807142D01*
X192862000Y-115650075D01*
X192862000Y-115489925D01*
X192893242Y-115332858D01*
X192954530Y-115184898D01*
X193043502Y-115051742D01*
X193156742Y-114938502D01*
X193289898Y-114849530D01*
X193437858Y-114788242D01*
X193594925Y-114757000D01*
X193755075Y-114757000D01*
X193912142Y-114788242D01*
X193912142Y-114788242D01*
G37*
G36*
X191372142Y-114788242D02*
X191520102Y-114849530D01*
X191653258Y-114938502D01*
X191766498Y-115051742D01*
X191855470Y-115184898D01*
X191916758Y-115332858D01*
X191948000Y-115489925D01*
X191948000Y-115650075D01*
X191916758Y-115807142D01*
X191855470Y-115955102D01*
X191766498Y-116088258D01*
X191653258Y-116201498D01*
X191520102Y-116290470D01*
X191372142Y-116351758D01*
X191215075Y-116383000D01*
X191054925Y-116383000D01*
X190897858Y-116351758D01*
X190749898Y-116290470D01*
X190616742Y-116201498D01*
X190503502Y-116088258D01*
X190414530Y-115955102D01*
X190353242Y-115807142D01*
X190322000Y-115650075D01*
X190322000Y-115489925D01*
X190353242Y-115332858D01*
X190414530Y-115184898D01*
X190503502Y-115051742D01*
X190616742Y-114938502D01*
X190749898Y-114849530D01*
X190897858Y-114788242D01*
X191054925Y-114757000D01*
X191215075Y-114757000D01*
X191372142Y-114788242D01*
X191372142Y-114788242D01*
G37*
G36*
X188832142Y-114788242D02*
X188980102Y-114849530D01*
X189113258Y-114938502D01*
X189226498Y-115051742D01*
X189315470Y-115184898D01*
X189376758Y-115332858D01*
X189408000Y-115489925D01*
X189408000Y-115650075D01*
X189376758Y-115807142D01*
X189315470Y-115955102D01*
X189226498Y-116088258D01*
X189113258Y-116201498D01*
X188980102Y-116290470D01*
X188832142Y-116351758D01*
X188675075Y-116383000D01*
X188514925Y-116383000D01*
X188357858Y-116351758D01*
X188209898Y-116290470D01*
X188076742Y-116201498D01*
X187963502Y-116088258D01*
X187874530Y-115955102D01*
X187813242Y-115807142D01*
X187782000Y-115650075D01*
X187782000Y-115489925D01*
X187813242Y-115332858D01*
X187874530Y-115184898D01*
X187963502Y-115051742D01*
X188076742Y-114938502D01*
X188209898Y-114849530D01*
X188357858Y-114788242D01*
X188514925Y-114757000D01*
X188675075Y-114757000D01*
X188832142Y-114788242D01*
X188832142Y-114788242D01*
G37*
G36*
X186292142Y-114788242D02*
X186440102Y-114849530D01*
X186573258Y-114938502D01*
X186686498Y-115051742D01*
X186775470Y-115184898D01*
X186836758Y-115332858D01*
X186868000Y-115489925D01*
X186868000Y-115650075D01*
X186836758Y-115807142D01*
X186775470Y-115955102D01*
X186686498Y-116088258D01*
X186573258Y-116201498D01*
X186440102Y-116290470D01*
X186292142Y-116351758D01*
X186135075Y-116383000D01*
X185974925Y-116383000D01*
X185817858Y-116351758D01*
X185669898Y-116290470D01*
X185536742Y-116201498D01*
X185423502Y-116088258D01*
X185334530Y-115955102D01*
X185273242Y-115807142D01*
X185242000Y-115650075D01*
X185242000Y-115489925D01*
X185273242Y-115332858D01*
X185334530Y-115184898D01*
X185423502Y-115051742D01*
X185536742Y-114938502D01*
X185669898Y-114849530D01*
X185817858Y-114788242D01*
X185974925Y-114757000D01*
X186135075Y-114757000D01*
X186292142Y-114788242D01*
X186292142Y-114788242D01*
G37*
G36*
X183752142Y-114788242D02*
X183900102Y-114849530D01*
X184033258Y-114938502D01*
X184146498Y-115051742D01*
X184235470Y-115184898D01*
X184296758Y-115332858D01*
X184328000Y-115489925D01*
X184328000Y-115650075D01*
X184296758Y-115807142D01*
X184235470Y-115955102D01*
X184146498Y-116088258D01*
X184033258Y-116201498D01*
X183900102Y-116290470D01*
X183752142Y-116351758D01*
X183595075Y-116383000D01*
X183434925Y-116383000D01*
X183277858Y-116351758D01*
X183129898Y-116290470D01*
X182996742Y-116201498D01*
X182883502Y-116088258D01*
X182794530Y-115955102D01*
X182733242Y-115807142D01*
X182702000Y-115650075D01*
X182702000Y-115489925D01*
X182733242Y-115332858D01*
X182794530Y-115184898D01*
X182883502Y-115051742D01*
X182996742Y-114938502D01*
X183129898Y-114849530D01*
X183277858Y-114788242D01*
X183434925Y-114757000D01*
X183595075Y-114757000D01*
X183752142Y-114788242D01*
X183752142Y-114788242D01*
G37*
G36*
X181212142Y-114788242D02*
X181360102Y-114849530D01*
X181493258Y-114938502D01*
X181606498Y-115051742D01*
X181695470Y-115184898D01*
X181756758Y-115332858D01*
X181788000Y-115489925D01*
X181788000Y-115650075D01*
X181756758Y-115807142D01*
X181695470Y-115955102D01*
X181606498Y-116088258D01*
X181493258Y-116201498D01*
X181360102Y-116290470D01*
X181212142Y-116351758D01*
X181055075Y-116383000D01*
X180894925Y-116383000D01*
X180737858Y-116351758D01*
X180589898Y-116290470D01*
X180456742Y-116201498D01*
X180343502Y-116088258D01*
X180254530Y-115955102D01*
X180193242Y-115807142D01*
X180162000Y-115650075D01*
X180162000Y-115489925D01*
X180193242Y-115332858D01*
X180254530Y-115184898D01*
X180343502Y-115051742D01*
X180456742Y-114938502D01*
X180589898Y-114849530D01*
X180737858Y-114788242D01*
X180894925Y-114757000D01*
X181055075Y-114757000D01*
X181212142Y-114788242D01*
X181212142Y-114788242D01*
G37*
G36*
X209152142Y-114788242D02*
X209300102Y-114849530D01*
X209433258Y-114938502D01*
X209546498Y-115051742D01*
X209635470Y-115184898D01*
X209696758Y-115332858D01*
X209728000Y-115489925D01*
X209728000Y-115650075D01*
X209696758Y-115807142D01*
X209635470Y-115955102D01*
X209546498Y-116088258D01*
X209433258Y-116201498D01*
X209300102Y-116290470D01*
X209152142Y-116351758D01*
X208995075Y-116383000D01*
X208834925Y-116383000D01*
X208677858Y-116351758D01*
X208529898Y-116290470D01*
X208396742Y-116201498D01*
X208283502Y-116088258D01*
X208194530Y-115955102D01*
X208133242Y-115807142D01*
X208102000Y-115650075D01*
X208102000Y-115489925D01*
X208133242Y-115332858D01*
X208194530Y-115184898D01*
X208283502Y-115051742D01*
X208396742Y-114938502D01*
X208529898Y-114849530D01*
X208677858Y-114788242D01*
X208834925Y-114757000D01*
X208995075Y-114757000D01*
X209152142Y-114788242D01*
X209152142Y-114788242D01*
G37*
G36*
X206612142Y-114788242D02*
X206760102Y-114849530D01*
X206893258Y-114938502D01*
X207006498Y-115051742D01*
X207095470Y-115184898D01*
X207156758Y-115332858D01*
X207188000Y-115489925D01*
X207188000Y-115650075D01*
X207156758Y-115807142D01*
X207095470Y-115955102D01*
X207006498Y-116088258D01*
X206893258Y-116201498D01*
X206760102Y-116290470D01*
X206612142Y-116351758D01*
X206455075Y-116383000D01*
X206294925Y-116383000D01*
X206137858Y-116351758D01*
X205989898Y-116290470D01*
X205856742Y-116201498D01*
X205743502Y-116088258D01*
X205654530Y-115955102D01*
X205593242Y-115807142D01*
X205562000Y-115650075D01*
X205562000Y-115489925D01*
X205593242Y-115332858D01*
X205654530Y-115184898D01*
X205743502Y-115051742D01*
X205856742Y-114938502D01*
X205989898Y-114849530D01*
X206137858Y-114788242D01*
X206294925Y-114757000D01*
X206455075Y-114757000D01*
X206612142Y-114788242D01*
X206612142Y-114788242D01*
G37*
G36*
X204072142Y-114788242D02*
X204220102Y-114849530D01*
X204353258Y-114938502D01*
X204466498Y-115051742D01*
X204555470Y-115184898D01*
X204616758Y-115332858D01*
X204648000Y-115489925D01*
X204648000Y-115650075D01*
X204616758Y-115807142D01*
X204555470Y-115955102D01*
X204466498Y-116088258D01*
X204353258Y-116201498D01*
X204220102Y-116290470D01*
X204072142Y-116351758D01*
X203915075Y-116383000D01*
X203754925Y-116383000D01*
X203597858Y-116351758D01*
X203449898Y-116290470D01*
X203316742Y-116201498D01*
X203203502Y-116088258D01*
X203114530Y-115955102D01*
X203053242Y-115807142D01*
X203022000Y-115650075D01*
X203022000Y-115489925D01*
X203053242Y-115332858D01*
X203114530Y-115184898D01*
X203203502Y-115051742D01*
X203316742Y-114938502D01*
X203449898Y-114849530D01*
X203597858Y-114788242D01*
X203754925Y-114757000D01*
X203915075Y-114757000D01*
X204072142Y-114788242D01*
X204072142Y-114788242D01*
G37*
G36*
X201532142Y-114788242D02*
X201680102Y-114849530D01*
X201813258Y-114938502D01*
X201926498Y-115051742D01*
X202015470Y-115184898D01*
X202076758Y-115332858D01*
X202108000Y-115489925D01*
X202108000Y-115650075D01*
X202076758Y-115807142D01*
X202015470Y-115955102D01*
X201926498Y-116088258D01*
X201813258Y-116201498D01*
X201680102Y-116290470D01*
X201532142Y-116351758D01*
X201375075Y-116383000D01*
X201214925Y-116383000D01*
X201057858Y-116351758D01*
X200909898Y-116290470D01*
X200776742Y-116201498D01*
X200663502Y-116088258D01*
X200574530Y-115955102D01*
X200513242Y-115807142D01*
X200482000Y-115650075D01*
X200482000Y-115489925D01*
X200513242Y-115332858D01*
X200574530Y-115184898D01*
X200663502Y-115051742D01*
X200776742Y-114938502D01*
X200909898Y-114849530D01*
X201057858Y-114788242D01*
X201214925Y-114757000D01*
X201375075Y-114757000D01*
X201532142Y-114788242D01*
X201532142Y-114788242D01*
G37*
G36*
X229472142Y-114788242D02*
X229620102Y-114849530D01*
X229753258Y-114938502D01*
X229866498Y-115051742D01*
X229955470Y-115184898D01*
X230016758Y-115332858D01*
X230048000Y-115489925D01*
X230048000Y-115650075D01*
X230016758Y-115807142D01*
X229955470Y-115955102D01*
X229866498Y-116088258D01*
X229753258Y-116201498D01*
X229620102Y-116290470D01*
X229472142Y-116351758D01*
X229315075Y-116383000D01*
X229154925Y-116383000D01*
X228997858Y-116351758D01*
X228849898Y-116290470D01*
X228716742Y-116201498D01*
X228603502Y-116088258D01*
X228514530Y-115955102D01*
X228453242Y-115807142D01*
X228422000Y-115650075D01*
X228422000Y-115489925D01*
X228453242Y-115332858D01*
X228514530Y-115184898D01*
X228603502Y-115051742D01*
X228716742Y-114938502D01*
X228849898Y-114849530D01*
X228997858Y-114788242D01*
X229154925Y-114757000D01*
X229315075Y-114757000D01*
X229472142Y-114788242D01*
X229472142Y-114788242D01*
G37*
G36*
X226932142Y-114788242D02*
X227080102Y-114849530D01*
X227213258Y-114938502D01*
X227326498Y-115051742D01*
X227415470Y-115184898D01*
X227476758Y-115332858D01*
X227508000Y-115489925D01*
X227508000Y-115650075D01*
X227476758Y-115807142D01*
X227415470Y-115955102D01*
X227326498Y-116088258D01*
X227213258Y-116201498D01*
X227080102Y-116290470D01*
X226932142Y-116351758D01*
X226775075Y-116383000D01*
X226614925Y-116383000D01*
X226457858Y-116351758D01*
X226309898Y-116290470D01*
X226176742Y-116201498D01*
X226063502Y-116088258D01*
X225974530Y-115955102D01*
X225913242Y-115807142D01*
X225882000Y-115650075D01*
X225882000Y-115489925D01*
X225913242Y-115332858D01*
X225974530Y-115184898D01*
X226063502Y-115051742D01*
X226176742Y-114938502D01*
X226309898Y-114849530D01*
X226457858Y-114788242D01*
X226614925Y-114757000D01*
X226775075Y-114757000D01*
X226932142Y-114788242D01*
X226932142Y-114788242D01*
G37*
G36*
X224392142Y-114788242D02*
X224540102Y-114849530D01*
X224673258Y-114938502D01*
X224786498Y-115051742D01*
X224875470Y-115184898D01*
X224936758Y-115332858D01*
X224968000Y-115489925D01*
X224968000Y-115650075D01*
X224936758Y-115807142D01*
X224875470Y-115955102D01*
X224786498Y-116088258D01*
X224673258Y-116201498D01*
X224540102Y-116290470D01*
X224392142Y-116351758D01*
X224235075Y-116383000D01*
X224074925Y-116383000D01*
X223917858Y-116351758D01*
X223769898Y-116290470D01*
X223636742Y-116201498D01*
X223523502Y-116088258D01*
X223434530Y-115955102D01*
X223373242Y-115807142D01*
X223342000Y-115650075D01*
X223342000Y-115489925D01*
X223373242Y-115332858D01*
X223434530Y-115184898D01*
X223523502Y-115051742D01*
X223636742Y-114938502D01*
X223769898Y-114849530D01*
X223917858Y-114788242D01*
X224074925Y-114757000D01*
X224235075Y-114757000D01*
X224392142Y-114788242D01*
X224392142Y-114788242D01*
G37*
G36*
X221852142Y-114788242D02*
X222000102Y-114849530D01*
X222133258Y-114938502D01*
X222246498Y-115051742D01*
X222335470Y-115184898D01*
X222396758Y-115332858D01*
X222428000Y-115489925D01*
X222428000Y-115650075D01*
X222396758Y-115807142D01*
X222335470Y-115955102D01*
X222246498Y-116088258D01*
X222133258Y-116201498D01*
X222000102Y-116290470D01*
X221852142Y-116351758D01*
X221695075Y-116383000D01*
X221534925Y-116383000D01*
X221377858Y-116351758D01*
X221229898Y-116290470D01*
X221096742Y-116201498D01*
X220983502Y-116088258D01*
X220894530Y-115955102D01*
X220833242Y-115807142D01*
X220802000Y-115650075D01*
X220802000Y-115489925D01*
X220833242Y-115332858D01*
X220894530Y-115184898D01*
X220983502Y-115051742D01*
X221096742Y-114938502D01*
X221229898Y-114849530D01*
X221377858Y-114788242D01*
X221534925Y-114757000D01*
X221695075Y-114757000D01*
X221852142Y-114788242D01*
X221852142Y-114788242D01*
G37*
G36*
X219312142Y-114788242D02*
X219460102Y-114849530D01*
X219593258Y-114938502D01*
X219706498Y-115051742D01*
X219795470Y-115184898D01*
X219856758Y-115332858D01*
X219888000Y-115489925D01*
X219888000Y-115650075D01*
X219856758Y-115807142D01*
X219795470Y-115955102D01*
X219706498Y-116088258D01*
X219593258Y-116201498D01*
X219460102Y-116290470D01*
X219312142Y-116351758D01*
X219155075Y-116383000D01*
X218994925Y-116383000D01*
X218837858Y-116351758D01*
X218689898Y-116290470D01*
X218556742Y-116201498D01*
X218443502Y-116088258D01*
X218354530Y-115955102D01*
X218293242Y-115807142D01*
X218262000Y-115650075D01*
X218262000Y-115489925D01*
X218293242Y-115332858D01*
X218354530Y-115184898D01*
X218443502Y-115051742D01*
X218556742Y-114938502D01*
X218689898Y-114849530D01*
X218837858Y-114788242D01*
X218994925Y-114757000D01*
X219155075Y-114757000D01*
X219312142Y-114788242D01*
X219312142Y-114788242D01*
G37*
G36*
X216772142Y-114788242D02*
X216920102Y-114849530D01*
X217053258Y-114938502D01*
X217166498Y-115051742D01*
X217255470Y-115184898D01*
X217316758Y-115332858D01*
X217348000Y-115489925D01*
X217348000Y-115650075D01*
X217316758Y-115807142D01*
X217255470Y-115955102D01*
X217166498Y-116088258D01*
X217053258Y-116201498D01*
X216920102Y-116290470D01*
X216772142Y-116351758D01*
X216615075Y-116383000D01*
X216454925Y-116383000D01*
X216297858Y-116351758D01*
X216149898Y-116290470D01*
X216016742Y-116201498D01*
X215903502Y-116088258D01*
X215814530Y-115955102D01*
X215753242Y-115807142D01*
X215722000Y-115650075D01*
X215722000Y-115489925D01*
X215753242Y-115332858D01*
X215814530Y-115184898D01*
X215903502Y-115051742D01*
X216016742Y-114938502D01*
X216149898Y-114849530D01*
X216297858Y-114788242D01*
X216454925Y-114757000D01*
X216615075Y-114757000D01*
X216772142Y-114788242D01*
X216772142Y-114788242D01*
G37*
G36*
X214232142Y-114788242D02*
X214380102Y-114849530D01*
X214513258Y-114938502D01*
X214626498Y-115051742D01*
X214715470Y-115184898D01*
X214776758Y-115332858D01*
X214808000Y-115489925D01*
X214808000Y-115650075D01*
X214776758Y-115807142D01*
X214715470Y-115955102D01*
X214626498Y-116088258D01*
X214513258Y-116201498D01*
X214380102Y-116290470D01*
X214232142Y-116351758D01*
X214075075Y-116383000D01*
X213914925Y-116383000D01*
X213757858Y-116351758D01*
X213609898Y-116290470D01*
X213476742Y-116201498D01*
X213363502Y-116088258D01*
X213274530Y-115955102D01*
X213213242Y-115807142D01*
X213182000Y-115650075D01*
X213182000Y-115489925D01*
X213213242Y-115332858D01*
X213274530Y-115184898D01*
X213363502Y-115051742D01*
X213476742Y-114938502D01*
X213609898Y-114849530D01*
X213757858Y-114788242D01*
X213914925Y-114757000D01*
X214075075Y-114757000D01*
X214232142Y-114788242D01*
X214232142Y-114788242D01*
G37*
G36*
X211692142Y-114788242D02*
X211840102Y-114849530D01*
X211973258Y-114938502D01*
X212086498Y-115051742D01*
X212175470Y-115184898D01*
X212236758Y-115332858D01*
X212268000Y-115489925D01*
X212268000Y-115650075D01*
X212236758Y-115807142D01*
X212175470Y-115955102D01*
X212086498Y-116088258D01*
X211973258Y-116201498D01*
X211840102Y-116290470D01*
X211692142Y-116351758D01*
X211535075Y-116383000D01*
X211374925Y-116383000D01*
X211217858Y-116351758D01*
X211069898Y-116290470D01*
X210936742Y-116201498D01*
X210823502Y-116088258D01*
X210734530Y-115955102D01*
X210673242Y-115807142D01*
X210642000Y-115650075D01*
X210642000Y-115489925D01*
X210673242Y-115332858D01*
X210734530Y-115184898D01*
X210823502Y-115051742D01*
X210936742Y-114938502D01*
X211069898Y-114849530D01*
X211217858Y-114788242D01*
X211374925Y-114757000D01*
X211535075Y-114757000D01*
X211692142Y-114788242D01*
X211692142Y-114788242D01*
G37*
G36*
X183752142Y-99548242D02*
X183900102Y-99609530D01*
X184033258Y-99698502D01*
X184146498Y-99811742D01*
X184235470Y-99944898D01*
X184296758Y-100092858D01*
X184328000Y-100249925D01*
X184328000Y-100410075D01*
X184296758Y-100567142D01*
X184235470Y-100715102D01*
X184146498Y-100848258D01*
X184033258Y-100961498D01*
X183900102Y-101050470D01*
X183752142Y-101111758D01*
X183595075Y-101143000D01*
X183434925Y-101143000D01*
X183277858Y-101111758D01*
X183129898Y-101050470D01*
X182996742Y-100961498D01*
X182883502Y-100848258D01*
X182794530Y-100715102D01*
X182733242Y-100567142D01*
X182702000Y-100410075D01*
X182702000Y-100249925D01*
X182733242Y-100092858D01*
X182794530Y-99944898D01*
X182883502Y-99811742D01*
X182996742Y-99698502D01*
X183129898Y-99609530D01*
X183277858Y-99548242D01*
X183434925Y-99517000D01*
X183595075Y-99517000D01*
X183752142Y-99548242D01*
X183752142Y-99548242D01*
G37*
G36*
X229472142Y-99548242D02*
X229620102Y-99609530D01*
X229753258Y-99698502D01*
X229866498Y-99811742D01*
X229955470Y-99944898D01*
X230016758Y-100092858D01*
X230048000Y-100249925D01*
X230048000Y-100410075D01*
X230016758Y-100567142D01*
X229955470Y-100715102D01*
X229866498Y-100848258D01*
X229753258Y-100961498D01*
X229620102Y-101050470D01*
X229472142Y-101111758D01*
X229315075Y-101143000D01*
X229154925Y-101143000D01*
X228997858Y-101111758D01*
X228849898Y-101050470D01*
X228716742Y-100961498D01*
X228603502Y-100848258D01*
X228514530Y-100715102D01*
X228453242Y-100567142D01*
X228422000Y-100410075D01*
X228422000Y-100249925D01*
X228453242Y-100092858D01*
X228514530Y-99944898D01*
X228603502Y-99811742D01*
X228716742Y-99698502D01*
X228849898Y-99609530D01*
X228997858Y-99548242D01*
X229154925Y-99517000D01*
X229315075Y-99517000D01*
X229472142Y-99548242D01*
X229472142Y-99548242D01*
G37*
G36*
X186292142Y-99548242D02*
X186440102Y-99609530D01*
X186573258Y-99698502D01*
X186686498Y-99811742D01*
X186775470Y-99944898D01*
X186836758Y-100092858D01*
X186868000Y-100249925D01*
X186868000Y-100410075D01*
X186836758Y-100567142D01*
X186775470Y-100715102D01*
X186686498Y-100848258D01*
X186573258Y-100961498D01*
X186440102Y-101050470D01*
X186292142Y-101111758D01*
X186135075Y-101143000D01*
X185974925Y-101143000D01*
X185817858Y-101111758D01*
X185669898Y-101050470D01*
X185536742Y-100961498D01*
X185423502Y-100848258D01*
X185334530Y-100715102D01*
X185273242Y-100567142D01*
X185242000Y-100410075D01*
X185242000Y-100249925D01*
X185273242Y-100092858D01*
X185334530Y-99944898D01*
X185423502Y-99811742D01*
X185536742Y-99698502D01*
X185669898Y-99609530D01*
X185817858Y-99548242D01*
X185974925Y-99517000D01*
X186135075Y-99517000D01*
X186292142Y-99548242D01*
X186292142Y-99548242D01*
G37*
G36*
X191372142Y-99548242D02*
X191520102Y-99609530D01*
X191653258Y-99698502D01*
X191766498Y-99811742D01*
X191855470Y-99944898D01*
X191916758Y-100092858D01*
X191948000Y-100249925D01*
X191948000Y-100410075D01*
X191916758Y-100567142D01*
X191855470Y-100715102D01*
X191766498Y-100848258D01*
X191653258Y-100961498D01*
X191520102Y-101050470D01*
X191372142Y-101111758D01*
X191215075Y-101143000D01*
X191054925Y-101143000D01*
X190897858Y-101111758D01*
X190749898Y-101050470D01*
X190616742Y-100961498D01*
X190503502Y-100848258D01*
X190414530Y-100715102D01*
X190353242Y-100567142D01*
X190322000Y-100410075D01*
X190322000Y-100249925D01*
X190353242Y-100092858D01*
X190414530Y-99944898D01*
X190503502Y-99811742D01*
X190616742Y-99698502D01*
X190749898Y-99609530D01*
X190897858Y-99548242D01*
X191054925Y-99517000D01*
X191215075Y-99517000D01*
X191372142Y-99548242D01*
X191372142Y-99548242D01*
G37*
G36*
X188832142Y-99548242D02*
X188980102Y-99609530D01*
X189113258Y-99698502D01*
X189226498Y-99811742D01*
X189315470Y-99944898D01*
X189376758Y-100092858D01*
X189408000Y-100249925D01*
X189408000Y-100410075D01*
X189376758Y-100567142D01*
X189315470Y-100715102D01*
X189226498Y-100848258D01*
X189113258Y-100961498D01*
X188980102Y-101050470D01*
X188832142Y-101111758D01*
X188675075Y-101143000D01*
X188514925Y-101143000D01*
X188357858Y-101111758D01*
X188209898Y-101050470D01*
X188076742Y-100961498D01*
X187963502Y-100848258D01*
X187874530Y-100715102D01*
X187813242Y-100567142D01*
X187782000Y-100410075D01*
X187782000Y-100249925D01*
X187813242Y-100092858D01*
X187874530Y-99944898D01*
X187963502Y-99811742D01*
X188076742Y-99698502D01*
X188209898Y-99609530D01*
X188357858Y-99548242D01*
X188514925Y-99517000D01*
X188675075Y-99517000D01*
X188832142Y-99548242D01*
X188832142Y-99548242D01*
G37*
G36*
X219312142Y-99548242D02*
X219460102Y-99609530D01*
X219593258Y-99698502D01*
X219706498Y-99811742D01*
X219795470Y-99944898D01*
X219856758Y-100092858D01*
X219888000Y-100249925D01*
X219888000Y-100410075D01*
X219856758Y-100567142D01*
X219795470Y-100715102D01*
X219706498Y-100848258D01*
X219593258Y-100961498D01*
X219460102Y-101050470D01*
X219312142Y-101111758D01*
X219155075Y-101143000D01*
X218994925Y-101143000D01*
X218837858Y-101111758D01*
X218689898Y-101050470D01*
X218556742Y-100961498D01*
X218443502Y-100848258D01*
X218354530Y-100715102D01*
X218293242Y-100567142D01*
X218262000Y-100410075D01*
X218262000Y-100249925D01*
X218293242Y-100092858D01*
X218354530Y-99944898D01*
X218443502Y-99811742D01*
X218556742Y-99698502D01*
X218689898Y-99609530D01*
X218837858Y-99548242D01*
X218994925Y-99517000D01*
X219155075Y-99517000D01*
X219312142Y-99548242D01*
X219312142Y-99548242D01*
G37*
G36*
X201532142Y-99548242D02*
X201680102Y-99609530D01*
X201813258Y-99698502D01*
X201926498Y-99811742D01*
X202015470Y-99944898D01*
X202076758Y-100092858D01*
X202108000Y-100249925D01*
X202108000Y-100410075D01*
X202076758Y-100567142D01*
X202015470Y-100715102D01*
X201926498Y-100848258D01*
X201813258Y-100961498D01*
X201680102Y-101050470D01*
X201532142Y-101111758D01*
X201375075Y-101143000D01*
X201214925Y-101143000D01*
X201057858Y-101111758D01*
X200909898Y-101050470D01*
X200776742Y-100961498D01*
X200663502Y-100848258D01*
X200574530Y-100715102D01*
X200513242Y-100567142D01*
X200482000Y-100410075D01*
X200482000Y-100249925D01*
X200513242Y-100092858D01*
X200574530Y-99944898D01*
X200663502Y-99811742D01*
X200776742Y-99698502D01*
X200909898Y-99609530D01*
X201057858Y-99548242D01*
X201214925Y-99517000D01*
X201375075Y-99517000D01*
X201532142Y-99548242D01*
X201532142Y-99548242D01*
G37*
G36*
X198992142Y-99548242D02*
X199140102Y-99609530D01*
X199273258Y-99698502D01*
X199386498Y-99811742D01*
X199475470Y-99944898D01*
X199536758Y-100092858D01*
X199568000Y-100249925D01*
X199568000Y-100410075D01*
X199536758Y-100567142D01*
X199475470Y-100715102D01*
X199386498Y-100848258D01*
X199273258Y-100961498D01*
X199140102Y-101050470D01*
X198992142Y-101111758D01*
X198835075Y-101143000D01*
X198674925Y-101143000D01*
X198517858Y-101111758D01*
X198369898Y-101050470D01*
X198236742Y-100961498D01*
X198123502Y-100848258D01*
X198034530Y-100715102D01*
X197973242Y-100567142D01*
X197942000Y-100410075D01*
X197942000Y-100249925D01*
X197973242Y-100092858D01*
X198034530Y-99944898D01*
X198123502Y-99811742D01*
X198236742Y-99698502D01*
X198369898Y-99609530D01*
X198517858Y-99548242D01*
X198674925Y-99517000D01*
X198835075Y-99517000D01*
X198992142Y-99548242D01*
X198992142Y-99548242D01*
G37*
G36*
X226932142Y-99548242D02*
X227080102Y-99609530D01*
X227213258Y-99698502D01*
X227326498Y-99811742D01*
X227415470Y-99944898D01*
X227476758Y-100092858D01*
X227508000Y-100249925D01*
X227508000Y-100410075D01*
X227476758Y-100567142D01*
X227415470Y-100715102D01*
X227326498Y-100848258D01*
X227213258Y-100961498D01*
X227080102Y-101050470D01*
X226932142Y-101111758D01*
X226775075Y-101143000D01*
X226614925Y-101143000D01*
X226457858Y-101111758D01*
X226309898Y-101050470D01*
X226176742Y-100961498D01*
X226063502Y-100848258D01*
X225974530Y-100715102D01*
X225913242Y-100567142D01*
X225882000Y-100410075D01*
X225882000Y-100249925D01*
X225913242Y-100092858D01*
X225974530Y-99944898D01*
X226063502Y-99811742D01*
X226176742Y-99698502D01*
X226309898Y-99609530D01*
X226457858Y-99548242D01*
X226614925Y-99517000D01*
X226775075Y-99517000D01*
X226932142Y-99548242D01*
X226932142Y-99548242D01*
G37*
G36*
X221852142Y-99548242D02*
X222000102Y-99609530D01*
X222133258Y-99698502D01*
X222246498Y-99811742D01*
X222335470Y-99944898D01*
X222396758Y-100092858D01*
X222428000Y-100249925D01*
X222428000Y-100410075D01*
X222396758Y-100567142D01*
X222335470Y-100715102D01*
X222246498Y-100848258D01*
X222133258Y-100961498D01*
X222000102Y-101050470D01*
X221852142Y-101111758D01*
X221695075Y-101143000D01*
X221534925Y-101143000D01*
X221377858Y-101111758D01*
X221229898Y-101050470D01*
X221096742Y-100961498D01*
X220983502Y-100848258D01*
X220894530Y-100715102D01*
X220833242Y-100567142D01*
X220802000Y-100410075D01*
X220802000Y-100249925D01*
X220833242Y-100092858D01*
X220894530Y-99944898D01*
X220983502Y-99811742D01*
X221096742Y-99698502D01*
X221229898Y-99609530D01*
X221377858Y-99548242D01*
X221534925Y-99517000D01*
X221695075Y-99517000D01*
X221852142Y-99548242D01*
X221852142Y-99548242D01*
G37*
G36*
X216772142Y-99548242D02*
X216920102Y-99609530D01*
X217053258Y-99698502D01*
X217166498Y-99811742D01*
X217255470Y-99944898D01*
X217316758Y-100092858D01*
X217348000Y-100249925D01*
X217348000Y-100410075D01*
X217316758Y-100567142D01*
X217255470Y-100715102D01*
X217166498Y-100848258D01*
X217053258Y-100961498D01*
X216920102Y-101050470D01*
X216772142Y-101111758D01*
X216615075Y-101143000D01*
X216454925Y-101143000D01*
X216297858Y-101111758D01*
X216149898Y-101050470D01*
X216016742Y-100961498D01*
X215903502Y-100848258D01*
X215814530Y-100715102D01*
X215753242Y-100567142D01*
X215722000Y-100410075D01*
X215722000Y-100249925D01*
X215753242Y-100092858D01*
X215814530Y-99944898D01*
X215903502Y-99811742D01*
X216016742Y-99698502D01*
X216149898Y-99609530D01*
X216297858Y-99548242D01*
X216454925Y-99517000D01*
X216615075Y-99517000D01*
X216772142Y-99548242D01*
X216772142Y-99548242D01*
G37*
G36*
X206612142Y-99548242D02*
X206760102Y-99609530D01*
X206893258Y-99698502D01*
X207006498Y-99811742D01*
X207095470Y-99944898D01*
X207156758Y-100092858D01*
X207188000Y-100249925D01*
X207188000Y-100410075D01*
X207156758Y-100567142D01*
X207095470Y-100715102D01*
X207006498Y-100848258D01*
X206893258Y-100961498D01*
X206760102Y-101050470D01*
X206612142Y-101111758D01*
X206455075Y-101143000D01*
X206294925Y-101143000D01*
X206137858Y-101111758D01*
X205989898Y-101050470D01*
X205856742Y-100961498D01*
X205743502Y-100848258D01*
X205654530Y-100715102D01*
X205593242Y-100567142D01*
X205562000Y-100410075D01*
X205562000Y-100249925D01*
X205593242Y-100092858D01*
X205654530Y-99944898D01*
X205743502Y-99811742D01*
X205856742Y-99698502D01*
X205989898Y-99609530D01*
X206137858Y-99548242D01*
X206294925Y-99517000D01*
X206455075Y-99517000D01*
X206612142Y-99548242D01*
X206612142Y-99548242D01*
G37*
G36*
X209152142Y-99548242D02*
X209300102Y-99609530D01*
X209433258Y-99698502D01*
X209546498Y-99811742D01*
X209635470Y-99944898D01*
X209696758Y-100092858D01*
X209728000Y-100249925D01*
X209728000Y-100410075D01*
X209696758Y-100567142D01*
X209635470Y-100715102D01*
X209546498Y-100848258D01*
X209433258Y-100961498D01*
X209300102Y-101050470D01*
X209152142Y-101111758D01*
X208995075Y-101143000D01*
X208834925Y-101143000D01*
X208677858Y-101111758D01*
X208529898Y-101050470D01*
X208396742Y-100961498D01*
X208283502Y-100848258D01*
X208194530Y-100715102D01*
X208133242Y-100567142D01*
X208102000Y-100410075D01*
X208102000Y-100249925D01*
X208133242Y-100092858D01*
X208194530Y-99944898D01*
X208283502Y-99811742D01*
X208396742Y-99698502D01*
X208529898Y-99609530D01*
X208677858Y-99548242D01*
X208834925Y-99517000D01*
X208995075Y-99517000D01*
X209152142Y-99548242D01*
X209152142Y-99548242D01*
G37*
G36*
X214232142Y-99548242D02*
X214380102Y-99609530D01*
X214513258Y-99698502D01*
X214626498Y-99811742D01*
X214715470Y-99944898D01*
X214776758Y-100092858D01*
X214808000Y-100249925D01*
X214808000Y-100410075D01*
X214776758Y-100567142D01*
X214715470Y-100715102D01*
X214626498Y-100848258D01*
X214513258Y-100961498D01*
X214380102Y-101050470D01*
X214232142Y-101111758D01*
X214075075Y-101143000D01*
X213914925Y-101143000D01*
X213757858Y-101111758D01*
X213609898Y-101050470D01*
X213476742Y-100961498D01*
X213363502Y-100848258D01*
X213274530Y-100715102D01*
X213213242Y-100567142D01*
X213182000Y-100410075D01*
X213182000Y-100249925D01*
X213213242Y-100092858D01*
X213274530Y-99944898D01*
X213363502Y-99811742D01*
X213476742Y-99698502D01*
X213609898Y-99609530D01*
X213757858Y-99548242D01*
X213914925Y-99517000D01*
X214075075Y-99517000D01*
X214232142Y-99548242D01*
X214232142Y-99548242D01*
G37*
G36*
X211692142Y-99548242D02*
X211840102Y-99609530D01*
X211973258Y-99698502D01*
X212086498Y-99811742D01*
X212175470Y-99944898D01*
X212236758Y-100092858D01*
X212268000Y-100249925D01*
X212268000Y-100410075D01*
X212236758Y-100567142D01*
X212175470Y-100715102D01*
X212086498Y-100848258D01*
X211973258Y-100961498D01*
X211840102Y-101050470D01*
X211692142Y-101111758D01*
X211535075Y-101143000D01*
X211374925Y-101143000D01*
X211217858Y-101111758D01*
X211069898Y-101050470D01*
X210936742Y-100961498D01*
X210823502Y-100848258D01*
X210734530Y-100715102D01*
X210673242Y-100567142D01*
X210642000Y-100410075D01*
X210642000Y-100249925D01*
X210673242Y-100092858D01*
X210734530Y-99944898D01*
X210823502Y-99811742D01*
X210936742Y-99698502D01*
X211069898Y-99609530D01*
X211217858Y-99548242D01*
X211374925Y-99517000D01*
X211535075Y-99517000D01*
X211692142Y-99548242D01*
X211692142Y-99548242D01*
G37*
G36*
X224392142Y-99548242D02*
X224540102Y-99609530D01*
X224673258Y-99698502D01*
X224786498Y-99811742D01*
X224875470Y-99944898D01*
X224936758Y-100092858D01*
X224968000Y-100249925D01*
X224968000Y-100410075D01*
X224936758Y-100567142D01*
X224875470Y-100715102D01*
X224786498Y-100848258D01*
X224673258Y-100961498D01*
X224540102Y-101050470D01*
X224392142Y-101111758D01*
X224235075Y-101143000D01*
X224074925Y-101143000D01*
X223917858Y-101111758D01*
X223769898Y-101050470D01*
X223636742Y-100961498D01*
X223523502Y-100848258D01*
X223434530Y-100715102D01*
X223373242Y-100567142D01*
X223342000Y-100410075D01*
X223342000Y-100249925D01*
X223373242Y-100092858D01*
X223434530Y-99944898D01*
X223523502Y-99811742D01*
X223636742Y-99698502D01*
X223769898Y-99609530D01*
X223917858Y-99548242D01*
X224074925Y-99517000D01*
X224235075Y-99517000D01*
X224392142Y-99548242D01*
X224392142Y-99548242D01*
G37*
G36*
X196452142Y-99548242D02*
X196600102Y-99609530D01*
X196733258Y-99698502D01*
X196846498Y-99811742D01*
X196935470Y-99944898D01*
X196996758Y-100092858D01*
X197028000Y-100249925D01*
X197028000Y-100410075D01*
X196996758Y-100567142D01*
X196935470Y-100715102D01*
X196846498Y-100848258D01*
X196733258Y-100961498D01*
X196600102Y-101050470D01*
X196452142Y-101111758D01*
X196295075Y-101143000D01*
X196134925Y-101143000D01*
X195977858Y-101111758D01*
X195829898Y-101050470D01*
X195696742Y-100961498D01*
X195583502Y-100848258D01*
X195494530Y-100715102D01*
X195433242Y-100567142D01*
X195402000Y-100410075D01*
X195402000Y-100249925D01*
X195433242Y-100092858D01*
X195494530Y-99944898D01*
X195583502Y-99811742D01*
X195696742Y-99698502D01*
X195829898Y-99609530D01*
X195977858Y-99548242D01*
X196134925Y-99517000D01*
X196295075Y-99517000D01*
X196452142Y-99548242D01*
X196452142Y-99548242D01*
G37*
G36*
X193912142Y-99548242D02*
X194060102Y-99609530D01*
X194193258Y-99698502D01*
X194306498Y-99811742D01*
X194395470Y-99944898D01*
X194456758Y-100092858D01*
X194488000Y-100249925D01*
X194488000Y-100410075D01*
X194456758Y-100567142D01*
X194395470Y-100715102D01*
X194306498Y-100848258D01*
X194193258Y-100961498D01*
X194060102Y-101050470D01*
X193912142Y-101111758D01*
X193755075Y-101143000D01*
X193594925Y-101143000D01*
X193437858Y-101111758D01*
X193289898Y-101050470D01*
X193156742Y-100961498D01*
X193043502Y-100848258D01*
X192954530Y-100715102D01*
X192893242Y-100567142D01*
X192862000Y-100410075D01*
X192862000Y-100249925D01*
X192893242Y-100092858D01*
X192954530Y-99944898D01*
X193043502Y-99811742D01*
X193156742Y-99698502D01*
X193289898Y-99609530D01*
X193437858Y-99548242D01*
X193594925Y-99517000D01*
X193755075Y-99517000D01*
X193912142Y-99548242D01*
X193912142Y-99548242D01*
G37*
G36*
X181212142Y-99548242D02*
X181360102Y-99609530D01*
X181493258Y-99698502D01*
X181606498Y-99811742D01*
X181695470Y-99944898D01*
X181756758Y-100092858D01*
X181788000Y-100249925D01*
X181788000Y-100410075D01*
X181756758Y-100567142D01*
X181695470Y-100715102D01*
X181606498Y-100848258D01*
X181493258Y-100961498D01*
X181360102Y-101050470D01*
X181212142Y-101111758D01*
X181055075Y-101143000D01*
X180894925Y-101143000D01*
X180737858Y-101111758D01*
X180589898Y-101050470D01*
X180456742Y-100961498D01*
X180343502Y-100848258D01*
X180254530Y-100715102D01*
X180193242Y-100567142D01*
X180162000Y-100410075D01*
X180162000Y-100249925D01*
X180193242Y-100092858D01*
X180254530Y-99944898D01*
X180343502Y-99811742D01*
X180456742Y-99698502D01*
X180589898Y-99609530D01*
X180737858Y-99548242D01*
X180894925Y-99517000D01*
X181055075Y-99517000D01*
X181212142Y-99548242D01*
X181212142Y-99548242D01*
G37*
G36*
X204072142Y-99548242D02*
X204220102Y-99609530D01*
X204353258Y-99698502D01*
X204466498Y-99811742D01*
X204555470Y-99944898D01*
X204616758Y-100092858D01*
X204648000Y-100249925D01*
X204648000Y-100410075D01*
X204616758Y-100567142D01*
X204555470Y-100715102D01*
X204466498Y-100848258D01*
X204353258Y-100961498D01*
X204220102Y-101050470D01*
X204072142Y-101111758D01*
X203915075Y-101143000D01*
X203754925Y-101143000D01*
X203597858Y-101111758D01*
X203449898Y-101050470D01*
X203316742Y-100961498D01*
X203203502Y-100848258D01*
X203114530Y-100715102D01*
X203053242Y-100567142D01*
X203022000Y-100410075D01*
X203022000Y-100249925D01*
X203053242Y-100092858D01*
X203114530Y-99944898D01*
X203203502Y-99811742D01*
X203316742Y-99698502D01*
X203449898Y-99609530D01*
X203597858Y-99548242D01*
X203754925Y-99517000D01*
X203915075Y-99517000D01*
X204072142Y-99548242D01*
X204072142Y-99548242D01*
G37*
G36*
X202096821Y-92506313D02*
X202096824Y-92506314D01*
X202096825Y-92506314D01*
X202257239Y-92554975D01*
X202257241Y-92554976D01*
X202257244Y-92554977D01*
X202405078Y-92633995D01*
X202534659Y-92740341D01*
X202641005Y-92869922D01*
X202720023Y-93017756D01*
X202720024Y-93017759D01*
X202720025Y-93017761D01*
X202767166Y-93173164D01*
X202768687Y-93178179D01*
X202785117Y-93345000D01*
X202768687Y-93511821D01*
X202768686Y-93511824D01*
X202768686Y-93511825D01*
X202727609Y-93647239D01*
X202720023Y-93672244D01*
X202641005Y-93820078D01*
X202534659Y-93949659D01*
X202405078Y-94056005D01*
X202257244Y-94135023D01*
X202257241Y-94135024D01*
X202257239Y-94135025D01*
X202096825Y-94183686D01*
X202096824Y-94183686D01*
X202096821Y-94183687D01*
X201971804Y-94196000D01*
X201888196Y-94196000D01*
X201763179Y-94183687D01*
X201763176Y-94183686D01*
X201763175Y-94183686D01*
X201602761Y-94135025D01*
X201602759Y-94135024D01*
X201602756Y-94135023D01*
X201454922Y-94056005D01*
X201325341Y-93949659D01*
X201218995Y-93820078D01*
X201139977Y-93672244D01*
X201132392Y-93647239D01*
X201091314Y-93511825D01*
X201091314Y-93511824D01*
X201091313Y-93511821D01*
X201074883Y-93345000D01*
X201091313Y-93178179D01*
X201092834Y-93173164D01*
X201139975Y-93017761D01*
X201139976Y-93017759D01*
X201139977Y-93017756D01*
X201218995Y-92869922D01*
X201325341Y-92740341D01*
X201454922Y-92633995D01*
X201602756Y-92554977D01*
X201602759Y-92554976D01*
X201602761Y-92554975D01*
X201763175Y-92506314D01*
X201763176Y-92506314D01*
X201763179Y-92506313D01*
X201888196Y-92494000D01*
X201971804Y-92494000D01*
X202096821Y-92506313D01*
X202096821Y-92506313D01*
G37*
G36*
X194558228Y-92526703D02*
X194713100Y-92590853D01*
X194852481Y-92683985D01*
X194971015Y-92802519D01*
X195064147Y-92941900D01*
X195128297Y-93096772D01*
X195161000Y-93261184D01*
X195161000Y-93428816D01*
X195128297Y-93593228D01*
X195064147Y-93748100D01*
X194971015Y-93887481D01*
X194852481Y-94006015D01*
X194713100Y-94099147D01*
X194558228Y-94163297D01*
X194393816Y-94196000D01*
X194226184Y-94196000D01*
X194061772Y-94163297D01*
X193906900Y-94099147D01*
X193767519Y-94006015D01*
X193648985Y-93887481D01*
X193555853Y-93748100D01*
X193491703Y-93593228D01*
X193459000Y-93428816D01*
X193459000Y-93261184D01*
X193491703Y-93096772D01*
X193555853Y-92941900D01*
X193648985Y-92802519D01*
X193767519Y-92683985D01*
X193906900Y-92590853D01*
X194061772Y-92526703D01*
X194226184Y-92494000D01*
X194393816Y-92494000D01*
X194558228Y-92526703D01*
X194558228Y-92526703D01*
G37*
G36*
X191383228Y-92526703D02*
X191538100Y-92590853D01*
X191677481Y-92683985D01*
X191796015Y-92802519D01*
X191889147Y-92941900D01*
X191953297Y-93096772D01*
X191986000Y-93261184D01*
X191986000Y-93428816D01*
X191953297Y-93593228D01*
X191889147Y-93748100D01*
X191796015Y-93887481D01*
X191677481Y-94006015D01*
X191538100Y-94099147D01*
X191383228Y-94163297D01*
X191218816Y-94196000D01*
X191051184Y-94196000D01*
X190886772Y-94163297D01*
X190731900Y-94099147D01*
X190592519Y-94006015D01*
X190473985Y-93887481D01*
X190380853Y-93748100D01*
X190316703Y-93593228D01*
X190284000Y-93428816D01*
X190284000Y-93261184D01*
X190316703Y-93096772D01*
X190380853Y-92941900D01*
X190473985Y-92802519D01*
X190592519Y-92683985D01*
X190731900Y-92590853D01*
X190886772Y-92526703D01*
X191051184Y-92494000D01*
X191218816Y-92494000D01*
X191383228Y-92526703D01*
X191383228Y-92526703D01*
G37*
G36*
X188883228Y-92526703D02*
X189038100Y-92590853D01*
X189177481Y-92683985D01*
X189296015Y-92802519D01*
X189389147Y-92941900D01*
X189453297Y-93096772D01*
X189486000Y-93261184D01*
X189486000Y-93428816D01*
X189453297Y-93593228D01*
X189389147Y-93748100D01*
X189296015Y-93887481D01*
X189177481Y-94006015D01*
X189038100Y-94099147D01*
X188883228Y-94163297D01*
X188718816Y-94196000D01*
X188551184Y-94196000D01*
X188386772Y-94163297D01*
X188231900Y-94099147D01*
X188092519Y-94006015D01*
X187973985Y-93887481D01*
X187880853Y-93748100D01*
X187816703Y-93593228D01*
X187784000Y-93428816D01*
X187784000Y-93261184D01*
X187816703Y-93096772D01*
X187880853Y-92941900D01*
X187973985Y-92802519D01*
X188092519Y-92683985D01*
X188231900Y-92590853D01*
X188386772Y-92526703D01*
X188551184Y-92494000D01*
X188718816Y-92494000D01*
X188883228Y-92526703D01*
X188883228Y-92526703D01*
G37*
G36*
X219919167Y-91404439D02*
X220120298Y-91465451D01*
X220166025Y-91489892D01*
X220305661Y-91564529D01*
X220468133Y-91697867D01*
X220601471Y-91860338D01*
X220683124Y-92013101D01*
X220700549Y-92045701D01*
X220761561Y-92246832D01*
X220762412Y-92255471D01*
X220777000Y-92403587D01*
X220777000Y-93016412D01*
X220776867Y-93017761D01*
X220761561Y-93173167D01*
X220700549Y-93374298D01*
X220700547Y-93374301D01*
X220700546Y-93374303D01*
X220601471Y-93559662D01*
X220468133Y-93722133D01*
X220305662Y-93855471D01*
X220152899Y-93937124D01*
X220120299Y-93954549D01*
X219919168Y-94015561D01*
X219710000Y-94036162D01*
X219500833Y-94015561D01*
X219299702Y-93954549D01*
X219267102Y-93937124D01*
X219114339Y-93855471D01*
X218951868Y-93722133D01*
X218818531Y-93559663D01*
X218748592Y-93428816D01*
X218719451Y-93374299D01*
X218658439Y-93173168D01*
X218643000Y-93016411D01*
X218643000Y-92403590D01*
X218658439Y-92246833D01*
X218719451Y-92045702D01*
X218743892Y-91999975D01*
X218818529Y-91860339D01*
X218951867Y-91697867D01*
X219114338Y-91564529D01*
X219267101Y-91482876D01*
X219299701Y-91465451D01*
X219500832Y-91404439D01*
X219710000Y-91383838D01*
X219919167Y-91404439D01*
X219919167Y-91404439D01*
G37*
G36*
X222459167Y-91404439D02*
X222660298Y-91465451D01*
X222706025Y-91489892D01*
X222845661Y-91564529D01*
X223008133Y-91697867D01*
X223141471Y-91860338D01*
X223223124Y-92013101D01*
X223240549Y-92045701D01*
X223301561Y-92246832D01*
X223302412Y-92255471D01*
X223317000Y-92403587D01*
X223317000Y-93016412D01*
X223316867Y-93017761D01*
X223301561Y-93173167D01*
X223240549Y-93374298D01*
X223240547Y-93374301D01*
X223240546Y-93374303D01*
X223141471Y-93559662D01*
X223008133Y-93722133D01*
X222845662Y-93855471D01*
X222692899Y-93937124D01*
X222660299Y-93954549D01*
X222459168Y-94015561D01*
X222250000Y-94036162D01*
X222040833Y-94015561D01*
X221839702Y-93954549D01*
X221807102Y-93937124D01*
X221654339Y-93855471D01*
X221491868Y-93722133D01*
X221358531Y-93559663D01*
X221288592Y-93428816D01*
X221259451Y-93374299D01*
X221198439Y-93173168D01*
X221183000Y-93016411D01*
X221183000Y-92403590D01*
X221198439Y-92246833D01*
X221259451Y-92045702D01*
X221283892Y-91999975D01*
X221358529Y-91860339D01*
X221491867Y-91697867D01*
X221654338Y-91564529D01*
X221807101Y-91482876D01*
X221839701Y-91465451D01*
X222040832Y-91404439D01*
X222250000Y-91383838D01*
X222459167Y-91404439D01*
X222459167Y-91404439D01*
G37*
G36*
X224999167Y-91404439D02*
X225200298Y-91465451D01*
X225246025Y-91489892D01*
X225385661Y-91564529D01*
X225548133Y-91697867D01*
X225681471Y-91860338D01*
X225763124Y-92013101D01*
X225780549Y-92045701D01*
X225841561Y-92246832D01*
X225842412Y-92255471D01*
X225857000Y-92403587D01*
X225857000Y-93016412D01*
X225856867Y-93017761D01*
X225841561Y-93173167D01*
X225780549Y-93374298D01*
X225780547Y-93374301D01*
X225780546Y-93374303D01*
X225681471Y-93559662D01*
X225548133Y-93722133D01*
X225385662Y-93855471D01*
X225232899Y-93937124D01*
X225200299Y-93954549D01*
X224999168Y-94015561D01*
X224790000Y-94036162D01*
X224580833Y-94015561D01*
X224379702Y-93954549D01*
X224347102Y-93937124D01*
X224194339Y-93855471D01*
X224031868Y-93722133D01*
X223898531Y-93559663D01*
X223828592Y-93428816D01*
X223799451Y-93374299D01*
X223738439Y-93173168D01*
X223723000Y-93016411D01*
X223723000Y-92403590D01*
X223738439Y-92246833D01*
X223799451Y-92045702D01*
X223823892Y-91999975D01*
X223898529Y-91860339D01*
X224031867Y-91697867D01*
X224194338Y-91564529D01*
X224347101Y-91482876D01*
X224379701Y-91465451D01*
X224580832Y-91404439D01*
X224790000Y-91383838D01*
X224999167Y-91404439D01*
X224999167Y-91404439D01*
G37*
G36*
X208596000Y-93661000D02*
X206694000Y-93661000D01*
X206694000Y-91759000D01*
X208596000Y-91759000D01*
X208596000Y-93661000D01*
X208596000Y-93661000D01*
G37*
G36*
X212911425Y-91772760D02*
X212911428Y-91772761D01*
X212911429Y-91772761D01*
X213090693Y-91827140D01*
X213090695Y-91827141D01*
X213255905Y-91915448D01*
X213400712Y-92034288D01*
X213519552Y-92179095D01*
X213519553Y-92179097D01*
X213607860Y-92344307D01*
X213625843Y-92403589D01*
X213662240Y-92523575D01*
X213680601Y-92710000D01*
X213662240Y-92896425D01*
X213662239Y-92896428D01*
X213662239Y-92896429D01*
X213625843Y-93016412D01*
X213607859Y-93075695D01*
X213519552Y-93240905D01*
X213400712Y-93385712D01*
X213255905Y-93504552D01*
X213255903Y-93504553D01*
X213090693Y-93592860D01*
X212911429Y-93647239D01*
X212911428Y-93647239D01*
X212911425Y-93647240D01*
X212771718Y-93661000D01*
X212678282Y-93661000D01*
X212538575Y-93647240D01*
X212538572Y-93647239D01*
X212538571Y-93647239D01*
X212359307Y-93592860D01*
X212194097Y-93504553D01*
X212194095Y-93504552D01*
X212049288Y-93385712D01*
X211930448Y-93240905D01*
X211842141Y-93075695D01*
X211824158Y-93016412D01*
X211787761Y-92896429D01*
X211787761Y-92896428D01*
X211787760Y-92896425D01*
X211769399Y-92710000D01*
X211787760Y-92523575D01*
X211824157Y-92403589D01*
X211842140Y-92344307D01*
X211930447Y-92179097D01*
X211930448Y-92179095D01*
X212049288Y-92034288D01*
X212194095Y-91915448D01*
X212359305Y-91827141D01*
X212359307Y-91827140D01*
X212538571Y-91772761D01*
X212538572Y-91772761D01*
X212538575Y-91772760D01*
X212678282Y-91759000D01*
X212771718Y-91759000D01*
X212911425Y-91772760D01*
X212911425Y-91772760D01*
G37*
G36*
X210371425Y-91772760D02*
X210371428Y-91772761D01*
X210371429Y-91772761D01*
X210550693Y-91827140D01*
X210550695Y-91827141D01*
X210715905Y-91915448D01*
X210860712Y-92034288D01*
X210979552Y-92179095D01*
X210979553Y-92179097D01*
X211067860Y-92344307D01*
X211085843Y-92403589D01*
X211122240Y-92523575D01*
X211140601Y-92710000D01*
X211122240Y-92896425D01*
X211122239Y-92896428D01*
X211122239Y-92896429D01*
X211085843Y-93016412D01*
X211067859Y-93075695D01*
X210979552Y-93240905D01*
X210860712Y-93385712D01*
X210715905Y-93504552D01*
X210715903Y-93504553D01*
X210550693Y-93592860D01*
X210371429Y-93647239D01*
X210371428Y-93647239D01*
X210371425Y-93647240D01*
X210231718Y-93661000D01*
X210138282Y-93661000D01*
X209998575Y-93647240D01*
X209998572Y-93647239D01*
X209998571Y-93647239D01*
X209819307Y-93592860D01*
X209654097Y-93504553D01*
X209654095Y-93504552D01*
X209509288Y-93385712D01*
X209390448Y-93240905D01*
X209302141Y-93075695D01*
X209284158Y-93016412D01*
X209247761Y-92896429D01*
X209247761Y-92896428D01*
X209247760Y-92896425D01*
X209229399Y-92710000D01*
X209247760Y-92523575D01*
X209284157Y-92403589D01*
X209302140Y-92344307D01*
X209390447Y-92179097D01*
X209390448Y-92179095D01*
X209509288Y-92034288D01*
X209654095Y-91915448D01*
X209819305Y-91827141D01*
X209819307Y-91827140D01*
X209998571Y-91772761D01*
X209998572Y-91772761D01*
X209998575Y-91772760D01*
X210138282Y-91759000D01*
X210231718Y-91759000D01*
X210371425Y-91772760D01*
X210371425Y-91772760D01*
G37*
G36*
X179307142Y-90753242D02*
X179455102Y-90814530D01*
X179588258Y-90903502D01*
X179701498Y-91016742D01*
X179790470Y-91149898D01*
X179851758Y-91297858D01*
X179883000Y-91454925D01*
X179883000Y-91615075D01*
X179851758Y-91772142D01*
X179828976Y-91827141D01*
X179790471Y-91920100D01*
X179701499Y-92053257D01*
X179588257Y-92166499D01*
X179522130Y-92210683D01*
X179455102Y-92255470D01*
X179307142Y-92316758D01*
X179150075Y-92348000D01*
X178989925Y-92348000D01*
X178832858Y-92316758D01*
X178684898Y-92255470D01*
X178617870Y-92210683D01*
X178551743Y-92166499D01*
X178438501Y-92053257D01*
X178349529Y-91920100D01*
X178311024Y-91827141D01*
X178288242Y-91772142D01*
X178257000Y-91615075D01*
X178257000Y-91454925D01*
X178288242Y-91297858D01*
X178349530Y-91149898D01*
X178438502Y-91016742D01*
X178551742Y-90903502D01*
X178684898Y-90814530D01*
X178832858Y-90753242D01*
X178989925Y-90722000D01*
X179150075Y-90722000D01*
X179307142Y-90753242D01*
X179307142Y-90753242D01*
G37*
G36*
X194476821Y-88696313D02*
X194476824Y-88696314D01*
X194476825Y-88696314D01*
X194637239Y-88744975D01*
X194637241Y-88744976D01*
X194637244Y-88744977D01*
X194785078Y-88823995D01*
X194914659Y-88930341D01*
X195021005Y-89059922D01*
X195100023Y-89207756D01*
X195100024Y-89207759D01*
X195100025Y-89207761D01*
X195148686Y-89368175D01*
X195148687Y-89368179D01*
X195165117Y-89535000D01*
X195148687Y-89701821D01*
X195148686Y-89701824D01*
X195148686Y-89701825D01*
X195123993Y-89783228D01*
X195100023Y-89862244D01*
X195021005Y-90010078D01*
X194914659Y-90139659D01*
X194785078Y-90246005D01*
X194637244Y-90325023D01*
X194637241Y-90325024D01*
X194637239Y-90325025D01*
X194476825Y-90373686D01*
X194476824Y-90373686D01*
X194476821Y-90373687D01*
X194351804Y-90386000D01*
X194268196Y-90386000D01*
X194143179Y-90373687D01*
X194143176Y-90373686D01*
X194143175Y-90373686D01*
X193982761Y-90325025D01*
X193982759Y-90325024D01*
X193982756Y-90325023D01*
X193834922Y-90246005D01*
X193705341Y-90139659D01*
X193598995Y-90010078D01*
X193519977Y-89862244D01*
X193496008Y-89783228D01*
X193471314Y-89701825D01*
X193471314Y-89701824D01*
X193471313Y-89701821D01*
X193454883Y-89535000D01*
X193471313Y-89368179D01*
X193471314Y-89368175D01*
X193519975Y-89207761D01*
X193519976Y-89207759D01*
X193519977Y-89207756D01*
X193598995Y-89059922D01*
X193705341Y-88930341D01*
X193834922Y-88823995D01*
X193982756Y-88744977D01*
X193982759Y-88744976D01*
X193982761Y-88744975D01*
X194143175Y-88696314D01*
X194143176Y-88696314D01*
X194143179Y-88696313D01*
X194268196Y-88684000D01*
X194351804Y-88684000D01*
X194476821Y-88696313D01*
X194476821Y-88696313D01*
G37*
G36*
X202178228Y-88716703D02*
X202333100Y-88780853D01*
X202472481Y-88873985D01*
X202591015Y-88992519D01*
X202684147Y-89131900D01*
X202748297Y-89286772D01*
X202781000Y-89451184D01*
X202781000Y-89618816D01*
X202748297Y-89783228D01*
X202684147Y-89938100D01*
X202591015Y-90077481D01*
X202472481Y-90196015D01*
X202333100Y-90289147D01*
X202178228Y-90353297D01*
X202013816Y-90386000D01*
X201846184Y-90386000D01*
X201681772Y-90353297D01*
X201526900Y-90289147D01*
X201387519Y-90196015D01*
X201268985Y-90077481D01*
X201175853Y-89938100D01*
X201111703Y-89783228D01*
X201079000Y-89618816D01*
X201079000Y-89451184D01*
X201111703Y-89286772D01*
X201175853Y-89131900D01*
X201268985Y-88992519D01*
X201387519Y-88873985D01*
X201526900Y-88780853D01*
X201681772Y-88716703D01*
X201846184Y-88684000D01*
X202013816Y-88684000D01*
X202178228Y-88716703D01*
X202178228Y-88716703D01*
G37*
G36*
X179307142Y-88753242D02*
X179455102Y-88814530D01*
X179588258Y-88903502D01*
X179701498Y-89016742D01*
X179790470Y-89149898D01*
X179851758Y-89297858D01*
X179883000Y-89454925D01*
X179883000Y-89615075D01*
X179851758Y-89772142D01*
X179790470Y-89920102D01*
X179701498Y-90053258D01*
X179588258Y-90166498D01*
X179455102Y-90255470D01*
X179307142Y-90316758D01*
X179150075Y-90348000D01*
X178989925Y-90348000D01*
X178832858Y-90316758D01*
X178684898Y-90255470D01*
X178551742Y-90166498D01*
X178438502Y-90053258D01*
X178349530Y-89920102D01*
X178288242Y-89772142D01*
X178257000Y-89615075D01*
X178257000Y-89454925D01*
X178288242Y-89297858D01*
X178349530Y-89149898D01*
X178438502Y-89016742D01*
X178551742Y-88903502D01*
X178684898Y-88814530D01*
X178832858Y-88753242D01*
X178989925Y-88722000D01*
X179150075Y-88722000D01*
X179307142Y-88753242D01*
X179307142Y-88753242D01*
G37*
G36*
X191351000Y-89751000D02*
X189649000Y-89751000D01*
X189649000Y-88049000D01*
X191351000Y-88049000D01*
X191351000Y-89751000D01*
X191351000Y-89751000D01*
G37*
G36*
X188248228Y-88081703D02*
X188403100Y-88145853D01*
X188542481Y-88238985D01*
X188661015Y-88357519D01*
X188754147Y-88496900D01*
X188818297Y-88651772D01*
X188851000Y-88816184D01*
X188851000Y-88983816D01*
X188818297Y-89148228D01*
X188754147Y-89303100D01*
X188661015Y-89442481D01*
X188542481Y-89561015D01*
X188403100Y-89654147D01*
X188248228Y-89718297D01*
X188083816Y-89751000D01*
X187916184Y-89751000D01*
X187751772Y-89718297D01*
X187596900Y-89654147D01*
X187457519Y-89561015D01*
X187338985Y-89442481D01*
X187245853Y-89303100D01*
X187181703Y-89148228D01*
X187149000Y-88983816D01*
X187149000Y-88816184D01*
X187181703Y-88651772D01*
X187245853Y-88496900D01*
X187338985Y-88357519D01*
X187457519Y-88238985D01*
X187596900Y-88145853D01*
X187751772Y-88081703D01*
X187916184Y-88049000D01*
X188083816Y-88049000D01*
X188248228Y-88081703D01*
X188248228Y-88081703D01*
G37*
G36*
X179307142Y-86753242D02*
X179455102Y-86814530D01*
X179588258Y-86903502D01*
X179701498Y-87016742D01*
X179790470Y-87149898D01*
X179851758Y-87297858D01*
X179883000Y-87454925D01*
X179883000Y-87615075D01*
X179851758Y-87772142D01*
X179790470Y-87920102D01*
X179701498Y-88053258D01*
X179588258Y-88166498D01*
X179455102Y-88255470D01*
X179307142Y-88316758D01*
X179150075Y-88348000D01*
X178989925Y-88348000D01*
X178832858Y-88316758D01*
X178684898Y-88255470D01*
X178551742Y-88166498D01*
X178438502Y-88053258D01*
X178349530Y-87920102D01*
X178288242Y-87772142D01*
X178257000Y-87615075D01*
X178257000Y-87454925D01*
X178288242Y-87297858D01*
X178349530Y-87149898D01*
X178438502Y-87016742D01*
X178551742Y-86903502D01*
X178684898Y-86814530D01*
X178832858Y-86753242D01*
X178989925Y-86722000D01*
X179150075Y-86722000D01*
X179307142Y-86753242D01*
X179307142Y-86753242D01*
G37*
G36*
X225142527Y-77863736D02*
X225242410Y-77883604D01*
X225524674Y-78000521D01*
X225778705Y-78170259D01*
X225994741Y-78386295D01*
X226164479Y-78640326D01*
X226281396Y-78922590D01*
X226281396Y-78922591D01*
X226335980Y-79197000D01*
X226341000Y-79222240D01*
X226341000Y-79527760D01*
X226281396Y-79827410D01*
X226164479Y-80109674D01*
X225994741Y-80363705D01*
X225778705Y-80579741D01*
X225524674Y-80749479D01*
X225242410Y-80866396D01*
X225142527Y-80886264D01*
X224942762Y-80926000D01*
X224637238Y-80926000D01*
X224437473Y-80886264D01*
X224337590Y-80866396D01*
X224055326Y-80749479D01*
X223801295Y-80579741D01*
X223585259Y-80363705D01*
X223415521Y-80109674D01*
X223298604Y-79827410D01*
X223239000Y-79527760D01*
X223239000Y-79222240D01*
X223244021Y-79197000D01*
X223298604Y-78922591D01*
X223298604Y-78922590D01*
X223415521Y-78640326D01*
X223585259Y-78386295D01*
X223801295Y-78170259D01*
X224055326Y-78000521D01*
X224337590Y-77883604D01*
X224437473Y-77863736D01*
X224637238Y-77824000D01*
X224942762Y-77824000D01*
X225142527Y-77863736D01*
X225142527Y-77863736D01*
G37*
G36*
X179422527Y-77863736D02*
X179522410Y-77883604D01*
X179804674Y-78000521D01*
X180058705Y-78170259D01*
X180274741Y-78386295D01*
X180444479Y-78640326D01*
X180561396Y-78922590D01*
X180561396Y-78922591D01*
X180615980Y-79197000D01*
X180621000Y-79222240D01*
X180621000Y-79527760D01*
X180561396Y-79827410D01*
X180444479Y-80109674D01*
X180274741Y-80363705D01*
X180058705Y-80579741D01*
X179804674Y-80749479D01*
X179522410Y-80866396D01*
X179422527Y-80886264D01*
X179222762Y-80926000D01*
X178917238Y-80926000D01*
X178717473Y-80886264D01*
X178617590Y-80866396D01*
X178335326Y-80749479D01*
X178081295Y-80579741D01*
X177865259Y-80363705D01*
X177695521Y-80109674D01*
X177578604Y-79827410D01*
X177519000Y-79527760D01*
X177519000Y-79222240D01*
X177524021Y-79197000D01*
X177578604Y-78922591D01*
X177578604Y-78922590D01*
X177695521Y-78640326D01*
X177865259Y-78386295D01*
X178081295Y-78170259D01*
X178335326Y-78000521D01*
X178617590Y-77883604D01*
X178717473Y-77863736D01*
X178917238Y-77824000D01*
X179222762Y-77824000D01*
X179422527Y-77863736D01*
X179422527Y-77863736D01*
G37*
G36*
X194547142Y-79228242D02*
X194695102Y-79289530D01*
X194762130Y-79334317D01*
X194828257Y-79378501D01*
X194941499Y-79491743D01*
X194965566Y-79527762D01*
X195030470Y-79624898D01*
X195091758Y-79772858D01*
X195123000Y-79929925D01*
X195123000Y-80090075D01*
X195091758Y-80247142D01*
X195030470Y-80395102D01*
X194941498Y-80528258D01*
X194828258Y-80641498D01*
X194695102Y-80730470D01*
X194547142Y-80791758D01*
X194390075Y-80823000D01*
X194229925Y-80823000D01*
X194072858Y-80791758D01*
X193924898Y-80730470D01*
X193791742Y-80641498D01*
X193678502Y-80528258D01*
X193589530Y-80395102D01*
X193528242Y-80247142D01*
X193497000Y-80090075D01*
X193497000Y-79929925D01*
X193528242Y-79772858D01*
X193589530Y-79624898D01*
X193654434Y-79527762D01*
X193678501Y-79491743D01*
X193791743Y-79378501D01*
X193857870Y-79334317D01*
X193924898Y-79289530D01*
X194072858Y-79228242D01*
X194229925Y-79197000D01*
X194390075Y-79197000D01*
X194547142Y-79228242D01*
X194547142Y-79228242D01*
G37*
G36*
X192547142Y-79228242D02*
X192695102Y-79289530D01*
X192762130Y-79334317D01*
X192828257Y-79378501D01*
X192941499Y-79491743D01*
X192965566Y-79527762D01*
X193030470Y-79624898D01*
X193091758Y-79772858D01*
X193123000Y-79929925D01*
X193123000Y-80090075D01*
X193091758Y-80247142D01*
X193030470Y-80395102D01*
X192941498Y-80528258D01*
X192828258Y-80641498D01*
X192695102Y-80730470D01*
X192547142Y-80791758D01*
X192390075Y-80823000D01*
X192229925Y-80823000D01*
X192072858Y-80791758D01*
X191924898Y-80730470D01*
X191791742Y-80641498D01*
X191678502Y-80528258D01*
X191589530Y-80395102D01*
X191528242Y-80247142D01*
X191497000Y-80090075D01*
X191497000Y-79929925D01*
X191528242Y-79772858D01*
X191589530Y-79624898D01*
X191654434Y-79527762D01*
X191678501Y-79491743D01*
X191791743Y-79378501D01*
X191857870Y-79334317D01*
X191924898Y-79289530D01*
X192072858Y-79228242D01*
X192229925Y-79197000D01*
X192390075Y-79197000D01*
X192547142Y-79228242D01*
X192547142Y-79228242D01*
G37*
G36*
X196547142Y-79228242D02*
X196695102Y-79289530D01*
X196762130Y-79334317D01*
X196828257Y-79378501D01*
X196941499Y-79491743D01*
X196965566Y-79527762D01*
X197030470Y-79624898D01*
X197091758Y-79772858D01*
X197123000Y-79929925D01*
X197123000Y-80090075D01*
X197091758Y-80247142D01*
X197030470Y-80395102D01*
X196941498Y-80528258D01*
X196828258Y-80641498D01*
X196695102Y-80730470D01*
X196547142Y-80791758D01*
X196390075Y-80823000D01*
X196229925Y-80823000D01*
X196072858Y-80791758D01*
X195924898Y-80730470D01*
X195791742Y-80641498D01*
X195678502Y-80528258D01*
X195589530Y-80395102D01*
X195528242Y-80247142D01*
X195497000Y-80090075D01*
X195497000Y-79929925D01*
X195528242Y-79772858D01*
X195589530Y-79624898D01*
X195654434Y-79527762D01*
X195678501Y-79491743D01*
X195791743Y-79378501D01*
X195857870Y-79334317D01*
X195924898Y-79289530D01*
X196072858Y-79228242D01*
X196229925Y-79197000D01*
X196390075Y-79197000D01*
X196547142Y-79228242D01*
X196547142Y-79228242D01*
G37*
G36*
X217258903Y-80430485D02*
X215456903Y-80430485D01*
X215456903Y-78628485D01*
X217258903Y-78628485D01*
X217258903Y-80430485D01*
X217258903Y-80430485D01*
G37*
G36*
X207098903Y-80430485D02*
X205296903Y-80430485D01*
X205296903Y-78628485D01*
X207098903Y-78628485D01*
X207098903Y-80430485D01*
X207098903Y-80430485D01*
G37*
G36*
X213928345Y-78635003D02*
X213994530Y-78641522D01*
X214107756Y-78675869D01*
X214164370Y-78693042D01*
X214302990Y-78767137D01*
X214320894Y-78776707D01*
X214356632Y-78806037D01*
X214458089Y-78889299D01*
X214541351Y-78990756D01*
X214570681Y-79026494D01*
X214570682Y-79026496D01*
X214654346Y-79183018D01*
X214654346Y-79183019D01*
X214705866Y-79352858D01*
X214723262Y-79529485D01*
X214705866Y-79706112D01*
X214685619Y-79772857D01*
X214654346Y-79875952D01*
X214625496Y-79929925D01*
X214570681Y-80032476D01*
X214541351Y-80068214D01*
X214458089Y-80169671D01*
X214363689Y-80247142D01*
X214320894Y-80282263D01*
X214320892Y-80282264D01*
X214164370Y-80365928D01*
X214107756Y-80383101D01*
X213994530Y-80417448D01*
X213928345Y-80423967D01*
X213862163Y-80430485D01*
X213773643Y-80430485D01*
X213707461Y-80423967D01*
X213641276Y-80417448D01*
X213528050Y-80383101D01*
X213471436Y-80365928D01*
X213314914Y-80282264D01*
X213314912Y-80282263D01*
X213272117Y-80247142D01*
X213177717Y-80169671D01*
X213094455Y-80068214D01*
X213065125Y-80032476D01*
X213010310Y-79929925D01*
X212981460Y-79875952D01*
X212950187Y-79772857D01*
X212929940Y-79706112D01*
X212912544Y-79529485D01*
X212929940Y-79352858D01*
X212981460Y-79183019D01*
X212981460Y-79183018D01*
X213065124Y-79026496D01*
X213065125Y-79026494D01*
X213094455Y-78990756D01*
X213177717Y-78889299D01*
X213279174Y-78806037D01*
X213314912Y-78776707D01*
X213332816Y-78767137D01*
X213471436Y-78693042D01*
X213528050Y-78675869D01*
X213641276Y-78641522D01*
X213707461Y-78635003D01*
X213773643Y-78628485D01*
X213862163Y-78628485D01*
X213928345Y-78635003D01*
X213928345Y-78635003D01*
G37*
M02*
