G04 #@! TF.GenerationSoftware,KiCad,Pcbnew,(5.0.1-3-g963ef8bb5)*
G04 #@! TF.CreationDate,2019-04-02T14:03:18+07:00*
G04 #@! TF.ProjectId,STMaytal32v04,53544D617974616C33327630342E6B69,rev?*
G04 #@! TF.SameCoordinates,Original*
G04 #@! TF.FileFunction,Copper,L2,Bot,Signal*
G04 #@! TF.FilePolarity,Positive*
%FSLAX46Y46*%
G04 Gerber Fmt 4.6, Leading zero omitted, Abs format (unit mm)*
G04 Created by KiCad (PCBNEW (5.0.1-3-g963ef8bb5)) date Tuesday, April 02, 2019 at 02:03:18 PM*
%MOMM*%
%LPD*%
G01*
G04 APERTURE LIST*
G04 #@! TA.AperFunction,ComponentPad*
%ADD10C,1.524000*%
G04 #@! TD*
G04 #@! TA.AperFunction,ComponentPad*
%ADD11C,1.600000*%
G04 #@! TD*
G04 #@! TA.AperFunction,ComponentPad*
%ADD12R,1.600000X1.600000*%
G04 #@! TD*
G04 #@! TA.AperFunction,ComponentPad*
%ADD13O,1.600000X1.600000*%
G04 #@! TD*
G04 #@! TA.AperFunction,ComponentPad*
%ADD14O,2.032000X2.540000*%
G04 #@! TD*
G04 #@! TA.AperFunction,ComponentPad*
%ADD15O,1.800000X1.800000*%
G04 #@! TD*
G04 #@! TA.AperFunction,ComponentPad*
%ADD16R,1.800000X1.800000*%
G04 #@! TD*
G04 #@! TA.AperFunction,ComponentPad*
%ADD17R,1.700000X1.700000*%
G04 #@! TD*
G04 #@! TA.AperFunction,ComponentPad*
%ADD18O,1.700000X1.700000*%
G04 #@! TD*
G04 #@! TA.AperFunction,ComponentPad*
%ADD19C,1.905000*%
G04 #@! TD*
G04 #@! TA.AperFunction,ComponentPad*
%ADD20R,1.905000X1.905000*%
G04 #@! TD*
G04 #@! TA.AperFunction,Conductor*
%ADD21C,0.250000*%
G04 #@! TD*
G04 #@! TA.AperFunction,Conductor*
%ADD22C,0.254000*%
G04 #@! TD*
G04 APERTURE END LIST*
D10*
G04 #@! TO.P,J1,3*
G04 #@! TO.N,Net-(J1-Pad3)*
X196310000Y-80010000D03*
G04 #@! TO.P,J1,1*
G04 #@! TO.N,Net-(J1-Pad1)*
X192310000Y-80010000D03*
G04 #@! TO.P,J1,2*
G04 #@! TO.N,GND*
X194310000Y-80010000D03*
G04 #@! TD*
D11*
G04 #@! TO.P,C1,2*
G04 #@! TO.N,GND*
X188000000Y-88900000D03*
D12*
G04 #@! TO.P,C1,1*
G04 #@! TO.N,VBAT*
X190500000Y-88900000D03*
G04 #@! TD*
D13*
G04 #@! TO.P,R2,2*
G04 #@! TO.N,GND*
X201930000Y-93345000D03*
D11*
G04 #@! TO.P,R2,1*
G04 #@! TO.N,PRESSURE*
X194310000Y-93345000D03*
G04 #@! TD*
D14*
G04 #@! TO.P,Q1,1*
G04 #@! TO.N,Q1_BASE*
X219710000Y-92710000D03*
G04 #@! TO.P,Q1,3*
G04 #@! TO.N,GND*
X224790000Y-92710000D03*
G04 #@! TO.P,Q1,2*
G04 #@! TO.N,Net-(Q1-Pad2)*
X222250000Y-92710000D03*
G04 #@! TD*
D11*
G04 #@! TO.P,R1,1*
G04 #@! TO.N,Net-(J1-Pad3)*
X201930000Y-89535000D03*
D13*
G04 #@! TO.P,R1,2*
G04 #@! TO.N,PRESSURE*
X194310000Y-89535000D03*
G04 #@! TD*
D15*
G04 #@! TO.P,U2,3*
G04 #@! TO.N,Net-(J1-Pad1)*
X212725000Y-92710000D03*
G04 #@! TO.P,U2,2*
G04 #@! TO.N,Net-(Q1-Pad2)*
X210185000Y-92710000D03*
D16*
G04 #@! TO.P,U2,1*
G04 #@! TO.N,VBAT*
X207645000Y-92710000D03*
G04 #@! TD*
D11*
G04 #@! TO.P,C2,2*
G04 #@! TO.N,GND*
X188635000Y-93345000D03*
G04 #@! TO.P,C2,1*
G04 #@! TO.N,VBAT*
X191135000Y-93345000D03*
G04 #@! TD*
D17*
G04 #@! TO.P,J3,1*
G04 #@! TO.N,GND*
X206197903Y-79529485D03*
G04 #@! TD*
G04 #@! TO.P,J4,1*
G04 #@! TO.N,SERIAL1.TX*
X216357903Y-79529485D03*
D18*
G04 #@! TO.P,J4,2*
G04 #@! TO.N,SERIAL1.RX*
X213817903Y-79529485D03*
G04 #@! TD*
D19*
G04 #@! TO.P,J2,5*
G04 #@! TO.N,CS-RI*
X203200000Y-126365000D03*
G04 #@! TO.P,J2,7*
G04 #@! TO.N,SCK-RX*
X205740000Y-126365000D03*
G04 #@! TO.P,J2,3*
G04 #@! TO.N,G0*
X200660000Y-126365000D03*
G04 #@! TO.P,J2,9*
G04 #@! TO.N,MISO-TX*
X208280000Y-126365000D03*
D20*
G04 #@! TO.P,J2,1*
G04 #@! TO.N,VCC*
X198120000Y-126365000D03*
D19*
G04 #@! TO.P,J2,10*
G04 #@! TO.N,GND*
X208280000Y-123825000D03*
G04 #@! TO.P,J2,8*
G04 #@! TO.N,MOSI-KEY*
X205740000Y-123825000D03*
G04 #@! TO.P,J2,6*
G04 #@! TO.N,RST*
X203200000Y-123825000D03*
G04 #@! TO.P,J2,4*
G04 #@! TO.N,G1-PSTAT*
X200660000Y-123825000D03*
G04 #@! TO.P,J2,2*
G04 #@! TO.N,EN*
X198120000Y-123825000D03*
G04 #@! TD*
D10*
G04 #@! TO.P,U1,1*
G04 #@! TO.N,Net-(U1-Pad1)*
X180975000Y-115570000D03*
G04 #@! TO.P,U1,2*
G04 #@! TO.N,Net-(U1-Pad2)*
X183515000Y-115570000D03*
G04 #@! TO.P,U1,3*
G04 #@! TO.N,Net-(U1-Pad3)*
X186055000Y-115570000D03*
G04 #@! TO.P,U1,4*
G04 #@! TO.N,Net-(U1-Pad4)*
X188595000Y-115570000D03*
G04 #@! TO.P,U1,10*
G04 #@! TO.N,PRESSURE*
X191135000Y-115570000D03*
G04 #@! TO.P,U1,11*
G04 #@! TO.N,Net-(U1-Pad11)*
X193675000Y-115570000D03*
G04 #@! TO.P,U1,12*
G04 #@! TO.N,Net-(U1-Pad12)*
X196215000Y-115570000D03*
G04 #@! TO.P,U1,13*
G04 #@! TO.N,G0*
X198755000Y-115570000D03*
G04 #@! TO.P,U1,14*
G04 #@! TO.N,CS-RI*
X201295000Y-115570000D03*
G04 #@! TO.P,U1,15*
G04 #@! TO.N,SCK-RX*
X203835000Y-115570000D03*
G04 #@! TO.P,U1,16*
G04 #@! TO.N,MISO-TX*
X206375000Y-115570000D03*
G04 #@! TO.P,U1,17*
G04 #@! TO.N,MOSI-KEY*
X208915000Y-115570000D03*
G04 #@! TO.P,U1,18*
G04 #@! TO.N,RST*
X211455000Y-115570000D03*
G04 #@! TO.P,U1,19*
G04 #@! TO.N,Q1_BASE*
X213995000Y-115570000D03*
G04 #@! TO.P,U1,21*
G04 #@! TO.N,G1-PSTAT*
X216535000Y-115570000D03*
G04 #@! TO.P,U1,22*
G04 #@! TO.N,EN*
X219075000Y-115570000D03*
G04 #@! TO.P,U1,7*
G04 #@! TO.N,Net-(U1-Pad7)*
X221615000Y-115570000D03*
G04 #@! TO.P,U1,3V3*
G04 #@! TO.N,VCC*
X224155000Y-115570000D03*
G04 #@! TO.P,U1,GND*
G04 #@! TO.N,GND*
X226695000Y-115570000D03*
X229235000Y-115570000D03*
G04 #@! TO.P,U1,3V3*
G04 #@! TO.N,VCC*
X180975000Y-100330000D03*
G04 #@! TO.P,U1,42*
G04 #@! TO.N,Net-(U1-Pad42)*
X196215000Y-100330000D03*
G04 #@! TO.P,U1,27*
G04 #@! TO.N,Net-(U1-Pad27)*
X224155000Y-100330000D03*
G04 #@! TO.P,U1,32*
G04 #@! TO.N,Net-(U1-Pad32)*
X211455000Y-100330000D03*
G04 #@! TO.P,U1,31*
G04 #@! TO.N,SERIAL1.RX*
X213995000Y-100330000D03*
G04 #@! TO.P,U1,33*
G04 #@! TO.N,Net-(U1-Pad33)*
X208915000Y-100330000D03*
G04 #@! TO.P,U1,38*
G04 #@! TO.N,N/C*
X206375000Y-100330000D03*
G04 #@! TO.P,U1,30*
G04 #@! TO.N,SERIAL1.TX*
X216535000Y-100330000D03*
G04 #@! TO.P,U1,28*
G04 #@! TO.N,Net-(U1-Pad28)*
X221615000Y-100330000D03*
G04 #@! TO.P,U1,26*
G04 #@! TO.N,Net-(U1-Pad26)*
X226695000Y-100330000D03*
G04 #@! TO.P,U1,41*
G04 #@! TO.N,Net-(U1-Pad41)*
X198755000Y-100330000D03*
G04 #@! TO.P,U1,40*
G04 #@! TO.N,Net-(U1-Pad40)*
X201295000Y-100330000D03*
G04 #@! TO.P,U1,29*
G04 #@! TO.N,Net-(U1-Pad29)*
X219075000Y-100330000D03*
G04 #@! TO.P,U1,46*
G04 #@! TO.N,Net-(U1-Pad46)*
X188595000Y-100330000D03*
G04 #@! TO.P,U1,45*
G04 #@! TO.N,Net-(U1-Pad45)*
X191135000Y-100330000D03*
G04 #@! TO.P,U1,5V*
G04 #@! TO.N,VBAT*
X186055000Y-100330000D03*
G04 #@! TO.P,U1,25*
G04 #@! TO.N,Net-(U1-Pad25)*
X229235000Y-100330000D03*
G04 #@! TO.P,U1,GND*
G04 #@! TO.N,GND*
X183515000Y-100330000D03*
G04 #@! TO.P,U1,43*
G04 #@! TO.N,Net-(U1-Pad43)*
X193675000Y-100330000D03*
G04 #@! TO.P,U1,39*
G04 #@! TO.N,Net-(U1-Pad39)*
X203835000Y-100330000D03*
G04 #@! TD*
G04 #@! TO.P,BT1,2*
G04 #@! TO.N,N/C*
X179070000Y-89535000D03*
G04 #@! TO.P,BT1,1*
G04 #@! TO.N,GND*
X179070000Y-87535000D03*
G04 #@! TO.P,BT1,3*
G04 #@! TO.N,VBAT*
X179070000Y-91535000D03*
G04 #@! TD*
D21*
G04 #@! TO.N,VBAT*
X206495000Y-92710000D02*
X207645000Y-92710000D01*
X202685000Y-96520000D02*
X206495000Y-92710000D01*
X194310000Y-96520000D02*
X202685000Y-96520000D01*
X191135000Y-93345000D02*
X194310000Y-96520000D01*
X190500000Y-92710000D02*
X191135000Y-93345000D01*
X190500000Y-88900000D02*
X190500000Y-92710000D01*
G04 #@! TO.N,G0*
X197993001Y-116331999D02*
X198755000Y-115570000D01*
X196907499Y-127642501D02*
X196842499Y-127577501D01*
X199382499Y-127642501D02*
X196907499Y-127642501D01*
X196842499Y-117482501D02*
X197993001Y-116331999D01*
X196842499Y-127577501D02*
X196842499Y-117482501D01*
X200660000Y-126365000D02*
X199382499Y-127642501D01*
G04 #@! TO.N,Q1_BASE*
X217987999Y-95952001D02*
X219710000Y-94230000D01*
X219710000Y-94230000D02*
X219710000Y-92710000D01*
X217987999Y-100485763D02*
X217987999Y-95952001D01*
X213995000Y-104478762D02*
X217987999Y-100485763D01*
X213995000Y-115570000D02*
X213995000Y-104478762D01*
G04 #@! TO.N,Net-(Q1-Pad2)*
X210185000Y-92710000D02*
X212090000Y-90805000D01*
X222250000Y-92456000D02*
X222250000Y-92710000D01*
X220599000Y-90805000D02*
X222250000Y-92456000D01*
X212090000Y-90805000D02*
X220599000Y-90805000D01*
G04 #@! TO.N,SCK-RX*
X203073001Y-114808001D02*
X203835000Y-115570000D01*
X202114991Y-113849991D02*
X203073001Y-114808001D01*
X196326247Y-113849991D02*
X202114991Y-113849991D01*
X195127999Y-127135821D02*
X195127999Y-115048239D01*
X196897178Y-128905000D02*
X195127999Y-127135821D01*
X203200000Y-128905000D02*
X196897178Y-128905000D01*
X195127999Y-115048239D02*
X196326247Y-113849991D01*
X205740000Y-126365000D02*
X203200000Y-128905000D01*
G04 #@! TO.N,MISO-TX*
X192587999Y-115048239D02*
X194606238Y-113030000D01*
X192587999Y-125232231D02*
X192587999Y-115048239D01*
X205289991Y-129355009D02*
X196710777Y-129355009D01*
X196710777Y-129355009D02*
X192587999Y-125232231D01*
X208280000Y-126365000D02*
X205289991Y-129355009D01*
X203835000Y-113030000D02*
X206375000Y-115570000D01*
X194606238Y-113030000D02*
X203835000Y-113030000D01*
G04 #@! TO.N,CS-RI*
X197667999Y-115048239D02*
X198416238Y-114300000D01*
X197667999Y-116020591D02*
X197667999Y-115048239D01*
X196898588Y-128270000D02*
X196392490Y-127763902D01*
X196392490Y-117296100D02*
X197667999Y-116020591D01*
X196392490Y-127763902D02*
X196392490Y-117296100D01*
X201295000Y-128270000D02*
X196898588Y-128270000D01*
X203200000Y-126365000D02*
X201295000Y-128270000D01*
X200025000Y-114300000D02*
X201295000Y-115570000D01*
X198416238Y-114300000D02*
X200025000Y-114300000D01*
G04 #@! TO.N,EN*
X198120000Y-123825000D02*
X203835000Y-118110000D01*
X216535000Y-118110000D02*
X219075000Y-115570000D01*
X203835000Y-118110000D02*
X216535000Y-118110000D01*
G04 #@! TD*
D22*
G04 #@! TO.N,GND*
G36*
X229965789Y-76075919D02*
X230378000Y-76748585D01*
X230378000Y-99497343D01*
X230026337Y-99145680D01*
X229512881Y-98933000D01*
X228957119Y-98933000D01*
X228443663Y-99145680D01*
X228050680Y-99538663D01*
X227965000Y-99745513D01*
X227879320Y-99538663D01*
X227486337Y-99145680D01*
X226972881Y-98933000D01*
X226417119Y-98933000D01*
X225903663Y-99145680D01*
X225510680Y-99538663D01*
X225425000Y-99745513D01*
X225339320Y-99538663D01*
X224946337Y-99145680D01*
X224432881Y-98933000D01*
X223877119Y-98933000D01*
X223363663Y-99145680D01*
X222970680Y-99538663D01*
X222885000Y-99745513D01*
X222799320Y-99538663D01*
X222406337Y-99145680D01*
X221892881Y-98933000D01*
X221337119Y-98933000D01*
X220823663Y-99145680D01*
X220430680Y-99538663D01*
X220345000Y-99745513D01*
X220259320Y-99538663D01*
X219866337Y-99145680D01*
X219352881Y-98933000D01*
X218797119Y-98933000D01*
X218747999Y-98953346D01*
X218747999Y-96266802D01*
X220194473Y-94820329D01*
X220257929Y-94777929D01*
X220425904Y-94526537D01*
X220438578Y-94462820D01*
X220900305Y-94154305D01*
X220980000Y-94035033D01*
X221059695Y-94154305D01*
X221605813Y-94519208D01*
X222250000Y-94647345D01*
X222894188Y-94519208D01*
X223440305Y-94154305D01*
X223541196Y-94003311D01*
X223712370Y-94221236D01*
X224275523Y-94537926D01*
X224407056Y-94569975D01*
X224663000Y-94450836D01*
X224663000Y-92837000D01*
X224917000Y-92837000D01*
X224917000Y-94450836D01*
X225172944Y-94569975D01*
X225304477Y-94537926D01*
X225867630Y-94221236D01*
X226266724Y-93713143D01*
X226441000Y-93091000D01*
X226441000Y-92837000D01*
X224917000Y-92837000D01*
X224663000Y-92837000D01*
X224643000Y-92837000D01*
X224643000Y-92583000D01*
X224663000Y-92583000D01*
X224663000Y-90969164D01*
X224917000Y-90969164D01*
X224917000Y-92583000D01*
X226441000Y-92583000D01*
X226441000Y-92329000D01*
X226266724Y-91706857D01*
X225867630Y-91198764D01*
X225304477Y-90882074D01*
X225172944Y-90850025D01*
X224917000Y-90969164D01*
X224663000Y-90969164D01*
X224407056Y-90850025D01*
X224275523Y-90882074D01*
X223712370Y-91198764D01*
X223541196Y-91416689D01*
X223440305Y-91265695D01*
X222894187Y-90900792D01*
X222250000Y-90772655D01*
X221742420Y-90873619D01*
X221189331Y-90320530D01*
X221146929Y-90257071D01*
X220895537Y-90089096D01*
X220673852Y-90045000D01*
X220673847Y-90045000D01*
X220599000Y-90030112D01*
X220524153Y-90045000D01*
X212164848Y-90045000D01*
X212090000Y-90030112D01*
X212015152Y-90045000D01*
X212015148Y-90045000D01*
X211841605Y-90079520D01*
X211793462Y-90089096D01*
X211606418Y-90214076D01*
X211542071Y-90257071D01*
X211499671Y-90320527D01*
X210593929Y-91226269D01*
X210336182Y-91175000D01*
X210033818Y-91175000D01*
X209586073Y-91264062D01*
X209142129Y-91560696D01*
X209002809Y-91352191D01*
X208792765Y-91211843D01*
X208545000Y-91162560D01*
X206745000Y-91162560D01*
X206497235Y-91211843D01*
X206287191Y-91352191D01*
X206146843Y-91562235D01*
X206097560Y-91810000D01*
X206097560Y-92061517D01*
X206023395Y-92111073D01*
X205947071Y-92162071D01*
X205904671Y-92225527D01*
X202370199Y-95760000D01*
X194624802Y-95760000D01*
X192548103Y-93683302D01*
X192570000Y-93630439D01*
X192570000Y-93059561D01*
X192875000Y-93059561D01*
X192875000Y-93630439D01*
X193093466Y-94157862D01*
X193497138Y-94561534D01*
X194024561Y-94780000D01*
X194595439Y-94780000D01*
X195122862Y-94561534D01*
X195526534Y-94157862D01*
X195718655Y-93694039D01*
X200538096Y-93694039D01*
X200698959Y-94082423D01*
X201074866Y-94497389D01*
X201580959Y-94736914D01*
X201803000Y-94615629D01*
X201803000Y-93472000D01*
X202057000Y-93472000D01*
X202057000Y-94615629D01*
X202279041Y-94736914D01*
X202785134Y-94497389D01*
X203161041Y-94082423D01*
X203321904Y-93694039D01*
X203199915Y-93472000D01*
X202057000Y-93472000D01*
X201803000Y-93472000D01*
X200660085Y-93472000D01*
X200538096Y-93694039D01*
X195718655Y-93694039D01*
X195745000Y-93630439D01*
X195745000Y-93059561D01*
X195718656Y-92995961D01*
X200538096Y-92995961D01*
X200660085Y-93218000D01*
X201803000Y-93218000D01*
X201803000Y-92074371D01*
X202057000Y-92074371D01*
X202057000Y-93218000D01*
X203199915Y-93218000D01*
X203321904Y-92995961D01*
X203161041Y-92607577D01*
X202785134Y-92192611D01*
X202279041Y-91953086D01*
X202057000Y-92074371D01*
X201803000Y-92074371D01*
X201580959Y-91953086D01*
X201074866Y-92192611D01*
X200698959Y-92607577D01*
X200538096Y-92995961D01*
X195718656Y-92995961D01*
X195526534Y-92532138D01*
X195122862Y-92128466D01*
X194595439Y-91910000D01*
X194024561Y-91910000D01*
X193497138Y-92128466D01*
X193093466Y-92532138D01*
X192875000Y-93059561D01*
X192570000Y-93059561D01*
X192351534Y-92532138D01*
X191947862Y-92128466D01*
X191420439Y-91910000D01*
X191260000Y-91910000D01*
X191260000Y-90347440D01*
X191300000Y-90347440D01*
X191547765Y-90298157D01*
X191757809Y-90157809D01*
X191898157Y-89947765D01*
X191947440Y-89700000D01*
X191947440Y-89535000D01*
X192846887Y-89535000D01*
X192958260Y-90094909D01*
X193275423Y-90569577D01*
X193750091Y-90886740D01*
X194168667Y-90970000D01*
X194451333Y-90970000D01*
X194869909Y-90886740D01*
X195344577Y-90569577D01*
X195661740Y-90094909D01*
X195773113Y-89535000D01*
X195716336Y-89249561D01*
X200495000Y-89249561D01*
X200495000Y-89820439D01*
X200713466Y-90347862D01*
X201117138Y-90751534D01*
X201644561Y-90970000D01*
X202215439Y-90970000D01*
X202742862Y-90751534D01*
X203146534Y-90347862D01*
X203365000Y-89820439D01*
X203365000Y-89249561D01*
X203146534Y-88722138D01*
X202742862Y-88318466D01*
X202215439Y-88100000D01*
X201644561Y-88100000D01*
X201117138Y-88318466D01*
X200713466Y-88722138D01*
X200495000Y-89249561D01*
X195716336Y-89249561D01*
X195661740Y-88975091D01*
X195344577Y-88500423D01*
X194869909Y-88183260D01*
X194451333Y-88100000D01*
X194168667Y-88100000D01*
X193750091Y-88183260D01*
X193275423Y-88500423D01*
X192958260Y-88975091D01*
X192846887Y-89535000D01*
X191947440Y-89535000D01*
X191947440Y-88100000D01*
X191898157Y-87852235D01*
X191757809Y-87642191D01*
X191547765Y-87501843D01*
X191300000Y-87452560D01*
X189700000Y-87452560D01*
X189452235Y-87501843D01*
X189242191Y-87642191D01*
X189101843Y-87852235D01*
X189055307Y-88086187D01*
X189007745Y-88071861D01*
X188179605Y-88900000D01*
X189007745Y-89728139D01*
X189055307Y-89713813D01*
X189101843Y-89947765D01*
X189242191Y-90157809D01*
X189452235Y-90298157D01*
X189700000Y-90347440D01*
X189740000Y-90347440D01*
X189740001Y-92546156D01*
X189642745Y-92516861D01*
X188814605Y-93345000D01*
X189642745Y-94173139D01*
X189888864Y-94099005D01*
X189891290Y-94092254D01*
X189918466Y-94157862D01*
X190322138Y-94561534D01*
X190849561Y-94780000D01*
X191420439Y-94780000D01*
X191473302Y-94758103D01*
X193719671Y-97004473D01*
X193762071Y-97067929D01*
X194013463Y-97235904D01*
X194235148Y-97280000D01*
X194235152Y-97280000D01*
X194309999Y-97294888D01*
X194384846Y-97280000D01*
X202610153Y-97280000D01*
X202685000Y-97294888D01*
X202759847Y-97280000D01*
X202759852Y-97280000D01*
X202981537Y-97235904D01*
X203232929Y-97067929D01*
X203275331Y-97004470D01*
X206257071Y-94022731D01*
X206287191Y-94067809D01*
X206497235Y-94208157D01*
X206745000Y-94257440D01*
X208545000Y-94257440D01*
X208792765Y-94208157D01*
X209002809Y-94067809D01*
X209142129Y-93859304D01*
X209586073Y-94155938D01*
X210033818Y-94245000D01*
X210336182Y-94245000D01*
X210783927Y-94155938D01*
X211291673Y-93816673D01*
X211455000Y-93572237D01*
X211618327Y-93816673D01*
X212126073Y-94155938D01*
X212573818Y-94245000D01*
X212876182Y-94245000D01*
X213323927Y-94155938D01*
X213831673Y-93816673D01*
X214170938Y-93308927D01*
X214290072Y-92710000D01*
X214170938Y-92111073D01*
X213831673Y-91603327D01*
X213774313Y-91565000D01*
X218319707Y-91565000D01*
X218154792Y-91811813D01*
X218059000Y-92293392D01*
X218059000Y-93126609D01*
X218154792Y-93608188D01*
X218519695Y-94154305D01*
X218634310Y-94230888D01*
X217503527Y-95361672D01*
X217440071Y-95404072D01*
X217397671Y-95467528D01*
X217397670Y-95467529D01*
X217272096Y-95655464D01*
X217213111Y-95952001D01*
X217228000Y-96026853D01*
X217227999Y-99104947D01*
X216812881Y-98933000D01*
X216257119Y-98933000D01*
X215743663Y-99145680D01*
X215350680Y-99538663D01*
X215265000Y-99745513D01*
X215179320Y-99538663D01*
X214786337Y-99145680D01*
X214272881Y-98933000D01*
X213717119Y-98933000D01*
X213203663Y-99145680D01*
X212810680Y-99538663D01*
X212725000Y-99745513D01*
X212639320Y-99538663D01*
X212246337Y-99145680D01*
X211732881Y-98933000D01*
X211177119Y-98933000D01*
X210663663Y-99145680D01*
X210270680Y-99538663D01*
X210185000Y-99745513D01*
X210099320Y-99538663D01*
X209706337Y-99145680D01*
X209192881Y-98933000D01*
X208637119Y-98933000D01*
X208123663Y-99145680D01*
X207730680Y-99538663D01*
X207645000Y-99745513D01*
X207559320Y-99538663D01*
X207166337Y-99145680D01*
X206652881Y-98933000D01*
X206097119Y-98933000D01*
X205583663Y-99145680D01*
X205190680Y-99538663D01*
X205105000Y-99745513D01*
X205019320Y-99538663D01*
X204626337Y-99145680D01*
X204112881Y-98933000D01*
X203557119Y-98933000D01*
X203043663Y-99145680D01*
X202650680Y-99538663D01*
X202565000Y-99745513D01*
X202479320Y-99538663D01*
X202086337Y-99145680D01*
X201572881Y-98933000D01*
X201017119Y-98933000D01*
X200503663Y-99145680D01*
X200110680Y-99538663D01*
X200025000Y-99745513D01*
X199939320Y-99538663D01*
X199546337Y-99145680D01*
X199032881Y-98933000D01*
X198477119Y-98933000D01*
X197963663Y-99145680D01*
X197570680Y-99538663D01*
X197485000Y-99745513D01*
X197399320Y-99538663D01*
X197006337Y-99145680D01*
X196492881Y-98933000D01*
X195937119Y-98933000D01*
X195423663Y-99145680D01*
X195030680Y-99538663D01*
X194945000Y-99745513D01*
X194859320Y-99538663D01*
X194466337Y-99145680D01*
X193952881Y-98933000D01*
X193397119Y-98933000D01*
X192883663Y-99145680D01*
X192490680Y-99538663D01*
X192405000Y-99745513D01*
X192319320Y-99538663D01*
X191926337Y-99145680D01*
X191412881Y-98933000D01*
X190857119Y-98933000D01*
X190343663Y-99145680D01*
X189950680Y-99538663D01*
X189865000Y-99745513D01*
X189779320Y-99538663D01*
X189386337Y-99145680D01*
X188872881Y-98933000D01*
X188317119Y-98933000D01*
X187803663Y-99145680D01*
X187410680Y-99538663D01*
X187325000Y-99745513D01*
X187239320Y-99538663D01*
X186846337Y-99145680D01*
X186332881Y-98933000D01*
X185777119Y-98933000D01*
X185263663Y-99145680D01*
X184870680Y-99538663D01*
X184791572Y-99729647D01*
X184737397Y-99598857D01*
X184495213Y-99529392D01*
X183694605Y-100330000D01*
X184495213Y-101130608D01*
X184737397Y-101061143D01*
X184787535Y-100920607D01*
X184870680Y-101121337D01*
X185263663Y-101514320D01*
X185777119Y-101727000D01*
X186332881Y-101727000D01*
X186846337Y-101514320D01*
X187239320Y-101121337D01*
X187325000Y-100914487D01*
X187410680Y-101121337D01*
X187803663Y-101514320D01*
X188317119Y-101727000D01*
X188872881Y-101727000D01*
X189386337Y-101514320D01*
X189779320Y-101121337D01*
X189865000Y-100914487D01*
X189950680Y-101121337D01*
X190343663Y-101514320D01*
X190857119Y-101727000D01*
X191412881Y-101727000D01*
X191926337Y-101514320D01*
X192319320Y-101121337D01*
X192405000Y-100914487D01*
X192490680Y-101121337D01*
X192883663Y-101514320D01*
X193397119Y-101727000D01*
X193952881Y-101727000D01*
X194466337Y-101514320D01*
X194859320Y-101121337D01*
X194945000Y-100914487D01*
X195030680Y-101121337D01*
X195423663Y-101514320D01*
X195937119Y-101727000D01*
X196492881Y-101727000D01*
X197006337Y-101514320D01*
X197399320Y-101121337D01*
X197485000Y-100914487D01*
X197570680Y-101121337D01*
X197963663Y-101514320D01*
X198477119Y-101727000D01*
X199032881Y-101727000D01*
X199546337Y-101514320D01*
X199939320Y-101121337D01*
X200025000Y-100914487D01*
X200110680Y-101121337D01*
X200503663Y-101514320D01*
X201017119Y-101727000D01*
X201572881Y-101727000D01*
X202086337Y-101514320D01*
X202479320Y-101121337D01*
X202565000Y-100914487D01*
X202650680Y-101121337D01*
X203043663Y-101514320D01*
X203557119Y-101727000D01*
X204112881Y-101727000D01*
X204626337Y-101514320D01*
X205019320Y-101121337D01*
X205105000Y-100914487D01*
X205190680Y-101121337D01*
X205583663Y-101514320D01*
X206097119Y-101727000D01*
X206652881Y-101727000D01*
X207166337Y-101514320D01*
X207559320Y-101121337D01*
X207645000Y-100914487D01*
X207730680Y-101121337D01*
X208123663Y-101514320D01*
X208637119Y-101727000D01*
X209192881Y-101727000D01*
X209706337Y-101514320D01*
X210099320Y-101121337D01*
X210185000Y-100914487D01*
X210270680Y-101121337D01*
X210663663Y-101514320D01*
X211177119Y-101727000D01*
X211732881Y-101727000D01*
X212246337Y-101514320D01*
X212639320Y-101121337D01*
X212725000Y-100914487D01*
X212810680Y-101121337D01*
X213203663Y-101514320D01*
X213717119Y-101727000D01*
X214272881Y-101727000D01*
X214786337Y-101514320D01*
X215179320Y-101121337D01*
X215265000Y-100914487D01*
X215350680Y-101121337D01*
X215743663Y-101514320D01*
X215843349Y-101555611D01*
X213510528Y-103888433D01*
X213447072Y-103930833D01*
X213404672Y-103994289D01*
X213404671Y-103994290D01*
X213279097Y-104182225D01*
X213220112Y-104478762D01*
X213235001Y-104553614D01*
X213235000Y-114372700D01*
X213203663Y-114385680D01*
X212810680Y-114778663D01*
X212725000Y-114985513D01*
X212639320Y-114778663D01*
X212246337Y-114385680D01*
X211732881Y-114173000D01*
X211177119Y-114173000D01*
X210663663Y-114385680D01*
X210270680Y-114778663D01*
X210185000Y-114985513D01*
X210099320Y-114778663D01*
X209706337Y-114385680D01*
X209192881Y-114173000D01*
X208637119Y-114173000D01*
X208123663Y-114385680D01*
X207730680Y-114778663D01*
X207645000Y-114985513D01*
X207559320Y-114778663D01*
X207166337Y-114385680D01*
X206652881Y-114173000D01*
X206097119Y-114173000D01*
X206065782Y-114185980D01*
X204425331Y-112545530D01*
X204382929Y-112482071D01*
X204131537Y-112314096D01*
X203909852Y-112270000D01*
X203909847Y-112270000D01*
X203835000Y-112255112D01*
X203760153Y-112270000D01*
X194681085Y-112270000D01*
X194606238Y-112255112D01*
X194531391Y-112270000D01*
X194531386Y-112270000D01*
X194309701Y-112314096D01*
X194058309Y-112482071D01*
X194015909Y-112545527D01*
X192103527Y-114457910D01*
X192040608Y-114499951D01*
X191926337Y-114385680D01*
X191412881Y-114173000D01*
X190857119Y-114173000D01*
X190343663Y-114385680D01*
X189950680Y-114778663D01*
X189865000Y-114985513D01*
X189779320Y-114778663D01*
X189386337Y-114385680D01*
X188872881Y-114173000D01*
X188317119Y-114173000D01*
X187803663Y-114385680D01*
X187410680Y-114778663D01*
X187325000Y-114985513D01*
X187239320Y-114778663D01*
X186846337Y-114385680D01*
X186332881Y-114173000D01*
X185777119Y-114173000D01*
X185263663Y-114385680D01*
X184870680Y-114778663D01*
X184785000Y-114985513D01*
X184699320Y-114778663D01*
X184306337Y-114385680D01*
X183792881Y-114173000D01*
X183237119Y-114173000D01*
X182723663Y-114385680D01*
X182330680Y-114778663D01*
X182245000Y-114985513D01*
X182159320Y-114778663D01*
X181766337Y-114385680D01*
X181252881Y-114173000D01*
X180697119Y-114173000D01*
X180183663Y-114385680D01*
X179790680Y-114778663D01*
X179578000Y-115292119D01*
X179578000Y-115847881D01*
X179790680Y-116361337D01*
X180183663Y-116754320D01*
X180697119Y-116967000D01*
X181252881Y-116967000D01*
X181766337Y-116754320D01*
X182159320Y-116361337D01*
X182245000Y-116154487D01*
X182330680Y-116361337D01*
X182723663Y-116754320D01*
X183237119Y-116967000D01*
X183792881Y-116967000D01*
X184306337Y-116754320D01*
X184699320Y-116361337D01*
X184785000Y-116154487D01*
X184870680Y-116361337D01*
X185263663Y-116754320D01*
X185777119Y-116967000D01*
X186332881Y-116967000D01*
X186846337Y-116754320D01*
X187239320Y-116361337D01*
X187325000Y-116154487D01*
X187410680Y-116361337D01*
X187803663Y-116754320D01*
X188317119Y-116967000D01*
X188872881Y-116967000D01*
X189386337Y-116754320D01*
X189779320Y-116361337D01*
X189865000Y-116154487D01*
X189950680Y-116361337D01*
X190343663Y-116754320D01*
X190857119Y-116967000D01*
X191412881Y-116967000D01*
X191828000Y-116795053D01*
X191827999Y-125157384D01*
X191813111Y-125232231D01*
X191827999Y-125307078D01*
X191827999Y-125307082D01*
X191872095Y-125528767D01*
X192040070Y-125780160D01*
X192103529Y-125822562D01*
X194423966Y-128143000D01*
X174222108Y-128143000D01*
X173894210Y-127759081D01*
X173482000Y-127086414D01*
X173482000Y-124035322D01*
X176935000Y-124035322D01*
X176935000Y-124884678D01*
X177260034Y-125669380D01*
X177860620Y-126269966D01*
X178645322Y-126595000D01*
X179494678Y-126595000D01*
X180279380Y-126269966D01*
X180879966Y-125669380D01*
X181205000Y-124884678D01*
X181205000Y-124035322D01*
X180879966Y-123250620D01*
X180279380Y-122650034D01*
X179494678Y-122325000D01*
X178645322Y-122325000D01*
X177860620Y-122650034D01*
X177260034Y-123250620D01*
X176935000Y-124035322D01*
X173482000Y-124035322D01*
X173482000Y-100052119D01*
X179578000Y-100052119D01*
X179578000Y-100607881D01*
X179790680Y-101121337D01*
X180183663Y-101514320D01*
X180697119Y-101727000D01*
X181252881Y-101727000D01*
X181766337Y-101514320D01*
X181970444Y-101310213D01*
X182714392Y-101310213D01*
X182783857Y-101552397D01*
X183307302Y-101739144D01*
X183862368Y-101711362D01*
X184246143Y-101552397D01*
X184315608Y-101310213D01*
X183515000Y-100509605D01*
X182714392Y-101310213D01*
X181970444Y-101310213D01*
X182159320Y-101121337D01*
X182238428Y-100930353D01*
X182292603Y-101061143D01*
X182534787Y-101130608D01*
X183335395Y-100330000D01*
X182534787Y-99529392D01*
X182292603Y-99598857D01*
X182242465Y-99739393D01*
X182159320Y-99538663D01*
X181970444Y-99349787D01*
X182714392Y-99349787D01*
X183515000Y-100150395D01*
X184315608Y-99349787D01*
X184246143Y-99107603D01*
X183722698Y-98920856D01*
X183167632Y-98948638D01*
X182783857Y-99107603D01*
X182714392Y-99349787D01*
X181970444Y-99349787D01*
X181766337Y-99145680D01*
X181252881Y-98933000D01*
X180697119Y-98933000D01*
X180183663Y-99145680D01*
X179790680Y-99538663D01*
X179578000Y-100052119D01*
X173482000Y-100052119D01*
X173482000Y-94352745D01*
X187806861Y-94352745D01*
X187880995Y-94598864D01*
X188418223Y-94791965D01*
X188988454Y-94764778D01*
X189389005Y-94598864D01*
X189463139Y-94352745D01*
X188635000Y-93524605D01*
X187806861Y-94352745D01*
X173482000Y-94352745D01*
X173482000Y-93128223D01*
X187188035Y-93128223D01*
X187215222Y-93698454D01*
X187381136Y-94099005D01*
X187627255Y-94173139D01*
X188455395Y-93345000D01*
X187627255Y-92516861D01*
X187381136Y-92590995D01*
X187188035Y-93128223D01*
X173482000Y-93128223D01*
X173482000Y-89257119D01*
X177673000Y-89257119D01*
X177673000Y-89812881D01*
X177885680Y-90326337D01*
X178094343Y-90535000D01*
X177885680Y-90743663D01*
X177673000Y-91257119D01*
X177673000Y-91812881D01*
X177885680Y-92326337D01*
X178278663Y-92719320D01*
X178792119Y-92932000D01*
X179347881Y-92932000D01*
X179861337Y-92719320D01*
X180243402Y-92337255D01*
X187806861Y-92337255D01*
X188635000Y-93165395D01*
X189463139Y-92337255D01*
X189389005Y-92091136D01*
X188851777Y-91898035D01*
X188281546Y-91925222D01*
X187880995Y-92091136D01*
X187806861Y-92337255D01*
X180243402Y-92337255D01*
X180254320Y-92326337D01*
X180467000Y-91812881D01*
X180467000Y-91257119D01*
X180254320Y-90743663D01*
X180045657Y-90535000D01*
X180254320Y-90326337D01*
X180427706Y-89907745D01*
X187171861Y-89907745D01*
X187245995Y-90153864D01*
X187783223Y-90346965D01*
X188353454Y-90319778D01*
X188754005Y-90153864D01*
X188828139Y-89907745D01*
X188000000Y-89079605D01*
X187171861Y-89907745D01*
X180427706Y-89907745D01*
X180467000Y-89812881D01*
X180467000Y-89257119D01*
X180254320Y-88743663D01*
X180193880Y-88683223D01*
X186553035Y-88683223D01*
X186580222Y-89253454D01*
X186746136Y-89654005D01*
X186992255Y-89728139D01*
X187820395Y-88900000D01*
X186992255Y-88071861D01*
X186746136Y-88145995D01*
X186553035Y-88683223D01*
X180193880Y-88683223D01*
X179861337Y-88350680D01*
X179596289Y-88240894D01*
X179070000Y-87714605D01*
X178543711Y-88240894D01*
X178278663Y-88350680D01*
X177885680Y-88743663D01*
X177673000Y-89257119D01*
X173482000Y-89257119D01*
X173482000Y-87327302D01*
X177660856Y-87327302D01*
X177688638Y-87882368D01*
X177847603Y-88266143D01*
X178089787Y-88335608D01*
X178890395Y-87535000D01*
X179249605Y-87535000D01*
X180050213Y-88335608D01*
X180292397Y-88266143D01*
X180425787Y-87892255D01*
X187171861Y-87892255D01*
X188000000Y-88720395D01*
X188828139Y-87892255D01*
X188754005Y-87646136D01*
X188216777Y-87453035D01*
X187646546Y-87480222D01*
X187245995Y-87646136D01*
X187171861Y-87892255D01*
X180425787Y-87892255D01*
X180479144Y-87742698D01*
X180451362Y-87187632D01*
X180292397Y-86803857D01*
X180050213Y-86734392D01*
X179249605Y-87535000D01*
X178890395Y-87535000D01*
X178089787Y-86734392D01*
X177847603Y-86803857D01*
X177660856Y-87327302D01*
X173482000Y-87327302D01*
X173482000Y-86554787D01*
X178269392Y-86554787D01*
X179070000Y-87355395D01*
X179870608Y-86554787D01*
X179801143Y-86312603D01*
X179277698Y-86125856D01*
X178722632Y-86153638D01*
X178338857Y-86312603D01*
X178269392Y-86554787D01*
X173482000Y-86554787D01*
X173482000Y-78950322D01*
X176935000Y-78950322D01*
X176935000Y-79799678D01*
X177260034Y-80584380D01*
X177860620Y-81184966D01*
X178645322Y-81510000D01*
X179494678Y-81510000D01*
X180279380Y-81184966D01*
X180879966Y-80584380D01*
X181205000Y-79799678D01*
X181205000Y-79732119D01*
X190913000Y-79732119D01*
X190913000Y-80287881D01*
X191125680Y-80801337D01*
X191518663Y-81194320D01*
X192032119Y-81407000D01*
X192587881Y-81407000D01*
X193101337Y-81194320D01*
X193305444Y-80990213D01*
X193509392Y-80990213D01*
X193578857Y-81232397D01*
X194102302Y-81419144D01*
X194657368Y-81391362D01*
X195041143Y-81232397D01*
X195110608Y-80990213D01*
X194310000Y-80189605D01*
X193509392Y-80990213D01*
X193305444Y-80990213D01*
X193494320Y-80801337D01*
X193604106Y-80536289D01*
X194130395Y-80010000D01*
X194489605Y-80010000D01*
X195015894Y-80536289D01*
X195125680Y-80801337D01*
X195518663Y-81194320D01*
X196032119Y-81407000D01*
X196587881Y-81407000D01*
X197101337Y-81194320D01*
X197494320Y-80801337D01*
X197707000Y-80287881D01*
X197707000Y-79815235D01*
X204712903Y-79815235D01*
X204712903Y-80505794D01*
X204809576Y-80739183D01*
X204988204Y-80917812D01*
X205221593Y-81014485D01*
X205912153Y-81014485D01*
X206070903Y-80855735D01*
X206070903Y-79656485D01*
X206324903Y-79656485D01*
X206324903Y-80855735D01*
X206483653Y-81014485D01*
X207174213Y-81014485D01*
X207407602Y-80917812D01*
X207586230Y-80739183D01*
X207682903Y-80505794D01*
X207682903Y-79815235D01*
X207524153Y-79656485D01*
X206324903Y-79656485D01*
X206070903Y-79656485D01*
X204871653Y-79656485D01*
X204712903Y-79815235D01*
X197707000Y-79815235D01*
X197707000Y-79732119D01*
X197623067Y-79529485D01*
X212303811Y-79529485D01*
X212419064Y-80108903D01*
X212747278Y-80600110D01*
X213238485Y-80928324D01*
X213671647Y-81014485D01*
X213964159Y-81014485D01*
X214397321Y-80928324D01*
X214888528Y-80600110D01*
X214900719Y-80581866D01*
X214909746Y-80627250D01*
X215050094Y-80837294D01*
X215260138Y-80977642D01*
X215507903Y-81026925D01*
X217207903Y-81026925D01*
X217455668Y-80977642D01*
X217665712Y-80837294D01*
X217806060Y-80627250D01*
X217855343Y-80379485D01*
X217855343Y-78950322D01*
X222655000Y-78950322D01*
X222655000Y-79799678D01*
X222980034Y-80584380D01*
X223580620Y-81184966D01*
X224365322Y-81510000D01*
X225214678Y-81510000D01*
X225999380Y-81184966D01*
X226599966Y-80584380D01*
X226925000Y-79799678D01*
X226925000Y-78950322D01*
X226599966Y-78165620D01*
X225999380Y-77565034D01*
X225214678Y-77240000D01*
X224365322Y-77240000D01*
X223580620Y-77565034D01*
X222980034Y-78165620D01*
X222655000Y-78950322D01*
X217855343Y-78950322D01*
X217855343Y-78679485D01*
X217806060Y-78431720D01*
X217665712Y-78221676D01*
X217455668Y-78081328D01*
X217207903Y-78032045D01*
X215507903Y-78032045D01*
X215260138Y-78081328D01*
X215050094Y-78221676D01*
X214909746Y-78431720D01*
X214900719Y-78477104D01*
X214888528Y-78458860D01*
X214397321Y-78130646D01*
X213964159Y-78044485D01*
X213671647Y-78044485D01*
X213238485Y-78130646D01*
X212747278Y-78458860D01*
X212419064Y-78950067D01*
X212303811Y-79529485D01*
X197623067Y-79529485D01*
X197494320Y-79218663D01*
X197101337Y-78825680D01*
X196587881Y-78613000D01*
X196032119Y-78613000D01*
X195518663Y-78825680D01*
X195125680Y-79218663D01*
X195015894Y-79483711D01*
X194489605Y-80010000D01*
X194130395Y-80010000D01*
X193604106Y-79483711D01*
X193494320Y-79218663D01*
X193305444Y-79029787D01*
X193509392Y-79029787D01*
X194310000Y-79830395D01*
X195110608Y-79029787D01*
X195041143Y-78787603D01*
X194517698Y-78600856D01*
X193962632Y-78628638D01*
X193578857Y-78787603D01*
X193509392Y-79029787D01*
X193305444Y-79029787D01*
X193101337Y-78825680D01*
X192587881Y-78613000D01*
X192032119Y-78613000D01*
X191518663Y-78825680D01*
X191125680Y-79218663D01*
X190913000Y-79732119D01*
X181205000Y-79732119D01*
X181205000Y-78950322D01*
X181040497Y-78553176D01*
X204712903Y-78553176D01*
X204712903Y-79243735D01*
X204871653Y-79402485D01*
X206070903Y-79402485D01*
X206070903Y-78203235D01*
X206324903Y-78203235D01*
X206324903Y-79402485D01*
X207524153Y-79402485D01*
X207682903Y-79243735D01*
X207682903Y-78553176D01*
X207586230Y-78319787D01*
X207407602Y-78141158D01*
X207174213Y-78044485D01*
X206483653Y-78044485D01*
X206324903Y-78203235D01*
X206070903Y-78203235D01*
X205912153Y-78044485D01*
X205221593Y-78044485D01*
X204988204Y-78141158D01*
X204809576Y-78319787D01*
X204712903Y-78553176D01*
X181040497Y-78553176D01*
X180879966Y-78165620D01*
X180279380Y-77565034D01*
X179494678Y-77240000D01*
X178645322Y-77240000D01*
X177860620Y-77565034D01*
X177260034Y-78165620D01*
X176935000Y-78950322D01*
X173482000Y-78950322D01*
X173482000Y-76748586D01*
X173894210Y-76075919D01*
X174222108Y-75692000D01*
X229637892Y-75692000D01*
X229965789Y-76075919D01*
X229965789Y-76075919D01*
G37*
X229965789Y-76075919D02*
X230378000Y-76748585D01*
X230378000Y-99497343D01*
X230026337Y-99145680D01*
X229512881Y-98933000D01*
X228957119Y-98933000D01*
X228443663Y-99145680D01*
X228050680Y-99538663D01*
X227965000Y-99745513D01*
X227879320Y-99538663D01*
X227486337Y-99145680D01*
X226972881Y-98933000D01*
X226417119Y-98933000D01*
X225903663Y-99145680D01*
X225510680Y-99538663D01*
X225425000Y-99745513D01*
X225339320Y-99538663D01*
X224946337Y-99145680D01*
X224432881Y-98933000D01*
X223877119Y-98933000D01*
X223363663Y-99145680D01*
X222970680Y-99538663D01*
X222885000Y-99745513D01*
X222799320Y-99538663D01*
X222406337Y-99145680D01*
X221892881Y-98933000D01*
X221337119Y-98933000D01*
X220823663Y-99145680D01*
X220430680Y-99538663D01*
X220345000Y-99745513D01*
X220259320Y-99538663D01*
X219866337Y-99145680D01*
X219352881Y-98933000D01*
X218797119Y-98933000D01*
X218747999Y-98953346D01*
X218747999Y-96266802D01*
X220194473Y-94820329D01*
X220257929Y-94777929D01*
X220425904Y-94526537D01*
X220438578Y-94462820D01*
X220900305Y-94154305D01*
X220980000Y-94035033D01*
X221059695Y-94154305D01*
X221605813Y-94519208D01*
X222250000Y-94647345D01*
X222894188Y-94519208D01*
X223440305Y-94154305D01*
X223541196Y-94003311D01*
X223712370Y-94221236D01*
X224275523Y-94537926D01*
X224407056Y-94569975D01*
X224663000Y-94450836D01*
X224663000Y-92837000D01*
X224917000Y-92837000D01*
X224917000Y-94450836D01*
X225172944Y-94569975D01*
X225304477Y-94537926D01*
X225867630Y-94221236D01*
X226266724Y-93713143D01*
X226441000Y-93091000D01*
X226441000Y-92837000D01*
X224917000Y-92837000D01*
X224663000Y-92837000D01*
X224643000Y-92837000D01*
X224643000Y-92583000D01*
X224663000Y-92583000D01*
X224663000Y-90969164D01*
X224917000Y-90969164D01*
X224917000Y-92583000D01*
X226441000Y-92583000D01*
X226441000Y-92329000D01*
X226266724Y-91706857D01*
X225867630Y-91198764D01*
X225304477Y-90882074D01*
X225172944Y-90850025D01*
X224917000Y-90969164D01*
X224663000Y-90969164D01*
X224407056Y-90850025D01*
X224275523Y-90882074D01*
X223712370Y-91198764D01*
X223541196Y-91416689D01*
X223440305Y-91265695D01*
X222894187Y-90900792D01*
X222250000Y-90772655D01*
X221742420Y-90873619D01*
X221189331Y-90320530D01*
X221146929Y-90257071D01*
X220895537Y-90089096D01*
X220673852Y-90045000D01*
X220673847Y-90045000D01*
X220599000Y-90030112D01*
X220524153Y-90045000D01*
X212164848Y-90045000D01*
X212090000Y-90030112D01*
X212015152Y-90045000D01*
X212015148Y-90045000D01*
X211841605Y-90079520D01*
X211793462Y-90089096D01*
X211606418Y-90214076D01*
X211542071Y-90257071D01*
X211499671Y-90320527D01*
X210593929Y-91226269D01*
X210336182Y-91175000D01*
X210033818Y-91175000D01*
X209586073Y-91264062D01*
X209142129Y-91560696D01*
X209002809Y-91352191D01*
X208792765Y-91211843D01*
X208545000Y-91162560D01*
X206745000Y-91162560D01*
X206497235Y-91211843D01*
X206287191Y-91352191D01*
X206146843Y-91562235D01*
X206097560Y-91810000D01*
X206097560Y-92061517D01*
X206023395Y-92111073D01*
X205947071Y-92162071D01*
X205904671Y-92225527D01*
X202370199Y-95760000D01*
X194624802Y-95760000D01*
X192548103Y-93683302D01*
X192570000Y-93630439D01*
X192570000Y-93059561D01*
X192875000Y-93059561D01*
X192875000Y-93630439D01*
X193093466Y-94157862D01*
X193497138Y-94561534D01*
X194024561Y-94780000D01*
X194595439Y-94780000D01*
X195122862Y-94561534D01*
X195526534Y-94157862D01*
X195718655Y-93694039D01*
X200538096Y-93694039D01*
X200698959Y-94082423D01*
X201074866Y-94497389D01*
X201580959Y-94736914D01*
X201803000Y-94615629D01*
X201803000Y-93472000D01*
X202057000Y-93472000D01*
X202057000Y-94615629D01*
X202279041Y-94736914D01*
X202785134Y-94497389D01*
X203161041Y-94082423D01*
X203321904Y-93694039D01*
X203199915Y-93472000D01*
X202057000Y-93472000D01*
X201803000Y-93472000D01*
X200660085Y-93472000D01*
X200538096Y-93694039D01*
X195718655Y-93694039D01*
X195745000Y-93630439D01*
X195745000Y-93059561D01*
X195718656Y-92995961D01*
X200538096Y-92995961D01*
X200660085Y-93218000D01*
X201803000Y-93218000D01*
X201803000Y-92074371D01*
X202057000Y-92074371D01*
X202057000Y-93218000D01*
X203199915Y-93218000D01*
X203321904Y-92995961D01*
X203161041Y-92607577D01*
X202785134Y-92192611D01*
X202279041Y-91953086D01*
X202057000Y-92074371D01*
X201803000Y-92074371D01*
X201580959Y-91953086D01*
X201074866Y-92192611D01*
X200698959Y-92607577D01*
X200538096Y-92995961D01*
X195718656Y-92995961D01*
X195526534Y-92532138D01*
X195122862Y-92128466D01*
X194595439Y-91910000D01*
X194024561Y-91910000D01*
X193497138Y-92128466D01*
X193093466Y-92532138D01*
X192875000Y-93059561D01*
X192570000Y-93059561D01*
X192351534Y-92532138D01*
X191947862Y-92128466D01*
X191420439Y-91910000D01*
X191260000Y-91910000D01*
X191260000Y-90347440D01*
X191300000Y-90347440D01*
X191547765Y-90298157D01*
X191757809Y-90157809D01*
X191898157Y-89947765D01*
X191947440Y-89700000D01*
X191947440Y-89535000D01*
X192846887Y-89535000D01*
X192958260Y-90094909D01*
X193275423Y-90569577D01*
X193750091Y-90886740D01*
X194168667Y-90970000D01*
X194451333Y-90970000D01*
X194869909Y-90886740D01*
X195344577Y-90569577D01*
X195661740Y-90094909D01*
X195773113Y-89535000D01*
X195716336Y-89249561D01*
X200495000Y-89249561D01*
X200495000Y-89820439D01*
X200713466Y-90347862D01*
X201117138Y-90751534D01*
X201644561Y-90970000D01*
X202215439Y-90970000D01*
X202742862Y-90751534D01*
X203146534Y-90347862D01*
X203365000Y-89820439D01*
X203365000Y-89249561D01*
X203146534Y-88722138D01*
X202742862Y-88318466D01*
X202215439Y-88100000D01*
X201644561Y-88100000D01*
X201117138Y-88318466D01*
X200713466Y-88722138D01*
X200495000Y-89249561D01*
X195716336Y-89249561D01*
X195661740Y-88975091D01*
X195344577Y-88500423D01*
X194869909Y-88183260D01*
X194451333Y-88100000D01*
X194168667Y-88100000D01*
X193750091Y-88183260D01*
X193275423Y-88500423D01*
X192958260Y-88975091D01*
X192846887Y-89535000D01*
X191947440Y-89535000D01*
X191947440Y-88100000D01*
X191898157Y-87852235D01*
X191757809Y-87642191D01*
X191547765Y-87501843D01*
X191300000Y-87452560D01*
X189700000Y-87452560D01*
X189452235Y-87501843D01*
X189242191Y-87642191D01*
X189101843Y-87852235D01*
X189055307Y-88086187D01*
X189007745Y-88071861D01*
X188179605Y-88900000D01*
X189007745Y-89728139D01*
X189055307Y-89713813D01*
X189101843Y-89947765D01*
X189242191Y-90157809D01*
X189452235Y-90298157D01*
X189700000Y-90347440D01*
X189740000Y-90347440D01*
X189740001Y-92546156D01*
X189642745Y-92516861D01*
X188814605Y-93345000D01*
X189642745Y-94173139D01*
X189888864Y-94099005D01*
X189891290Y-94092254D01*
X189918466Y-94157862D01*
X190322138Y-94561534D01*
X190849561Y-94780000D01*
X191420439Y-94780000D01*
X191473302Y-94758103D01*
X193719671Y-97004473D01*
X193762071Y-97067929D01*
X194013463Y-97235904D01*
X194235148Y-97280000D01*
X194235152Y-97280000D01*
X194309999Y-97294888D01*
X194384846Y-97280000D01*
X202610153Y-97280000D01*
X202685000Y-97294888D01*
X202759847Y-97280000D01*
X202759852Y-97280000D01*
X202981537Y-97235904D01*
X203232929Y-97067929D01*
X203275331Y-97004470D01*
X206257071Y-94022731D01*
X206287191Y-94067809D01*
X206497235Y-94208157D01*
X206745000Y-94257440D01*
X208545000Y-94257440D01*
X208792765Y-94208157D01*
X209002809Y-94067809D01*
X209142129Y-93859304D01*
X209586073Y-94155938D01*
X210033818Y-94245000D01*
X210336182Y-94245000D01*
X210783927Y-94155938D01*
X211291673Y-93816673D01*
X211455000Y-93572237D01*
X211618327Y-93816673D01*
X212126073Y-94155938D01*
X212573818Y-94245000D01*
X212876182Y-94245000D01*
X213323927Y-94155938D01*
X213831673Y-93816673D01*
X214170938Y-93308927D01*
X214290072Y-92710000D01*
X214170938Y-92111073D01*
X213831673Y-91603327D01*
X213774313Y-91565000D01*
X218319707Y-91565000D01*
X218154792Y-91811813D01*
X218059000Y-92293392D01*
X218059000Y-93126609D01*
X218154792Y-93608188D01*
X218519695Y-94154305D01*
X218634310Y-94230888D01*
X217503527Y-95361672D01*
X217440071Y-95404072D01*
X217397671Y-95467528D01*
X217397670Y-95467529D01*
X217272096Y-95655464D01*
X217213111Y-95952001D01*
X217228000Y-96026853D01*
X217227999Y-99104947D01*
X216812881Y-98933000D01*
X216257119Y-98933000D01*
X215743663Y-99145680D01*
X215350680Y-99538663D01*
X215265000Y-99745513D01*
X215179320Y-99538663D01*
X214786337Y-99145680D01*
X214272881Y-98933000D01*
X213717119Y-98933000D01*
X213203663Y-99145680D01*
X212810680Y-99538663D01*
X212725000Y-99745513D01*
X212639320Y-99538663D01*
X212246337Y-99145680D01*
X211732881Y-98933000D01*
X211177119Y-98933000D01*
X210663663Y-99145680D01*
X210270680Y-99538663D01*
X210185000Y-99745513D01*
X210099320Y-99538663D01*
X209706337Y-99145680D01*
X209192881Y-98933000D01*
X208637119Y-98933000D01*
X208123663Y-99145680D01*
X207730680Y-99538663D01*
X207645000Y-99745513D01*
X207559320Y-99538663D01*
X207166337Y-99145680D01*
X206652881Y-98933000D01*
X206097119Y-98933000D01*
X205583663Y-99145680D01*
X205190680Y-99538663D01*
X205105000Y-99745513D01*
X205019320Y-99538663D01*
X204626337Y-99145680D01*
X204112881Y-98933000D01*
X203557119Y-98933000D01*
X203043663Y-99145680D01*
X202650680Y-99538663D01*
X202565000Y-99745513D01*
X202479320Y-99538663D01*
X202086337Y-99145680D01*
X201572881Y-98933000D01*
X201017119Y-98933000D01*
X200503663Y-99145680D01*
X200110680Y-99538663D01*
X200025000Y-99745513D01*
X199939320Y-99538663D01*
X199546337Y-99145680D01*
X199032881Y-98933000D01*
X198477119Y-98933000D01*
X197963663Y-99145680D01*
X197570680Y-99538663D01*
X197485000Y-99745513D01*
X197399320Y-99538663D01*
X197006337Y-99145680D01*
X196492881Y-98933000D01*
X195937119Y-98933000D01*
X195423663Y-99145680D01*
X195030680Y-99538663D01*
X194945000Y-99745513D01*
X194859320Y-99538663D01*
X194466337Y-99145680D01*
X193952881Y-98933000D01*
X193397119Y-98933000D01*
X192883663Y-99145680D01*
X192490680Y-99538663D01*
X192405000Y-99745513D01*
X192319320Y-99538663D01*
X191926337Y-99145680D01*
X191412881Y-98933000D01*
X190857119Y-98933000D01*
X190343663Y-99145680D01*
X189950680Y-99538663D01*
X189865000Y-99745513D01*
X189779320Y-99538663D01*
X189386337Y-99145680D01*
X188872881Y-98933000D01*
X188317119Y-98933000D01*
X187803663Y-99145680D01*
X187410680Y-99538663D01*
X187325000Y-99745513D01*
X187239320Y-99538663D01*
X186846337Y-99145680D01*
X186332881Y-98933000D01*
X185777119Y-98933000D01*
X185263663Y-99145680D01*
X184870680Y-99538663D01*
X184791572Y-99729647D01*
X184737397Y-99598857D01*
X184495213Y-99529392D01*
X183694605Y-100330000D01*
X184495213Y-101130608D01*
X184737397Y-101061143D01*
X184787535Y-100920607D01*
X184870680Y-101121337D01*
X185263663Y-101514320D01*
X185777119Y-101727000D01*
X186332881Y-101727000D01*
X186846337Y-101514320D01*
X187239320Y-101121337D01*
X187325000Y-100914487D01*
X187410680Y-101121337D01*
X187803663Y-101514320D01*
X188317119Y-101727000D01*
X188872881Y-101727000D01*
X189386337Y-101514320D01*
X189779320Y-101121337D01*
X189865000Y-100914487D01*
X189950680Y-101121337D01*
X190343663Y-101514320D01*
X190857119Y-101727000D01*
X191412881Y-101727000D01*
X191926337Y-101514320D01*
X192319320Y-101121337D01*
X192405000Y-100914487D01*
X192490680Y-101121337D01*
X192883663Y-101514320D01*
X193397119Y-101727000D01*
X193952881Y-101727000D01*
X194466337Y-101514320D01*
X194859320Y-101121337D01*
X194945000Y-100914487D01*
X195030680Y-101121337D01*
X195423663Y-101514320D01*
X195937119Y-101727000D01*
X196492881Y-101727000D01*
X197006337Y-101514320D01*
X197399320Y-101121337D01*
X197485000Y-100914487D01*
X197570680Y-101121337D01*
X197963663Y-101514320D01*
X198477119Y-101727000D01*
X199032881Y-101727000D01*
X199546337Y-101514320D01*
X199939320Y-101121337D01*
X200025000Y-100914487D01*
X200110680Y-101121337D01*
X200503663Y-101514320D01*
X201017119Y-101727000D01*
X201572881Y-101727000D01*
X202086337Y-101514320D01*
X202479320Y-101121337D01*
X202565000Y-100914487D01*
X202650680Y-101121337D01*
X203043663Y-101514320D01*
X203557119Y-101727000D01*
X204112881Y-101727000D01*
X204626337Y-101514320D01*
X205019320Y-101121337D01*
X205105000Y-100914487D01*
X205190680Y-101121337D01*
X205583663Y-101514320D01*
X206097119Y-101727000D01*
X206652881Y-101727000D01*
X207166337Y-101514320D01*
X207559320Y-101121337D01*
X207645000Y-100914487D01*
X207730680Y-101121337D01*
X208123663Y-101514320D01*
X208637119Y-101727000D01*
X209192881Y-101727000D01*
X209706337Y-101514320D01*
X210099320Y-101121337D01*
X210185000Y-100914487D01*
X210270680Y-101121337D01*
X210663663Y-101514320D01*
X211177119Y-101727000D01*
X211732881Y-101727000D01*
X212246337Y-101514320D01*
X212639320Y-101121337D01*
X212725000Y-100914487D01*
X212810680Y-101121337D01*
X213203663Y-101514320D01*
X213717119Y-101727000D01*
X214272881Y-101727000D01*
X214786337Y-101514320D01*
X215179320Y-101121337D01*
X215265000Y-100914487D01*
X215350680Y-101121337D01*
X215743663Y-101514320D01*
X215843349Y-101555611D01*
X213510528Y-103888433D01*
X213447072Y-103930833D01*
X213404672Y-103994289D01*
X213404671Y-103994290D01*
X213279097Y-104182225D01*
X213220112Y-104478762D01*
X213235001Y-104553614D01*
X213235000Y-114372700D01*
X213203663Y-114385680D01*
X212810680Y-114778663D01*
X212725000Y-114985513D01*
X212639320Y-114778663D01*
X212246337Y-114385680D01*
X211732881Y-114173000D01*
X211177119Y-114173000D01*
X210663663Y-114385680D01*
X210270680Y-114778663D01*
X210185000Y-114985513D01*
X210099320Y-114778663D01*
X209706337Y-114385680D01*
X209192881Y-114173000D01*
X208637119Y-114173000D01*
X208123663Y-114385680D01*
X207730680Y-114778663D01*
X207645000Y-114985513D01*
X207559320Y-114778663D01*
X207166337Y-114385680D01*
X206652881Y-114173000D01*
X206097119Y-114173000D01*
X206065782Y-114185980D01*
X204425331Y-112545530D01*
X204382929Y-112482071D01*
X204131537Y-112314096D01*
X203909852Y-112270000D01*
X203909847Y-112270000D01*
X203835000Y-112255112D01*
X203760153Y-112270000D01*
X194681085Y-112270000D01*
X194606238Y-112255112D01*
X194531391Y-112270000D01*
X194531386Y-112270000D01*
X194309701Y-112314096D01*
X194058309Y-112482071D01*
X194015909Y-112545527D01*
X192103527Y-114457910D01*
X192040608Y-114499951D01*
X191926337Y-114385680D01*
X191412881Y-114173000D01*
X190857119Y-114173000D01*
X190343663Y-114385680D01*
X189950680Y-114778663D01*
X189865000Y-114985513D01*
X189779320Y-114778663D01*
X189386337Y-114385680D01*
X188872881Y-114173000D01*
X188317119Y-114173000D01*
X187803663Y-114385680D01*
X187410680Y-114778663D01*
X187325000Y-114985513D01*
X187239320Y-114778663D01*
X186846337Y-114385680D01*
X186332881Y-114173000D01*
X185777119Y-114173000D01*
X185263663Y-114385680D01*
X184870680Y-114778663D01*
X184785000Y-114985513D01*
X184699320Y-114778663D01*
X184306337Y-114385680D01*
X183792881Y-114173000D01*
X183237119Y-114173000D01*
X182723663Y-114385680D01*
X182330680Y-114778663D01*
X182245000Y-114985513D01*
X182159320Y-114778663D01*
X181766337Y-114385680D01*
X181252881Y-114173000D01*
X180697119Y-114173000D01*
X180183663Y-114385680D01*
X179790680Y-114778663D01*
X179578000Y-115292119D01*
X179578000Y-115847881D01*
X179790680Y-116361337D01*
X180183663Y-116754320D01*
X180697119Y-116967000D01*
X181252881Y-116967000D01*
X181766337Y-116754320D01*
X182159320Y-116361337D01*
X182245000Y-116154487D01*
X182330680Y-116361337D01*
X182723663Y-116754320D01*
X183237119Y-116967000D01*
X183792881Y-116967000D01*
X184306337Y-116754320D01*
X184699320Y-116361337D01*
X184785000Y-116154487D01*
X184870680Y-116361337D01*
X185263663Y-116754320D01*
X185777119Y-116967000D01*
X186332881Y-116967000D01*
X186846337Y-116754320D01*
X187239320Y-116361337D01*
X187325000Y-116154487D01*
X187410680Y-116361337D01*
X187803663Y-116754320D01*
X188317119Y-116967000D01*
X188872881Y-116967000D01*
X189386337Y-116754320D01*
X189779320Y-116361337D01*
X189865000Y-116154487D01*
X189950680Y-116361337D01*
X190343663Y-116754320D01*
X190857119Y-116967000D01*
X191412881Y-116967000D01*
X191828000Y-116795053D01*
X191827999Y-125157384D01*
X191813111Y-125232231D01*
X191827999Y-125307078D01*
X191827999Y-125307082D01*
X191872095Y-125528767D01*
X192040070Y-125780160D01*
X192103529Y-125822562D01*
X194423966Y-128143000D01*
X174222108Y-128143000D01*
X173894210Y-127759081D01*
X173482000Y-127086414D01*
X173482000Y-124035322D01*
X176935000Y-124035322D01*
X176935000Y-124884678D01*
X177260034Y-125669380D01*
X177860620Y-126269966D01*
X178645322Y-126595000D01*
X179494678Y-126595000D01*
X180279380Y-126269966D01*
X180879966Y-125669380D01*
X181205000Y-124884678D01*
X181205000Y-124035322D01*
X180879966Y-123250620D01*
X180279380Y-122650034D01*
X179494678Y-122325000D01*
X178645322Y-122325000D01*
X177860620Y-122650034D01*
X177260034Y-123250620D01*
X176935000Y-124035322D01*
X173482000Y-124035322D01*
X173482000Y-100052119D01*
X179578000Y-100052119D01*
X179578000Y-100607881D01*
X179790680Y-101121337D01*
X180183663Y-101514320D01*
X180697119Y-101727000D01*
X181252881Y-101727000D01*
X181766337Y-101514320D01*
X181970444Y-101310213D01*
X182714392Y-101310213D01*
X182783857Y-101552397D01*
X183307302Y-101739144D01*
X183862368Y-101711362D01*
X184246143Y-101552397D01*
X184315608Y-101310213D01*
X183515000Y-100509605D01*
X182714392Y-101310213D01*
X181970444Y-101310213D01*
X182159320Y-101121337D01*
X182238428Y-100930353D01*
X182292603Y-101061143D01*
X182534787Y-101130608D01*
X183335395Y-100330000D01*
X182534787Y-99529392D01*
X182292603Y-99598857D01*
X182242465Y-99739393D01*
X182159320Y-99538663D01*
X181970444Y-99349787D01*
X182714392Y-99349787D01*
X183515000Y-100150395D01*
X184315608Y-99349787D01*
X184246143Y-99107603D01*
X183722698Y-98920856D01*
X183167632Y-98948638D01*
X182783857Y-99107603D01*
X182714392Y-99349787D01*
X181970444Y-99349787D01*
X181766337Y-99145680D01*
X181252881Y-98933000D01*
X180697119Y-98933000D01*
X180183663Y-99145680D01*
X179790680Y-99538663D01*
X179578000Y-100052119D01*
X173482000Y-100052119D01*
X173482000Y-94352745D01*
X187806861Y-94352745D01*
X187880995Y-94598864D01*
X188418223Y-94791965D01*
X188988454Y-94764778D01*
X189389005Y-94598864D01*
X189463139Y-94352745D01*
X188635000Y-93524605D01*
X187806861Y-94352745D01*
X173482000Y-94352745D01*
X173482000Y-93128223D01*
X187188035Y-93128223D01*
X187215222Y-93698454D01*
X187381136Y-94099005D01*
X187627255Y-94173139D01*
X188455395Y-93345000D01*
X187627255Y-92516861D01*
X187381136Y-92590995D01*
X187188035Y-93128223D01*
X173482000Y-93128223D01*
X173482000Y-89257119D01*
X177673000Y-89257119D01*
X177673000Y-89812881D01*
X177885680Y-90326337D01*
X178094343Y-90535000D01*
X177885680Y-90743663D01*
X177673000Y-91257119D01*
X177673000Y-91812881D01*
X177885680Y-92326337D01*
X178278663Y-92719320D01*
X178792119Y-92932000D01*
X179347881Y-92932000D01*
X179861337Y-92719320D01*
X180243402Y-92337255D01*
X187806861Y-92337255D01*
X188635000Y-93165395D01*
X189463139Y-92337255D01*
X189389005Y-92091136D01*
X188851777Y-91898035D01*
X188281546Y-91925222D01*
X187880995Y-92091136D01*
X187806861Y-92337255D01*
X180243402Y-92337255D01*
X180254320Y-92326337D01*
X180467000Y-91812881D01*
X180467000Y-91257119D01*
X180254320Y-90743663D01*
X180045657Y-90535000D01*
X180254320Y-90326337D01*
X180427706Y-89907745D01*
X187171861Y-89907745D01*
X187245995Y-90153864D01*
X187783223Y-90346965D01*
X188353454Y-90319778D01*
X188754005Y-90153864D01*
X188828139Y-89907745D01*
X188000000Y-89079605D01*
X187171861Y-89907745D01*
X180427706Y-89907745D01*
X180467000Y-89812881D01*
X180467000Y-89257119D01*
X180254320Y-88743663D01*
X180193880Y-88683223D01*
X186553035Y-88683223D01*
X186580222Y-89253454D01*
X186746136Y-89654005D01*
X186992255Y-89728139D01*
X187820395Y-88900000D01*
X186992255Y-88071861D01*
X186746136Y-88145995D01*
X186553035Y-88683223D01*
X180193880Y-88683223D01*
X179861337Y-88350680D01*
X179596289Y-88240894D01*
X179070000Y-87714605D01*
X178543711Y-88240894D01*
X178278663Y-88350680D01*
X177885680Y-88743663D01*
X177673000Y-89257119D01*
X173482000Y-89257119D01*
X173482000Y-87327302D01*
X177660856Y-87327302D01*
X177688638Y-87882368D01*
X177847603Y-88266143D01*
X178089787Y-88335608D01*
X178890395Y-87535000D01*
X179249605Y-87535000D01*
X180050213Y-88335608D01*
X180292397Y-88266143D01*
X180425787Y-87892255D01*
X187171861Y-87892255D01*
X188000000Y-88720395D01*
X188828139Y-87892255D01*
X188754005Y-87646136D01*
X188216777Y-87453035D01*
X187646546Y-87480222D01*
X187245995Y-87646136D01*
X187171861Y-87892255D01*
X180425787Y-87892255D01*
X180479144Y-87742698D01*
X180451362Y-87187632D01*
X180292397Y-86803857D01*
X180050213Y-86734392D01*
X179249605Y-87535000D01*
X178890395Y-87535000D01*
X178089787Y-86734392D01*
X177847603Y-86803857D01*
X177660856Y-87327302D01*
X173482000Y-87327302D01*
X173482000Y-86554787D01*
X178269392Y-86554787D01*
X179070000Y-87355395D01*
X179870608Y-86554787D01*
X179801143Y-86312603D01*
X179277698Y-86125856D01*
X178722632Y-86153638D01*
X178338857Y-86312603D01*
X178269392Y-86554787D01*
X173482000Y-86554787D01*
X173482000Y-78950322D01*
X176935000Y-78950322D01*
X176935000Y-79799678D01*
X177260034Y-80584380D01*
X177860620Y-81184966D01*
X178645322Y-81510000D01*
X179494678Y-81510000D01*
X180279380Y-81184966D01*
X180879966Y-80584380D01*
X181205000Y-79799678D01*
X181205000Y-79732119D01*
X190913000Y-79732119D01*
X190913000Y-80287881D01*
X191125680Y-80801337D01*
X191518663Y-81194320D01*
X192032119Y-81407000D01*
X192587881Y-81407000D01*
X193101337Y-81194320D01*
X193305444Y-80990213D01*
X193509392Y-80990213D01*
X193578857Y-81232397D01*
X194102302Y-81419144D01*
X194657368Y-81391362D01*
X195041143Y-81232397D01*
X195110608Y-80990213D01*
X194310000Y-80189605D01*
X193509392Y-80990213D01*
X193305444Y-80990213D01*
X193494320Y-80801337D01*
X193604106Y-80536289D01*
X194130395Y-80010000D01*
X194489605Y-80010000D01*
X195015894Y-80536289D01*
X195125680Y-80801337D01*
X195518663Y-81194320D01*
X196032119Y-81407000D01*
X196587881Y-81407000D01*
X197101337Y-81194320D01*
X197494320Y-80801337D01*
X197707000Y-80287881D01*
X197707000Y-79815235D01*
X204712903Y-79815235D01*
X204712903Y-80505794D01*
X204809576Y-80739183D01*
X204988204Y-80917812D01*
X205221593Y-81014485D01*
X205912153Y-81014485D01*
X206070903Y-80855735D01*
X206070903Y-79656485D01*
X206324903Y-79656485D01*
X206324903Y-80855735D01*
X206483653Y-81014485D01*
X207174213Y-81014485D01*
X207407602Y-80917812D01*
X207586230Y-80739183D01*
X207682903Y-80505794D01*
X207682903Y-79815235D01*
X207524153Y-79656485D01*
X206324903Y-79656485D01*
X206070903Y-79656485D01*
X204871653Y-79656485D01*
X204712903Y-79815235D01*
X197707000Y-79815235D01*
X197707000Y-79732119D01*
X197623067Y-79529485D01*
X212303811Y-79529485D01*
X212419064Y-80108903D01*
X212747278Y-80600110D01*
X213238485Y-80928324D01*
X213671647Y-81014485D01*
X213964159Y-81014485D01*
X214397321Y-80928324D01*
X214888528Y-80600110D01*
X214900719Y-80581866D01*
X214909746Y-80627250D01*
X215050094Y-80837294D01*
X215260138Y-80977642D01*
X215507903Y-81026925D01*
X217207903Y-81026925D01*
X217455668Y-80977642D01*
X217665712Y-80837294D01*
X217806060Y-80627250D01*
X217855343Y-80379485D01*
X217855343Y-78950322D01*
X222655000Y-78950322D01*
X222655000Y-79799678D01*
X222980034Y-80584380D01*
X223580620Y-81184966D01*
X224365322Y-81510000D01*
X225214678Y-81510000D01*
X225999380Y-81184966D01*
X226599966Y-80584380D01*
X226925000Y-79799678D01*
X226925000Y-78950322D01*
X226599966Y-78165620D01*
X225999380Y-77565034D01*
X225214678Y-77240000D01*
X224365322Y-77240000D01*
X223580620Y-77565034D01*
X222980034Y-78165620D01*
X222655000Y-78950322D01*
X217855343Y-78950322D01*
X217855343Y-78679485D01*
X217806060Y-78431720D01*
X217665712Y-78221676D01*
X217455668Y-78081328D01*
X217207903Y-78032045D01*
X215507903Y-78032045D01*
X215260138Y-78081328D01*
X215050094Y-78221676D01*
X214909746Y-78431720D01*
X214900719Y-78477104D01*
X214888528Y-78458860D01*
X214397321Y-78130646D01*
X213964159Y-78044485D01*
X213671647Y-78044485D01*
X213238485Y-78130646D01*
X212747278Y-78458860D01*
X212419064Y-78950067D01*
X212303811Y-79529485D01*
X197623067Y-79529485D01*
X197494320Y-79218663D01*
X197101337Y-78825680D01*
X196587881Y-78613000D01*
X196032119Y-78613000D01*
X195518663Y-78825680D01*
X195125680Y-79218663D01*
X195015894Y-79483711D01*
X194489605Y-80010000D01*
X194130395Y-80010000D01*
X193604106Y-79483711D01*
X193494320Y-79218663D01*
X193305444Y-79029787D01*
X193509392Y-79029787D01*
X194310000Y-79830395D01*
X195110608Y-79029787D01*
X195041143Y-78787603D01*
X194517698Y-78600856D01*
X193962632Y-78628638D01*
X193578857Y-78787603D01*
X193509392Y-79029787D01*
X193305444Y-79029787D01*
X193101337Y-78825680D01*
X192587881Y-78613000D01*
X192032119Y-78613000D01*
X191518663Y-78825680D01*
X191125680Y-79218663D01*
X190913000Y-79732119D01*
X181205000Y-79732119D01*
X181205000Y-78950322D01*
X181040497Y-78553176D01*
X204712903Y-78553176D01*
X204712903Y-79243735D01*
X204871653Y-79402485D01*
X206070903Y-79402485D01*
X206070903Y-78203235D01*
X206324903Y-78203235D01*
X206324903Y-79402485D01*
X207524153Y-79402485D01*
X207682903Y-79243735D01*
X207682903Y-78553176D01*
X207586230Y-78319787D01*
X207407602Y-78141158D01*
X207174213Y-78044485D01*
X206483653Y-78044485D01*
X206324903Y-78203235D01*
X206070903Y-78203235D01*
X205912153Y-78044485D01*
X205221593Y-78044485D01*
X204988204Y-78141158D01*
X204809576Y-78319787D01*
X204712903Y-78553176D01*
X181040497Y-78553176D01*
X180879966Y-78165620D01*
X180279380Y-77565034D01*
X179494678Y-77240000D01*
X178645322Y-77240000D01*
X177860620Y-77565034D01*
X177260034Y-78165620D01*
X176935000Y-78950322D01*
X173482000Y-78950322D01*
X173482000Y-76748586D01*
X173894210Y-76075919D01*
X174222108Y-75692000D01*
X229637892Y-75692000D01*
X229965789Y-76075919D01*
G36*
X228050680Y-101121337D02*
X228443663Y-101514320D01*
X228957119Y-101727000D01*
X229512881Y-101727000D01*
X230026337Y-101514320D01*
X230378000Y-101162657D01*
X230378000Y-114816084D01*
X230215213Y-114769392D01*
X229414605Y-115570000D01*
X230215213Y-116370608D01*
X230378000Y-116323916D01*
X230378000Y-127086415D01*
X229965789Y-127759081D01*
X229637892Y-128143000D01*
X207576802Y-128143000D01*
X207824980Y-127894822D01*
X207964227Y-127952500D01*
X208595773Y-127952500D01*
X209179247Y-127710818D01*
X209625818Y-127264247D01*
X209867500Y-126680773D01*
X209867500Y-126049227D01*
X209625818Y-125465753D01*
X209188373Y-125028308D01*
X209218554Y-124943159D01*
X208280000Y-124004605D01*
X207341446Y-124943159D01*
X207371627Y-125028308D01*
X207010000Y-125389935D01*
X206715065Y-125095000D01*
X207076692Y-124733373D01*
X207161841Y-124763554D01*
X208100395Y-123825000D01*
X208459605Y-123825000D01*
X209398159Y-124763554D01*
X209660088Y-124670712D01*
X209878675Y-124078199D01*
X209876991Y-124035322D01*
X222655000Y-124035322D01*
X222655000Y-124884678D01*
X222980034Y-125669380D01*
X223580620Y-126269966D01*
X224365322Y-126595000D01*
X225214678Y-126595000D01*
X225999380Y-126269966D01*
X226599966Y-125669380D01*
X226925000Y-124884678D01*
X226925000Y-124035322D01*
X226599966Y-123250620D01*
X225999380Y-122650034D01*
X225214678Y-122325000D01*
X224365322Y-122325000D01*
X223580620Y-122650034D01*
X222980034Y-123250620D01*
X222655000Y-124035322D01*
X209876991Y-124035322D01*
X209853878Y-123447139D01*
X209660088Y-122979288D01*
X209398159Y-122886446D01*
X208459605Y-123825000D01*
X208100395Y-123825000D01*
X207161841Y-122886446D01*
X207076692Y-122916627D01*
X206866906Y-122706841D01*
X207341446Y-122706841D01*
X208280000Y-123645395D01*
X209218554Y-122706841D01*
X209125712Y-122444912D01*
X208533199Y-122226325D01*
X207902139Y-122251122D01*
X207434288Y-122444912D01*
X207341446Y-122706841D01*
X206866906Y-122706841D01*
X206639247Y-122479182D01*
X206055773Y-122237500D01*
X205424227Y-122237500D01*
X204840753Y-122479182D01*
X204470000Y-122849935D01*
X204099247Y-122479182D01*
X203515773Y-122237500D01*
X202884227Y-122237500D01*
X202300753Y-122479182D01*
X201930000Y-122849935D01*
X201559247Y-122479182D01*
X200975773Y-122237500D01*
X200782301Y-122237500D01*
X204149802Y-118870000D01*
X216460153Y-118870000D01*
X216535000Y-118884888D01*
X216609847Y-118870000D01*
X216609852Y-118870000D01*
X216831537Y-118825904D01*
X217082929Y-118657929D01*
X217125331Y-118594470D01*
X218765782Y-116954020D01*
X218797119Y-116967000D01*
X219352881Y-116967000D01*
X219866337Y-116754320D01*
X220259320Y-116361337D01*
X220345000Y-116154487D01*
X220430680Y-116361337D01*
X220823663Y-116754320D01*
X221337119Y-116967000D01*
X221892881Y-116967000D01*
X222406337Y-116754320D01*
X222799320Y-116361337D01*
X222885000Y-116154487D01*
X222970680Y-116361337D01*
X223363663Y-116754320D01*
X223877119Y-116967000D01*
X224432881Y-116967000D01*
X224946337Y-116754320D01*
X225150444Y-116550213D01*
X225894392Y-116550213D01*
X225963857Y-116792397D01*
X226487302Y-116979144D01*
X227042368Y-116951362D01*
X227426143Y-116792397D01*
X227495608Y-116550213D01*
X228434392Y-116550213D01*
X228503857Y-116792397D01*
X229027302Y-116979144D01*
X229582368Y-116951362D01*
X229966143Y-116792397D01*
X230035608Y-116550213D01*
X229235000Y-115749605D01*
X228434392Y-116550213D01*
X227495608Y-116550213D01*
X226695000Y-115749605D01*
X225894392Y-116550213D01*
X225150444Y-116550213D01*
X225339320Y-116361337D01*
X225418428Y-116170353D01*
X225472603Y-116301143D01*
X225714787Y-116370608D01*
X226515395Y-115570000D01*
X226874605Y-115570000D01*
X227675213Y-116370608D01*
X227917397Y-116301143D01*
X227961453Y-116177656D01*
X228012603Y-116301143D01*
X228254787Y-116370608D01*
X229055395Y-115570000D01*
X228254787Y-114769392D01*
X228012603Y-114838857D01*
X227968547Y-114962344D01*
X227917397Y-114838857D01*
X227675213Y-114769392D01*
X226874605Y-115570000D01*
X226515395Y-115570000D01*
X225714787Y-114769392D01*
X225472603Y-114838857D01*
X225422465Y-114979393D01*
X225339320Y-114778663D01*
X225150444Y-114589787D01*
X225894392Y-114589787D01*
X226695000Y-115390395D01*
X227495608Y-114589787D01*
X228434392Y-114589787D01*
X229235000Y-115390395D01*
X230035608Y-114589787D01*
X229966143Y-114347603D01*
X229442698Y-114160856D01*
X228887632Y-114188638D01*
X228503857Y-114347603D01*
X228434392Y-114589787D01*
X227495608Y-114589787D01*
X227426143Y-114347603D01*
X226902698Y-114160856D01*
X226347632Y-114188638D01*
X225963857Y-114347603D01*
X225894392Y-114589787D01*
X225150444Y-114589787D01*
X224946337Y-114385680D01*
X224432881Y-114173000D01*
X223877119Y-114173000D01*
X223363663Y-114385680D01*
X222970680Y-114778663D01*
X222885000Y-114985513D01*
X222799320Y-114778663D01*
X222406337Y-114385680D01*
X221892881Y-114173000D01*
X221337119Y-114173000D01*
X220823663Y-114385680D01*
X220430680Y-114778663D01*
X220345000Y-114985513D01*
X220259320Y-114778663D01*
X219866337Y-114385680D01*
X219352881Y-114173000D01*
X218797119Y-114173000D01*
X218283663Y-114385680D01*
X217890680Y-114778663D01*
X217805000Y-114985513D01*
X217719320Y-114778663D01*
X217326337Y-114385680D01*
X216812881Y-114173000D01*
X216257119Y-114173000D01*
X215743663Y-114385680D01*
X215350680Y-114778663D01*
X215265000Y-114985513D01*
X215179320Y-114778663D01*
X214786337Y-114385680D01*
X214755000Y-114372700D01*
X214755000Y-104793563D01*
X218158954Y-101389611D01*
X218283663Y-101514320D01*
X218797119Y-101727000D01*
X219352881Y-101727000D01*
X219866337Y-101514320D01*
X220259320Y-101121337D01*
X220345000Y-100914487D01*
X220430680Y-101121337D01*
X220823663Y-101514320D01*
X221337119Y-101727000D01*
X221892881Y-101727000D01*
X222406337Y-101514320D01*
X222799320Y-101121337D01*
X222885000Y-100914487D01*
X222970680Y-101121337D01*
X223363663Y-101514320D01*
X223877119Y-101727000D01*
X224432881Y-101727000D01*
X224946337Y-101514320D01*
X225339320Y-101121337D01*
X225425000Y-100914487D01*
X225510680Y-101121337D01*
X225903663Y-101514320D01*
X226417119Y-101727000D01*
X226972881Y-101727000D01*
X227486337Y-101514320D01*
X227879320Y-101121337D01*
X227965000Y-100914487D01*
X228050680Y-101121337D01*
X228050680Y-101121337D01*
G37*
X228050680Y-101121337D02*
X228443663Y-101514320D01*
X228957119Y-101727000D01*
X229512881Y-101727000D01*
X230026337Y-101514320D01*
X230378000Y-101162657D01*
X230378000Y-114816084D01*
X230215213Y-114769392D01*
X229414605Y-115570000D01*
X230215213Y-116370608D01*
X230378000Y-116323916D01*
X230378000Y-127086415D01*
X229965789Y-127759081D01*
X229637892Y-128143000D01*
X207576802Y-128143000D01*
X207824980Y-127894822D01*
X207964227Y-127952500D01*
X208595773Y-127952500D01*
X209179247Y-127710818D01*
X209625818Y-127264247D01*
X209867500Y-126680773D01*
X209867500Y-126049227D01*
X209625818Y-125465753D01*
X209188373Y-125028308D01*
X209218554Y-124943159D01*
X208280000Y-124004605D01*
X207341446Y-124943159D01*
X207371627Y-125028308D01*
X207010000Y-125389935D01*
X206715065Y-125095000D01*
X207076692Y-124733373D01*
X207161841Y-124763554D01*
X208100395Y-123825000D01*
X208459605Y-123825000D01*
X209398159Y-124763554D01*
X209660088Y-124670712D01*
X209878675Y-124078199D01*
X209876991Y-124035322D01*
X222655000Y-124035322D01*
X222655000Y-124884678D01*
X222980034Y-125669380D01*
X223580620Y-126269966D01*
X224365322Y-126595000D01*
X225214678Y-126595000D01*
X225999380Y-126269966D01*
X226599966Y-125669380D01*
X226925000Y-124884678D01*
X226925000Y-124035322D01*
X226599966Y-123250620D01*
X225999380Y-122650034D01*
X225214678Y-122325000D01*
X224365322Y-122325000D01*
X223580620Y-122650034D01*
X222980034Y-123250620D01*
X222655000Y-124035322D01*
X209876991Y-124035322D01*
X209853878Y-123447139D01*
X209660088Y-122979288D01*
X209398159Y-122886446D01*
X208459605Y-123825000D01*
X208100395Y-123825000D01*
X207161841Y-122886446D01*
X207076692Y-122916627D01*
X206866906Y-122706841D01*
X207341446Y-122706841D01*
X208280000Y-123645395D01*
X209218554Y-122706841D01*
X209125712Y-122444912D01*
X208533199Y-122226325D01*
X207902139Y-122251122D01*
X207434288Y-122444912D01*
X207341446Y-122706841D01*
X206866906Y-122706841D01*
X206639247Y-122479182D01*
X206055773Y-122237500D01*
X205424227Y-122237500D01*
X204840753Y-122479182D01*
X204470000Y-122849935D01*
X204099247Y-122479182D01*
X203515773Y-122237500D01*
X202884227Y-122237500D01*
X202300753Y-122479182D01*
X201930000Y-122849935D01*
X201559247Y-122479182D01*
X200975773Y-122237500D01*
X200782301Y-122237500D01*
X204149802Y-118870000D01*
X216460153Y-118870000D01*
X216535000Y-118884888D01*
X216609847Y-118870000D01*
X216609852Y-118870000D01*
X216831537Y-118825904D01*
X217082929Y-118657929D01*
X217125331Y-118594470D01*
X218765782Y-116954020D01*
X218797119Y-116967000D01*
X219352881Y-116967000D01*
X219866337Y-116754320D01*
X220259320Y-116361337D01*
X220345000Y-116154487D01*
X220430680Y-116361337D01*
X220823663Y-116754320D01*
X221337119Y-116967000D01*
X221892881Y-116967000D01*
X222406337Y-116754320D01*
X222799320Y-116361337D01*
X222885000Y-116154487D01*
X222970680Y-116361337D01*
X223363663Y-116754320D01*
X223877119Y-116967000D01*
X224432881Y-116967000D01*
X224946337Y-116754320D01*
X225150444Y-116550213D01*
X225894392Y-116550213D01*
X225963857Y-116792397D01*
X226487302Y-116979144D01*
X227042368Y-116951362D01*
X227426143Y-116792397D01*
X227495608Y-116550213D01*
X228434392Y-116550213D01*
X228503857Y-116792397D01*
X229027302Y-116979144D01*
X229582368Y-116951362D01*
X229966143Y-116792397D01*
X230035608Y-116550213D01*
X229235000Y-115749605D01*
X228434392Y-116550213D01*
X227495608Y-116550213D01*
X226695000Y-115749605D01*
X225894392Y-116550213D01*
X225150444Y-116550213D01*
X225339320Y-116361337D01*
X225418428Y-116170353D01*
X225472603Y-116301143D01*
X225714787Y-116370608D01*
X226515395Y-115570000D01*
X226874605Y-115570000D01*
X227675213Y-116370608D01*
X227917397Y-116301143D01*
X227961453Y-116177656D01*
X228012603Y-116301143D01*
X228254787Y-116370608D01*
X229055395Y-115570000D01*
X228254787Y-114769392D01*
X228012603Y-114838857D01*
X227968547Y-114962344D01*
X227917397Y-114838857D01*
X227675213Y-114769392D01*
X226874605Y-115570000D01*
X226515395Y-115570000D01*
X225714787Y-114769392D01*
X225472603Y-114838857D01*
X225422465Y-114979393D01*
X225339320Y-114778663D01*
X225150444Y-114589787D01*
X225894392Y-114589787D01*
X226695000Y-115390395D01*
X227495608Y-114589787D01*
X228434392Y-114589787D01*
X229235000Y-115390395D01*
X230035608Y-114589787D01*
X229966143Y-114347603D01*
X229442698Y-114160856D01*
X228887632Y-114188638D01*
X228503857Y-114347603D01*
X228434392Y-114589787D01*
X227495608Y-114589787D01*
X227426143Y-114347603D01*
X226902698Y-114160856D01*
X226347632Y-114188638D01*
X225963857Y-114347603D01*
X225894392Y-114589787D01*
X225150444Y-114589787D01*
X224946337Y-114385680D01*
X224432881Y-114173000D01*
X223877119Y-114173000D01*
X223363663Y-114385680D01*
X222970680Y-114778663D01*
X222885000Y-114985513D01*
X222799320Y-114778663D01*
X222406337Y-114385680D01*
X221892881Y-114173000D01*
X221337119Y-114173000D01*
X220823663Y-114385680D01*
X220430680Y-114778663D01*
X220345000Y-114985513D01*
X220259320Y-114778663D01*
X219866337Y-114385680D01*
X219352881Y-114173000D01*
X218797119Y-114173000D01*
X218283663Y-114385680D01*
X217890680Y-114778663D01*
X217805000Y-114985513D01*
X217719320Y-114778663D01*
X217326337Y-114385680D01*
X216812881Y-114173000D01*
X216257119Y-114173000D01*
X215743663Y-114385680D01*
X215350680Y-114778663D01*
X215265000Y-114985513D01*
X215179320Y-114778663D01*
X214786337Y-114385680D01*
X214755000Y-114372700D01*
X214755000Y-104793563D01*
X218158954Y-101389611D01*
X218283663Y-101514320D01*
X218797119Y-101727000D01*
X219352881Y-101727000D01*
X219866337Y-101514320D01*
X220259320Y-101121337D01*
X220345000Y-100914487D01*
X220430680Y-101121337D01*
X220823663Y-101514320D01*
X221337119Y-101727000D01*
X221892881Y-101727000D01*
X222406337Y-101514320D01*
X222799320Y-101121337D01*
X222885000Y-100914487D01*
X222970680Y-101121337D01*
X223363663Y-101514320D01*
X223877119Y-101727000D01*
X224432881Y-101727000D01*
X224946337Y-101514320D01*
X225339320Y-101121337D01*
X225425000Y-100914487D01*
X225510680Y-101121337D01*
X225903663Y-101514320D01*
X226417119Y-101727000D01*
X226972881Y-101727000D01*
X227486337Y-101514320D01*
X227879320Y-101121337D01*
X227965000Y-100914487D01*
X228050680Y-101121337D01*
G04 #@! TD*
M02*
