G04 #@! TF.GenerationSoftware,KiCad,Pcbnew,(5.0.1-3-g963ef8bb5)*
G04 #@! TF.CreationDate,2019-04-02T14:03:18+07:00*
G04 #@! TF.ProjectId,STMaytal32v04,53544D617974616C33327630342E6B69,rev?*
G04 #@! TF.SameCoordinates,Original*
G04 #@! TF.FileFunction,Legend,Top*
G04 #@! TF.FilePolarity,Positive*
%FSLAX46Y46*%
G04 Gerber Fmt 4.6, Leading zero omitted, Abs format (unit mm)*
G04 Created by KiCad (PCBNEW (5.0.1-3-g963ef8bb5)) date Tuesday, April 02, 2019 at 02:03:18 PM*
%MOMM*%
%LPD*%
G01*
G04 APERTURE LIST*
%ADD10C,0.300000*%
%ADD11C,0.100000*%
%ADD12C,0.250000*%
%ADD13C,0.150000*%
%ADD14C,0.120000*%
G04 APERTURE END LIST*
D10*
X177176857Y-112534000D02*
X177034000Y-112462571D01*
X176819714Y-112462571D01*
X176605428Y-112534000D01*
X176462571Y-112676857D01*
X176391142Y-112819714D01*
X176319714Y-113105428D01*
X176319714Y-113319714D01*
X176391142Y-113605428D01*
X176462571Y-113748285D01*
X176605428Y-113891142D01*
X176819714Y-113962571D01*
X176962571Y-113962571D01*
X177176857Y-113891142D01*
X177248285Y-113819714D01*
X177248285Y-113319714D01*
X176962571Y-113319714D01*
D11*
X218702380Y-89352380D02*
X218702380Y-88352380D01*
X219083333Y-88352380D01*
X219178571Y-88400000D01*
X219226190Y-88447619D01*
X219273809Y-88542857D01*
X219273809Y-88685714D01*
X219226190Y-88780952D01*
X219178571Y-88828571D01*
X219083333Y-88876190D01*
X218702380Y-88876190D01*
X219607142Y-88352380D02*
X220226190Y-88352380D01*
X219892857Y-88733333D01*
X220035714Y-88733333D01*
X220130952Y-88780952D01*
X220178571Y-88828571D01*
X220226190Y-88923809D01*
X220226190Y-89161904D01*
X220178571Y-89257142D01*
X220130952Y-89304761D01*
X220035714Y-89352380D01*
X219750000Y-89352380D01*
X219654761Y-89304761D01*
X219607142Y-89257142D01*
X220845238Y-88352380D02*
X220940476Y-88352380D01*
X221035714Y-88400000D01*
X221083333Y-88447619D01*
X221130952Y-88542857D01*
X221178571Y-88733333D01*
X221178571Y-88971428D01*
X221130952Y-89161904D01*
X221083333Y-89257142D01*
X221035714Y-89304761D01*
X220940476Y-89352380D01*
X220845238Y-89352380D01*
X220750000Y-89304761D01*
X220702380Y-89257142D01*
X220654761Y-89161904D01*
X220607142Y-88971428D01*
X220607142Y-88733333D01*
X220654761Y-88542857D01*
X220702380Y-88447619D01*
X220750000Y-88400000D01*
X220845238Y-88352380D01*
X221607142Y-89352380D02*
X221607142Y-88352380D01*
X222178571Y-89352380D01*
X222178571Y-88352380D01*
X222845238Y-88352380D02*
X222940476Y-88352380D01*
X223035714Y-88400000D01*
X223083333Y-88447619D01*
X223130952Y-88542857D01*
X223178571Y-88733333D01*
X223178571Y-88971428D01*
X223130952Y-89161904D01*
X223083333Y-89257142D01*
X223035714Y-89304761D01*
X222940476Y-89352380D01*
X222845238Y-89352380D01*
X222750000Y-89304761D01*
X222702380Y-89257142D01*
X222654761Y-89161904D01*
X222607142Y-88971428D01*
X222607142Y-88733333D01*
X222654761Y-88542857D01*
X222702380Y-88447619D01*
X222750000Y-88400000D01*
X222845238Y-88352380D01*
X224035714Y-88352380D02*
X223845238Y-88352380D01*
X223750000Y-88400000D01*
X223702380Y-88447619D01*
X223607142Y-88590476D01*
X223559523Y-88780952D01*
X223559523Y-89161904D01*
X223607142Y-89257142D01*
X223654761Y-89304761D01*
X223750000Y-89352380D01*
X223940476Y-89352380D01*
X224035714Y-89304761D01*
X224083333Y-89257142D01*
X224130952Y-89161904D01*
X224130952Y-88923809D01*
X224083333Y-88828571D01*
X224035714Y-88780952D01*
X223940476Y-88733333D01*
X223750000Y-88733333D01*
X223654761Y-88780952D01*
X223607142Y-88828571D01*
X223559523Y-88923809D01*
X225035714Y-89352380D02*
X224559523Y-89352380D01*
X224559523Y-88352380D01*
X225369047Y-88828571D02*
X225702380Y-88828571D01*
X225845238Y-89352380D02*
X225369047Y-89352380D01*
X225369047Y-88352380D01*
X225845238Y-88352380D01*
X207446904Y-89352380D02*
X206970714Y-89352380D01*
X206970714Y-88352380D01*
X207780238Y-89352380D02*
X207780238Y-88352380D01*
X208113571Y-89066666D01*
X208446904Y-88352380D01*
X208446904Y-89352380D01*
X208827857Y-88352380D02*
X209494523Y-88352380D01*
X209065952Y-89352380D01*
X210018333Y-88780952D02*
X209923095Y-88733333D01*
X209875476Y-88685714D01*
X209827857Y-88590476D01*
X209827857Y-88542857D01*
X209875476Y-88447619D01*
X209923095Y-88400000D01*
X210018333Y-88352380D01*
X210208809Y-88352380D01*
X210304047Y-88400000D01*
X210351666Y-88447619D01*
X210399285Y-88542857D01*
X210399285Y-88590476D01*
X210351666Y-88685714D01*
X210304047Y-88733333D01*
X210208809Y-88780952D01*
X210018333Y-88780952D01*
X209923095Y-88828571D01*
X209875476Y-88876190D01*
X209827857Y-88971428D01*
X209827857Y-89161904D01*
X209875476Y-89257142D01*
X209923095Y-89304761D01*
X210018333Y-89352380D01*
X210208809Y-89352380D01*
X210304047Y-89304761D01*
X210351666Y-89257142D01*
X210399285Y-89161904D01*
X210399285Y-88971428D01*
X210351666Y-88876190D01*
X210304047Y-88828571D01*
X210208809Y-88780952D01*
X210827857Y-89352380D02*
X210827857Y-88352380D01*
X211161190Y-89066666D01*
X211494523Y-88352380D01*
X211494523Y-89352380D01*
X212161190Y-88352380D02*
X212256428Y-88352380D01*
X212351666Y-88400000D01*
X212399285Y-88447619D01*
X212446904Y-88542857D01*
X212494523Y-88733333D01*
X212494523Y-88971428D01*
X212446904Y-89161904D01*
X212399285Y-89257142D01*
X212351666Y-89304761D01*
X212256428Y-89352380D01*
X212161190Y-89352380D01*
X212065952Y-89304761D01*
X212018333Y-89257142D01*
X211970714Y-89161904D01*
X211923095Y-88971428D01*
X211923095Y-88733333D01*
X211970714Y-88542857D01*
X212018333Y-88447619D01*
X212065952Y-88400000D01*
X212161190Y-88352380D01*
X213399285Y-88352380D02*
X212923095Y-88352380D01*
X212875476Y-88828571D01*
X212923095Y-88780952D01*
X213018333Y-88733333D01*
X213256428Y-88733333D01*
X213351666Y-88780952D01*
X213399285Y-88828571D01*
X213446904Y-88923809D01*
X213446904Y-89161904D01*
X213399285Y-89257142D01*
X213351666Y-89304761D01*
X213256428Y-89352380D01*
X213018333Y-89352380D01*
X212923095Y-89304761D01*
X212875476Y-89257142D01*
X196564285Y-83589761D02*
X196707142Y-83637380D01*
X196945238Y-83637380D01*
X197040476Y-83589761D01*
X197088095Y-83542142D01*
X197135714Y-83446904D01*
X197135714Y-83351666D01*
X197088095Y-83256428D01*
X197040476Y-83208809D01*
X196945238Y-83161190D01*
X196754761Y-83113571D01*
X196659523Y-83065952D01*
X196611904Y-83018333D01*
X196564285Y-82923095D01*
X196564285Y-82827857D01*
X196611904Y-82732619D01*
X196659523Y-82685000D01*
X196754761Y-82637380D01*
X196992857Y-82637380D01*
X197135714Y-82685000D01*
X193929047Y-83256428D02*
X194690952Y-83256428D01*
X191389047Y-83256428D02*
X192150952Y-83256428D01*
X191770000Y-83637380D02*
X191770000Y-82875476D01*
X196953333Y-93797380D02*
X197143809Y-93797380D01*
X197239047Y-93749761D01*
X197286666Y-93702142D01*
X197381904Y-93559285D01*
X197429523Y-93368809D01*
X197429523Y-92987857D01*
X197381904Y-92892619D01*
X197334285Y-92845000D01*
X197239047Y-92797380D01*
X197048571Y-92797380D01*
X196953333Y-92845000D01*
X196905714Y-92892619D01*
X196858095Y-92987857D01*
X196858095Y-93225952D01*
X196905714Y-93321190D01*
X196953333Y-93368809D01*
X197048571Y-93416428D01*
X197239047Y-93416428D01*
X197334285Y-93368809D01*
X197381904Y-93321190D01*
X197429523Y-93225952D01*
X198381904Y-93797380D02*
X197810476Y-93797380D01*
X198096190Y-93797380D02*
X198096190Y-92797380D01*
X198000952Y-92940238D01*
X197905714Y-93035476D01*
X197810476Y-93083095D01*
X198810476Y-93797380D02*
X198810476Y-92797380D01*
X199381904Y-93797380D02*
X198953333Y-93225952D01*
X199381904Y-92797380D02*
X198810476Y-93368809D01*
X197334285Y-89320714D02*
X197334285Y-89987380D01*
X197096190Y-88939761D02*
X196858095Y-89654047D01*
X197477142Y-89654047D01*
X197762857Y-88987380D02*
X198429523Y-88987380D01*
X198000952Y-89987380D01*
X198810476Y-89987380D02*
X198810476Y-88987380D01*
X199381904Y-89987380D02*
X198953333Y-89415952D01*
X199381904Y-88987380D02*
X198810476Y-89558809D01*
D12*
X209002619Y-82954761D02*
X209145476Y-83002380D01*
X209383571Y-83002380D01*
X209478809Y-82954761D01*
X209526428Y-82907142D01*
X209574047Y-82811904D01*
X209574047Y-82716666D01*
X209526428Y-82621428D01*
X209478809Y-82573809D01*
X209383571Y-82526190D01*
X209193095Y-82478571D01*
X209097857Y-82430952D01*
X209050238Y-82383333D01*
X209002619Y-82288095D01*
X209002619Y-82192857D01*
X209050238Y-82097619D01*
X209097857Y-82050000D01*
X209193095Y-82002380D01*
X209431190Y-82002380D01*
X209574047Y-82050000D01*
X210383571Y-82954761D02*
X210288333Y-83002380D01*
X210097857Y-83002380D01*
X210002619Y-82954761D01*
X209955000Y-82859523D01*
X209955000Y-82478571D01*
X210002619Y-82383333D01*
X210097857Y-82335714D01*
X210288333Y-82335714D01*
X210383571Y-82383333D01*
X210431190Y-82478571D01*
X210431190Y-82573809D01*
X209955000Y-82669047D01*
X210859761Y-83002380D02*
X210859761Y-82335714D01*
X210859761Y-82526190D02*
X210907380Y-82430952D01*
X210955000Y-82383333D01*
X211050238Y-82335714D01*
X211145476Y-82335714D01*
X211478809Y-83002380D02*
X211478809Y-82335714D01*
X211478809Y-82002380D02*
X211431190Y-82050000D01*
X211478809Y-82097619D01*
X211526428Y-82050000D01*
X211478809Y-82002380D01*
X211478809Y-82097619D01*
X212383571Y-83002380D02*
X212383571Y-82478571D01*
X212335952Y-82383333D01*
X212240714Y-82335714D01*
X212050238Y-82335714D01*
X211955000Y-82383333D01*
X212383571Y-82954761D02*
X212288333Y-83002380D01*
X212050238Y-83002380D01*
X211955000Y-82954761D01*
X211907380Y-82859523D01*
X211907380Y-82764285D01*
X211955000Y-82669047D01*
X212050238Y-82621428D01*
X212288333Y-82621428D01*
X212383571Y-82573809D01*
X213002619Y-83002380D02*
X212907380Y-82954761D01*
X212859761Y-82859523D01*
X212859761Y-82002380D01*
X213907380Y-83002380D02*
X213335952Y-83002380D01*
X213621666Y-83002380D02*
X213621666Y-82002380D01*
X213526428Y-82145238D01*
X213431190Y-82240476D01*
X213335952Y-82288095D01*
X215773095Y-75652380D02*
X216344523Y-75652380D01*
X216058809Y-76652380D02*
X216058809Y-75652380D01*
X216582619Y-75652380D02*
X217249285Y-76652380D01*
X217249285Y-75652380D02*
X216582619Y-76652380D01*
X213193333Y-76652380D02*
X212860000Y-76176190D01*
X212621904Y-76652380D02*
X212621904Y-75652380D01*
X213002857Y-75652380D01*
X213098095Y-75700000D01*
X213145714Y-75747619D01*
X213193333Y-75842857D01*
X213193333Y-75985714D01*
X213145714Y-76080952D01*
X213098095Y-76128571D01*
X213002857Y-76176190D01*
X212621904Y-76176190D01*
X213526666Y-75652380D02*
X214193333Y-76652380D01*
X214193333Y-75652380D02*
X213526666Y-76652380D01*
X205613095Y-75700000D02*
X205517857Y-75652380D01*
X205375000Y-75652380D01*
X205232142Y-75700000D01*
X205136904Y-75795238D01*
X205089285Y-75890476D01*
X205041666Y-76080952D01*
X205041666Y-76223809D01*
X205089285Y-76414285D01*
X205136904Y-76509523D01*
X205232142Y-76604761D01*
X205375000Y-76652380D01*
X205470238Y-76652380D01*
X205613095Y-76604761D01*
X205660714Y-76557142D01*
X205660714Y-76223809D01*
X205470238Y-76223809D01*
X206089285Y-76652380D02*
X206089285Y-75652380D01*
X206660714Y-76652380D01*
X206660714Y-75652380D01*
X207136904Y-76652380D02*
X207136904Y-75652380D01*
X207375000Y-75652380D01*
X207517857Y-75700000D01*
X207613095Y-75795238D01*
X207660714Y-75890476D01*
X207708333Y-76080952D01*
X207708333Y-76223809D01*
X207660714Y-76414285D01*
X207613095Y-76509523D01*
X207517857Y-76604761D01*
X207375000Y-76652380D01*
X207136904Y-76652380D01*
X191976666Y-76604761D02*
X192119523Y-76652380D01*
X192357619Y-76652380D01*
X192452857Y-76604761D01*
X192500476Y-76557142D01*
X192548095Y-76461904D01*
X192548095Y-76366666D01*
X192500476Y-76271428D01*
X192452857Y-76223809D01*
X192357619Y-76176190D01*
X192167142Y-76128571D01*
X192071904Y-76080952D01*
X192024285Y-76033333D01*
X191976666Y-75938095D01*
X191976666Y-75842857D01*
X192024285Y-75747619D01*
X192071904Y-75700000D01*
X192167142Y-75652380D01*
X192405238Y-75652380D01*
X192548095Y-75700000D01*
X193357619Y-76604761D02*
X193262380Y-76652380D01*
X193071904Y-76652380D01*
X192976666Y-76604761D01*
X192929047Y-76509523D01*
X192929047Y-76128571D01*
X192976666Y-76033333D01*
X193071904Y-75985714D01*
X193262380Y-75985714D01*
X193357619Y-76033333D01*
X193405238Y-76128571D01*
X193405238Y-76223809D01*
X192929047Y-76319047D01*
X193833809Y-75985714D02*
X193833809Y-76652380D01*
X193833809Y-76080952D02*
X193881428Y-76033333D01*
X193976666Y-75985714D01*
X194119523Y-75985714D01*
X194214761Y-76033333D01*
X194262380Y-76128571D01*
X194262380Y-76652380D01*
X194690952Y-76604761D02*
X194786190Y-76652380D01*
X194976666Y-76652380D01*
X195071904Y-76604761D01*
X195119523Y-76509523D01*
X195119523Y-76461904D01*
X195071904Y-76366666D01*
X194976666Y-76319047D01*
X194833809Y-76319047D01*
X194738571Y-76271428D01*
X194690952Y-76176190D01*
X194690952Y-76128571D01*
X194738571Y-76033333D01*
X194833809Y-75985714D01*
X194976666Y-75985714D01*
X195071904Y-76033333D01*
X195690952Y-76652380D02*
X195595714Y-76604761D01*
X195548095Y-76557142D01*
X195500476Y-76461904D01*
X195500476Y-76176190D01*
X195548095Y-76080952D01*
X195595714Y-76033333D01*
X195690952Y-75985714D01*
X195833809Y-75985714D01*
X195929047Y-76033333D01*
X195976666Y-76080952D01*
X196024285Y-76176190D01*
X196024285Y-76461904D01*
X195976666Y-76557142D01*
X195929047Y-76604761D01*
X195833809Y-76652380D01*
X195690952Y-76652380D01*
X196452857Y-76652380D02*
X196452857Y-75985714D01*
X196452857Y-76176190D02*
X196500476Y-76080952D01*
X196548095Y-76033333D01*
X196643333Y-75985714D01*
X196738571Y-75985714D01*
D13*
G04 #@! TO.C,J1*
X193310000Y-82510000D02*
X195310000Y-82510000D01*
X190310000Y-82510000D02*
X190310000Y-77510000D01*
X193310000Y-82510000D02*
X190310000Y-82510000D01*
X193310000Y-81510000D02*
X193310000Y-82510000D01*
X195310000Y-81510000D02*
X193310000Y-81510000D01*
X195310000Y-82510000D02*
X195310000Y-81510000D01*
X198310000Y-82510000D02*
X195310000Y-82510000D01*
X198310000Y-77510000D02*
X198310000Y-82510000D01*
X190310000Y-77510000D02*
X198310000Y-77510000D01*
D14*
G04 #@! TO.C,C1*
X192100000Y-89550000D02*
X192100000Y-88250000D01*
X192700000Y-88900000D02*
X191500000Y-88900000D01*
X186689000Y-89254000D02*
X186689000Y-88546000D01*
X186729000Y-89459000D02*
X186729000Y-88341000D01*
X186769000Y-89607000D02*
X186769000Y-88193000D01*
X186809000Y-89729000D02*
X186809000Y-88071000D01*
X186849000Y-89834000D02*
X186849000Y-87966000D01*
X186889000Y-89928000D02*
X186889000Y-87872000D01*
X186929000Y-90012000D02*
X186929000Y-87788000D01*
X186969000Y-90089000D02*
X186969000Y-87711000D01*
X187009000Y-90161000D02*
X187009000Y-87639000D01*
X187049000Y-87920000D02*
X187049000Y-87573000D01*
X187049000Y-90227000D02*
X187049000Y-89880000D01*
X187089000Y-87920000D02*
X187089000Y-87510000D01*
X187089000Y-90290000D02*
X187089000Y-89880000D01*
X187129000Y-87920000D02*
X187129000Y-87452000D01*
X187129000Y-90348000D02*
X187129000Y-89880000D01*
X187169000Y-87920000D02*
X187169000Y-87396000D01*
X187169000Y-90404000D02*
X187169000Y-89880000D01*
X187209000Y-87920000D02*
X187209000Y-87344000D01*
X187209000Y-90456000D02*
X187209000Y-89880000D01*
X187249000Y-87920000D02*
X187249000Y-87294000D01*
X187249000Y-90506000D02*
X187249000Y-89880000D01*
X187289000Y-87920000D02*
X187289000Y-87246000D01*
X187289000Y-90554000D02*
X187289000Y-89880000D01*
X187329000Y-87920000D02*
X187329000Y-87201000D01*
X187329000Y-90599000D02*
X187329000Y-89880000D01*
X187369000Y-87920000D02*
X187369000Y-87158000D01*
X187369000Y-90642000D02*
X187369000Y-89880000D01*
X187409000Y-87920000D02*
X187409000Y-87117000D01*
X187409000Y-90683000D02*
X187409000Y-89880000D01*
X187449000Y-87920000D02*
X187449000Y-87077000D01*
X187449000Y-90723000D02*
X187449000Y-89880000D01*
X187489000Y-87920000D02*
X187489000Y-87039000D01*
X187489000Y-90761000D02*
X187489000Y-89880000D01*
X187529000Y-87920000D02*
X187529000Y-87003000D01*
X187529000Y-90797000D02*
X187529000Y-89880000D01*
X187569000Y-87920000D02*
X187569000Y-86968000D01*
X187569000Y-90832000D02*
X187569000Y-89880000D01*
X187609000Y-87920000D02*
X187609000Y-86935000D01*
X187609000Y-90865000D02*
X187609000Y-89880000D01*
X187649000Y-87920000D02*
X187649000Y-86903000D01*
X187649000Y-90897000D02*
X187649000Y-89880000D01*
X187689000Y-87920000D02*
X187689000Y-86872000D01*
X187689000Y-90928000D02*
X187689000Y-89880000D01*
X187729000Y-87920000D02*
X187729000Y-86842000D01*
X187729000Y-90958000D02*
X187729000Y-89880000D01*
X187769000Y-87920000D02*
X187769000Y-86814000D01*
X187769000Y-90986000D02*
X187769000Y-89880000D01*
X187809000Y-87920000D02*
X187809000Y-86787000D01*
X187809000Y-91013000D02*
X187809000Y-89880000D01*
X187849000Y-87920000D02*
X187849000Y-86760000D01*
X187849000Y-91040000D02*
X187849000Y-89880000D01*
X187889000Y-87920000D02*
X187889000Y-86735000D01*
X187889000Y-91065000D02*
X187889000Y-89880000D01*
X187929000Y-87920000D02*
X187929000Y-86711000D01*
X187929000Y-91089000D02*
X187929000Y-89880000D01*
X187969000Y-87920000D02*
X187969000Y-86688000D01*
X187969000Y-91112000D02*
X187969000Y-89880000D01*
X188009000Y-87920000D02*
X188009000Y-86666000D01*
X188009000Y-91134000D02*
X188009000Y-89880000D01*
X188049000Y-87920000D02*
X188049000Y-86644000D01*
X188049000Y-91156000D02*
X188049000Y-89880000D01*
X188089000Y-87920000D02*
X188089000Y-86624000D01*
X188089000Y-91176000D02*
X188089000Y-89880000D01*
X188129000Y-87920000D02*
X188129000Y-86604000D01*
X188129000Y-91196000D02*
X188129000Y-89880000D01*
X188169000Y-87920000D02*
X188169000Y-86585000D01*
X188169000Y-91215000D02*
X188169000Y-89880000D01*
X188209000Y-87920000D02*
X188209000Y-86567000D01*
X188209000Y-91233000D02*
X188209000Y-89880000D01*
X188249000Y-87920000D02*
X188249000Y-86550000D01*
X188249000Y-91250000D02*
X188249000Y-89880000D01*
X188289000Y-87920000D02*
X188289000Y-86534000D01*
X188289000Y-91266000D02*
X188289000Y-89880000D01*
X188329000Y-87920000D02*
X188329000Y-86518000D01*
X188329000Y-91282000D02*
X188329000Y-89880000D01*
X188369000Y-87920000D02*
X188369000Y-86504000D01*
X188369000Y-91296000D02*
X188369000Y-89880000D01*
X188409000Y-87920000D02*
X188409000Y-86490000D01*
X188409000Y-91310000D02*
X188409000Y-89880000D01*
X188449000Y-87920000D02*
X188449000Y-86476000D01*
X188449000Y-91324000D02*
X188449000Y-89880000D01*
X188489000Y-87920000D02*
X188489000Y-86464000D01*
X188489000Y-91336000D02*
X188489000Y-89880000D01*
X188529000Y-87920000D02*
X188529000Y-86452000D01*
X188529000Y-91348000D02*
X188529000Y-89880000D01*
X188570000Y-87920000D02*
X188570000Y-86440000D01*
X188570000Y-91360000D02*
X188570000Y-89880000D01*
X188610000Y-87920000D02*
X188610000Y-86430000D01*
X188610000Y-91370000D02*
X188610000Y-89880000D01*
X188650000Y-87920000D02*
X188650000Y-86420000D01*
X188650000Y-91380000D02*
X188650000Y-89880000D01*
X188690000Y-87920000D02*
X188690000Y-86411000D01*
X188690000Y-91389000D02*
X188690000Y-89880000D01*
X188730000Y-87920000D02*
X188730000Y-86402000D01*
X188730000Y-91398000D02*
X188730000Y-89880000D01*
X188770000Y-87920000D02*
X188770000Y-86394000D01*
X188770000Y-91406000D02*
X188770000Y-89880000D01*
X188810000Y-87920000D02*
X188810000Y-86387000D01*
X188810000Y-91413000D02*
X188810000Y-89880000D01*
X188850000Y-87920000D02*
X188850000Y-86381000D01*
X188850000Y-91419000D02*
X188850000Y-89880000D01*
X188890000Y-87920000D02*
X188890000Y-86375000D01*
X188890000Y-91425000D02*
X188890000Y-89880000D01*
X188930000Y-87920000D02*
X188930000Y-86369000D01*
X188930000Y-91431000D02*
X188930000Y-89880000D01*
X188970000Y-87920000D02*
X188970000Y-86365000D01*
X188970000Y-91435000D02*
X188970000Y-89880000D01*
X189010000Y-91439000D02*
X189010000Y-86361000D01*
X189050000Y-91443000D02*
X189050000Y-86357000D01*
X189090000Y-91446000D02*
X189090000Y-86354000D01*
X189130000Y-91448000D02*
X189130000Y-86352000D01*
X189170000Y-91449000D02*
X189170000Y-86351000D01*
X189210000Y-91450000D02*
X189210000Y-86350000D01*
X189250000Y-91450000D02*
X189250000Y-86350000D01*
X186944278Y-87720277D02*
G75*
G03X186944420Y-90080000I2305722J-1179723D01*
G01*
X186944278Y-87720277D02*
G75*
G02X191555580Y-87720000I2305722J-1179723D01*
G01*
X186944278Y-90079723D02*
G75*
G03X191555580Y-90080000I2305722J1179723D01*
G01*
G04 #@! TO.C,R2*
X201330000Y-94655000D02*
X201330000Y-94325000D01*
X194910000Y-94655000D02*
X201330000Y-94655000D01*
X194910000Y-94325000D02*
X194910000Y-94655000D01*
X201330000Y-92035000D02*
X201330000Y-92365000D01*
X194910000Y-92035000D02*
X201330000Y-92035000D01*
X194910000Y-92365000D02*
X194910000Y-92035000D01*
D13*
G04 #@! TO.C,Q1*
X227584000Y-89662000D02*
X216916000Y-89662000D01*
X227584000Y-89662000D02*
X227584000Y-94488000D01*
X216916000Y-89662000D02*
X216916000Y-94488000D01*
X227584000Y-94488000D02*
X216916000Y-94488000D01*
X216916000Y-91059000D02*
X227584000Y-91059000D01*
X220472000Y-90932000D02*
X220472000Y-89662000D01*
X224028000Y-90932000D02*
X224028000Y-89662000D01*
X227584000Y-89916000D02*
X216916000Y-89916000D01*
X217424000Y-91059000D02*
X217424000Y-94488000D01*
X227076000Y-91059000D02*
X227076000Y-94488000D01*
D14*
G04 #@! TO.C,R1*
X201330000Y-90515000D02*
X201330000Y-90845000D01*
X201330000Y-90845000D02*
X194910000Y-90845000D01*
X194910000Y-90845000D02*
X194910000Y-90515000D01*
X201330000Y-88555000D02*
X201330000Y-88225000D01*
X201330000Y-88225000D02*
X194910000Y-88225000D01*
X194910000Y-88225000D02*
X194910000Y-88555000D01*
G04 #@! TO.C,U2*
X212036000Y-90090000D02*
X212036000Y-91600000D01*
X208335000Y-90090000D02*
X208335000Y-91600000D01*
X205065000Y-91600000D02*
X215305000Y-91600000D01*
X215305000Y-90090000D02*
X215305000Y-94731000D01*
X205065000Y-90090000D02*
X205065000Y-94731000D01*
X205065000Y-94731000D02*
X215305000Y-94731000D01*
X205065000Y-90090000D02*
X215305000Y-90090000D01*
G04 #@! TO.C,C2*
X188325000Y-92349000D02*
X188325000Y-92285000D01*
X188325000Y-94405000D02*
X188325000Y-94341000D01*
X191445000Y-92349000D02*
X191445000Y-92285000D01*
X191445000Y-94405000D02*
X191445000Y-94341000D01*
X191445000Y-92285000D02*
X188325000Y-92285000D01*
X191445000Y-94405000D02*
X188325000Y-94405000D01*
G04 #@! TO.C,J3*
X207527903Y-80859485D02*
X207527903Y-78199485D01*
X207467903Y-80859485D02*
X207527903Y-80859485D01*
X207467903Y-78199485D02*
X207527903Y-78199485D01*
X207467903Y-80859485D02*
X207467903Y-78199485D01*
X206197903Y-80859485D02*
X204867903Y-80859485D01*
X204867903Y-80859485D02*
X204867903Y-79529485D01*
G04 #@! TO.C,J4*
X212487903Y-78199485D02*
X212487903Y-80859485D01*
X215087903Y-78199485D02*
X212487903Y-78199485D01*
X215087903Y-80859485D02*
X212487903Y-80859485D01*
X215087903Y-78199485D02*
X215087903Y-80859485D01*
X216357903Y-78199485D02*
X217687903Y-78199485D01*
X217687903Y-78199485D02*
X217687903Y-79529485D01*
D13*
G04 #@! TO.C,J2*
X213360000Y-129540000D02*
X213360000Y-120650000D01*
X213360000Y-120650000D02*
X193040000Y-120650000D01*
X193040000Y-120650000D02*
X193040000Y-129540000D01*
X204470000Y-129540000D02*
X213360000Y-129540000D01*
X201930000Y-129540000D02*
X193040000Y-129540000D01*
G04 #@! TO.C,U1*
X231775000Y-96520000D02*
X231775000Y-119380000D01*
X178435000Y-96520000D02*
X178435000Y-119380000D01*
X178435000Y-119380000D02*
X231775000Y-119380000D01*
X231775000Y-96520000D02*
X178435000Y-96520000D01*
X231775000Y-105410000D02*
X227965000Y-105410000D01*
X227965000Y-105410000D02*
X227965000Y-110490000D01*
X227965000Y-110490000D02*
X231775000Y-110490000D01*
X182245000Y-106680000D02*
X178435000Y-106680000D01*
X182245000Y-109220000D02*
X178435000Y-109220000D01*
X182245000Y-104140000D02*
X178435000Y-104140000D01*
X182245000Y-111760000D02*
X178435000Y-111760000D01*
X183515000Y-102870000D02*
X183515000Y-113030000D01*
X183515000Y-113030000D02*
X180975000Y-113030000D01*
X180975000Y-113030000D02*
X180975000Y-102870000D01*
X180975000Y-102870000D02*
X183515000Y-102870000D01*
G04 #@! TO.C,BT1*
X181570000Y-89535000D02*
X181570000Y-93535000D01*
X181570000Y-93535000D02*
X176070000Y-93535000D01*
X176070000Y-93535000D02*
X176070000Y-90535000D01*
X176070000Y-90535000D02*
X177070000Y-90535000D01*
X177070000Y-90535000D02*
X177070000Y-88535000D01*
X177070000Y-88535000D02*
X176070000Y-88535000D01*
X176070000Y-88535000D02*
X176070000Y-85535000D01*
X176070000Y-85535000D02*
X181570000Y-85535000D01*
X181570000Y-85535000D02*
X181570000Y-89535000D01*
G04 #@! TO.C,C1*
X184739087Y-88045501D02*
X184691468Y-87997882D01*
X184643849Y-87855025D01*
X184643849Y-87759787D01*
X184691468Y-87616929D01*
X184786706Y-87521691D01*
X184881944Y-87474072D01*
X185072420Y-87426453D01*
X185215277Y-87426453D01*
X185405753Y-87474072D01*
X185500991Y-87521691D01*
X185596230Y-87616929D01*
X185643849Y-87759787D01*
X185643849Y-87855025D01*
X185596230Y-87997882D01*
X185548610Y-88045501D01*
X184643849Y-88997882D02*
X184643849Y-88426453D01*
X184643849Y-88712168D02*
X185643849Y-88712168D01*
X185500991Y-88616929D01*
X185405753Y-88521691D01*
X185358134Y-88426453D01*
G04 #@! TO.C,C2*
X189718333Y-96012142D02*
X189670714Y-96059761D01*
X189527857Y-96107380D01*
X189432619Y-96107380D01*
X189289761Y-96059761D01*
X189194523Y-95964523D01*
X189146904Y-95869285D01*
X189099285Y-95678809D01*
X189099285Y-95535952D01*
X189146904Y-95345476D01*
X189194523Y-95250238D01*
X189289761Y-95155000D01*
X189432619Y-95107380D01*
X189527857Y-95107380D01*
X189670714Y-95155000D01*
X189718333Y-95202619D01*
X190099285Y-95202619D02*
X190146904Y-95155000D01*
X190242142Y-95107380D01*
X190480238Y-95107380D01*
X190575476Y-95155000D01*
X190623095Y-95202619D01*
X190670714Y-95297857D01*
X190670714Y-95393095D01*
X190623095Y-95535952D01*
X190051666Y-96107380D01*
X190670714Y-96107380D01*
G04 #@! TO.C,J2*
X202866666Y-121372380D02*
X202866666Y-122086666D01*
X202819047Y-122229523D01*
X202723809Y-122324761D01*
X202580952Y-122372380D01*
X202485714Y-122372380D01*
X203295238Y-121467619D02*
X203342857Y-121420000D01*
X203438095Y-121372380D01*
X203676190Y-121372380D01*
X203771428Y-121420000D01*
X203819047Y-121467619D01*
X203866666Y-121562857D01*
X203866666Y-121658095D01*
X203819047Y-121800952D01*
X203247619Y-122372380D01*
X203866666Y-122372380D01*
G04 #@! TO.C,U1*
X203073095Y-109942380D02*
X203073095Y-110751904D01*
X203120714Y-110847142D01*
X203168333Y-110894761D01*
X203263571Y-110942380D01*
X203454047Y-110942380D01*
X203549285Y-110894761D01*
X203596904Y-110847142D01*
X203644523Y-110751904D01*
X203644523Y-109942380D01*
X204644523Y-110942380D02*
X204073095Y-110942380D01*
X204358809Y-110942380D02*
X204358809Y-109942380D01*
X204263571Y-110085238D01*
X204168333Y-110180476D01*
X204073095Y-110228095D01*
X228735000Y-117848095D02*
X228687380Y-117943333D01*
X228687380Y-118086190D01*
X228735000Y-118229047D01*
X228830238Y-118324285D01*
X228925476Y-118371904D01*
X229115952Y-118419523D01*
X229258809Y-118419523D01*
X229449285Y-118371904D01*
X229544523Y-118324285D01*
X229639761Y-118229047D01*
X229687380Y-118086190D01*
X229687380Y-117990952D01*
X229639761Y-117848095D01*
X229592142Y-117800476D01*
X229258809Y-117800476D01*
X229258809Y-117990952D01*
X229163571Y-98670952D02*
X229211190Y-98528095D01*
X229258809Y-98480476D01*
X229354047Y-98432857D01*
X229496904Y-98432857D01*
X229592142Y-98480476D01*
X229639761Y-98528095D01*
X229687380Y-98623333D01*
X229687380Y-99004285D01*
X228687380Y-99004285D01*
X228687380Y-98670952D01*
X228735000Y-98575714D01*
X228782619Y-98528095D01*
X228877857Y-98480476D01*
X228973095Y-98480476D01*
X229068333Y-98528095D01*
X229115952Y-98575714D01*
X229163571Y-98670952D01*
X229163571Y-99004285D01*
X229687380Y-97480476D02*
X229687380Y-98051904D01*
X229687380Y-97766190D02*
X228687380Y-97766190D01*
X228830238Y-97861428D01*
X228925476Y-97956666D01*
X228973095Y-98051904D01*
X228782619Y-97099523D02*
X228735000Y-97051904D01*
X228687380Y-96956666D01*
X228687380Y-96718571D01*
X228735000Y-96623333D01*
X228782619Y-96575714D01*
X228877857Y-96528095D01*
X228973095Y-96528095D01*
X229115952Y-96575714D01*
X229687380Y-97147142D01*
X229687380Y-96528095D01*
X180427380Y-118943333D02*
X181427380Y-118610000D01*
X180427380Y-118276666D01*
X180903571Y-117610000D02*
X180951190Y-117467142D01*
X180998809Y-117419523D01*
X181094047Y-117371904D01*
X181236904Y-117371904D01*
X181332142Y-117419523D01*
X181379761Y-117467142D01*
X181427380Y-117562380D01*
X181427380Y-117943333D01*
X180427380Y-117943333D01*
X180427380Y-117610000D01*
X180475000Y-117514761D01*
X180522619Y-117467142D01*
X180617857Y-117419523D01*
X180713095Y-117419523D01*
X180808333Y-117467142D01*
X180855952Y-117514761D01*
X180903571Y-117610000D01*
X180903571Y-117943333D01*
X180427380Y-99028095D02*
X180427380Y-98409047D01*
X180808333Y-98742380D01*
X180808333Y-98599523D01*
X180855952Y-98504285D01*
X180903571Y-98456666D01*
X180998809Y-98409047D01*
X181236904Y-98409047D01*
X181332142Y-98456666D01*
X181379761Y-98504285D01*
X181427380Y-98599523D01*
X181427380Y-98885238D01*
X181379761Y-98980476D01*
X181332142Y-99028095D01*
X180427380Y-98123333D02*
X181427380Y-97790000D01*
X180427380Y-97456666D01*
X180427380Y-97218571D02*
X180427380Y-96599523D01*
X180808333Y-96932857D01*
X180808333Y-96790000D01*
X180855952Y-96694761D01*
X180903571Y-96647142D01*
X180998809Y-96599523D01*
X181236904Y-96599523D01*
X181332142Y-96647142D01*
X181379761Y-96694761D01*
X181427380Y-96790000D01*
X181427380Y-97075714D01*
X181379761Y-97170952D01*
X181332142Y-97218571D01*
G04 #@! TO.C,BT1*
X174998571Y-90320714D02*
X175046190Y-90177857D01*
X175093809Y-90130238D01*
X175189047Y-90082619D01*
X175331904Y-90082619D01*
X175427142Y-90130238D01*
X175474761Y-90177857D01*
X175522380Y-90273095D01*
X175522380Y-90654047D01*
X174522380Y-90654047D01*
X174522380Y-90320714D01*
X174570000Y-90225476D01*
X174617619Y-90177857D01*
X174712857Y-90130238D01*
X174808095Y-90130238D01*
X174903333Y-90177857D01*
X174950952Y-90225476D01*
X174998571Y-90320714D01*
X174998571Y-90654047D01*
X174522380Y-89796904D02*
X174522380Y-89225476D01*
X175522380Y-89511190D02*
X174522380Y-89511190D01*
X175522380Y-88368333D02*
X175522380Y-88939761D01*
X175522380Y-88654047D02*
X174522380Y-88654047D01*
X174665238Y-88749285D01*
X174760476Y-88844523D01*
X174808095Y-88939761D01*
G04 #@! TD*
M02*
