G04 #@! TF.GenerationSoftware,KiCad,Pcbnew,(5.0.1-3-g963ef8bb5)*
G04 #@! TF.CreationDate,2019-04-02T14:03:18+07:00*
G04 #@! TF.ProjectId,STMaytal32v04,53544D617974616C33327630342E6B69,rev?*
G04 #@! TF.SameCoordinates,Original*
G04 #@! TF.FileFunction,Copper,L1,Top,Signal*
G04 #@! TF.FilePolarity,Positive*
%FSLAX46Y46*%
G04 Gerber Fmt 4.6, Leading zero omitted, Abs format (unit mm)*
G04 Created by KiCad (PCBNEW (5.0.1-3-g963ef8bb5)) date Tuesday, April 02, 2019 at 02:03:18 PM*
%MOMM*%
%LPD*%
G01*
G04 APERTURE LIST*
G04 #@! TA.AperFunction,ComponentPad*
%ADD10C,1.524000*%
G04 #@! TD*
G04 #@! TA.AperFunction,ComponentPad*
%ADD11C,1.600000*%
G04 #@! TD*
G04 #@! TA.AperFunction,ComponentPad*
%ADD12R,1.600000X1.600000*%
G04 #@! TD*
G04 #@! TA.AperFunction,ComponentPad*
%ADD13O,1.600000X1.600000*%
G04 #@! TD*
G04 #@! TA.AperFunction,ComponentPad*
%ADD14O,2.032000X2.540000*%
G04 #@! TD*
G04 #@! TA.AperFunction,ComponentPad*
%ADD15O,1.800000X1.800000*%
G04 #@! TD*
G04 #@! TA.AperFunction,ComponentPad*
%ADD16R,1.800000X1.800000*%
G04 #@! TD*
G04 #@! TA.AperFunction,ComponentPad*
%ADD17R,1.700000X1.700000*%
G04 #@! TD*
G04 #@! TA.AperFunction,ComponentPad*
%ADD18O,1.700000X1.700000*%
G04 #@! TD*
G04 #@! TA.AperFunction,ComponentPad*
%ADD19C,1.905000*%
G04 #@! TD*
G04 #@! TA.AperFunction,ComponentPad*
%ADD20R,1.905000X1.905000*%
G04 #@! TD*
G04 #@! TA.AperFunction,Conductor*
%ADD21C,0.250000*%
G04 #@! TD*
G04 #@! TA.AperFunction,Conductor*
%ADD22C,0.254000*%
G04 #@! TD*
G04 APERTURE END LIST*
D10*
G04 #@! TO.P,J1,3*
G04 #@! TO.N,Net-(J1-Pad3)*
X196310000Y-80010000D03*
G04 #@! TO.P,J1,1*
G04 #@! TO.N,Net-(J1-Pad1)*
X192310000Y-80010000D03*
G04 #@! TO.P,J1,2*
G04 #@! TO.N,GND*
X194310000Y-80010000D03*
G04 #@! TD*
D11*
G04 #@! TO.P,C1,2*
G04 #@! TO.N,GND*
X188000000Y-88900000D03*
D12*
G04 #@! TO.P,C1,1*
G04 #@! TO.N,VBAT*
X190500000Y-88900000D03*
G04 #@! TD*
D13*
G04 #@! TO.P,R2,2*
G04 #@! TO.N,GND*
X201930000Y-93345000D03*
D11*
G04 #@! TO.P,R2,1*
G04 #@! TO.N,PRESSURE*
X194310000Y-93345000D03*
G04 #@! TD*
D14*
G04 #@! TO.P,Q1,1*
G04 #@! TO.N,Q1_BASE*
X219710000Y-92710000D03*
G04 #@! TO.P,Q1,3*
G04 #@! TO.N,GND*
X224790000Y-92710000D03*
G04 #@! TO.P,Q1,2*
G04 #@! TO.N,Net-(Q1-Pad2)*
X222250000Y-92710000D03*
G04 #@! TD*
D11*
G04 #@! TO.P,R1,1*
G04 #@! TO.N,Net-(J1-Pad3)*
X201930000Y-89535000D03*
D13*
G04 #@! TO.P,R1,2*
G04 #@! TO.N,PRESSURE*
X194310000Y-89535000D03*
G04 #@! TD*
D15*
G04 #@! TO.P,U2,3*
G04 #@! TO.N,Net-(J1-Pad1)*
X212725000Y-92710000D03*
G04 #@! TO.P,U2,2*
G04 #@! TO.N,Net-(Q1-Pad2)*
X210185000Y-92710000D03*
D16*
G04 #@! TO.P,U2,1*
G04 #@! TO.N,VBAT*
X207645000Y-92710000D03*
G04 #@! TD*
D11*
G04 #@! TO.P,C2,2*
G04 #@! TO.N,GND*
X188635000Y-93345000D03*
G04 #@! TO.P,C2,1*
G04 #@! TO.N,VBAT*
X191135000Y-93345000D03*
G04 #@! TD*
D17*
G04 #@! TO.P,J3,1*
G04 #@! TO.N,GND*
X206197903Y-79529485D03*
G04 #@! TD*
G04 #@! TO.P,J4,1*
G04 #@! TO.N,SERIAL1.TX*
X216357903Y-79529485D03*
D18*
G04 #@! TO.P,J4,2*
G04 #@! TO.N,SERIAL1.RX*
X213817903Y-79529485D03*
G04 #@! TD*
D19*
G04 #@! TO.P,J2,5*
G04 #@! TO.N,CS-RI*
X203200000Y-126365000D03*
G04 #@! TO.P,J2,7*
G04 #@! TO.N,SCK-RX*
X205740000Y-126365000D03*
G04 #@! TO.P,J2,3*
G04 #@! TO.N,G0*
X200660000Y-126365000D03*
G04 #@! TO.P,J2,9*
G04 #@! TO.N,MISO-TX*
X208280000Y-126365000D03*
D20*
G04 #@! TO.P,J2,1*
G04 #@! TO.N,VCC*
X198120000Y-126365000D03*
D19*
G04 #@! TO.P,J2,10*
G04 #@! TO.N,GND*
X208280000Y-123825000D03*
G04 #@! TO.P,J2,8*
G04 #@! TO.N,MOSI-KEY*
X205740000Y-123825000D03*
G04 #@! TO.P,J2,6*
G04 #@! TO.N,RST*
X203200000Y-123825000D03*
G04 #@! TO.P,J2,4*
G04 #@! TO.N,G1-PSTAT*
X200660000Y-123825000D03*
G04 #@! TO.P,J2,2*
G04 #@! TO.N,EN*
X198120000Y-123825000D03*
G04 #@! TD*
D10*
G04 #@! TO.P,U1,1*
G04 #@! TO.N,Net-(U1-Pad1)*
X180975000Y-115570000D03*
G04 #@! TO.P,U1,2*
G04 #@! TO.N,Net-(U1-Pad2)*
X183515000Y-115570000D03*
G04 #@! TO.P,U1,3*
G04 #@! TO.N,Net-(U1-Pad3)*
X186055000Y-115570000D03*
G04 #@! TO.P,U1,4*
G04 #@! TO.N,Net-(U1-Pad4)*
X188595000Y-115570000D03*
G04 #@! TO.P,U1,10*
G04 #@! TO.N,PRESSURE*
X191135000Y-115570000D03*
G04 #@! TO.P,U1,11*
G04 #@! TO.N,Net-(U1-Pad11)*
X193675000Y-115570000D03*
G04 #@! TO.P,U1,12*
G04 #@! TO.N,Net-(U1-Pad12)*
X196215000Y-115570000D03*
G04 #@! TO.P,U1,13*
G04 #@! TO.N,G0*
X198755000Y-115570000D03*
G04 #@! TO.P,U1,14*
G04 #@! TO.N,CS-RI*
X201295000Y-115570000D03*
G04 #@! TO.P,U1,15*
G04 #@! TO.N,SCK-RX*
X203835000Y-115570000D03*
G04 #@! TO.P,U1,16*
G04 #@! TO.N,MISO-TX*
X206375000Y-115570000D03*
G04 #@! TO.P,U1,17*
G04 #@! TO.N,MOSI-KEY*
X208915000Y-115570000D03*
G04 #@! TO.P,U1,18*
G04 #@! TO.N,RST*
X211455000Y-115570000D03*
G04 #@! TO.P,U1,19*
G04 #@! TO.N,Q1_BASE*
X213995000Y-115570000D03*
G04 #@! TO.P,U1,21*
G04 #@! TO.N,G1-PSTAT*
X216535000Y-115570000D03*
G04 #@! TO.P,U1,22*
G04 #@! TO.N,EN*
X219075000Y-115570000D03*
G04 #@! TO.P,U1,7*
G04 #@! TO.N,Net-(U1-Pad7)*
X221615000Y-115570000D03*
G04 #@! TO.P,U1,3V3*
G04 #@! TO.N,VCC*
X224155000Y-115570000D03*
G04 #@! TO.P,U1,GND*
G04 #@! TO.N,GND*
X226695000Y-115570000D03*
X229235000Y-115570000D03*
G04 #@! TO.P,U1,3V3*
G04 #@! TO.N,VCC*
X180975000Y-100330000D03*
G04 #@! TO.P,U1,42*
G04 #@! TO.N,Net-(U1-Pad42)*
X196215000Y-100330000D03*
G04 #@! TO.P,U1,27*
G04 #@! TO.N,Net-(U1-Pad27)*
X224155000Y-100330000D03*
G04 #@! TO.P,U1,32*
G04 #@! TO.N,Net-(U1-Pad32)*
X211455000Y-100330000D03*
G04 #@! TO.P,U1,31*
G04 #@! TO.N,SERIAL1.RX*
X213995000Y-100330000D03*
G04 #@! TO.P,U1,33*
G04 #@! TO.N,Net-(U1-Pad33)*
X208915000Y-100330000D03*
G04 #@! TO.P,U1,38*
G04 #@! TO.N,N/C*
X206375000Y-100330000D03*
G04 #@! TO.P,U1,30*
G04 #@! TO.N,SERIAL1.TX*
X216535000Y-100330000D03*
G04 #@! TO.P,U1,28*
G04 #@! TO.N,Net-(U1-Pad28)*
X221615000Y-100330000D03*
G04 #@! TO.P,U1,26*
G04 #@! TO.N,Net-(U1-Pad26)*
X226695000Y-100330000D03*
G04 #@! TO.P,U1,41*
G04 #@! TO.N,Net-(U1-Pad41)*
X198755000Y-100330000D03*
G04 #@! TO.P,U1,40*
G04 #@! TO.N,Net-(U1-Pad40)*
X201295000Y-100330000D03*
G04 #@! TO.P,U1,29*
G04 #@! TO.N,Net-(U1-Pad29)*
X219075000Y-100330000D03*
G04 #@! TO.P,U1,46*
G04 #@! TO.N,Net-(U1-Pad46)*
X188595000Y-100330000D03*
G04 #@! TO.P,U1,45*
G04 #@! TO.N,Net-(U1-Pad45)*
X191135000Y-100330000D03*
G04 #@! TO.P,U1,5V*
G04 #@! TO.N,VBAT*
X186055000Y-100330000D03*
G04 #@! TO.P,U1,25*
G04 #@! TO.N,Net-(U1-Pad25)*
X229235000Y-100330000D03*
G04 #@! TO.P,U1,GND*
G04 #@! TO.N,GND*
X183515000Y-100330000D03*
G04 #@! TO.P,U1,43*
G04 #@! TO.N,Net-(U1-Pad43)*
X193675000Y-100330000D03*
G04 #@! TO.P,U1,39*
G04 #@! TO.N,Net-(U1-Pad39)*
X203835000Y-100330000D03*
G04 #@! TD*
G04 #@! TO.P,BT1,2*
G04 #@! TO.N,N/C*
X179070000Y-89535000D03*
G04 #@! TO.P,BT1,1*
G04 #@! TO.N,GND*
X179070000Y-87535000D03*
G04 #@! TO.P,BT1,3*
G04 #@! TO.N,VBAT*
X179070000Y-91535000D03*
G04 #@! TD*
D21*
G04 #@! TO.N,VBAT*
X186055000Y-98425000D02*
X191135000Y-93345000D01*
X186055000Y-100330000D02*
X186055000Y-98425000D01*
X179070000Y-92612630D02*
X184882370Y-98425000D01*
X179070000Y-91535000D02*
X179070000Y-92612630D01*
X184882370Y-98425000D02*
X186055000Y-98425000D01*
G04 #@! TO.N,Net-(J1-Pad3)*
X196310000Y-83915000D02*
X201930000Y-89535000D01*
X196310000Y-80010000D02*
X196310000Y-83915000D01*
G04 #@! TO.N,Net-(J1-Pad1)*
X192310000Y-80010000D02*
X194215000Y-78105000D01*
X198120000Y-78105000D02*
X212725000Y-92710000D01*
X194215000Y-78105000D02*
X198120000Y-78105000D01*
G04 #@! TO.N,PRESSURE*
X194310000Y-89535000D02*
X194310000Y-93345000D01*
X193510001Y-94144999D02*
X194310000Y-93345000D01*
X192222001Y-114482999D02*
X192222001Y-95432999D01*
X192222001Y-95432999D02*
X193510001Y-94144999D01*
X191135000Y-115570000D02*
X192222001Y-114482999D01*
G04 #@! TO.N,RST*
X203200000Y-123825000D02*
X211455000Y-115570000D01*
G04 #@! TO.N,MOSI-KEY*
X209676999Y-114808001D02*
X208915000Y-115570000D01*
X211976761Y-114482999D02*
X210002001Y-114482999D01*
X210002001Y-114482999D02*
X209676999Y-114808001D01*
X212542001Y-117022999D02*
X212542001Y-115048239D01*
X212542001Y-115048239D02*
X211976761Y-114482999D01*
X205740000Y-123825000D02*
X212542001Y-117022999D01*
G04 #@! TO.N,G1-PSTAT*
X207462001Y-115414237D02*
X209211238Y-113665000D01*
X207462001Y-117022999D02*
X207462001Y-115414237D01*
X200660000Y-123825000D02*
X207462001Y-117022999D01*
X214630000Y-113665000D02*
X215900000Y-114935000D01*
X209211238Y-113665000D02*
X214630000Y-113665000D01*
X215900000Y-114935000D02*
X216535000Y-115570000D01*
G04 #@! TO.N,SERIAL1.RX*
X213995000Y-79706582D02*
X213817903Y-79529485D01*
X213995000Y-100330000D02*
X213995000Y-79706582D01*
G04 #@! TO.N,SERIAL1.TX*
X216535000Y-100330000D02*
X216535000Y-79706582D01*
X216535000Y-79706582D02*
X216357903Y-79529485D01*
G04 #@! TD*
D22*
G04 #@! TO.N,VCC*
G36*
X229965789Y-76075919D02*
X230378000Y-76748585D01*
X230378000Y-99497343D01*
X230026337Y-99145680D01*
X229512881Y-98933000D01*
X228957119Y-98933000D01*
X228443663Y-99145680D01*
X228050680Y-99538663D01*
X227965000Y-99745513D01*
X227879320Y-99538663D01*
X227486337Y-99145680D01*
X226972881Y-98933000D01*
X226417119Y-98933000D01*
X225903663Y-99145680D01*
X225510680Y-99538663D01*
X225425000Y-99745513D01*
X225339320Y-99538663D01*
X224946337Y-99145680D01*
X224432881Y-98933000D01*
X223877119Y-98933000D01*
X223363663Y-99145680D01*
X222970680Y-99538663D01*
X222885000Y-99745513D01*
X222799320Y-99538663D01*
X222406337Y-99145680D01*
X221892881Y-98933000D01*
X221337119Y-98933000D01*
X220823663Y-99145680D01*
X220430680Y-99538663D01*
X220345000Y-99745513D01*
X220259320Y-99538663D01*
X219866337Y-99145680D01*
X219352881Y-98933000D01*
X218797119Y-98933000D01*
X218283663Y-99145680D01*
X217890680Y-99538663D01*
X217805000Y-99745513D01*
X217719320Y-99538663D01*
X217326337Y-99145680D01*
X217295000Y-99132700D01*
X217295000Y-92293392D01*
X218059000Y-92293392D01*
X218059000Y-93126609D01*
X218154792Y-93608188D01*
X218519695Y-94154305D01*
X219065813Y-94519208D01*
X219710000Y-94647345D01*
X220354188Y-94519208D01*
X220900305Y-94154305D01*
X220980000Y-94035033D01*
X221059695Y-94154305D01*
X221605813Y-94519208D01*
X222250000Y-94647345D01*
X222894188Y-94519208D01*
X223440305Y-94154305D01*
X223520000Y-94035033D01*
X223599695Y-94154305D01*
X224145813Y-94519208D01*
X224790000Y-94647345D01*
X225434188Y-94519208D01*
X225980305Y-94154305D01*
X226345208Y-93608188D01*
X226441000Y-93126608D01*
X226441000Y-92293391D01*
X226345208Y-91811812D01*
X225980305Y-91265695D01*
X225434187Y-90900792D01*
X224790000Y-90772655D01*
X224145812Y-90900792D01*
X223599695Y-91265695D01*
X223520000Y-91384967D01*
X223440305Y-91265695D01*
X222894187Y-90900792D01*
X222250000Y-90772655D01*
X221605812Y-90900792D01*
X221059695Y-91265695D01*
X220980000Y-91384967D01*
X220900305Y-91265695D01*
X220354187Y-90900792D01*
X219710000Y-90772655D01*
X219065812Y-90900792D01*
X218519695Y-91265695D01*
X218154792Y-91811813D01*
X218059000Y-92293392D01*
X217295000Y-92293392D01*
X217295000Y-81009601D01*
X217455668Y-80977642D01*
X217665712Y-80837294D01*
X217806060Y-80627250D01*
X217855343Y-80379485D01*
X217855343Y-78950322D01*
X222655000Y-78950322D01*
X222655000Y-79799678D01*
X222980034Y-80584380D01*
X223580620Y-81184966D01*
X224365322Y-81510000D01*
X225214678Y-81510000D01*
X225999380Y-81184966D01*
X226599966Y-80584380D01*
X226925000Y-79799678D01*
X226925000Y-78950322D01*
X226599966Y-78165620D01*
X225999380Y-77565034D01*
X225214678Y-77240000D01*
X224365322Y-77240000D01*
X223580620Y-77565034D01*
X222980034Y-78165620D01*
X222655000Y-78950322D01*
X217855343Y-78950322D01*
X217855343Y-78679485D01*
X217806060Y-78431720D01*
X217665712Y-78221676D01*
X217455668Y-78081328D01*
X217207903Y-78032045D01*
X215507903Y-78032045D01*
X215260138Y-78081328D01*
X215050094Y-78221676D01*
X214909746Y-78431720D01*
X214900719Y-78477104D01*
X214888528Y-78458860D01*
X214397321Y-78130646D01*
X213964159Y-78044485D01*
X213671647Y-78044485D01*
X213238485Y-78130646D01*
X212747278Y-78458860D01*
X212419064Y-78950067D01*
X212303811Y-79529485D01*
X212419064Y-80108903D01*
X212747278Y-80600110D01*
X213235001Y-80925996D01*
X213235000Y-91246373D01*
X212876182Y-91175000D01*
X212573818Y-91175000D01*
X212316071Y-91226269D01*
X199769287Y-78679485D01*
X204700463Y-78679485D01*
X204700463Y-80379485D01*
X204749746Y-80627250D01*
X204890094Y-80837294D01*
X205100138Y-80977642D01*
X205347903Y-81026925D01*
X207047903Y-81026925D01*
X207295668Y-80977642D01*
X207505712Y-80837294D01*
X207646060Y-80627250D01*
X207695343Y-80379485D01*
X207695343Y-78679485D01*
X207646060Y-78431720D01*
X207505712Y-78221676D01*
X207295668Y-78081328D01*
X207047903Y-78032045D01*
X205347903Y-78032045D01*
X205100138Y-78081328D01*
X204890094Y-78221676D01*
X204749746Y-78431720D01*
X204700463Y-78679485D01*
X199769287Y-78679485D01*
X198710331Y-77620530D01*
X198667929Y-77557071D01*
X198416537Y-77389096D01*
X198194852Y-77345000D01*
X198194847Y-77345000D01*
X198120000Y-77330112D01*
X198045153Y-77345000D01*
X194289848Y-77345000D01*
X194215000Y-77330112D01*
X194140152Y-77345000D01*
X194140148Y-77345000D01*
X193966605Y-77379520D01*
X193918462Y-77389096D01*
X193796768Y-77470410D01*
X193667071Y-77557071D01*
X193624671Y-77620527D01*
X192619218Y-78625980D01*
X192587881Y-78613000D01*
X192032119Y-78613000D01*
X191518663Y-78825680D01*
X191125680Y-79218663D01*
X190913000Y-79732119D01*
X190913000Y-80287881D01*
X191125680Y-80801337D01*
X191518663Y-81194320D01*
X192032119Y-81407000D01*
X192587881Y-81407000D01*
X193101337Y-81194320D01*
X193310000Y-80985657D01*
X193518663Y-81194320D01*
X194032119Y-81407000D01*
X194587881Y-81407000D01*
X195101337Y-81194320D01*
X195310000Y-80985657D01*
X195518663Y-81194320D01*
X195550000Y-81207300D01*
X195550001Y-83840148D01*
X195535112Y-83915000D01*
X195550001Y-83989852D01*
X195594097Y-84211537D01*
X195762072Y-84462929D01*
X195825528Y-84505329D01*
X200516896Y-89196698D01*
X200495000Y-89249561D01*
X200495000Y-89820439D01*
X200713466Y-90347862D01*
X201117138Y-90751534D01*
X201644561Y-90970000D01*
X202215439Y-90970000D01*
X202742862Y-90751534D01*
X203146534Y-90347862D01*
X203365000Y-89820439D01*
X203365000Y-89249561D01*
X203146534Y-88722138D01*
X202742862Y-88318466D01*
X202215439Y-88100000D01*
X201644561Y-88100000D01*
X201591698Y-88121896D01*
X197070000Y-83600199D01*
X197070000Y-81207300D01*
X197101337Y-81194320D01*
X197494320Y-80801337D01*
X197707000Y-80287881D01*
X197707000Y-79732119D01*
X197494320Y-79218663D01*
X197140657Y-78865000D01*
X197805199Y-78865000D01*
X210115198Y-91175000D01*
X210033818Y-91175000D01*
X209586073Y-91264062D01*
X209142129Y-91560696D01*
X209002809Y-91352191D01*
X208792765Y-91211843D01*
X208545000Y-91162560D01*
X206745000Y-91162560D01*
X206497235Y-91211843D01*
X206287191Y-91352191D01*
X206146843Y-91562235D01*
X206097560Y-91810000D01*
X206097560Y-93610000D01*
X206146843Y-93857765D01*
X206287191Y-94067809D01*
X206497235Y-94208157D01*
X206745000Y-94257440D01*
X208545000Y-94257440D01*
X208792765Y-94208157D01*
X209002809Y-94067809D01*
X209142129Y-93859304D01*
X209586073Y-94155938D01*
X210033818Y-94245000D01*
X210336182Y-94245000D01*
X210783927Y-94155938D01*
X211291673Y-93816673D01*
X211455000Y-93572237D01*
X211618327Y-93816673D01*
X212126073Y-94155938D01*
X212573818Y-94245000D01*
X212876182Y-94245000D01*
X213235000Y-94173627D01*
X213235000Y-99132700D01*
X213203663Y-99145680D01*
X212810680Y-99538663D01*
X212725000Y-99745513D01*
X212639320Y-99538663D01*
X212246337Y-99145680D01*
X211732881Y-98933000D01*
X211177119Y-98933000D01*
X210663663Y-99145680D01*
X210270680Y-99538663D01*
X210185000Y-99745513D01*
X210099320Y-99538663D01*
X209706337Y-99145680D01*
X209192881Y-98933000D01*
X208637119Y-98933000D01*
X208123663Y-99145680D01*
X207730680Y-99538663D01*
X207645000Y-99745513D01*
X207559320Y-99538663D01*
X207166337Y-99145680D01*
X206652881Y-98933000D01*
X206097119Y-98933000D01*
X205583663Y-99145680D01*
X205190680Y-99538663D01*
X205105000Y-99745513D01*
X205019320Y-99538663D01*
X204626337Y-99145680D01*
X204112881Y-98933000D01*
X203557119Y-98933000D01*
X203043663Y-99145680D01*
X202650680Y-99538663D01*
X202565000Y-99745513D01*
X202479320Y-99538663D01*
X202086337Y-99145680D01*
X201572881Y-98933000D01*
X201017119Y-98933000D01*
X200503663Y-99145680D01*
X200110680Y-99538663D01*
X200025000Y-99745513D01*
X199939320Y-99538663D01*
X199546337Y-99145680D01*
X199032881Y-98933000D01*
X198477119Y-98933000D01*
X197963663Y-99145680D01*
X197570680Y-99538663D01*
X197485000Y-99745513D01*
X197399320Y-99538663D01*
X197006337Y-99145680D01*
X196492881Y-98933000D01*
X195937119Y-98933000D01*
X195423663Y-99145680D01*
X195030680Y-99538663D01*
X194945000Y-99745513D01*
X194859320Y-99538663D01*
X194466337Y-99145680D01*
X193952881Y-98933000D01*
X193397119Y-98933000D01*
X192982001Y-99104947D01*
X192982001Y-95747800D01*
X193971698Y-94758104D01*
X194024561Y-94780000D01*
X194595439Y-94780000D01*
X195122862Y-94561534D01*
X195526534Y-94157862D01*
X195745000Y-93630439D01*
X195745000Y-93345000D01*
X200466887Y-93345000D01*
X200578260Y-93904909D01*
X200895423Y-94379577D01*
X201370091Y-94696740D01*
X201788667Y-94780000D01*
X202071333Y-94780000D01*
X202489909Y-94696740D01*
X202964577Y-94379577D01*
X203281740Y-93904909D01*
X203393113Y-93345000D01*
X203281740Y-92785091D01*
X202964577Y-92310423D01*
X202489909Y-91993260D01*
X202071333Y-91910000D01*
X201788667Y-91910000D01*
X201370091Y-91993260D01*
X200895423Y-92310423D01*
X200578260Y-92785091D01*
X200466887Y-93345000D01*
X195745000Y-93345000D01*
X195745000Y-93059561D01*
X195526534Y-92532138D01*
X195122862Y-92128466D01*
X195070000Y-92106570D01*
X195070000Y-90753043D01*
X195344577Y-90569577D01*
X195661740Y-90094909D01*
X195773113Y-89535000D01*
X195661740Y-88975091D01*
X195344577Y-88500423D01*
X194869909Y-88183260D01*
X194451333Y-88100000D01*
X194168667Y-88100000D01*
X193750091Y-88183260D01*
X193275423Y-88500423D01*
X192958260Y-88975091D01*
X192846887Y-89535000D01*
X192958260Y-90094909D01*
X193275423Y-90569577D01*
X193550000Y-90753044D01*
X193550001Y-92106570D01*
X193497138Y-92128466D01*
X193093466Y-92532138D01*
X192875000Y-93059561D01*
X192875000Y-93630439D01*
X192896896Y-93683302D01*
X191737529Y-94842670D01*
X191674073Y-94885070D01*
X191631673Y-94948526D01*
X191631672Y-94948527D01*
X191506098Y-95136462D01*
X191447113Y-95432999D01*
X191462002Y-95507851D01*
X191462002Y-98953346D01*
X191412881Y-98933000D01*
X190857119Y-98933000D01*
X190343663Y-99145680D01*
X189950680Y-99538663D01*
X189865000Y-99745513D01*
X189779320Y-99538663D01*
X189386337Y-99145680D01*
X188872881Y-98933000D01*
X188317119Y-98933000D01*
X187803663Y-99145680D01*
X187410680Y-99538663D01*
X187325000Y-99745513D01*
X187239320Y-99538663D01*
X186846337Y-99145680D01*
X186815000Y-99132700D01*
X186815000Y-98739801D01*
X190796698Y-94758104D01*
X190849561Y-94780000D01*
X191420439Y-94780000D01*
X191947862Y-94561534D01*
X192351534Y-94157862D01*
X192570000Y-93630439D01*
X192570000Y-93059561D01*
X192351534Y-92532138D01*
X191947862Y-92128466D01*
X191420439Y-91910000D01*
X190849561Y-91910000D01*
X190322138Y-92128466D01*
X189918466Y-92532138D01*
X189885000Y-92612932D01*
X189851534Y-92532138D01*
X189447862Y-92128466D01*
X188920439Y-91910000D01*
X188349561Y-91910000D01*
X187822138Y-92128466D01*
X187418466Y-92532138D01*
X187200000Y-93059561D01*
X187200000Y-93630439D01*
X187418466Y-94157862D01*
X187822138Y-94561534D01*
X188349561Y-94780000D01*
X188625198Y-94780000D01*
X185740199Y-97665000D01*
X185197173Y-97665000D01*
X180056414Y-92524243D01*
X180254320Y-92326337D01*
X180467000Y-91812881D01*
X180467000Y-91257119D01*
X180254320Y-90743663D01*
X180045657Y-90535000D01*
X180254320Y-90326337D01*
X180467000Y-89812881D01*
X180467000Y-89257119D01*
X180254320Y-88743663D01*
X180125218Y-88614561D01*
X186565000Y-88614561D01*
X186565000Y-89185439D01*
X186783466Y-89712862D01*
X187187138Y-90116534D01*
X187714561Y-90335000D01*
X188285439Y-90335000D01*
X188812862Y-90116534D01*
X189081899Y-89847497D01*
X189101843Y-89947765D01*
X189242191Y-90157809D01*
X189452235Y-90298157D01*
X189700000Y-90347440D01*
X191300000Y-90347440D01*
X191547765Y-90298157D01*
X191757809Y-90157809D01*
X191898157Y-89947765D01*
X191947440Y-89700000D01*
X191947440Y-88100000D01*
X191898157Y-87852235D01*
X191757809Y-87642191D01*
X191547765Y-87501843D01*
X191300000Y-87452560D01*
X189700000Y-87452560D01*
X189452235Y-87501843D01*
X189242191Y-87642191D01*
X189101843Y-87852235D01*
X189081899Y-87952503D01*
X188812862Y-87683466D01*
X188285439Y-87465000D01*
X187714561Y-87465000D01*
X187187138Y-87683466D01*
X186783466Y-88087138D01*
X186565000Y-88614561D01*
X180125218Y-88614561D01*
X180045657Y-88535000D01*
X180254320Y-88326337D01*
X180467000Y-87812881D01*
X180467000Y-87257119D01*
X180254320Y-86743663D01*
X179861337Y-86350680D01*
X179347881Y-86138000D01*
X178792119Y-86138000D01*
X178278663Y-86350680D01*
X177885680Y-86743663D01*
X177673000Y-87257119D01*
X177673000Y-87812881D01*
X177885680Y-88326337D01*
X178094343Y-88535000D01*
X177885680Y-88743663D01*
X177673000Y-89257119D01*
X177673000Y-89812881D01*
X177885680Y-90326337D01*
X178094343Y-90535000D01*
X177885680Y-90743663D01*
X177673000Y-91257119D01*
X177673000Y-91812881D01*
X177885680Y-92326337D01*
X178278663Y-92719320D01*
X178319716Y-92736325D01*
X178354097Y-92909167D01*
X178447172Y-93048463D01*
X178522072Y-93160559D01*
X178585528Y-93202959D01*
X184292043Y-98909476D01*
X184334441Y-98972929D01*
X184397894Y-99015327D01*
X184397896Y-99015329D01*
X184523272Y-99099102D01*
X184585833Y-99140904D01*
X184807518Y-99185000D01*
X184807522Y-99185000D01*
X184882369Y-99199888D01*
X184957216Y-99185000D01*
X185224343Y-99185000D01*
X184870680Y-99538663D01*
X184785000Y-99745513D01*
X184699320Y-99538663D01*
X184306337Y-99145680D01*
X183792881Y-98933000D01*
X183237119Y-98933000D01*
X182723663Y-99145680D01*
X182330680Y-99538663D01*
X182251572Y-99729647D01*
X182197397Y-99598857D01*
X181955213Y-99529392D01*
X181154605Y-100330000D01*
X181955213Y-101130608D01*
X182197397Y-101061143D01*
X182247535Y-100920607D01*
X182330680Y-101121337D01*
X182723663Y-101514320D01*
X183237119Y-101727000D01*
X183792881Y-101727000D01*
X184306337Y-101514320D01*
X184699320Y-101121337D01*
X184785000Y-100914487D01*
X184870680Y-101121337D01*
X185263663Y-101514320D01*
X185777119Y-101727000D01*
X186332881Y-101727000D01*
X186846337Y-101514320D01*
X187239320Y-101121337D01*
X187325000Y-100914487D01*
X187410680Y-101121337D01*
X187803663Y-101514320D01*
X188317119Y-101727000D01*
X188872881Y-101727000D01*
X189386337Y-101514320D01*
X189779320Y-101121337D01*
X189865000Y-100914487D01*
X189950680Y-101121337D01*
X190343663Y-101514320D01*
X190857119Y-101727000D01*
X191412881Y-101727000D01*
X191462002Y-101706654D01*
X191462001Y-114168197D01*
X191444218Y-114185980D01*
X191412881Y-114173000D01*
X190857119Y-114173000D01*
X190343663Y-114385680D01*
X189950680Y-114778663D01*
X189865000Y-114985513D01*
X189779320Y-114778663D01*
X189386337Y-114385680D01*
X188872881Y-114173000D01*
X188317119Y-114173000D01*
X187803663Y-114385680D01*
X187410680Y-114778663D01*
X187325000Y-114985513D01*
X187239320Y-114778663D01*
X186846337Y-114385680D01*
X186332881Y-114173000D01*
X185777119Y-114173000D01*
X185263663Y-114385680D01*
X184870680Y-114778663D01*
X184785000Y-114985513D01*
X184699320Y-114778663D01*
X184306337Y-114385680D01*
X183792881Y-114173000D01*
X183237119Y-114173000D01*
X182723663Y-114385680D01*
X182330680Y-114778663D01*
X182245000Y-114985513D01*
X182159320Y-114778663D01*
X181766337Y-114385680D01*
X181252881Y-114173000D01*
X180697119Y-114173000D01*
X180183663Y-114385680D01*
X179790680Y-114778663D01*
X179578000Y-115292119D01*
X179578000Y-115847881D01*
X179790680Y-116361337D01*
X180183663Y-116754320D01*
X180697119Y-116967000D01*
X181252881Y-116967000D01*
X181766337Y-116754320D01*
X182159320Y-116361337D01*
X182245000Y-116154487D01*
X182330680Y-116361337D01*
X182723663Y-116754320D01*
X183237119Y-116967000D01*
X183792881Y-116967000D01*
X184306337Y-116754320D01*
X184699320Y-116361337D01*
X184785000Y-116154487D01*
X184870680Y-116361337D01*
X185263663Y-116754320D01*
X185777119Y-116967000D01*
X186332881Y-116967000D01*
X186846337Y-116754320D01*
X187239320Y-116361337D01*
X187325000Y-116154487D01*
X187410680Y-116361337D01*
X187803663Y-116754320D01*
X188317119Y-116967000D01*
X188872881Y-116967000D01*
X189386337Y-116754320D01*
X189779320Y-116361337D01*
X189865000Y-116154487D01*
X189950680Y-116361337D01*
X190343663Y-116754320D01*
X190857119Y-116967000D01*
X191412881Y-116967000D01*
X191926337Y-116754320D01*
X192319320Y-116361337D01*
X192405000Y-116154487D01*
X192490680Y-116361337D01*
X192883663Y-116754320D01*
X193397119Y-116967000D01*
X193952881Y-116967000D01*
X194466337Y-116754320D01*
X194859320Y-116361337D01*
X194945000Y-116154487D01*
X195030680Y-116361337D01*
X195423663Y-116754320D01*
X195937119Y-116967000D01*
X196492881Y-116967000D01*
X197006337Y-116754320D01*
X197399320Y-116361337D01*
X197485000Y-116154487D01*
X197570680Y-116361337D01*
X197963663Y-116754320D01*
X198477119Y-116967000D01*
X199032881Y-116967000D01*
X199546337Y-116754320D01*
X199939320Y-116361337D01*
X200025000Y-116154487D01*
X200110680Y-116361337D01*
X200503663Y-116754320D01*
X201017119Y-116967000D01*
X201572881Y-116967000D01*
X202086337Y-116754320D01*
X202479320Y-116361337D01*
X202565000Y-116154487D01*
X202650680Y-116361337D01*
X203043663Y-116754320D01*
X203557119Y-116967000D01*
X204112881Y-116967000D01*
X204626337Y-116754320D01*
X205019320Y-116361337D01*
X205105000Y-116154487D01*
X205190680Y-116361337D01*
X205583663Y-116754320D01*
X206097119Y-116967000D01*
X206443198Y-116967000D01*
X201115021Y-122295178D01*
X200975773Y-122237500D01*
X200344227Y-122237500D01*
X199760753Y-122479182D01*
X199390000Y-122849935D01*
X199019247Y-122479182D01*
X198435773Y-122237500D01*
X197804227Y-122237500D01*
X197220753Y-122479182D01*
X196774182Y-122925753D01*
X196532500Y-123509227D01*
X196532500Y-124140773D01*
X196774182Y-124724247D01*
X196890043Y-124840108D01*
X196807802Y-124874173D01*
X196629173Y-125052801D01*
X196532500Y-125286190D01*
X196532500Y-126079250D01*
X196691250Y-126238000D01*
X197993000Y-126238000D01*
X197993000Y-126218000D01*
X198247000Y-126218000D01*
X198247000Y-126238000D01*
X198267000Y-126238000D01*
X198267000Y-126492000D01*
X198247000Y-126492000D01*
X198247000Y-127793750D01*
X198405750Y-127952500D01*
X199198809Y-127952500D01*
X199432198Y-127855827D01*
X199610827Y-127677199D01*
X199644893Y-127594958D01*
X199760753Y-127710818D01*
X200344227Y-127952500D01*
X200975773Y-127952500D01*
X201559247Y-127710818D01*
X201930000Y-127340065D01*
X202300753Y-127710818D01*
X202884227Y-127952500D01*
X203515773Y-127952500D01*
X204099247Y-127710818D01*
X204470000Y-127340065D01*
X204840753Y-127710818D01*
X205424227Y-127952500D01*
X206055773Y-127952500D01*
X206639247Y-127710818D01*
X207010000Y-127340065D01*
X207380753Y-127710818D01*
X207964227Y-127952500D01*
X208595773Y-127952500D01*
X209179247Y-127710818D01*
X209625818Y-127264247D01*
X209867500Y-126680773D01*
X209867500Y-126049227D01*
X209625818Y-125465753D01*
X209255065Y-125095000D01*
X209625818Y-124724247D01*
X209867500Y-124140773D01*
X209867500Y-124035322D01*
X222655000Y-124035322D01*
X222655000Y-124884678D01*
X222980034Y-125669380D01*
X223580620Y-126269966D01*
X224365322Y-126595000D01*
X225214678Y-126595000D01*
X225999380Y-126269966D01*
X226599966Y-125669380D01*
X226925000Y-124884678D01*
X226925000Y-124035322D01*
X226599966Y-123250620D01*
X225999380Y-122650034D01*
X225214678Y-122325000D01*
X224365322Y-122325000D01*
X223580620Y-122650034D01*
X222980034Y-123250620D01*
X222655000Y-124035322D01*
X209867500Y-124035322D01*
X209867500Y-123509227D01*
X209625818Y-122925753D01*
X209179247Y-122479182D01*
X208595773Y-122237500D01*
X208402301Y-122237500D01*
X213026474Y-117613328D01*
X213089930Y-117570928D01*
X213257905Y-117319536D01*
X213302001Y-117097851D01*
X213302001Y-117097847D01*
X213316889Y-117023000D01*
X213302001Y-116948153D01*
X213302001Y-116795053D01*
X213717119Y-116967000D01*
X214272881Y-116967000D01*
X214786337Y-116754320D01*
X215179320Y-116361337D01*
X215265000Y-116154487D01*
X215350680Y-116361337D01*
X215743663Y-116754320D01*
X216257119Y-116967000D01*
X216812881Y-116967000D01*
X217326337Y-116754320D01*
X217719320Y-116361337D01*
X217805000Y-116154487D01*
X217890680Y-116361337D01*
X218283663Y-116754320D01*
X218797119Y-116967000D01*
X219352881Y-116967000D01*
X219866337Y-116754320D01*
X220259320Y-116361337D01*
X220345000Y-116154487D01*
X220430680Y-116361337D01*
X220823663Y-116754320D01*
X221337119Y-116967000D01*
X221892881Y-116967000D01*
X222406337Y-116754320D01*
X222610444Y-116550213D01*
X223354392Y-116550213D01*
X223423857Y-116792397D01*
X223947302Y-116979144D01*
X224502368Y-116951362D01*
X224886143Y-116792397D01*
X224955608Y-116550213D01*
X224155000Y-115749605D01*
X223354392Y-116550213D01*
X222610444Y-116550213D01*
X222799320Y-116361337D01*
X222878428Y-116170353D01*
X222932603Y-116301143D01*
X223174787Y-116370608D01*
X223975395Y-115570000D01*
X223174787Y-114769392D01*
X222932603Y-114838857D01*
X222882465Y-114979393D01*
X222799320Y-114778663D01*
X222610444Y-114589787D01*
X223354392Y-114589787D01*
X224155000Y-115390395D01*
X224955608Y-114589787D01*
X224886143Y-114347603D01*
X224362698Y-114160856D01*
X223807632Y-114188638D01*
X223423857Y-114347603D01*
X223354392Y-114589787D01*
X222610444Y-114589787D01*
X222406337Y-114385680D01*
X221892881Y-114173000D01*
X221337119Y-114173000D01*
X220823663Y-114385680D01*
X220430680Y-114778663D01*
X220345000Y-114985513D01*
X220259320Y-114778663D01*
X219866337Y-114385680D01*
X219352881Y-114173000D01*
X218797119Y-114173000D01*
X218283663Y-114385680D01*
X217890680Y-114778663D01*
X217805000Y-114985513D01*
X217719320Y-114778663D01*
X217326337Y-114385680D01*
X216812881Y-114173000D01*
X216257119Y-114173000D01*
X216225782Y-114185980D01*
X215220331Y-113180530D01*
X215177929Y-113117071D01*
X214926537Y-112949096D01*
X214704852Y-112905000D01*
X214704847Y-112905000D01*
X214630000Y-112890112D01*
X214555153Y-112905000D01*
X209286086Y-112905000D01*
X209211238Y-112890112D01*
X209136390Y-112905000D01*
X209136386Y-112905000D01*
X208962843Y-112939520D01*
X208914700Y-112949096D01*
X208727656Y-113074076D01*
X208663309Y-113117071D01*
X208620909Y-113180527D01*
X207291047Y-114510390D01*
X207166337Y-114385680D01*
X206652881Y-114173000D01*
X206097119Y-114173000D01*
X205583663Y-114385680D01*
X205190680Y-114778663D01*
X205105000Y-114985513D01*
X205019320Y-114778663D01*
X204626337Y-114385680D01*
X204112881Y-114173000D01*
X203557119Y-114173000D01*
X203043663Y-114385680D01*
X202650680Y-114778663D01*
X202565000Y-114985513D01*
X202479320Y-114778663D01*
X202086337Y-114385680D01*
X201572881Y-114173000D01*
X201017119Y-114173000D01*
X200503663Y-114385680D01*
X200110680Y-114778663D01*
X200025000Y-114985513D01*
X199939320Y-114778663D01*
X199546337Y-114385680D01*
X199032881Y-114173000D01*
X198477119Y-114173000D01*
X197963663Y-114385680D01*
X197570680Y-114778663D01*
X197485000Y-114985513D01*
X197399320Y-114778663D01*
X197006337Y-114385680D01*
X196492881Y-114173000D01*
X195937119Y-114173000D01*
X195423663Y-114385680D01*
X195030680Y-114778663D01*
X194945000Y-114985513D01*
X194859320Y-114778663D01*
X194466337Y-114385680D01*
X193952881Y-114173000D01*
X193397119Y-114173000D01*
X192982001Y-114344947D01*
X192982001Y-101555053D01*
X193397119Y-101727000D01*
X193952881Y-101727000D01*
X194466337Y-101514320D01*
X194859320Y-101121337D01*
X194945000Y-100914487D01*
X195030680Y-101121337D01*
X195423663Y-101514320D01*
X195937119Y-101727000D01*
X196492881Y-101727000D01*
X197006337Y-101514320D01*
X197399320Y-101121337D01*
X197485000Y-100914487D01*
X197570680Y-101121337D01*
X197963663Y-101514320D01*
X198477119Y-101727000D01*
X199032881Y-101727000D01*
X199546337Y-101514320D01*
X199939320Y-101121337D01*
X200025000Y-100914487D01*
X200110680Y-101121337D01*
X200503663Y-101514320D01*
X201017119Y-101727000D01*
X201572881Y-101727000D01*
X202086337Y-101514320D01*
X202479320Y-101121337D01*
X202565000Y-100914487D01*
X202650680Y-101121337D01*
X203043663Y-101514320D01*
X203557119Y-101727000D01*
X204112881Y-101727000D01*
X204626337Y-101514320D01*
X205019320Y-101121337D01*
X205105000Y-100914487D01*
X205190680Y-101121337D01*
X205583663Y-101514320D01*
X206097119Y-101727000D01*
X206652881Y-101727000D01*
X207166337Y-101514320D01*
X207559320Y-101121337D01*
X207645000Y-100914487D01*
X207730680Y-101121337D01*
X208123663Y-101514320D01*
X208637119Y-101727000D01*
X209192881Y-101727000D01*
X209706337Y-101514320D01*
X210099320Y-101121337D01*
X210185000Y-100914487D01*
X210270680Y-101121337D01*
X210663663Y-101514320D01*
X211177119Y-101727000D01*
X211732881Y-101727000D01*
X212246337Y-101514320D01*
X212639320Y-101121337D01*
X212725000Y-100914487D01*
X212810680Y-101121337D01*
X213203663Y-101514320D01*
X213717119Y-101727000D01*
X214272881Y-101727000D01*
X214786337Y-101514320D01*
X215179320Y-101121337D01*
X215265000Y-100914487D01*
X215350680Y-101121337D01*
X215743663Y-101514320D01*
X216257119Y-101727000D01*
X216812881Y-101727000D01*
X217326337Y-101514320D01*
X217719320Y-101121337D01*
X217805000Y-100914487D01*
X217890680Y-101121337D01*
X218283663Y-101514320D01*
X218797119Y-101727000D01*
X219352881Y-101727000D01*
X219866337Y-101514320D01*
X220259320Y-101121337D01*
X220345000Y-100914487D01*
X220430680Y-101121337D01*
X220823663Y-101514320D01*
X221337119Y-101727000D01*
X221892881Y-101727000D01*
X222406337Y-101514320D01*
X222799320Y-101121337D01*
X222885000Y-100914487D01*
X222970680Y-101121337D01*
X223363663Y-101514320D01*
X223877119Y-101727000D01*
X224432881Y-101727000D01*
X224946337Y-101514320D01*
X225339320Y-101121337D01*
X225425000Y-100914487D01*
X225510680Y-101121337D01*
X225903663Y-101514320D01*
X226417119Y-101727000D01*
X226972881Y-101727000D01*
X227486337Y-101514320D01*
X227879320Y-101121337D01*
X227965000Y-100914487D01*
X228050680Y-101121337D01*
X228443663Y-101514320D01*
X228957119Y-101727000D01*
X229512881Y-101727000D01*
X230026337Y-101514320D01*
X230378000Y-101162657D01*
X230378000Y-114737343D01*
X230026337Y-114385680D01*
X229512881Y-114173000D01*
X228957119Y-114173000D01*
X228443663Y-114385680D01*
X228050680Y-114778663D01*
X227965000Y-114985513D01*
X227879320Y-114778663D01*
X227486337Y-114385680D01*
X226972881Y-114173000D01*
X226417119Y-114173000D01*
X225903663Y-114385680D01*
X225510680Y-114778663D01*
X225431572Y-114969647D01*
X225377397Y-114838857D01*
X225135213Y-114769392D01*
X224334605Y-115570000D01*
X225135213Y-116370608D01*
X225377397Y-116301143D01*
X225427535Y-116160607D01*
X225510680Y-116361337D01*
X225903663Y-116754320D01*
X226417119Y-116967000D01*
X226972881Y-116967000D01*
X227486337Y-116754320D01*
X227879320Y-116361337D01*
X227965000Y-116154487D01*
X228050680Y-116361337D01*
X228443663Y-116754320D01*
X228957119Y-116967000D01*
X229512881Y-116967000D01*
X230026337Y-116754320D01*
X230378000Y-116402657D01*
X230378000Y-127086415D01*
X229965789Y-127759081D01*
X229637892Y-128143000D01*
X174222108Y-128143000D01*
X173894210Y-127759081D01*
X173482000Y-127086414D01*
X173482000Y-126650750D01*
X196532500Y-126650750D01*
X196532500Y-127443810D01*
X196629173Y-127677199D01*
X196807802Y-127855827D01*
X197041191Y-127952500D01*
X197834250Y-127952500D01*
X197993000Y-127793750D01*
X197993000Y-126492000D01*
X196691250Y-126492000D01*
X196532500Y-126650750D01*
X173482000Y-126650750D01*
X173482000Y-124035322D01*
X176935000Y-124035322D01*
X176935000Y-124884678D01*
X177260034Y-125669380D01*
X177860620Y-126269966D01*
X178645322Y-126595000D01*
X179494678Y-126595000D01*
X180279380Y-126269966D01*
X180879966Y-125669380D01*
X181205000Y-124884678D01*
X181205000Y-124035322D01*
X180879966Y-123250620D01*
X180279380Y-122650034D01*
X179494678Y-122325000D01*
X178645322Y-122325000D01*
X177860620Y-122650034D01*
X177260034Y-123250620D01*
X176935000Y-124035322D01*
X173482000Y-124035322D01*
X173482000Y-101310213D01*
X180174392Y-101310213D01*
X180243857Y-101552397D01*
X180767302Y-101739144D01*
X181322368Y-101711362D01*
X181706143Y-101552397D01*
X181775608Y-101310213D01*
X180975000Y-100509605D01*
X180174392Y-101310213D01*
X173482000Y-101310213D01*
X173482000Y-100122302D01*
X179565856Y-100122302D01*
X179593638Y-100677368D01*
X179752603Y-101061143D01*
X179994787Y-101130608D01*
X180795395Y-100330000D01*
X179994787Y-99529392D01*
X179752603Y-99598857D01*
X179565856Y-100122302D01*
X173482000Y-100122302D01*
X173482000Y-99349787D01*
X180174392Y-99349787D01*
X180975000Y-100150395D01*
X181775608Y-99349787D01*
X181706143Y-99107603D01*
X181182698Y-98920856D01*
X180627632Y-98948638D01*
X180243857Y-99107603D01*
X180174392Y-99349787D01*
X173482000Y-99349787D01*
X173482000Y-78950322D01*
X176935000Y-78950322D01*
X176935000Y-79799678D01*
X177260034Y-80584380D01*
X177860620Y-81184966D01*
X178645322Y-81510000D01*
X179494678Y-81510000D01*
X180279380Y-81184966D01*
X180879966Y-80584380D01*
X181205000Y-79799678D01*
X181205000Y-78950322D01*
X180879966Y-78165620D01*
X180279380Y-77565034D01*
X179494678Y-77240000D01*
X178645322Y-77240000D01*
X177860620Y-77565034D01*
X177260034Y-78165620D01*
X176935000Y-78950322D01*
X173482000Y-78950322D01*
X173482000Y-76748586D01*
X173894210Y-76075919D01*
X174222108Y-75692000D01*
X229637892Y-75692000D01*
X229965789Y-76075919D01*
X229965789Y-76075919D01*
G37*
X229965789Y-76075919D02*
X230378000Y-76748585D01*
X230378000Y-99497343D01*
X230026337Y-99145680D01*
X229512881Y-98933000D01*
X228957119Y-98933000D01*
X228443663Y-99145680D01*
X228050680Y-99538663D01*
X227965000Y-99745513D01*
X227879320Y-99538663D01*
X227486337Y-99145680D01*
X226972881Y-98933000D01*
X226417119Y-98933000D01*
X225903663Y-99145680D01*
X225510680Y-99538663D01*
X225425000Y-99745513D01*
X225339320Y-99538663D01*
X224946337Y-99145680D01*
X224432881Y-98933000D01*
X223877119Y-98933000D01*
X223363663Y-99145680D01*
X222970680Y-99538663D01*
X222885000Y-99745513D01*
X222799320Y-99538663D01*
X222406337Y-99145680D01*
X221892881Y-98933000D01*
X221337119Y-98933000D01*
X220823663Y-99145680D01*
X220430680Y-99538663D01*
X220345000Y-99745513D01*
X220259320Y-99538663D01*
X219866337Y-99145680D01*
X219352881Y-98933000D01*
X218797119Y-98933000D01*
X218283663Y-99145680D01*
X217890680Y-99538663D01*
X217805000Y-99745513D01*
X217719320Y-99538663D01*
X217326337Y-99145680D01*
X217295000Y-99132700D01*
X217295000Y-92293392D01*
X218059000Y-92293392D01*
X218059000Y-93126609D01*
X218154792Y-93608188D01*
X218519695Y-94154305D01*
X219065813Y-94519208D01*
X219710000Y-94647345D01*
X220354188Y-94519208D01*
X220900305Y-94154305D01*
X220980000Y-94035033D01*
X221059695Y-94154305D01*
X221605813Y-94519208D01*
X222250000Y-94647345D01*
X222894188Y-94519208D01*
X223440305Y-94154305D01*
X223520000Y-94035033D01*
X223599695Y-94154305D01*
X224145813Y-94519208D01*
X224790000Y-94647345D01*
X225434188Y-94519208D01*
X225980305Y-94154305D01*
X226345208Y-93608188D01*
X226441000Y-93126608D01*
X226441000Y-92293391D01*
X226345208Y-91811812D01*
X225980305Y-91265695D01*
X225434187Y-90900792D01*
X224790000Y-90772655D01*
X224145812Y-90900792D01*
X223599695Y-91265695D01*
X223520000Y-91384967D01*
X223440305Y-91265695D01*
X222894187Y-90900792D01*
X222250000Y-90772655D01*
X221605812Y-90900792D01*
X221059695Y-91265695D01*
X220980000Y-91384967D01*
X220900305Y-91265695D01*
X220354187Y-90900792D01*
X219710000Y-90772655D01*
X219065812Y-90900792D01*
X218519695Y-91265695D01*
X218154792Y-91811813D01*
X218059000Y-92293392D01*
X217295000Y-92293392D01*
X217295000Y-81009601D01*
X217455668Y-80977642D01*
X217665712Y-80837294D01*
X217806060Y-80627250D01*
X217855343Y-80379485D01*
X217855343Y-78950322D01*
X222655000Y-78950322D01*
X222655000Y-79799678D01*
X222980034Y-80584380D01*
X223580620Y-81184966D01*
X224365322Y-81510000D01*
X225214678Y-81510000D01*
X225999380Y-81184966D01*
X226599966Y-80584380D01*
X226925000Y-79799678D01*
X226925000Y-78950322D01*
X226599966Y-78165620D01*
X225999380Y-77565034D01*
X225214678Y-77240000D01*
X224365322Y-77240000D01*
X223580620Y-77565034D01*
X222980034Y-78165620D01*
X222655000Y-78950322D01*
X217855343Y-78950322D01*
X217855343Y-78679485D01*
X217806060Y-78431720D01*
X217665712Y-78221676D01*
X217455668Y-78081328D01*
X217207903Y-78032045D01*
X215507903Y-78032045D01*
X215260138Y-78081328D01*
X215050094Y-78221676D01*
X214909746Y-78431720D01*
X214900719Y-78477104D01*
X214888528Y-78458860D01*
X214397321Y-78130646D01*
X213964159Y-78044485D01*
X213671647Y-78044485D01*
X213238485Y-78130646D01*
X212747278Y-78458860D01*
X212419064Y-78950067D01*
X212303811Y-79529485D01*
X212419064Y-80108903D01*
X212747278Y-80600110D01*
X213235001Y-80925996D01*
X213235000Y-91246373D01*
X212876182Y-91175000D01*
X212573818Y-91175000D01*
X212316071Y-91226269D01*
X199769287Y-78679485D01*
X204700463Y-78679485D01*
X204700463Y-80379485D01*
X204749746Y-80627250D01*
X204890094Y-80837294D01*
X205100138Y-80977642D01*
X205347903Y-81026925D01*
X207047903Y-81026925D01*
X207295668Y-80977642D01*
X207505712Y-80837294D01*
X207646060Y-80627250D01*
X207695343Y-80379485D01*
X207695343Y-78679485D01*
X207646060Y-78431720D01*
X207505712Y-78221676D01*
X207295668Y-78081328D01*
X207047903Y-78032045D01*
X205347903Y-78032045D01*
X205100138Y-78081328D01*
X204890094Y-78221676D01*
X204749746Y-78431720D01*
X204700463Y-78679485D01*
X199769287Y-78679485D01*
X198710331Y-77620530D01*
X198667929Y-77557071D01*
X198416537Y-77389096D01*
X198194852Y-77345000D01*
X198194847Y-77345000D01*
X198120000Y-77330112D01*
X198045153Y-77345000D01*
X194289848Y-77345000D01*
X194215000Y-77330112D01*
X194140152Y-77345000D01*
X194140148Y-77345000D01*
X193966605Y-77379520D01*
X193918462Y-77389096D01*
X193796768Y-77470410D01*
X193667071Y-77557071D01*
X193624671Y-77620527D01*
X192619218Y-78625980D01*
X192587881Y-78613000D01*
X192032119Y-78613000D01*
X191518663Y-78825680D01*
X191125680Y-79218663D01*
X190913000Y-79732119D01*
X190913000Y-80287881D01*
X191125680Y-80801337D01*
X191518663Y-81194320D01*
X192032119Y-81407000D01*
X192587881Y-81407000D01*
X193101337Y-81194320D01*
X193310000Y-80985657D01*
X193518663Y-81194320D01*
X194032119Y-81407000D01*
X194587881Y-81407000D01*
X195101337Y-81194320D01*
X195310000Y-80985657D01*
X195518663Y-81194320D01*
X195550000Y-81207300D01*
X195550001Y-83840148D01*
X195535112Y-83915000D01*
X195550001Y-83989852D01*
X195594097Y-84211537D01*
X195762072Y-84462929D01*
X195825528Y-84505329D01*
X200516896Y-89196698D01*
X200495000Y-89249561D01*
X200495000Y-89820439D01*
X200713466Y-90347862D01*
X201117138Y-90751534D01*
X201644561Y-90970000D01*
X202215439Y-90970000D01*
X202742862Y-90751534D01*
X203146534Y-90347862D01*
X203365000Y-89820439D01*
X203365000Y-89249561D01*
X203146534Y-88722138D01*
X202742862Y-88318466D01*
X202215439Y-88100000D01*
X201644561Y-88100000D01*
X201591698Y-88121896D01*
X197070000Y-83600199D01*
X197070000Y-81207300D01*
X197101337Y-81194320D01*
X197494320Y-80801337D01*
X197707000Y-80287881D01*
X197707000Y-79732119D01*
X197494320Y-79218663D01*
X197140657Y-78865000D01*
X197805199Y-78865000D01*
X210115198Y-91175000D01*
X210033818Y-91175000D01*
X209586073Y-91264062D01*
X209142129Y-91560696D01*
X209002809Y-91352191D01*
X208792765Y-91211843D01*
X208545000Y-91162560D01*
X206745000Y-91162560D01*
X206497235Y-91211843D01*
X206287191Y-91352191D01*
X206146843Y-91562235D01*
X206097560Y-91810000D01*
X206097560Y-93610000D01*
X206146843Y-93857765D01*
X206287191Y-94067809D01*
X206497235Y-94208157D01*
X206745000Y-94257440D01*
X208545000Y-94257440D01*
X208792765Y-94208157D01*
X209002809Y-94067809D01*
X209142129Y-93859304D01*
X209586073Y-94155938D01*
X210033818Y-94245000D01*
X210336182Y-94245000D01*
X210783927Y-94155938D01*
X211291673Y-93816673D01*
X211455000Y-93572237D01*
X211618327Y-93816673D01*
X212126073Y-94155938D01*
X212573818Y-94245000D01*
X212876182Y-94245000D01*
X213235000Y-94173627D01*
X213235000Y-99132700D01*
X213203663Y-99145680D01*
X212810680Y-99538663D01*
X212725000Y-99745513D01*
X212639320Y-99538663D01*
X212246337Y-99145680D01*
X211732881Y-98933000D01*
X211177119Y-98933000D01*
X210663663Y-99145680D01*
X210270680Y-99538663D01*
X210185000Y-99745513D01*
X210099320Y-99538663D01*
X209706337Y-99145680D01*
X209192881Y-98933000D01*
X208637119Y-98933000D01*
X208123663Y-99145680D01*
X207730680Y-99538663D01*
X207645000Y-99745513D01*
X207559320Y-99538663D01*
X207166337Y-99145680D01*
X206652881Y-98933000D01*
X206097119Y-98933000D01*
X205583663Y-99145680D01*
X205190680Y-99538663D01*
X205105000Y-99745513D01*
X205019320Y-99538663D01*
X204626337Y-99145680D01*
X204112881Y-98933000D01*
X203557119Y-98933000D01*
X203043663Y-99145680D01*
X202650680Y-99538663D01*
X202565000Y-99745513D01*
X202479320Y-99538663D01*
X202086337Y-99145680D01*
X201572881Y-98933000D01*
X201017119Y-98933000D01*
X200503663Y-99145680D01*
X200110680Y-99538663D01*
X200025000Y-99745513D01*
X199939320Y-99538663D01*
X199546337Y-99145680D01*
X199032881Y-98933000D01*
X198477119Y-98933000D01*
X197963663Y-99145680D01*
X197570680Y-99538663D01*
X197485000Y-99745513D01*
X197399320Y-99538663D01*
X197006337Y-99145680D01*
X196492881Y-98933000D01*
X195937119Y-98933000D01*
X195423663Y-99145680D01*
X195030680Y-99538663D01*
X194945000Y-99745513D01*
X194859320Y-99538663D01*
X194466337Y-99145680D01*
X193952881Y-98933000D01*
X193397119Y-98933000D01*
X192982001Y-99104947D01*
X192982001Y-95747800D01*
X193971698Y-94758104D01*
X194024561Y-94780000D01*
X194595439Y-94780000D01*
X195122862Y-94561534D01*
X195526534Y-94157862D01*
X195745000Y-93630439D01*
X195745000Y-93345000D01*
X200466887Y-93345000D01*
X200578260Y-93904909D01*
X200895423Y-94379577D01*
X201370091Y-94696740D01*
X201788667Y-94780000D01*
X202071333Y-94780000D01*
X202489909Y-94696740D01*
X202964577Y-94379577D01*
X203281740Y-93904909D01*
X203393113Y-93345000D01*
X203281740Y-92785091D01*
X202964577Y-92310423D01*
X202489909Y-91993260D01*
X202071333Y-91910000D01*
X201788667Y-91910000D01*
X201370091Y-91993260D01*
X200895423Y-92310423D01*
X200578260Y-92785091D01*
X200466887Y-93345000D01*
X195745000Y-93345000D01*
X195745000Y-93059561D01*
X195526534Y-92532138D01*
X195122862Y-92128466D01*
X195070000Y-92106570D01*
X195070000Y-90753043D01*
X195344577Y-90569577D01*
X195661740Y-90094909D01*
X195773113Y-89535000D01*
X195661740Y-88975091D01*
X195344577Y-88500423D01*
X194869909Y-88183260D01*
X194451333Y-88100000D01*
X194168667Y-88100000D01*
X193750091Y-88183260D01*
X193275423Y-88500423D01*
X192958260Y-88975091D01*
X192846887Y-89535000D01*
X192958260Y-90094909D01*
X193275423Y-90569577D01*
X193550000Y-90753044D01*
X193550001Y-92106570D01*
X193497138Y-92128466D01*
X193093466Y-92532138D01*
X192875000Y-93059561D01*
X192875000Y-93630439D01*
X192896896Y-93683302D01*
X191737529Y-94842670D01*
X191674073Y-94885070D01*
X191631673Y-94948526D01*
X191631672Y-94948527D01*
X191506098Y-95136462D01*
X191447113Y-95432999D01*
X191462002Y-95507851D01*
X191462002Y-98953346D01*
X191412881Y-98933000D01*
X190857119Y-98933000D01*
X190343663Y-99145680D01*
X189950680Y-99538663D01*
X189865000Y-99745513D01*
X189779320Y-99538663D01*
X189386337Y-99145680D01*
X188872881Y-98933000D01*
X188317119Y-98933000D01*
X187803663Y-99145680D01*
X187410680Y-99538663D01*
X187325000Y-99745513D01*
X187239320Y-99538663D01*
X186846337Y-99145680D01*
X186815000Y-99132700D01*
X186815000Y-98739801D01*
X190796698Y-94758104D01*
X190849561Y-94780000D01*
X191420439Y-94780000D01*
X191947862Y-94561534D01*
X192351534Y-94157862D01*
X192570000Y-93630439D01*
X192570000Y-93059561D01*
X192351534Y-92532138D01*
X191947862Y-92128466D01*
X191420439Y-91910000D01*
X190849561Y-91910000D01*
X190322138Y-92128466D01*
X189918466Y-92532138D01*
X189885000Y-92612932D01*
X189851534Y-92532138D01*
X189447862Y-92128466D01*
X188920439Y-91910000D01*
X188349561Y-91910000D01*
X187822138Y-92128466D01*
X187418466Y-92532138D01*
X187200000Y-93059561D01*
X187200000Y-93630439D01*
X187418466Y-94157862D01*
X187822138Y-94561534D01*
X188349561Y-94780000D01*
X188625198Y-94780000D01*
X185740199Y-97665000D01*
X185197173Y-97665000D01*
X180056414Y-92524243D01*
X180254320Y-92326337D01*
X180467000Y-91812881D01*
X180467000Y-91257119D01*
X180254320Y-90743663D01*
X180045657Y-90535000D01*
X180254320Y-90326337D01*
X180467000Y-89812881D01*
X180467000Y-89257119D01*
X180254320Y-88743663D01*
X180125218Y-88614561D01*
X186565000Y-88614561D01*
X186565000Y-89185439D01*
X186783466Y-89712862D01*
X187187138Y-90116534D01*
X187714561Y-90335000D01*
X188285439Y-90335000D01*
X188812862Y-90116534D01*
X189081899Y-89847497D01*
X189101843Y-89947765D01*
X189242191Y-90157809D01*
X189452235Y-90298157D01*
X189700000Y-90347440D01*
X191300000Y-90347440D01*
X191547765Y-90298157D01*
X191757809Y-90157809D01*
X191898157Y-89947765D01*
X191947440Y-89700000D01*
X191947440Y-88100000D01*
X191898157Y-87852235D01*
X191757809Y-87642191D01*
X191547765Y-87501843D01*
X191300000Y-87452560D01*
X189700000Y-87452560D01*
X189452235Y-87501843D01*
X189242191Y-87642191D01*
X189101843Y-87852235D01*
X189081899Y-87952503D01*
X188812862Y-87683466D01*
X188285439Y-87465000D01*
X187714561Y-87465000D01*
X187187138Y-87683466D01*
X186783466Y-88087138D01*
X186565000Y-88614561D01*
X180125218Y-88614561D01*
X180045657Y-88535000D01*
X180254320Y-88326337D01*
X180467000Y-87812881D01*
X180467000Y-87257119D01*
X180254320Y-86743663D01*
X179861337Y-86350680D01*
X179347881Y-86138000D01*
X178792119Y-86138000D01*
X178278663Y-86350680D01*
X177885680Y-86743663D01*
X177673000Y-87257119D01*
X177673000Y-87812881D01*
X177885680Y-88326337D01*
X178094343Y-88535000D01*
X177885680Y-88743663D01*
X177673000Y-89257119D01*
X177673000Y-89812881D01*
X177885680Y-90326337D01*
X178094343Y-90535000D01*
X177885680Y-90743663D01*
X177673000Y-91257119D01*
X177673000Y-91812881D01*
X177885680Y-92326337D01*
X178278663Y-92719320D01*
X178319716Y-92736325D01*
X178354097Y-92909167D01*
X178447172Y-93048463D01*
X178522072Y-93160559D01*
X178585528Y-93202959D01*
X184292043Y-98909476D01*
X184334441Y-98972929D01*
X184397894Y-99015327D01*
X184397896Y-99015329D01*
X184523272Y-99099102D01*
X184585833Y-99140904D01*
X184807518Y-99185000D01*
X184807522Y-99185000D01*
X184882369Y-99199888D01*
X184957216Y-99185000D01*
X185224343Y-99185000D01*
X184870680Y-99538663D01*
X184785000Y-99745513D01*
X184699320Y-99538663D01*
X184306337Y-99145680D01*
X183792881Y-98933000D01*
X183237119Y-98933000D01*
X182723663Y-99145680D01*
X182330680Y-99538663D01*
X182251572Y-99729647D01*
X182197397Y-99598857D01*
X181955213Y-99529392D01*
X181154605Y-100330000D01*
X181955213Y-101130608D01*
X182197397Y-101061143D01*
X182247535Y-100920607D01*
X182330680Y-101121337D01*
X182723663Y-101514320D01*
X183237119Y-101727000D01*
X183792881Y-101727000D01*
X184306337Y-101514320D01*
X184699320Y-101121337D01*
X184785000Y-100914487D01*
X184870680Y-101121337D01*
X185263663Y-101514320D01*
X185777119Y-101727000D01*
X186332881Y-101727000D01*
X186846337Y-101514320D01*
X187239320Y-101121337D01*
X187325000Y-100914487D01*
X187410680Y-101121337D01*
X187803663Y-101514320D01*
X188317119Y-101727000D01*
X188872881Y-101727000D01*
X189386337Y-101514320D01*
X189779320Y-101121337D01*
X189865000Y-100914487D01*
X189950680Y-101121337D01*
X190343663Y-101514320D01*
X190857119Y-101727000D01*
X191412881Y-101727000D01*
X191462002Y-101706654D01*
X191462001Y-114168197D01*
X191444218Y-114185980D01*
X191412881Y-114173000D01*
X190857119Y-114173000D01*
X190343663Y-114385680D01*
X189950680Y-114778663D01*
X189865000Y-114985513D01*
X189779320Y-114778663D01*
X189386337Y-114385680D01*
X188872881Y-114173000D01*
X188317119Y-114173000D01*
X187803663Y-114385680D01*
X187410680Y-114778663D01*
X187325000Y-114985513D01*
X187239320Y-114778663D01*
X186846337Y-114385680D01*
X186332881Y-114173000D01*
X185777119Y-114173000D01*
X185263663Y-114385680D01*
X184870680Y-114778663D01*
X184785000Y-114985513D01*
X184699320Y-114778663D01*
X184306337Y-114385680D01*
X183792881Y-114173000D01*
X183237119Y-114173000D01*
X182723663Y-114385680D01*
X182330680Y-114778663D01*
X182245000Y-114985513D01*
X182159320Y-114778663D01*
X181766337Y-114385680D01*
X181252881Y-114173000D01*
X180697119Y-114173000D01*
X180183663Y-114385680D01*
X179790680Y-114778663D01*
X179578000Y-115292119D01*
X179578000Y-115847881D01*
X179790680Y-116361337D01*
X180183663Y-116754320D01*
X180697119Y-116967000D01*
X181252881Y-116967000D01*
X181766337Y-116754320D01*
X182159320Y-116361337D01*
X182245000Y-116154487D01*
X182330680Y-116361337D01*
X182723663Y-116754320D01*
X183237119Y-116967000D01*
X183792881Y-116967000D01*
X184306337Y-116754320D01*
X184699320Y-116361337D01*
X184785000Y-116154487D01*
X184870680Y-116361337D01*
X185263663Y-116754320D01*
X185777119Y-116967000D01*
X186332881Y-116967000D01*
X186846337Y-116754320D01*
X187239320Y-116361337D01*
X187325000Y-116154487D01*
X187410680Y-116361337D01*
X187803663Y-116754320D01*
X188317119Y-116967000D01*
X188872881Y-116967000D01*
X189386337Y-116754320D01*
X189779320Y-116361337D01*
X189865000Y-116154487D01*
X189950680Y-116361337D01*
X190343663Y-116754320D01*
X190857119Y-116967000D01*
X191412881Y-116967000D01*
X191926337Y-116754320D01*
X192319320Y-116361337D01*
X192405000Y-116154487D01*
X192490680Y-116361337D01*
X192883663Y-116754320D01*
X193397119Y-116967000D01*
X193952881Y-116967000D01*
X194466337Y-116754320D01*
X194859320Y-116361337D01*
X194945000Y-116154487D01*
X195030680Y-116361337D01*
X195423663Y-116754320D01*
X195937119Y-116967000D01*
X196492881Y-116967000D01*
X197006337Y-116754320D01*
X197399320Y-116361337D01*
X197485000Y-116154487D01*
X197570680Y-116361337D01*
X197963663Y-116754320D01*
X198477119Y-116967000D01*
X199032881Y-116967000D01*
X199546337Y-116754320D01*
X199939320Y-116361337D01*
X200025000Y-116154487D01*
X200110680Y-116361337D01*
X200503663Y-116754320D01*
X201017119Y-116967000D01*
X201572881Y-116967000D01*
X202086337Y-116754320D01*
X202479320Y-116361337D01*
X202565000Y-116154487D01*
X202650680Y-116361337D01*
X203043663Y-116754320D01*
X203557119Y-116967000D01*
X204112881Y-116967000D01*
X204626337Y-116754320D01*
X205019320Y-116361337D01*
X205105000Y-116154487D01*
X205190680Y-116361337D01*
X205583663Y-116754320D01*
X206097119Y-116967000D01*
X206443198Y-116967000D01*
X201115021Y-122295178D01*
X200975773Y-122237500D01*
X200344227Y-122237500D01*
X199760753Y-122479182D01*
X199390000Y-122849935D01*
X199019247Y-122479182D01*
X198435773Y-122237500D01*
X197804227Y-122237500D01*
X197220753Y-122479182D01*
X196774182Y-122925753D01*
X196532500Y-123509227D01*
X196532500Y-124140773D01*
X196774182Y-124724247D01*
X196890043Y-124840108D01*
X196807802Y-124874173D01*
X196629173Y-125052801D01*
X196532500Y-125286190D01*
X196532500Y-126079250D01*
X196691250Y-126238000D01*
X197993000Y-126238000D01*
X197993000Y-126218000D01*
X198247000Y-126218000D01*
X198247000Y-126238000D01*
X198267000Y-126238000D01*
X198267000Y-126492000D01*
X198247000Y-126492000D01*
X198247000Y-127793750D01*
X198405750Y-127952500D01*
X199198809Y-127952500D01*
X199432198Y-127855827D01*
X199610827Y-127677199D01*
X199644893Y-127594958D01*
X199760753Y-127710818D01*
X200344227Y-127952500D01*
X200975773Y-127952500D01*
X201559247Y-127710818D01*
X201930000Y-127340065D01*
X202300753Y-127710818D01*
X202884227Y-127952500D01*
X203515773Y-127952500D01*
X204099247Y-127710818D01*
X204470000Y-127340065D01*
X204840753Y-127710818D01*
X205424227Y-127952500D01*
X206055773Y-127952500D01*
X206639247Y-127710818D01*
X207010000Y-127340065D01*
X207380753Y-127710818D01*
X207964227Y-127952500D01*
X208595773Y-127952500D01*
X209179247Y-127710818D01*
X209625818Y-127264247D01*
X209867500Y-126680773D01*
X209867500Y-126049227D01*
X209625818Y-125465753D01*
X209255065Y-125095000D01*
X209625818Y-124724247D01*
X209867500Y-124140773D01*
X209867500Y-124035322D01*
X222655000Y-124035322D01*
X222655000Y-124884678D01*
X222980034Y-125669380D01*
X223580620Y-126269966D01*
X224365322Y-126595000D01*
X225214678Y-126595000D01*
X225999380Y-126269966D01*
X226599966Y-125669380D01*
X226925000Y-124884678D01*
X226925000Y-124035322D01*
X226599966Y-123250620D01*
X225999380Y-122650034D01*
X225214678Y-122325000D01*
X224365322Y-122325000D01*
X223580620Y-122650034D01*
X222980034Y-123250620D01*
X222655000Y-124035322D01*
X209867500Y-124035322D01*
X209867500Y-123509227D01*
X209625818Y-122925753D01*
X209179247Y-122479182D01*
X208595773Y-122237500D01*
X208402301Y-122237500D01*
X213026474Y-117613328D01*
X213089930Y-117570928D01*
X213257905Y-117319536D01*
X213302001Y-117097851D01*
X213302001Y-117097847D01*
X213316889Y-117023000D01*
X213302001Y-116948153D01*
X213302001Y-116795053D01*
X213717119Y-116967000D01*
X214272881Y-116967000D01*
X214786337Y-116754320D01*
X215179320Y-116361337D01*
X215265000Y-116154487D01*
X215350680Y-116361337D01*
X215743663Y-116754320D01*
X216257119Y-116967000D01*
X216812881Y-116967000D01*
X217326337Y-116754320D01*
X217719320Y-116361337D01*
X217805000Y-116154487D01*
X217890680Y-116361337D01*
X218283663Y-116754320D01*
X218797119Y-116967000D01*
X219352881Y-116967000D01*
X219866337Y-116754320D01*
X220259320Y-116361337D01*
X220345000Y-116154487D01*
X220430680Y-116361337D01*
X220823663Y-116754320D01*
X221337119Y-116967000D01*
X221892881Y-116967000D01*
X222406337Y-116754320D01*
X222610444Y-116550213D01*
X223354392Y-116550213D01*
X223423857Y-116792397D01*
X223947302Y-116979144D01*
X224502368Y-116951362D01*
X224886143Y-116792397D01*
X224955608Y-116550213D01*
X224155000Y-115749605D01*
X223354392Y-116550213D01*
X222610444Y-116550213D01*
X222799320Y-116361337D01*
X222878428Y-116170353D01*
X222932603Y-116301143D01*
X223174787Y-116370608D01*
X223975395Y-115570000D01*
X223174787Y-114769392D01*
X222932603Y-114838857D01*
X222882465Y-114979393D01*
X222799320Y-114778663D01*
X222610444Y-114589787D01*
X223354392Y-114589787D01*
X224155000Y-115390395D01*
X224955608Y-114589787D01*
X224886143Y-114347603D01*
X224362698Y-114160856D01*
X223807632Y-114188638D01*
X223423857Y-114347603D01*
X223354392Y-114589787D01*
X222610444Y-114589787D01*
X222406337Y-114385680D01*
X221892881Y-114173000D01*
X221337119Y-114173000D01*
X220823663Y-114385680D01*
X220430680Y-114778663D01*
X220345000Y-114985513D01*
X220259320Y-114778663D01*
X219866337Y-114385680D01*
X219352881Y-114173000D01*
X218797119Y-114173000D01*
X218283663Y-114385680D01*
X217890680Y-114778663D01*
X217805000Y-114985513D01*
X217719320Y-114778663D01*
X217326337Y-114385680D01*
X216812881Y-114173000D01*
X216257119Y-114173000D01*
X216225782Y-114185980D01*
X215220331Y-113180530D01*
X215177929Y-113117071D01*
X214926537Y-112949096D01*
X214704852Y-112905000D01*
X214704847Y-112905000D01*
X214630000Y-112890112D01*
X214555153Y-112905000D01*
X209286086Y-112905000D01*
X209211238Y-112890112D01*
X209136390Y-112905000D01*
X209136386Y-112905000D01*
X208962843Y-112939520D01*
X208914700Y-112949096D01*
X208727656Y-113074076D01*
X208663309Y-113117071D01*
X208620909Y-113180527D01*
X207291047Y-114510390D01*
X207166337Y-114385680D01*
X206652881Y-114173000D01*
X206097119Y-114173000D01*
X205583663Y-114385680D01*
X205190680Y-114778663D01*
X205105000Y-114985513D01*
X205019320Y-114778663D01*
X204626337Y-114385680D01*
X204112881Y-114173000D01*
X203557119Y-114173000D01*
X203043663Y-114385680D01*
X202650680Y-114778663D01*
X202565000Y-114985513D01*
X202479320Y-114778663D01*
X202086337Y-114385680D01*
X201572881Y-114173000D01*
X201017119Y-114173000D01*
X200503663Y-114385680D01*
X200110680Y-114778663D01*
X200025000Y-114985513D01*
X199939320Y-114778663D01*
X199546337Y-114385680D01*
X199032881Y-114173000D01*
X198477119Y-114173000D01*
X197963663Y-114385680D01*
X197570680Y-114778663D01*
X197485000Y-114985513D01*
X197399320Y-114778663D01*
X197006337Y-114385680D01*
X196492881Y-114173000D01*
X195937119Y-114173000D01*
X195423663Y-114385680D01*
X195030680Y-114778663D01*
X194945000Y-114985513D01*
X194859320Y-114778663D01*
X194466337Y-114385680D01*
X193952881Y-114173000D01*
X193397119Y-114173000D01*
X192982001Y-114344947D01*
X192982001Y-101555053D01*
X193397119Y-101727000D01*
X193952881Y-101727000D01*
X194466337Y-101514320D01*
X194859320Y-101121337D01*
X194945000Y-100914487D01*
X195030680Y-101121337D01*
X195423663Y-101514320D01*
X195937119Y-101727000D01*
X196492881Y-101727000D01*
X197006337Y-101514320D01*
X197399320Y-101121337D01*
X197485000Y-100914487D01*
X197570680Y-101121337D01*
X197963663Y-101514320D01*
X198477119Y-101727000D01*
X199032881Y-101727000D01*
X199546337Y-101514320D01*
X199939320Y-101121337D01*
X200025000Y-100914487D01*
X200110680Y-101121337D01*
X200503663Y-101514320D01*
X201017119Y-101727000D01*
X201572881Y-101727000D01*
X202086337Y-101514320D01*
X202479320Y-101121337D01*
X202565000Y-100914487D01*
X202650680Y-101121337D01*
X203043663Y-101514320D01*
X203557119Y-101727000D01*
X204112881Y-101727000D01*
X204626337Y-101514320D01*
X205019320Y-101121337D01*
X205105000Y-100914487D01*
X205190680Y-101121337D01*
X205583663Y-101514320D01*
X206097119Y-101727000D01*
X206652881Y-101727000D01*
X207166337Y-101514320D01*
X207559320Y-101121337D01*
X207645000Y-100914487D01*
X207730680Y-101121337D01*
X208123663Y-101514320D01*
X208637119Y-101727000D01*
X209192881Y-101727000D01*
X209706337Y-101514320D01*
X210099320Y-101121337D01*
X210185000Y-100914487D01*
X210270680Y-101121337D01*
X210663663Y-101514320D01*
X211177119Y-101727000D01*
X211732881Y-101727000D01*
X212246337Y-101514320D01*
X212639320Y-101121337D01*
X212725000Y-100914487D01*
X212810680Y-101121337D01*
X213203663Y-101514320D01*
X213717119Y-101727000D01*
X214272881Y-101727000D01*
X214786337Y-101514320D01*
X215179320Y-101121337D01*
X215265000Y-100914487D01*
X215350680Y-101121337D01*
X215743663Y-101514320D01*
X216257119Y-101727000D01*
X216812881Y-101727000D01*
X217326337Y-101514320D01*
X217719320Y-101121337D01*
X217805000Y-100914487D01*
X217890680Y-101121337D01*
X218283663Y-101514320D01*
X218797119Y-101727000D01*
X219352881Y-101727000D01*
X219866337Y-101514320D01*
X220259320Y-101121337D01*
X220345000Y-100914487D01*
X220430680Y-101121337D01*
X220823663Y-101514320D01*
X221337119Y-101727000D01*
X221892881Y-101727000D01*
X222406337Y-101514320D01*
X222799320Y-101121337D01*
X222885000Y-100914487D01*
X222970680Y-101121337D01*
X223363663Y-101514320D01*
X223877119Y-101727000D01*
X224432881Y-101727000D01*
X224946337Y-101514320D01*
X225339320Y-101121337D01*
X225425000Y-100914487D01*
X225510680Y-101121337D01*
X225903663Y-101514320D01*
X226417119Y-101727000D01*
X226972881Y-101727000D01*
X227486337Y-101514320D01*
X227879320Y-101121337D01*
X227965000Y-100914487D01*
X228050680Y-101121337D01*
X228443663Y-101514320D01*
X228957119Y-101727000D01*
X229512881Y-101727000D01*
X230026337Y-101514320D01*
X230378000Y-101162657D01*
X230378000Y-114737343D01*
X230026337Y-114385680D01*
X229512881Y-114173000D01*
X228957119Y-114173000D01*
X228443663Y-114385680D01*
X228050680Y-114778663D01*
X227965000Y-114985513D01*
X227879320Y-114778663D01*
X227486337Y-114385680D01*
X226972881Y-114173000D01*
X226417119Y-114173000D01*
X225903663Y-114385680D01*
X225510680Y-114778663D01*
X225431572Y-114969647D01*
X225377397Y-114838857D01*
X225135213Y-114769392D01*
X224334605Y-115570000D01*
X225135213Y-116370608D01*
X225377397Y-116301143D01*
X225427535Y-116160607D01*
X225510680Y-116361337D01*
X225903663Y-116754320D01*
X226417119Y-116967000D01*
X226972881Y-116967000D01*
X227486337Y-116754320D01*
X227879320Y-116361337D01*
X227965000Y-116154487D01*
X228050680Y-116361337D01*
X228443663Y-116754320D01*
X228957119Y-116967000D01*
X229512881Y-116967000D01*
X230026337Y-116754320D01*
X230378000Y-116402657D01*
X230378000Y-127086415D01*
X229965789Y-127759081D01*
X229637892Y-128143000D01*
X174222108Y-128143000D01*
X173894210Y-127759081D01*
X173482000Y-127086414D01*
X173482000Y-126650750D01*
X196532500Y-126650750D01*
X196532500Y-127443810D01*
X196629173Y-127677199D01*
X196807802Y-127855827D01*
X197041191Y-127952500D01*
X197834250Y-127952500D01*
X197993000Y-127793750D01*
X197993000Y-126492000D01*
X196691250Y-126492000D01*
X196532500Y-126650750D01*
X173482000Y-126650750D01*
X173482000Y-124035322D01*
X176935000Y-124035322D01*
X176935000Y-124884678D01*
X177260034Y-125669380D01*
X177860620Y-126269966D01*
X178645322Y-126595000D01*
X179494678Y-126595000D01*
X180279380Y-126269966D01*
X180879966Y-125669380D01*
X181205000Y-124884678D01*
X181205000Y-124035322D01*
X180879966Y-123250620D01*
X180279380Y-122650034D01*
X179494678Y-122325000D01*
X178645322Y-122325000D01*
X177860620Y-122650034D01*
X177260034Y-123250620D01*
X176935000Y-124035322D01*
X173482000Y-124035322D01*
X173482000Y-101310213D01*
X180174392Y-101310213D01*
X180243857Y-101552397D01*
X180767302Y-101739144D01*
X181322368Y-101711362D01*
X181706143Y-101552397D01*
X181775608Y-101310213D01*
X180975000Y-100509605D01*
X180174392Y-101310213D01*
X173482000Y-101310213D01*
X173482000Y-100122302D01*
X179565856Y-100122302D01*
X179593638Y-100677368D01*
X179752603Y-101061143D01*
X179994787Y-101130608D01*
X180795395Y-100330000D01*
X179994787Y-99529392D01*
X179752603Y-99598857D01*
X179565856Y-100122302D01*
X173482000Y-100122302D01*
X173482000Y-99349787D01*
X180174392Y-99349787D01*
X180975000Y-100150395D01*
X181775608Y-99349787D01*
X181706143Y-99107603D01*
X181182698Y-98920856D01*
X180627632Y-98948638D01*
X180243857Y-99107603D01*
X180174392Y-99349787D01*
X173482000Y-99349787D01*
X173482000Y-78950322D01*
X176935000Y-78950322D01*
X176935000Y-79799678D01*
X177260034Y-80584380D01*
X177860620Y-81184966D01*
X178645322Y-81510000D01*
X179494678Y-81510000D01*
X180279380Y-81184966D01*
X180879966Y-80584380D01*
X181205000Y-79799678D01*
X181205000Y-78950322D01*
X180879966Y-78165620D01*
X180279380Y-77565034D01*
X179494678Y-77240000D01*
X178645322Y-77240000D01*
X177860620Y-77565034D01*
X177260034Y-78165620D01*
X176935000Y-78950322D01*
X173482000Y-78950322D01*
X173482000Y-76748586D01*
X173894210Y-76075919D01*
X174222108Y-75692000D01*
X229637892Y-75692000D01*
X229965789Y-76075919D01*
G04 #@! TD*
M02*
