M48
;DRILL file {KiCad (5.0.1-3-g963ef8bb5)} date Tuesday, April 02, 2019 at 02:04:53 PM
;FORMAT={-:-/ absolute / inch / decimal}
FMAT,2
INCH,TZ
T1C0.0450
T2C0.0451
T3C0.0500
T4C0.1181
%
G90
G05
M72
T1
X6.23Y-4.46
X6.23Y-4.56
X6.33Y-4.46
X6.33Y-4.56
X6.43Y-4.46
X6.43Y-4.56
X6.53Y-4.46
X6.53Y-4.56
X6.63Y-4.46
X6.63Y-4.56
T2
X5.07Y-4.285
X5.17Y-4.285
X5.27Y-4.285
X5.37Y-4.285
X5.47Y-4.285
X5.47Y-5.285
X5.57Y-4.285
X5.57Y-5.285
X5.67Y-4.285
X5.67Y-5.285
X5.77Y-4.285
X5.77Y-5.285
X5.87Y-4.285
X5.87Y-5.285
T3
X5.375Y-2.66
X5.375Y-4.06
X5.475Y-2.66
X5.475Y-4.06
T4
X5.175Y-2.66
X5.175Y-4.06
X6.175Y-2.66
X6.175Y-4.06
T0
M30
