G04 #@! TF.GenerationSoftware,KiCad,Pcbnew,(5.0.1-3-g963ef8bb5)*
G04 #@! TF.CreationDate,2019-04-02T14:04:58+07:00*
G04 #@! TF.ProjectId,STMaytal32-LoRa_Module_v2,53544D617974616C33322D4C6F52615F,rev?*
G04 #@! TF.SameCoordinates,Original*
G04 #@! TF.FileFunction,Legend,Top*
G04 #@! TF.FilePolarity,Positive*
%FSLAX46Y46*%
G04 Gerber Fmt 4.6, Leading zero omitted, Abs format (unit mm)*
G04 Created by KiCad (PCBNEW (5.0.1-3-g963ef8bb5)) date Tuesday, April 02, 2019 at 02:04:58 PM*
%MOMM*%
%LPD*%
G01*
G04 APERTURE LIST*
%ADD10C,0.150000*%
%ADD11C,0.125000*%
G04 APERTURE END LIST*
D10*
G04 #@! TO.C,J1*
X164592000Y-110109000D02*
X173482000Y-110109000D01*
X162052000Y-110109000D02*
X153162000Y-110109000D01*
X173482000Y-118999000D02*
X173482000Y-110109000D01*
X153162000Y-118999000D02*
X173482000Y-118999000D01*
X153162000Y-110109000D02*
X153162000Y-118999000D01*
G04 #@! TO.C,U3*
X151638000Y-108839000D02*
X151638000Y-132969000D01*
X128778000Y-106299000D02*
X149098000Y-106299000D01*
X126238000Y-132969000D02*
X126238000Y-108839000D01*
X149098000Y-135509000D02*
X128778000Y-135509000D01*
X149098000Y-106299000D02*
G75*
G02X151638000Y-108839000I0J-2540000D01*
G01*
X126238000Y-108839000D02*
G75*
G02X128778000Y-106299000I2540000J0D01*
G01*
X151638000Y-132969000D02*
G75*
G02X149098000Y-135509000I-2540000J0D01*
G01*
X128778000Y-135509000D02*
G75*
G02X126238000Y-132969000I0J2540000D01*
G01*
G04 #@! TO.C,U4*
X128905000Y-103124000D02*
G75*
G03X131445000Y-105664000I2540000J0D01*
G01*
X131445000Y-65024000D02*
G75*
G03X128905000Y-67564000I0J-2540000D01*
G01*
X161925000Y-67564000D02*
G75*
G03X159385000Y-65024000I-2540000J0D01*
G01*
X159385000Y-105664000D02*
G75*
G03X161925000Y-103124000I0J2540000D01*
G01*
X128905000Y-103124000D02*
X128905000Y-67564000D01*
X161925000Y-103124000D02*
X161925000Y-67564000D01*
X133985000Y-92964000D02*
X128905000Y-92964000D01*
X133985000Y-99314000D02*
X133985000Y-92964000D01*
X128905000Y-99314000D02*
X133985000Y-99314000D01*
X133985000Y-77724000D02*
X128905000Y-77724000D01*
X133985000Y-71374000D02*
X133985000Y-77724000D01*
X128905000Y-71374000D02*
X133985000Y-71374000D01*
X149225000Y-90424000D02*
X149225000Y-99314000D01*
X163195000Y-90424000D02*
X149225000Y-90424000D01*
X163195000Y-99314000D02*
X163195000Y-90424000D01*
X163195000Y-99314000D02*
X149225000Y-99314000D01*
X159385000Y-105664000D02*
X131445000Y-105664000D01*
X131445000Y-65024000D02*
X159385000Y-65024000D01*
G04 #@! TO.C,J1*
X162774380Y-118062333D02*
X163488666Y-118062333D01*
X163631523Y-118109952D01*
X163726761Y-118205190D01*
X163774380Y-118348047D01*
X163774380Y-118443285D01*
X163774380Y-117062333D02*
X163774380Y-117633761D01*
X163774380Y-117348047D02*
X162774380Y-117348047D01*
X162917238Y-117443285D01*
X163012476Y-117538523D01*
X163060095Y-117633761D01*
G04 #@! TO.C,U3*
X138176095Y-118451380D02*
X138176095Y-119260904D01*
X138223714Y-119356142D01*
X138271333Y-119403761D01*
X138366571Y-119451380D01*
X138557047Y-119451380D01*
X138652285Y-119403761D01*
X138699904Y-119356142D01*
X138747523Y-119260904D01*
X138747523Y-118451380D01*
X139128476Y-118451380D02*
X139747523Y-118451380D01*
X139414190Y-118832333D01*
X139557047Y-118832333D01*
X139652285Y-118879952D01*
X139699904Y-118927571D01*
X139747523Y-119022809D01*
X139747523Y-119260904D01*
X139699904Y-119356142D01*
X139652285Y-119403761D01*
X139557047Y-119451380D01*
X139271333Y-119451380D01*
X139176095Y-119403761D01*
X139128476Y-119356142D01*
G04 #@! TO.C,U4*
X147407380Y-86105904D02*
X148216904Y-86105904D01*
X148312142Y-86058285D01*
X148359761Y-86010666D01*
X148407380Y-85915428D01*
X148407380Y-85724952D01*
X148359761Y-85629714D01*
X148312142Y-85582095D01*
X148216904Y-85534476D01*
X147407380Y-85534476D01*
X147740714Y-84629714D02*
X148407380Y-84629714D01*
X147359761Y-84867809D02*
X148074047Y-85105904D01*
X148074047Y-84486857D01*
D11*
X138021190Y-101107809D02*
X138021190Y-101345904D01*
X137521190Y-101345904D01*
X138021190Y-100869714D02*
X137997380Y-100917333D01*
X137973571Y-100941142D01*
X137925952Y-100964952D01*
X137783095Y-100964952D01*
X137735476Y-100941142D01*
X137711666Y-100917333D01*
X137687857Y-100869714D01*
X137687857Y-100798285D01*
X137711666Y-100750666D01*
X137735476Y-100726857D01*
X137783095Y-100703047D01*
X137925952Y-100703047D01*
X137973571Y-100726857D01*
X137997380Y-100750666D01*
X138021190Y-100798285D01*
X138021190Y-100869714D01*
X138021190Y-100274476D02*
X137759285Y-100274476D01*
X137711666Y-100298285D01*
X137687857Y-100345904D01*
X137687857Y-100441142D01*
X137711666Y-100488761D01*
X137997380Y-100274476D02*
X138021190Y-100322095D01*
X138021190Y-100441142D01*
X137997380Y-100488761D01*
X137949761Y-100512571D01*
X137902142Y-100512571D01*
X137854523Y-100488761D01*
X137830714Y-100441142D01*
X137830714Y-100322095D01*
X137806904Y-100274476D01*
X138021190Y-99822095D02*
X137521190Y-99822095D01*
X137997380Y-99822095D02*
X138021190Y-99869714D01*
X138021190Y-99964952D01*
X137997380Y-100012571D01*
X137973571Y-100036380D01*
X137925952Y-100060190D01*
X137783095Y-100060190D01*
X137735476Y-100036380D01*
X137711666Y-100012571D01*
X137687857Y-99964952D01*
X137687857Y-99869714D01*
X137711666Y-99822095D01*
D10*
X139136428Y-100964952D02*
X139136428Y-100203047D01*
X136596428Y-100964952D02*
X136596428Y-100203047D01*
X136977380Y-100584000D02*
X136215476Y-100584000D01*
D11*
X137759285Y-70437333D02*
X137783095Y-70365904D01*
X137806904Y-70342095D01*
X137854523Y-70318285D01*
X137925952Y-70318285D01*
X137973571Y-70342095D01*
X137997380Y-70365904D01*
X138021190Y-70413523D01*
X138021190Y-70604000D01*
X137521190Y-70604000D01*
X137521190Y-70437333D01*
X137545000Y-70389714D01*
X137568809Y-70365904D01*
X137616428Y-70342095D01*
X137664047Y-70342095D01*
X137711666Y-70365904D01*
X137735476Y-70389714D01*
X137759285Y-70437333D01*
X137759285Y-70604000D01*
X138021190Y-69889714D02*
X137759285Y-69889714D01*
X137711666Y-69913523D01*
X137687857Y-69961142D01*
X137687857Y-70056380D01*
X137711666Y-70104000D01*
X137997380Y-69889714D02*
X138021190Y-69937333D01*
X138021190Y-70056380D01*
X137997380Y-70104000D01*
X137949761Y-70127809D01*
X137902142Y-70127809D01*
X137854523Y-70104000D01*
X137830714Y-70056380D01*
X137830714Y-69937333D01*
X137806904Y-69889714D01*
X137687857Y-69723047D02*
X137687857Y-69532571D01*
X137521190Y-69651619D02*
X137949761Y-69651619D01*
X137997380Y-69627809D01*
X138021190Y-69580190D01*
X138021190Y-69532571D01*
D10*
X136596428Y-70484952D02*
X136596428Y-69723047D01*
X136977380Y-70104000D02*
X136215476Y-70104000D01*
X139136428Y-70484952D02*
X139136428Y-69723047D01*
G04 #@! TD*
M02*
