G04 #@! TF.GenerationSoftware,KiCad,Pcbnew,(5.0.1-3-g963ef8bb5)*
G04 #@! TF.CreationDate,2019-04-02T14:04:59+07:00*
G04 #@! TF.ProjectId,STMaytal32-LoRa_Module_v2,53544D617974616C33322D4C6F52615F,rev?*
G04 #@! TF.SameCoordinates,Original*
G04 #@! TF.FileFunction,Soldermask,Bot*
G04 #@! TF.FilePolarity,Negative*
%FSLAX46Y46*%
G04 Gerber Fmt 4.6, Leading zero omitted, Abs format (unit mm)*
G04 Created by KiCad (PCBNEW (5.0.1-3-g963ef8bb5)) date Tuesday, April 02, 2019 at 02:04:59 PM*
%MOMM*%
%LPD*%
G01*
G04 APERTURE LIST*
%ADD10C,0.100000*%
G04 APERTURE END LIST*
D10*
G36*
X149220988Y-133240304D02*
X149390710Y-133274063D01*
X149573336Y-133349709D01*
X149737694Y-133459530D01*
X149877470Y-133599306D01*
X149987291Y-133763664D01*
X150062937Y-133946290D01*
X150101500Y-134140164D01*
X150101500Y-134337836D01*
X150062937Y-134531710D01*
X149987291Y-134714336D01*
X149877470Y-134878694D01*
X149737694Y-135018470D01*
X149573336Y-135128291D01*
X149390710Y-135203937D01*
X149220988Y-135237696D01*
X149196837Y-135242500D01*
X148999163Y-135242500D01*
X148975012Y-135237696D01*
X148805290Y-135203937D01*
X148622664Y-135128291D01*
X148458306Y-135018470D01*
X148318530Y-134878694D01*
X148208709Y-134714336D01*
X148133063Y-134531710D01*
X148094500Y-134337836D01*
X148094500Y-134140164D01*
X148133063Y-133946290D01*
X148208709Y-133763664D01*
X148318530Y-133599306D01*
X148458306Y-133459530D01*
X148622664Y-133349709D01*
X148805290Y-133274063D01*
X148975012Y-133240304D01*
X148999163Y-133235500D01*
X149196837Y-133235500D01*
X149220988Y-133240304D01*
X149220988Y-133240304D01*
G37*
G36*
X146680988Y-133240304D02*
X146850710Y-133274063D01*
X147033336Y-133349709D01*
X147197694Y-133459530D01*
X147337470Y-133599306D01*
X147447291Y-133763664D01*
X147522937Y-133946290D01*
X147561500Y-134140164D01*
X147561500Y-134337836D01*
X147522937Y-134531710D01*
X147447291Y-134714336D01*
X147337470Y-134878694D01*
X147197694Y-135018470D01*
X147033336Y-135128291D01*
X146850710Y-135203937D01*
X146680988Y-135237696D01*
X146656837Y-135242500D01*
X146459163Y-135242500D01*
X146435012Y-135237696D01*
X146265290Y-135203937D01*
X146082664Y-135128291D01*
X145918306Y-135018470D01*
X145778530Y-134878694D01*
X145668709Y-134714336D01*
X145593063Y-134531710D01*
X145554500Y-134337836D01*
X145554500Y-134140164D01*
X145593063Y-133946290D01*
X145668709Y-133763664D01*
X145778530Y-133599306D01*
X145918306Y-133459530D01*
X146082664Y-133349709D01*
X146265290Y-133274063D01*
X146435012Y-133240304D01*
X146459163Y-133235500D01*
X146656837Y-133235500D01*
X146680988Y-133240304D01*
X146680988Y-133240304D01*
G37*
G36*
X144140988Y-133240304D02*
X144310710Y-133274063D01*
X144493336Y-133349709D01*
X144657694Y-133459530D01*
X144797470Y-133599306D01*
X144907291Y-133763664D01*
X144982937Y-133946290D01*
X145021500Y-134140164D01*
X145021500Y-134337836D01*
X144982937Y-134531710D01*
X144907291Y-134714336D01*
X144797470Y-134878694D01*
X144657694Y-135018470D01*
X144493336Y-135128291D01*
X144310710Y-135203937D01*
X144140988Y-135237696D01*
X144116837Y-135242500D01*
X143919163Y-135242500D01*
X143895012Y-135237696D01*
X143725290Y-135203937D01*
X143542664Y-135128291D01*
X143378306Y-135018470D01*
X143238530Y-134878694D01*
X143128709Y-134714336D01*
X143053063Y-134531710D01*
X143014500Y-134337836D01*
X143014500Y-134140164D01*
X143053063Y-133946290D01*
X143128709Y-133763664D01*
X143238530Y-133599306D01*
X143378306Y-133459530D01*
X143542664Y-133349709D01*
X143725290Y-133274063D01*
X143895012Y-133240304D01*
X143919163Y-133235500D01*
X144116837Y-133235500D01*
X144140988Y-133240304D01*
X144140988Y-133240304D01*
G37*
G36*
X141600988Y-133240304D02*
X141770710Y-133274063D01*
X141953336Y-133349709D01*
X142117694Y-133459530D01*
X142257470Y-133599306D01*
X142367291Y-133763664D01*
X142442937Y-133946290D01*
X142481500Y-134140164D01*
X142481500Y-134337836D01*
X142442937Y-134531710D01*
X142367291Y-134714336D01*
X142257470Y-134878694D01*
X142117694Y-135018470D01*
X141953336Y-135128291D01*
X141770710Y-135203937D01*
X141600988Y-135237696D01*
X141576837Y-135242500D01*
X141379163Y-135242500D01*
X141355012Y-135237696D01*
X141185290Y-135203937D01*
X141002664Y-135128291D01*
X140838306Y-135018470D01*
X140698530Y-134878694D01*
X140588709Y-134714336D01*
X140513063Y-134531710D01*
X140474500Y-134337836D01*
X140474500Y-134140164D01*
X140513063Y-133946290D01*
X140588709Y-133763664D01*
X140698530Y-133599306D01*
X140838306Y-133459530D01*
X141002664Y-133349709D01*
X141185290Y-133274063D01*
X141355012Y-133240304D01*
X141379163Y-133235500D01*
X141576837Y-133235500D01*
X141600988Y-133240304D01*
X141600988Y-133240304D01*
G37*
G36*
X139060988Y-133240304D02*
X139230710Y-133274063D01*
X139413336Y-133349709D01*
X139577694Y-133459530D01*
X139717470Y-133599306D01*
X139827291Y-133763664D01*
X139902937Y-133946290D01*
X139941500Y-134140164D01*
X139941500Y-134337836D01*
X139902937Y-134531710D01*
X139827291Y-134714336D01*
X139717470Y-134878694D01*
X139577694Y-135018470D01*
X139413336Y-135128291D01*
X139230710Y-135203937D01*
X139060988Y-135237696D01*
X139036837Y-135242500D01*
X138839163Y-135242500D01*
X138815012Y-135237696D01*
X138645290Y-135203937D01*
X138462664Y-135128291D01*
X138298306Y-135018470D01*
X138158530Y-134878694D01*
X138048709Y-134714336D01*
X137973063Y-134531710D01*
X137934500Y-134337836D01*
X137934500Y-134140164D01*
X137973063Y-133946290D01*
X138048709Y-133763664D01*
X138158530Y-133599306D01*
X138298306Y-133459530D01*
X138462664Y-133349709D01*
X138645290Y-133274063D01*
X138815012Y-133240304D01*
X138839163Y-133235500D01*
X139036837Y-133235500D01*
X139060988Y-133240304D01*
X139060988Y-133240304D01*
G37*
G36*
X167738527Y-121678736D02*
X167838410Y-121698604D01*
X168120674Y-121815521D01*
X168374705Y-121985259D01*
X168590741Y-122201295D01*
X168760479Y-122455326D01*
X168877396Y-122737590D01*
X168937000Y-123037240D01*
X168937000Y-123342760D01*
X168877396Y-123642410D01*
X168760479Y-123924674D01*
X168590741Y-124178705D01*
X168374705Y-124394741D01*
X168120674Y-124564479D01*
X167838410Y-124681396D01*
X167738527Y-124701264D01*
X167538762Y-124741000D01*
X167233238Y-124741000D01*
X167033473Y-124701264D01*
X166933590Y-124681396D01*
X166651326Y-124564479D01*
X166397295Y-124394741D01*
X166181259Y-124178705D01*
X166011521Y-123924674D01*
X165894604Y-123642410D01*
X165835000Y-123342760D01*
X165835000Y-123037240D01*
X165894604Y-122737590D01*
X166011521Y-122455326D01*
X166181259Y-122201295D01*
X166397295Y-121985259D01*
X166651326Y-121815521D01*
X166933590Y-121698604D01*
X167033473Y-121678736D01*
X167233238Y-121639000D01*
X167538762Y-121639000D01*
X167738527Y-121678736D01*
X167738527Y-121678736D01*
G37*
G36*
X122018527Y-121678736D02*
X122118410Y-121698604D01*
X122400674Y-121815521D01*
X122654705Y-121985259D01*
X122870741Y-122201295D01*
X123040479Y-122455326D01*
X123157396Y-122737590D01*
X123217000Y-123037240D01*
X123217000Y-123342760D01*
X123157396Y-123642410D01*
X123040479Y-123924674D01*
X122870741Y-124178705D01*
X122654705Y-124394741D01*
X122400674Y-124564479D01*
X122118410Y-124681396D01*
X122018527Y-124701264D01*
X121818762Y-124741000D01*
X121513238Y-124741000D01*
X121313473Y-124701264D01*
X121213590Y-124681396D01*
X120931326Y-124564479D01*
X120677295Y-124394741D01*
X120461259Y-124178705D01*
X120291521Y-123924674D01*
X120174604Y-123642410D01*
X120115000Y-123342760D01*
X120115000Y-123037240D01*
X120174604Y-122737590D01*
X120291521Y-122455326D01*
X120461259Y-122201295D01*
X120677295Y-121985259D01*
X120931326Y-121815521D01*
X121213590Y-121698604D01*
X121313473Y-121678736D01*
X121513238Y-121639000D01*
X121818762Y-121639000D01*
X122018527Y-121678736D01*
X122018527Y-121678736D01*
G37*
G36*
X163444988Y-114825304D02*
X163614710Y-114859063D01*
X163797336Y-114934709D01*
X163961694Y-115044530D01*
X164101470Y-115184306D01*
X164211291Y-115348664D01*
X164286937Y-115531290D01*
X164325500Y-115725164D01*
X164325500Y-115922836D01*
X164286937Y-116116710D01*
X164211291Y-116299336D01*
X164101470Y-116463694D01*
X163961694Y-116603470D01*
X163797336Y-116713291D01*
X163614710Y-116788937D01*
X163444988Y-116822696D01*
X163420837Y-116827500D01*
X163223163Y-116827500D01*
X163199012Y-116822696D01*
X163029290Y-116788937D01*
X162846664Y-116713291D01*
X162682306Y-116603470D01*
X162542530Y-116463694D01*
X162432709Y-116299336D01*
X162357063Y-116116710D01*
X162318500Y-115922836D01*
X162318500Y-115725164D01*
X162357063Y-115531290D01*
X162432709Y-115348664D01*
X162542530Y-115184306D01*
X162682306Y-115044530D01*
X162846664Y-114934709D01*
X163029290Y-114859063D01*
X163199012Y-114825304D01*
X163223163Y-114820500D01*
X163420837Y-114820500D01*
X163444988Y-114825304D01*
X163444988Y-114825304D01*
G37*
G36*
X158364988Y-114825304D02*
X158534710Y-114859063D01*
X158717336Y-114934709D01*
X158881694Y-115044530D01*
X159021470Y-115184306D01*
X159131291Y-115348664D01*
X159206937Y-115531290D01*
X159245500Y-115725164D01*
X159245500Y-115922836D01*
X159206937Y-116116710D01*
X159131291Y-116299336D01*
X159021470Y-116463694D01*
X158881694Y-116603470D01*
X158717336Y-116713291D01*
X158534710Y-116788937D01*
X158364988Y-116822696D01*
X158340837Y-116827500D01*
X158143163Y-116827500D01*
X158119012Y-116822696D01*
X157949290Y-116788937D01*
X157766664Y-116713291D01*
X157602306Y-116603470D01*
X157462530Y-116463694D01*
X157352709Y-116299336D01*
X157277063Y-116116710D01*
X157238500Y-115922836D01*
X157238500Y-115725164D01*
X157277063Y-115531290D01*
X157352709Y-115348664D01*
X157462530Y-115184306D01*
X157602306Y-115044530D01*
X157766664Y-114934709D01*
X157949290Y-114859063D01*
X158119012Y-114825304D01*
X158143163Y-114820500D01*
X158340837Y-114820500D01*
X158364988Y-114825304D01*
X158364988Y-114825304D01*
G37*
G36*
X168524988Y-114825304D02*
X168694710Y-114859063D01*
X168877336Y-114934709D01*
X169041694Y-115044530D01*
X169181470Y-115184306D01*
X169291291Y-115348664D01*
X169366937Y-115531290D01*
X169405500Y-115725164D01*
X169405500Y-115922836D01*
X169366937Y-116116710D01*
X169291291Y-116299336D01*
X169181470Y-116463694D01*
X169041694Y-116603470D01*
X168877336Y-116713291D01*
X168694710Y-116788937D01*
X168524988Y-116822696D01*
X168500837Y-116827500D01*
X168303163Y-116827500D01*
X168279012Y-116822696D01*
X168109290Y-116788937D01*
X167926664Y-116713291D01*
X167762306Y-116603470D01*
X167622530Y-116463694D01*
X167512709Y-116299336D01*
X167437063Y-116116710D01*
X167398500Y-115922836D01*
X167398500Y-115725164D01*
X167437063Y-115531290D01*
X167512709Y-115348664D01*
X167622530Y-115184306D01*
X167762306Y-115044530D01*
X167926664Y-114934709D01*
X168109290Y-114859063D01*
X168279012Y-114825304D01*
X168303163Y-114820500D01*
X168500837Y-114820500D01*
X168524988Y-114825304D01*
X168524988Y-114825304D01*
G37*
G36*
X165984988Y-114825304D02*
X166154710Y-114859063D01*
X166337336Y-114934709D01*
X166501694Y-115044530D01*
X166641470Y-115184306D01*
X166751291Y-115348664D01*
X166826937Y-115531290D01*
X166865500Y-115725164D01*
X166865500Y-115922836D01*
X166826937Y-116116710D01*
X166751291Y-116299336D01*
X166641470Y-116463694D01*
X166501694Y-116603470D01*
X166337336Y-116713291D01*
X166154710Y-116788937D01*
X165984988Y-116822696D01*
X165960837Y-116827500D01*
X165763163Y-116827500D01*
X165739012Y-116822696D01*
X165569290Y-116788937D01*
X165386664Y-116713291D01*
X165222306Y-116603470D01*
X165082530Y-116463694D01*
X164972709Y-116299336D01*
X164897063Y-116116710D01*
X164858500Y-115922836D01*
X164858500Y-115725164D01*
X164897063Y-115531290D01*
X164972709Y-115348664D01*
X165082530Y-115184306D01*
X165222306Y-115044530D01*
X165386664Y-114934709D01*
X165569290Y-114859063D01*
X165739012Y-114825304D01*
X165763163Y-114820500D01*
X165960837Y-114820500D01*
X165984988Y-114825304D01*
X165984988Y-114825304D01*
G37*
G36*
X160904988Y-114825304D02*
X161074710Y-114859063D01*
X161257336Y-114934709D01*
X161421694Y-115044530D01*
X161561470Y-115184306D01*
X161671291Y-115348664D01*
X161746937Y-115531290D01*
X161785500Y-115725164D01*
X161785500Y-115922836D01*
X161746937Y-116116710D01*
X161671291Y-116299336D01*
X161561470Y-116463694D01*
X161421694Y-116603470D01*
X161257336Y-116713291D01*
X161074710Y-116788937D01*
X160904988Y-116822696D01*
X160880837Y-116827500D01*
X160683163Y-116827500D01*
X160659012Y-116822696D01*
X160489290Y-116788937D01*
X160306664Y-116713291D01*
X160142306Y-116603470D01*
X160002530Y-116463694D01*
X159892709Y-116299336D01*
X159817063Y-116116710D01*
X159778500Y-115922836D01*
X159778500Y-115725164D01*
X159817063Y-115531290D01*
X159892709Y-115348664D01*
X160002530Y-115184306D01*
X160142306Y-115044530D01*
X160306664Y-114934709D01*
X160489290Y-114859063D01*
X160659012Y-114825304D01*
X160683163Y-114820500D01*
X160880837Y-114820500D01*
X160904988Y-114825304D01*
X160904988Y-114825304D01*
G37*
G36*
X160904988Y-112285304D02*
X161074710Y-112319063D01*
X161257336Y-112394709D01*
X161421694Y-112504530D01*
X161561470Y-112644306D01*
X161671291Y-112808664D01*
X161746937Y-112991290D01*
X161785500Y-113185164D01*
X161785500Y-113382836D01*
X161746937Y-113576710D01*
X161671291Y-113759336D01*
X161561470Y-113923694D01*
X161421694Y-114063470D01*
X161257336Y-114173291D01*
X161074710Y-114248937D01*
X160904988Y-114282696D01*
X160880837Y-114287500D01*
X160683163Y-114287500D01*
X160659012Y-114282696D01*
X160489290Y-114248937D01*
X160306664Y-114173291D01*
X160142306Y-114063470D01*
X160002530Y-113923694D01*
X159892709Y-113759336D01*
X159817063Y-113576710D01*
X159778500Y-113382836D01*
X159778500Y-113185164D01*
X159817063Y-112991290D01*
X159892709Y-112808664D01*
X160002530Y-112644306D01*
X160142306Y-112504530D01*
X160306664Y-112394709D01*
X160489290Y-112319063D01*
X160659012Y-112285304D01*
X160683163Y-112280500D01*
X160880837Y-112280500D01*
X160904988Y-112285304D01*
X160904988Y-112285304D01*
G37*
G36*
X163444988Y-112285304D02*
X163614710Y-112319063D01*
X163797336Y-112394709D01*
X163961694Y-112504530D01*
X164101470Y-112644306D01*
X164211291Y-112808664D01*
X164286937Y-112991290D01*
X164325500Y-113185164D01*
X164325500Y-113382836D01*
X164286937Y-113576710D01*
X164211291Y-113759336D01*
X164101470Y-113923694D01*
X163961694Y-114063470D01*
X163797336Y-114173291D01*
X163614710Y-114248937D01*
X163444988Y-114282696D01*
X163420837Y-114287500D01*
X163223163Y-114287500D01*
X163199012Y-114282696D01*
X163029290Y-114248937D01*
X162846664Y-114173291D01*
X162682306Y-114063470D01*
X162542530Y-113923694D01*
X162432709Y-113759336D01*
X162357063Y-113576710D01*
X162318500Y-113382836D01*
X162318500Y-113185164D01*
X162357063Y-112991290D01*
X162432709Y-112808664D01*
X162542530Y-112644306D01*
X162682306Y-112504530D01*
X162846664Y-112394709D01*
X163029290Y-112319063D01*
X163199012Y-112285304D01*
X163223163Y-112280500D01*
X163420837Y-112280500D01*
X163444988Y-112285304D01*
X163444988Y-112285304D01*
G37*
G36*
X158364988Y-112285304D02*
X158534710Y-112319063D01*
X158717336Y-112394709D01*
X158881694Y-112504530D01*
X159021470Y-112644306D01*
X159131291Y-112808664D01*
X159206937Y-112991290D01*
X159245500Y-113185164D01*
X159245500Y-113382836D01*
X159206937Y-113576710D01*
X159131291Y-113759336D01*
X159021470Y-113923694D01*
X158881694Y-114063470D01*
X158717336Y-114173291D01*
X158534710Y-114248937D01*
X158364988Y-114282696D01*
X158340837Y-114287500D01*
X158143163Y-114287500D01*
X158119012Y-114282696D01*
X157949290Y-114248937D01*
X157766664Y-114173291D01*
X157602306Y-114063470D01*
X157462530Y-113923694D01*
X157352709Y-113759336D01*
X157277063Y-113576710D01*
X157238500Y-113382836D01*
X157238500Y-113185164D01*
X157277063Y-112991290D01*
X157352709Y-112808664D01*
X157462530Y-112644306D01*
X157602306Y-112504530D01*
X157766664Y-112394709D01*
X157949290Y-112319063D01*
X158119012Y-112285304D01*
X158143163Y-112280500D01*
X158340837Y-112280500D01*
X158364988Y-112285304D01*
X158364988Y-112285304D01*
G37*
G36*
X169405500Y-114287500D02*
X167398500Y-114287500D01*
X167398500Y-112280500D01*
X169405500Y-112280500D01*
X169405500Y-114287500D01*
X169405500Y-114287500D01*
G37*
G36*
X165984988Y-112285304D02*
X166154710Y-112319063D01*
X166337336Y-112394709D01*
X166501694Y-112504530D01*
X166641470Y-112644306D01*
X166751291Y-112808664D01*
X166826937Y-112991290D01*
X166865500Y-113185164D01*
X166865500Y-113382836D01*
X166826937Y-113576710D01*
X166751291Y-113759336D01*
X166641470Y-113923694D01*
X166501694Y-114063470D01*
X166337336Y-114173291D01*
X166154710Y-114248937D01*
X165984988Y-114282696D01*
X165960837Y-114287500D01*
X165763163Y-114287500D01*
X165739012Y-114282696D01*
X165569290Y-114248937D01*
X165386664Y-114173291D01*
X165222306Y-114063470D01*
X165082530Y-113923694D01*
X164972709Y-113759336D01*
X164897063Y-113576710D01*
X164858500Y-113382836D01*
X164858500Y-113185164D01*
X164897063Y-112991290D01*
X164972709Y-112808664D01*
X165082530Y-112644306D01*
X165222306Y-112504530D01*
X165386664Y-112394709D01*
X165569290Y-112319063D01*
X165739012Y-112285304D01*
X165763163Y-112280500D01*
X165960837Y-112280500D01*
X165984988Y-112285304D01*
X165984988Y-112285304D01*
G37*
G36*
X128900988Y-107840304D02*
X129070710Y-107874063D01*
X129253336Y-107949709D01*
X129417694Y-108059530D01*
X129557470Y-108199306D01*
X129667291Y-108363664D01*
X129742937Y-108546290D01*
X129781500Y-108740164D01*
X129781500Y-108937836D01*
X129742937Y-109131710D01*
X129667291Y-109314336D01*
X129557470Y-109478694D01*
X129417694Y-109618470D01*
X129253336Y-109728291D01*
X129070710Y-109803937D01*
X128900988Y-109837696D01*
X128876837Y-109842500D01*
X128679163Y-109842500D01*
X128655012Y-109837696D01*
X128485290Y-109803937D01*
X128302664Y-109728291D01*
X128138306Y-109618470D01*
X127998530Y-109478694D01*
X127888709Y-109314336D01*
X127813063Y-109131710D01*
X127774500Y-108937836D01*
X127774500Y-108740164D01*
X127813063Y-108546290D01*
X127888709Y-108363664D01*
X127998530Y-108199306D01*
X128138306Y-108059530D01*
X128302664Y-107949709D01*
X128485290Y-107874063D01*
X128655012Y-107840304D01*
X128679163Y-107835500D01*
X128876837Y-107835500D01*
X128900988Y-107840304D01*
X128900988Y-107840304D01*
G37*
G36*
X139060988Y-107840304D02*
X139230710Y-107874063D01*
X139413336Y-107949709D01*
X139577694Y-108059530D01*
X139717470Y-108199306D01*
X139827291Y-108363664D01*
X139902937Y-108546290D01*
X139941500Y-108740164D01*
X139941500Y-108937836D01*
X139902937Y-109131710D01*
X139827291Y-109314336D01*
X139717470Y-109478694D01*
X139577694Y-109618470D01*
X139413336Y-109728291D01*
X139230710Y-109803937D01*
X139060988Y-109837696D01*
X139036837Y-109842500D01*
X138839163Y-109842500D01*
X138815012Y-109837696D01*
X138645290Y-109803937D01*
X138462664Y-109728291D01*
X138298306Y-109618470D01*
X138158530Y-109478694D01*
X138048709Y-109314336D01*
X137973063Y-109131710D01*
X137934500Y-108937836D01*
X137934500Y-108740164D01*
X137973063Y-108546290D01*
X138048709Y-108363664D01*
X138158530Y-108199306D01*
X138298306Y-108059530D01*
X138462664Y-107949709D01*
X138645290Y-107874063D01*
X138815012Y-107840304D01*
X138839163Y-107835500D01*
X139036837Y-107835500D01*
X139060988Y-107840304D01*
X139060988Y-107840304D01*
G37*
G36*
X133980988Y-107840304D02*
X134150710Y-107874063D01*
X134333336Y-107949709D01*
X134497694Y-108059530D01*
X134637470Y-108199306D01*
X134747291Y-108363664D01*
X134822937Y-108546290D01*
X134861500Y-108740164D01*
X134861500Y-108937836D01*
X134822937Y-109131710D01*
X134747291Y-109314336D01*
X134637470Y-109478694D01*
X134497694Y-109618470D01*
X134333336Y-109728291D01*
X134150710Y-109803937D01*
X133980988Y-109837696D01*
X133956837Y-109842500D01*
X133759163Y-109842500D01*
X133735012Y-109837696D01*
X133565290Y-109803937D01*
X133382664Y-109728291D01*
X133218306Y-109618470D01*
X133078530Y-109478694D01*
X132968709Y-109314336D01*
X132893063Y-109131710D01*
X132854500Y-108937836D01*
X132854500Y-108740164D01*
X132893063Y-108546290D01*
X132968709Y-108363664D01*
X133078530Y-108199306D01*
X133218306Y-108059530D01*
X133382664Y-107949709D01*
X133565290Y-107874063D01*
X133735012Y-107840304D01*
X133759163Y-107835500D01*
X133956837Y-107835500D01*
X133980988Y-107840304D01*
X133980988Y-107840304D01*
G37*
G36*
X136520988Y-107840304D02*
X136690710Y-107874063D01*
X136873336Y-107949709D01*
X137037694Y-108059530D01*
X137177470Y-108199306D01*
X137287291Y-108363664D01*
X137362937Y-108546290D01*
X137401500Y-108740164D01*
X137401500Y-108937836D01*
X137362937Y-109131710D01*
X137287291Y-109314336D01*
X137177470Y-109478694D01*
X137037694Y-109618470D01*
X136873336Y-109728291D01*
X136690710Y-109803937D01*
X136520988Y-109837696D01*
X136496837Y-109842500D01*
X136299163Y-109842500D01*
X136275012Y-109837696D01*
X136105290Y-109803937D01*
X135922664Y-109728291D01*
X135758306Y-109618470D01*
X135618530Y-109478694D01*
X135508709Y-109314336D01*
X135433063Y-109131710D01*
X135394500Y-108937836D01*
X135394500Y-108740164D01*
X135433063Y-108546290D01*
X135508709Y-108363664D01*
X135618530Y-108199306D01*
X135758306Y-108059530D01*
X135922664Y-107949709D01*
X136105290Y-107874063D01*
X136275012Y-107840304D01*
X136299163Y-107835500D01*
X136496837Y-107835500D01*
X136520988Y-107840304D01*
X136520988Y-107840304D01*
G37*
G36*
X141600988Y-107840304D02*
X141770710Y-107874063D01*
X141953336Y-107949709D01*
X142117694Y-108059530D01*
X142257470Y-108199306D01*
X142367291Y-108363664D01*
X142442937Y-108546290D01*
X142481500Y-108740164D01*
X142481500Y-108937836D01*
X142442937Y-109131710D01*
X142367291Y-109314336D01*
X142257470Y-109478694D01*
X142117694Y-109618470D01*
X141953336Y-109728291D01*
X141770710Y-109803937D01*
X141600988Y-109837696D01*
X141576837Y-109842500D01*
X141379163Y-109842500D01*
X141355012Y-109837696D01*
X141185290Y-109803937D01*
X141002664Y-109728291D01*
X140838306Y-109618470D01*
X140698530Y-109478694D01*
X140588709Y-109314336D01*
X140513063Y-109131710D01*
X140474500Y-108937836D01*
X140474500Y-108740164D01*
X140513063Y-108546290D01*
X140588709Y-108363664D01*
X140698530Y-108199306D01*
X140838306Y-108059530D01*
X141002664Y-107949709D01*
X141185290Y-107874063D01*
X141355012Y-107840304D01*
X141379163Y-107835500D01*
X141576837Y-107835500D01*
X141600988Y-107840304D01*
X141600988Y-107840304D01*
G37*
G36*
X131440988Y-107840304D02*
X131610710Y-107874063D01*
X131793336Y-107949709D01*
X131957694Y-108059530D01*
X132097470Y-108199306D01*
X132207291Y-108363664D01*
X132282937Y-108546290D01*
X132321500Y-108740164D01*
X132321500Y-108937836D01*
X132282937Y-109131710D01*
X132207291Y-109314336D01*
X132097470Y-109478694D01*
X131957694Y-109618470D01*
X131793336Y-109728291D01*
X131610710Y-109803937D01*
X131440988Y-109837696D01*
X131416837Y-109842500D01*
X131219163Y-109842500D01*
X131195012Y-109837696D01*
X131025290Y-109803937D01*
X130842664Y-109728291D01*
X130678306Y-109618470D01*
X130538530Y-109478694D01*
X130428709Y-109314336D01*
X130353063Y-109131710D01*
X130314500Y-108937836D01*
X130314500Y-108740164D01*
X130353063Y-108546290D01*
X130428709Y-108363664D01*
X130538530Y-108199306D01*
X130678306Y-108059530D01*
X130842664Y-107949709D01*
X131025290Y-107874063D01*
X131195012Y-107840304D01*
X131219163Y-107835500D01*
X131416837Y-107835500D01*
X131440988Y-107840304D01*
X131440988Y-107840304D01*
G37*
G36*
X149220988Y-107840304D02*
X149390710Y-107874063D01*
X149573336Y-107949709D01*
X149737694Y-108059530D01*
X149877470Y-108199306D01*
X149987291Y-108363664D01*
X150062937Y-108546290D01*
X150101500Y-108740164D01*
X150101500Y-108937836D01*
X150062937Y-109131710D01*
X149987291Y-109314336D01*
X149877470Y-109478694D01*
X149737694Y-109618470D01*
X149573336Y-109728291D01*
X149390710Y-109803937D01*
X149220988Y-109837696D01*
X149196837Y-109842500D01*
X148999163Y-109842500D01*
X148975012Y-109837696D01*
X148805290Y-109803937D01*
X148622664Y-109728291D01*
X148458306Y-109618470D01*
X148318530Y-109478694D01*
X148208709Y-109314336D01*
X148133063Y-109131710D01*
X148094500Y-108937836D01*
X148094500Y-108740164D01*
X148133063Y-108546290D01*
X148208709Y-108363664D01*
X148318530Y-108199306D01*
X148458306Y-108059530D01*
X148622664Y-107949709D01*
X148805290Y-107874063D01*
X148975012Y-107840304D01*
X148999163Y-107835500D01*
X149196837Y-107835500D01*
X149220988Y-107840304D01*
X149220988Y-107840304D01*
G37*
G36*
X146680988Y-107840304D02*
X146850710Y-107874063D01*
X147033336Y-107949709D01*
X147197694Y-108059530D01*
X147337470Y-108199306D01*
X147447291Y-108363664D01*
X147522937Y-108546290D01*
X147561500Y-108740164D01*
X147561500Y-108937836D01*
X147522937Y-109131710D01*
X147447291Y-109314336D01*
X147337470Y-109478694D01*
X147197694Y-109618470D01*
X147033336Y-109728291D01*
X146850710Y-109803937D01*
X146680988Y-109837696D01*
X146656837Y-109842500D01*
X146459163Y-109842500D01*
X146435012Y-109837696D01*
X146265290Y-109803937D01*
X146082664Y-109728291D01*
X145918306Y-109618470D01*
X145778530Y-109478694D01*
X145668709Y-109314336D01*
X145593063Y-109131710D01*
X145554500Y-108937836D01*
X145554500Y-108740164D01*
X145593063Y-108546290D01*
X145668709Y-108363664D01*
X145778530Y-108199306D01*
X145918306Y-108059530D01*
X146082664Y-107949709D01*
X146265290Y-107874063D01*
X146435012Y-107840304D01*
X146459163Y-107835500D01*
X146656837Y-107835500D01*
X146680988Y-107840304D01*
X146680988Y-107840304D01*
G37*
G36*
X144140988Y-107840304D02*
X144310710Y-107874063D01*
X144493336Y-107949709D01*
X144657694Y-108059530D01*
X144797470Y-108199306D01*
X144907291Y-108363664D01*
X144982937Y-108546290D01*
X145021500Y-108740164D01*
X145021500Y-108937836D01*
X144982937Y-109131710D01*
X144907291Y-109314336D01*
X144797470Y-109478694D01*
X144657694Y-109618470D01*
X144493336Y-109728291D01*
X144310710Y-109803937D01*
X144140988Y-109837696D01*
X144116837Y-109842500D01*
X143919163Y-109842500D01*
X143895012Y-109837696D01*
X143725290Y-109803937D01*
X143542664Y-109728291D01*
X143378306Y-109618470D01*
X143238530Y-109478694D01*
X143128709Y-109314336D01*
X143053063Y-109131710D01*
X143014500Y-108937836D01*
X143014500Y-108740164D01*
X143053063Y-108546290D01*
X143128709Y-108363664D01*
X143238530Y-108199306D01*
X143378306Y-108059530D01*
X143542664Y-107949709D01*
X143725290Y-107874063D01*
X143895012Y-107840304D01*
X143919163Y-107835500D01*
X144116837Y-107835500D01*
X144140988Y-107840304D01*
X144140988Y-107840304D01*
G37*
G36*
X157311995Y-101584525D02*
X157603358Y-101705212D01*
X157865578Y-101880422D01*
X158088578Y-102103422D01*
X158263788Y-102365642D01*
X158384475Y-102657005D01*
X158446000Y-102966315D01*
X158446000Y-103281685D01*
X158384475Y-103590995D01*
X158263788Y-103882358D01*
X158088578Y-104144578D01*
X157865578Y-104367578D01*
X157603358Y-104542788D01*
X157311995Y-104663475D01*
X157002685Y-104725000D01*
X156687315Y-104725000D01*
X156378005Y-104663475D01*
X156086642Y-104542788D01*
X155824422Y-104367578D01*
X155601422Y-104144578D01*
X155426212Y-103882358D01*
X155305525Y-103590995D01*
X155244000Y-103281685D01*
X155244000Y-102966315D01*
X155305525Y-102657005D01*
X155426212Y-102365642D01*
X155601422Y-102103422D01*
X155824422Y-101880422D01*
X156086642Y-101705212D01*
X156378005Y-101584525D01*
X156687315Y-101523000D01*
X157002685Y-101523000D01*
X157311995Y-101584525D01*
X157311995Y-101584525D01*
G37*
G36*
X131911995Y-101584525D02*
X132203358Y-101705212D01*
X132465578Y-101880422D01*
X132688578Y-102103422D01*
X132863788Y-102365642D01*
X132984475Y-102657005D01*
X133046000Y-102966315D01*
X133046000Y-103281685D01*
X132984475Y-103590995D01*
X132863788Y-103882358D01*
X132688578Y-104144578D01*
X132465578Y-104367578D01*
X132203358Y-104542788D01*
X131911995Y-104663475D01*
X131602685Y-104725000D01*
X131287315Y-104725000D01*
X130978005Y-104663475D01*
X130686642Y-104542788D01*
X130424422Y-104367578D01*
X130201422Y-104144578D01*
X130026212Y-103882358D01*
X129905525Y-103590995D01*
X129844000Y-103281685D01*
X129844000Y-102966315D01*
X129905525Y-102657005D01*
X130026212Y-102365642D01*
X130201422Y-102103422D01*
X130424422Y-101880422D01*
X130686642Y-101705212D01*
X130978005Y-101584525D01*
X131287315Y-101523000D01*
X131602685Y-101523000D01*
X131911995Y-101584525D01*
X131911995Y-101584525D01*
G37*
G36*
X139345312Y-102199930D02*
X139520205Y-102272373D01*
X139677605Y-102377544D01*
X139811456Y-102511395D01*
X139916627Y-102668795D01*
X139989070Y-102843688D01*
X140026000Y-103029348D01*
X140026000Y-103218652D01*
X139989070Y-103404312D01*
X139916627Y-103579205D01*
X139811456Y-103736605D01*
X139677605Y-103870456D01*
X139520205Y-103975627D01*
X139345312Y-104048070D01*
X139159652Y-104085000D01*
X138970348Y-104085000D01*
X138784688Y-104048070D01*
X138609795Y-103975627D01*
X138452395Y-103870456D01*
X138318544Y-103736605D01*
X138213373Y-103579205D01*
X138140930Y-103404312D01*
X138104000Y-103218652D01*
X138104000Y-103029348D01*
X138140930Y-102843688D01*
X138213373Y-102668795D01*
X138318544Y-102511395D01*
X138452395Y-102377544D01*
X138609795Y-102272373D01*
X138784688Y-102199930D01*
X138970348Y-102163000D01*
X139159652Y-102163000D01*
X139345312Y-102199930D01*
X139345312Y-102199930D01*
G37*
G36*
X136805312Y-102199930D02*
X136980205Y-102272373D01*
X137137605Y-102377544D01*
X137271456Y-102511395D01*
X137376627Y-102668795D01*
X137449070Y-102843688D01*
X137486000Y-103029348D01*
X137486000Y-103218652D01*
X137449070Y-103404312D01*
X137376627Y-103579205D01*
X137271456Y-103736605D01*
X137137605Y-103870456D01*
X136980205Y-103975627D01*
X136805312Y-104048070D01*
X136619652Y-104085000D01*
X136430348Y-104085000D01*
X136244688Y-104048070D01*
X136069795Y-103975627D01*
X135912395Y-103870456D01*
X135778544Y-103736605D01*
X135673373Y-103579205D01*
X135600930Y-103404312D01*
X135564000Y-103218652D01*
X135564000Y-103029348D01*
X135600930Y-102843688D01*
X135673373Y-102668795D01*
X135778544Y-102511395D01*
X135912395Y-102377544D01*
X136069795Y-102272373D01*
X136244688Y-102199930D01*
X136430348Y-102163000D01*
X136619652Y-102163000D01*
X136805312Y-102199930D01*
X136805312Y-102199930D01*
G37*
G36*
X167738527Y-76593736D02*
X167838410Y-76613604D01*
X168120674Y-76730521D01*
X168374705Y-76900259D01*
X168590741Y-77116295D01*
X168760479Y-77370326D01*
X168877396Y-77652590D01*
X168937000Y-77952240D01*
X168937000Y-78257760D01*
X168877396Y-78557410D01*
X168760479Y-78839674D01*
X168590741Y-79093705D01*
X168374705Y-79309741D01*
X168120674Y-79479479D01*
X167838410Y-79596396D01*
X167738527Y-79616264D01*
X167538762Y-79656000D01*
X167233238Y-79656000D01*
X167033473Y-79616264D01*
X166933590Y-79596396D01*
X166651326Y-79479479D01*
X166397295Y-79309741D01*
X166181259Y-79093705D01*
X166011521Y-78839674D01*
X165894604Y-78557410D01*
X165835000Y-78257760D01*
X165835000Y-77952240D01*
X165894604Y-77652590D01*
X166011521Y-77370326D01*
X166181259Y-77116295D01*
X166397295Y-76900259D01*
X166651326Y-76730521D01*
X166933590Y-76613604D01*
X167033473Y-76593736D01*
X167233238Y-76554000D01*
X167538762Y-76554000D01*
X167738527Y-76593736D01*
X167738527Y-76593736D01*
G37*
G36*
X122018527Y-76593736D02*
X122118410Y-76613604D01*
X122400674Y-76730521D01*
X122654705Y-76900259D01*
X122870741Y-77116295D01*
X123040479Y-77370326D01*
X123157396Y-77652590D01*
X123217000Y-77952240D01*
X123217000Y-78257760D01*
X123157396Y-78557410D01*
X123040479Y-78839674D01*
X122870741Y-79093705D01*
X122654705Y-79309741D01*
X122400674Y-79479479D01*
X122118410Y-79596396D01*
X122018527Y-79616264D01*
X121818762Y-79656000D01*
X121513238Y-79656000D01*
X121313473Y-79616264D01*
X121213590Y-79596396D01*
X120931326Y-79479479D01*
X120677295Y-79309741D01*
X120461259Y-79093705D01*
X120291521Y-78839674D01*
X120174604Y-78557410D01*
X120115000Y-78257760D01*
X120115000Y-77952240D01*
X120174604Y-77652590D01*
X120291521Y-77370326D01*
X120461259Y-77116295D01*
X120677295Y-76900259D01*
X120931326Y-76730521D01*
X121213590Y-76613604D01*
X121313473Y-76593736D01*
X121513238Y-76554000D01*
X121818762Y-76554000D01*
X122018527Y-76593736D01*
X122018527Y-76593736D01*
G37*
G36*
X157311995Y-66024525D02*
X157603358Y-66145212D01*
X157865578Y-66320422D01*
X158088578Y-66543422D01*
X158263788Y-66805642D01*
X158384475Y-67097005D01*
X158446000Y-67406315D01*
X158446000Y-67721685D01*
X158384475Y-68030995D01*
X158263788Y-68322358D01*
X158088578Y-68584578D01*
X157865578Y-68807578D01*
X157603358Y-68982788D01*
X157311995Y-69103475D01*
X157002685Y-69165000D01*
X156687315Y-69165000D01*
X156378005Y-69103475D01*
X156086642Y-68982788D01*
X155824422Y-68807578D01*
X155601422Y-68584578D01*
X155426212Y-68322358D01*
X155305525Y-68030995D01*
X155244000Y-67721685D01*
X155244000Y-67406315D01*
X155305525Y-67097005D01*
X155426212Y-66805642D01*
X155601422Y-66543422D01*
X155824422Y-66320422D01*
X156086642Y-66145212D01*
X156378005Y-66024525D01*
X156687315Y-65963000D01*
X157002685Y-65963000D01*
X157311995Y-66024525D01*
X157311995Y-66024525D01*
G37*
G36*
X131911995Y-66024525D02*
X132203358Y-66145212D01*
X132465578Y-66320422D01*
X132688578Y-66543422D01*
X132863788Y-66805642D01*
X132984475Y-67097005D01*
X133046000Y-67406315D01*
X133046000Y-67721685D01*
X132984475Y-68030995D01*
X132863788Y-68322358D01*
X132688578Y-68584578D01*
X132465578Y-68807578D01*
X132203358Y-68982788D01*
X131911995Y-69103475D01*
X131602685Y-69165000D01*
X131287315Y-69165000D01*
X130978005Y-69103475D01*
X130686642Y-68982788D01*
X130424422Y-68807578D01*
X130201422Y-68584578D01*
X130026212Y-68322358D01*
X129905525Y-68030995D01*
X129844000Y-67721685D01*
X129844000Y-67406315D01*
X129905525Y-67097005D01*
X130026212Y-66805642D01*
X130201422Y-66543422D01*
X130424422Y-66320422D01*
X130686642Y-66145212D01*
X130978005Y-66024525D01*
X131287315Y-65963000D01*
X131602685Y-65963000D01*
X131911995Y-66024525D01*
X131911995Y-66024525D01*
G37*
G36*
X139345312Y-66639930D02*
X139520205Y-66712373D01*
X139677605Y-66817544D01*
X139811456Y-66951395D01*
X139916627Y-67108795D01*
X139989070Y-67283688D01*
X140026000Y-67469348D01*
X140026000Y-67658652D01*
X139989070Y-67844312D01*
X139916627Y-68019205D01*
X139811456Y-68176605D01*
X139677605Y-68310456D01*
X139520205Y-68415627D01*
X139345312Y-68488070D01*
X139159652Y-68525000D01*
X138970348Y-68525000D01*
X138784688Y-68488070D01*
X138609795Y-68415627D01*
X138452395Y-68310456D01*
X138318544Y-68176605D01*
X138213373Y-68019205D01*
X138140930Y-67844312D01*
X138104000Y-67658652D01*
X138104000Y-67469348D01*
X138140930Y-67283688D01*
X138213373Y-67108795D01*
X138318544Y-66951395D01*
X138452395Y-66817544D01*
X138609795Y-66712373D01*
X138784688Y-66639930D01*
X138970348Y-66603000D01*
X139159652Y-66603000D01*
X139345312Y-66639930D01*
X139345312Y-66639930D01*
G37*
G36*
X136805312Y-66639930D02*
X136980205Y-66712373D01*
X137137605Y-66817544D01*
X137271456Y-66951395D01*
X137376627Y-67108795D01*
X137449070Y-67283688D01*
X137486000Y-67469348D01*
X137486000Y-67658652D01*
X137449070Y-67844312D01*
X137376627Y-68019205D01*
X137271456Y-68176605D01*
X137137605Y-68310456D01*
X136980205Y-68415627D01*
X136805312Y-68488070D01*
X136619652Y-68525000D01*
X136430348Y-68525000D01*
X136244688Y-68488070D01*
X136069795Y-68415627D01*
X135912395Y-68310456D01*
X135778544Y-68176605D01*
X135673373Y-68019205D01*
X135600930Y-67844312D01*
X135564000Y-67658652D01*
X135564000Y-67469348D01*
X135600930Y-67283688D01*
X135673373Y-67108795D01*
X135778544Y-66951395D01*
X135912395Y-66817544D01*
X136069795Y-66712373D01*
X136244688Y-66639930D01*
X136430348Y-66603000D01*
X136619652Y-66603000D01*
X136805312Y-66639930D01*
X136805312Y-66639930D01*
G37*
M02*
