M48
;DRILL file {KiCad (5.0.1-3-g963ef8bb5)} date Friday, February 08, 2019 at 10:03:30 AM
;FORMAT={-:-/ absolute / inch / decimal}
FMAT,2
INCH,TZ
T1C0.0300
T2C0.0315
T3C0.0394
T4C0.0400
T5C0.0450
%
G90
G05
M72
T1
X4.7213Y-4.9
X4.8Y-4.9
X4.8787Y-4.9
T2
X4.55Y-3.0016
X4.55Y-3.1
X4.65Y-4.5
X4.95Y-4.5
X4.3Y-3.
X4.3Y-3.0984
X4.65Y-4.65
X4.95Y-4.65
T3
X6.0827Y-4.55
X6.0827Y-4.65
X4.465Y-4.75
X4.465Y-4.85
X4.465Y-4.95
X6.0827Y-4.252
T4
X5.2Y-3.05
X5.2Y-3.15
X5.2Y-3.25
X5.2Y-3.35
X5.2Y-3.45
X5.2Y-3.55
X5.2Y-3.65
X5.2Y-3.75
X5.2Y-3.85
X5.2Y-3.95
X5.2Y-4.05
X5.2Y-4.15
X5.2Y-4.25
X5.2Y-4.35
X5.2Y-4.45
X5.2Y-4.55
X5.2Y-4.65
X5.2Y-4.75
X5.2Y-4.85
X5.2Y-4.95
X5.8Y-3.05
X5.8Y-3.15
X5.8Y-3.25
X5.8Y-3.35
X5.8Y-3.45
X5.8Y-3.55
X5.8Y-3.65
X5.8Y-3.75
X5.8Y-3.85
X5.8Y-3.95
X5.8Y-4.05
X5.8Y-4.15
X5.8Y-4.25
X5.8Y-4.35
X5.8Y-4.45
X5.8Y-4.55
X5.8Y-4.65
X5.8Y-4.75
X5.8Y-4.85
X5.8Y-4.95
T5
X4.75Y-3.55
X4.75Y-3.65
X4.75Y-3.75
X4.75Y-3.85
X4.75Y-3.95
X4.85Y-3.55
X4.85Y-3.65
X4.85Y-3.75
X4.85Y-3.85
X4.85Y-3.95
X4.45Y-4.3
X4.45Y-4.4
X4.45Y-4.5
T1
X4.065Y-3.G85X4.035Y-3.
G05
X4.72Y-3.G85X4.69Y-3.
G05
T0
M30
