G04 #@! TF.GenerationSoftware,KiCad,Pcbnew,(5.0.1-3-g963ef8bb5)*
G04 #@! TF.CreationDate,2019-02-08T10:03:46-05:00*
G04 #@! TF.ProjectId,STMaytal32v02,53544D617974616C33327630322E6B69,rev?*
G04 #@! TF.SameCoordinates,Original*
G04 #@! TF.FileFunction,Soldermask,Bot*
G04 #@! TF.FilePolarity,Negative*
%FSLAX46Y46*%
G04 Gerber Fmt 4.6, Leading zero omitted, Abs format (unit mm)*
G04 Created by KiCad (PCBNEW (5.0.1-3-g963ef8bb5)) date Friday, February 08, 2019 at 10:03:46 AM*
%MOMM*%
%LPD*%
G01*
G04 APERTURE LIST*
%ADD10C,0.100000*%
G04 APERTURE END LIST*
D10*
G36*
X113597425Y-124792760D02*
X113597428Y-124792761D01*
X113597429Y-124792761D01*
X113776693Y-124847140D01*
X113776695Y-124847141D01*
X113941905Y-124935448D01*
X114086712Y-125054288D01*
X114205552Y-125199095D01*
X114293859Y-125364305D01*
X114348240Y-125543575D01*
X114366601Y-125730000D01*
X114348240Y-125916425D01*
X114293859Y-126095695D01*
X114205552Y-126260905D01*
X114086712Y-126405712D01*
X113941905Y-126524552D01*
X113941903Y-126524553D01*
X113776693Y-126612860D01*
X113597429Y-126667239D01*
X113597428Y-126667239D01*
X113597425Y-126667240D01*
X113457718Y-126681000D01*
X113364282Y-126681000D01*
X113224575Y-126667240D01*
X113224572Y-126667239D01*
X113224571Y-126667239D01*
X113045307Y-126612860D01*
X112880097Y-126524553D01*
X112880095Y-126524552D01*
X112735288Y-126405712D01*
X112616448Y-126260905D01*
X112528141Y-126095695D01*
X112473760Y-125916425D01*
X112455399Y-125730000D01*
X112473760Y-125543575D01*
X112528141Y-125364305D01*
X112616448Y-125199095D01*
X112735288Y-125054288D01*
X112880095Y-124935448D01*
X113045305Y-124847141D01*
X113045307Y-124847140D01*
X113224571Y-124792761D01*
X113224572Y-124792761D01*
X113224575Y-124792760D01*
X113364282Y-124779000D01*
X113457718Y-124779000D01*
X113597425Y-124792760D01*
X113597425Y-124792760D01*
G37*
G36*
X147557142Y-124948242D02*
X147705102Y-125009530D01*
X147772087Y-125054288D01*
X147838257Y-125098501D01*
X147951499Y-125211743D01*
X147971554Y-125241758D01*
X148040470Y-125344898D01*
X148101758Y-125492858D01*
X148133000Y-125649925D01*
X148133000Y-125810075D01*
X148101758Y-125967142D01*
X148040470Y-126115102D01*
X147951498Y-126248258D01*
X147838258Y-126361498D01*
X147705102Y-126450470D01*
X147557142Y-126511758D01*
X147400075Y-126543000D01*
X147239925Y-126543000D01*
X147082858Y-126511758D01*
X146934898Y-126450470D01*
X146801742Y-126361498D01*
X146688502Y-126248258D01*
X146599530Y-126115102D01*
X146538242Y-125967142D01*
X146507000Y-125810075D01*
X146507000Y-125649925D01*
X146538242Y-125492858D01*
X146599530Y-125344898D01*
X146668446Y-125241758D01*
X146688501Y-125211743D01*
X146801743Y-125098501D01*
X146867913Y-125054288D01*
X146934898Y-125009530D01*
X147082858Y-124948242D01*
X147239925Y-124917000D01*
X147400075Y-124917000D01*
X147557142Y-124948242D01*
X147557142Y-124948242D01*
G37*
G36*
X132317142Y-124948242D02*
X132465102Y-125009530D01*
X132532087Y-125054288D01*
X132598257Y-125098501D01*
X132711499Y-125211743D01*
X132731554Y-125241758D01*
X132800470Y-125344898D01*
X132861758Y-125492858D01*
X132893000Y-125649925D01*
X132893000Y-125810075D01*
X132861758Y-125967142D01*
X132800470Y-126115102D01*
X132711498Y-126248258D01*
X132598258Y-126361498D01*
X132465102Y-126450470D01*
X132317142Y-126511758D01*
X132160075Y-126543000D01*
X131999925Y-126543000D01*
X131842858Y-126511758D01*
X131694898Y-126450470D01*
X131561742Y-126361498D01*
X131448502Y-126248258D01*
X131359530Y-126115102D01*
X131298242Y-125967142D01*
X131267000Y-125810075D01*
X131267000Y-125649925D01*
X131298242Y-125492858D01*
X131359530Y-125344898D01*
X131428446Y-125241758D01*
X131448501Y-125211743D01*
X131561743Y-125098501D01*
X131627913Y-125054288D01*
X131694898Y-125009530D01*
X131842858Y-124948242D01*
X131999925Y-124917000D01*
X132160075Y-124917000D01*
X132317142Y-124948242D01*
X132317142Y-124948242D01*
G37*
G36*
X124157142Y-123678242D02*
X124305102Y-123739530D01*
X124372130Y-123784317D01*
X124438257Y-123828501D01*
X124551499Y-123941743D01*
X124592429Y-124003000D01*
X124640470Y-124074898D01*
X124701758Y-124222858D01*
X124733000Y-124379925D01*
X124733000Y-124540075D01*
X124701758Y-124697142D01*
X124640470Y-124845102D01*
X124595683Y-124912130D01*
X124551499Y-124978257D01*
X124438257Y-125091499D01*
X124427776Y-125098502D01*
X124305102Y-125180470D01*
X124157142Y-125241758D01*
X124000075Y-125273000D01*
X123839925Y-125273000D01*
X123682858Y-125241758D01*
X123534898Y-125180470D01*
X123412224Y-125098502D01*
X123401743Y-125091499D01*
X123288501Y-124978257D01*
X123244317Y-124912130D01*
X123199530Y-124845102D01*
X123138242Y-124697142D01*
X123107000Y-124540075D01*
X123107000Y-124379925D01*
X123138242Y-124222858D01*
X123199530Y-124074898D01*
X123247571Y-124003000D01*
X123288501Y-123941743D01*
X123401743Y-123828501D01*
X123467870Y-123784317D01*
X123534898Y-123739530D01*
X123682858Y-123678242D01*
X123839925Y-123647000D01*
X124000075Y-123647000D01*
X124157142Y-123678242D01*
X124157142Y-123678242D01*
G37*
G36*
X120157142Y-123678242D02*
X120305102Y-123739530D01*
X120372130Y-123784317D01*
X120438257Y-123828501D01*
X120551499Y-123941743D01*
X120592429Y-124003000D01*
X120640470Y-124074898D01*
X120701758Y-124222858D01*
X120733000Y-124379925D01*
X120733000Y-124540075D01*
X120701758Y-124697142D01*
X120640470Y-124845102D01*
X120595683Y-124912130D01*
X120551499Y-124978257D01*
X120438257Y-125091499D01*
X120427776Y-125098502D01*
X120305102Y-125180470D01*
X120157142Y-125241758D01*
X120000075Y-125273000D01*
X119839925Y-125273000D01*
X119682858Y-125241758D01*
X119534898Y-125180470D01*
X119412224Y-125098502D01*
X119401743Y-125091499D01*
X119288501Y-124978257D01*
X119244317Y-124912130D01*
X119199530Y-124845102D01*
X119138242Y-124697142D01*
X119107000Y-124540075D01*
X119107000Y-124379925D01*
X119138242Y-124222858D01*
X119199530Y-124074898D01*
X119247571Y-124003000D01*
X119288501Y-123941743D01*
X119401743Y-123828501D01*
X119467870Y-123784317D01*
X119534898Y-123739530D01*
X119682858Y-123678242D01*
X119839925Y-123647000D01*
X120000075Y-123647000D01*
X120157142Y-123678242D01*
X120157142Y-123678242D01*
G37*
G36*
X122157142Y-123678242D02*
X122305102Y-123739530D01*
X122372130Y-123784317D01*
X122438257Y-123828501D01*
X122551499Y-123941743D01*
X122592429Y-124003000D01*
X122640470Y-124074898D01*
X122701758Y-124222858D01*
X122733000Y-124379925D01*
X122733000Y-124540075D01*
X122701758Y-124697142D01*
X122640470Y-124845102D01*
X122595683Y-124912130D01*
X122551499Y-124978257D01*
X122438257Y-125091499D01*
X122427776Y-125098502D01*
X122305102Y-125180470D01*
X122157142Y-125241758D01*
X122000075Y-125273000D01*
X121839925Y-125273000D01*
X121682858Y-125241758D01*
X121534898Y-125180470D01*
X121412224Y-125098502D01*
X121401743Y-125091499D01*
X121288501Y-124978257D01*
X121244317Y-124912130D01*
X121199530Y-124845102D01*
X121138242Y-124697142D01*
X121107000Y-124540075D01*
X121107000Y-124379925D01*
X121138242Y-124222858D01*
X121199530Y-124074898D01*
X121247571Y-124003000D01*
X121288501Y-123941743D01*
X121401743Y-123828501D01*
X121467870Y-123784317D01*
X121534898Y-123739530D01*
X121682858Y-123678242D01*
X121839925Y-123647000D01*
X122000075Y-123647000D01*
X122157142Y-123678242D01*
X122157142Y-123678242D01*
G37*
G36*
X113597425Y-122252760D02*
X113597428Y-122252761D01*
X113597429Y-122252761D01*
X113776693Y-122307140D01*
X113776695Y-122307141D01*
X113941905Y-122395448D01*
X114086712Y-122514288D01*
X114205552Y-122659095D01*
X114293859Y-122824305D01*
X114348240Y-123003575D01*
X114366601Y-123190000D01*
X114348240Y-123376425D01*
X114293859Y-123555695D01*
X114205552Y-123720905D01*
X114086712Y-123865712D01*
X113941905Y-123984552D01*
X113941903Y-123984553D01*
X113776693Y-124072860D01*
X113597429Y-124127239D01*
X113597428Y-124127239D01*
X113597425Y-124127240D01*
X113457718Y-124141000D01*
X113364282Y-124141000D01*
X113224575Y-124127240D01*
X113224572Y-124127239D01*
X113224571Y-124127239D01*
X113045307Y-124072860D01*
X112880097Y-123984553D01*
X112880095Y-123984552D01*
X112735288Y-123865712D01*
X112616448Y-123720905D01*
X112528141Y-123555695D01*
X112473760Y-123376425D01*
X112455399Y-123190000D01*
X112473760Y-123003575D01*
X112528141Y-122824305D01*
X112616448Y-122659095D01*
X112735288Y-122514288D01*
X112880095Y-122395448D01*
X113045305Y-122307141D01*
X113045307Y-122307140D01*
X113224571Y-122252761D01*
X113224572Y-122252761D01*
X113224575Y-122252760D01*
X113364282Y-122239000D01*
X113457718Y-122239000D01*
X113597425Y-122252760D01*
X113597425Y-122252760D01*
G37*
G36*
X147557142Y-122408242D02*
X147705102Y-122469530D01*
X147838258Y-122558502D01*
X147951498Y-122671742D01*
X148040470Y-122804898D01*
X148101758Y-122952858D01*
X148133000Y-123109925D01*
X148133000Y-123270075D01*
X148101758Y-123427142D01*
X148054354Y-123541583D01*
X148040471Y-123575100D01*
X147951499Y-123708257D01*
X147838257Y-123821499D01*
X147827776Y-123828502D01*
X147705102Y-123910470D01*
X147557142Y-123971758D01*
X147400075Y-124003000D01*
X147239925Y-124003000D01*
X147082858Y-123971758D01*
X146934898Y-123910470D01*
X146812224Y-123828502D01*
X146801743Y-123821499D01*
X146688501Y-123708257D01*
X146599529Y-123575100D01*
X146585646Y-123541583D01*
X146538242Y-123427142D01*
X146507000Y-123270075D01*
X146507000Y-123109925D01*
X146538242Y-122952858D01*
X146599530Y-122804898D01*
X146688502Y-122671742D01*
X146801742Y-122558502D01*
X146934898Y-122469530D01*
X147082858Y-122408242D01*
X147239925Y-122377000D01*
X147400075Y-122377000D01*
X147557142Y-122408242D01*
X147557142Y-122408242D01*
G37*
G36*
X132317142Y-122408242D02*
X132465102Y-122469530D01*
X132598258Y-122558502D01*
X132711498Y-122671742D01*
X132800470Y-122804898D01*
X132861758Y-122952858D01*
X132893000Y-123109925D01*
X132893000Y-123270075D01*
X132861758Y-123427142D01*
X132814354Y-123541583D01*
X132800471Y-123575100D01*
X132711499Y-123708257D01*
X132598257Y-123821499D01*
X132587776Y-123828502D01*
X132465102Y-123910470D01*
X132317142Y-123971758D01*
X132160075Y-124003000D01*
X131999925Y-124003000D01*
X131842858Y-123971758D01*
X131694898Y-123910470D01*
X131572224Y-123828502D01*
X131561743Y-123821499D01*
X131448501Y-123708257D01*
X131359529Y-123575100D01*
X131345646Y-123541583D01*
X131298242Y-123427142D01*
X131267000Y-123270075D01*
X131267000Y-123109925D01*
X131298242Y-122952858D01*
X131359530Y-122804898D01*
X131448502Y-122671742D01*
X131561742Y-122558502D01*
X131694898Y-122469530D01*
X131842858Y-122408242D01*
X131999925Y-122377000D01*
X132160075Y-122377000D01*
X132317142Y-122408242D01*
X132317142Y-122408242D01*
G37*
G36*
X114362000Y-121601000D02*
X112460000Y-121601000D01*
X112460000Y-119699000D01*
X114362000Y-119699000D01*
X114362000Y-121601000D01*
X114362000Y-121601000D01*
G37*
G36*
X147557142Y-119868242D02*
X147705102Y-119929530D01*
X147838258Y-120018502D01*
X147951498Y-120131742D01*
X148040470Y-120264898D01*
X148101758Y-120412858D01*
X148133000Y-120569925D01*
X148133000Y-120730075D01*
X148101758Y-120887142D01*
X148040470Y-121035102D01*
X147951498Y-121168258D01*
X147838258Y-121281498D01*
X147705102Y-121370470D01*
X147557142Y-121431758D01*
X147400075Y-121463000D01*
X147239925Y-121463000D01*
X147082858Y-121431758D01*
X146934898Y-121370470D01*
X146801742Y-121281498D01*
X146688502Y-121168258D01*
X146599530Y-121035102D01*
X146538242Y-120887142D01*
X146507000Y-120730075D01*
X146507000Y-120569925D01*
X146538242Y-120412858D01*
X146599530Y-120264898D01*
X146688502Y-120131742D01*
X146801742Y-120018502D01*
X146934898Y-119929530D01*
X147082858Y-119868242D01*
X147239925Y-119837000D01*
X147400075Y-119837000D01*
X147557142Y-119868242D01*
X147557142Y-119868242D01*
G37*
G36*
X132317142Y-119868242D02*
X132465102Y-119929530D01*
X132598258Y-120018502D01*
X132711498Y-120131742D01*
X132800470Y-120264898D01*
X132861758Y-120412858D01*
X132893000Y-120569925D01*
X132893000Y-120730075D01*
X132861758Y-120887142D01*
X132800470Y-121035102D01*
X132711498Y-121168258D01*
X132598258Y-121281498D01*
X132465102Y-121370470D01*
X132317142Y-121431758D01*
X132160075Y-121463000D01*
X131999925Y-121463000D01*
X131842858Y-121431758D01*
X131694898Y-121370470D01*
X131561742Y-121281498D01*
X131448502Y-121168258D01*
X131359530Y-121035102D01*
X131298242Y-120887142D01*
X131267000Y-120730075D01*
X131267000Y-120569925D01*
X131298242Y-120412858D01*
X131359530Y-120264898D01*
X131448502Y-120131742D01*
X131561742Y-120018502D01*
X131694898Y-119929530D01*
X131842858Y-119868242D01*
X131999925Y-119837000D01*
X132160075Y-119837000D01*
X132317142Y-119868242D01*
X132317142Y-119868242D01*
G37*
G36*
X155401000Y-119011000D02*
X153599000Y-119011000D01*
X153599000Y-117209000D01*
X155401000Y-117209000D01*
X155401000Y-119011000D01*
X155401000Y-119011000D01*
G37*
G36*
X125978228Y-117291703D02*
X126133100Y-117355853D01*
X126272481Y-117448985D01*
X126391015Y-117567519D01*
X126484147Y-117706900D01*
X126548297Y-117861772D01*
X126581000Y-118026184D01*
X126581000Y-118193816D01*
X126548297Y-118358228D01*
X126484147Y-118513100D01*
X126391015Y-118652481D01*
X126272481Y-118771015D01*
X126133100Y-118864147D01*
X125978228Y-118928297D01*
X125813816Y-118961000D01*
X125646184Y-118961000D01*
X125481772Y-118928297D01*
X125326900Y-118864147D01*
X125187519Y-118771015D01*
X125068985Y-118652481D01*
X124975853Y-118513100D01*
X124911703Y-118358228D01*
X124879000Y-118193816D01*
X124879000Y-118026184D01*
X124911703Y-117861772D01*
X124975853Y-117706900D01*
X125068985Y-117567519D01*
X125187519Y-117448985D01*
X125326900Y-117355853D01*
X125481772Y-117291703D01*
X125646184Y-117259000D01*
X125813816Y-117259000D01*
X125978228Y-117291703D01*
X125978228Y-117291703D01*
G37*
G36*
X118276821Y-117271313D02*
X118276824Y-117271314D01*
X118276825Y-117271314D01*
X118437239Y-117319975D01*
X118437241Y-117319976D01*
X118437244Y-117319977D01*
X118585078Y-117398995D01*
X118714659Y-117505341D01*
X118821005Y-117634922D01*
X118900023Y-117782756D01*
X118900024Y-117782759D01*
X118900025Y-117782761D01*
X118948686Y-117943175D01*
X118948687Y-117943179D01*
X118965117Y-118110000D01*
X118948687Y-118276821D01*
X118948686Y-118276824D01*
X118948686Y-118276825D01*
X118923993Y-118358228D01*
X118900023Y-118437244D01*
X118821005Y-118585078D01*
X118714659Y-118714659D01*
X118585078Y-118821005D01*
X118437244Y-118900023D01*
X118437241Y-118900024D01*
X118437239Y-118900025D01*
X118276825Y-118948686D01*
X118276824Y-118948686D01*
X118276821Y-118948687D01*
X118151804Y-118961000D01*
X118068196Y-118961000D01*
X117943179Y-118948687D01*
X117943176Y-118948686D01*
X117943175Y-118948686D01*
X117782761Y-118900025D01*
X117782759Y-118900024D01*
X117782756Y-118900023D01*
X117634922Y-118821005D01*
X117505341Y-118714659D01*
X117398995Y-118585078D01*
X117319977Y-118437244D01*
X117296008Y-118358228D01*
X117271314Y-118276825D01*
X117271314Y-118276824D01*
X117271313Y-118276821D01*
X117254883Y-118110000D01*
X117271313Y-117943179D01*
X117271314Y-117943175D01*
X117319975Y-117782761D01*
X117319976Y-117782759D01*
X117319977Y-117782756D01*
X117398995Y-117634922D01*
X117505341Y-117505341D01*
X117634922Y-117398995D01*
X117782756Y-117319977D01*
X117782759Y-117319976D01*
X117782761Y-117319975D01*
X117943175Y-117271314D01*
X117943176Y-117271314D01*
X117943179Y-117271313D01*
X118068196Y-117259000D01*
X118151804Y-117259000D01*
X118276821Y-117271313D01*
X118276821Y-117271313D01*
G37*
G36*
X132317142Y-117328242D02*
X132465102Y-117389530D01*
X132598258Y-117478502D01*
X132711498Y-117591742D01*
X132800470Y-117724898D01*
X132861758Y-117872858D01*
X132893000Y-118029925D01*
X132893000Y-118190075D01*
X132861758Y-118347142D01*
X132800470Y-118495102D01*
X132711498Y-118628258D01*
X132598258Y-118741498D01*
X132465102Y-118830470D01*
X132317142Y-118891758D01*
X132160075Y-118923000D01*
X131999925Y-118923000D01*
X131842858Y-118891758D01*
X131694898Y-118830470D01*
X131561742Y-118741498D01*
X131448502Y-118628258D01*
X131359530Y-118495102D01*
X131298242Y-118347142D01*
X131267000Y-118190075D01*
X131267000Y-118029925D01*
X131298242Y-117872858D01*
X131359530Y-117724898D01*
X131448502Y-117591742D01*
X131561742Y-117478502D01*
X131694898Y-117389530D01*
X131842858Y-117328242D01*
X131999925Y-117297000D01*
X132160075Y-117297000D01*
X132317142Y-117328242D01*
X132317142Y-117328242D01*
G37*
G36*
X147557142Y-117328242D02*
X147705102Y-117389530D01*
X147838258Y-117478502D01*
X147951498Y-117591742D01*
X148040470Y-117724898D01*
X148101758Y-117872858D01*
X148133000Y-118029925D01*
X148133000Y-118190075D01*
X148101758Y-118347142D01*
X148040470Y-118495102D01*
X147951498Y-118628258D01*
X147838258Y-118741498D01*
X147705102Y-118830470D01*
X147557142Y-118891758D01*
X147400075Y-118923000D01*
X147239925Y-118923000D01*
X147082858Y-118891758D01*
X146934898Y-118830470D01*
X146801742Y-118741498D01*
X146688502Y-118628258D01*
X146599530Y-118495102D01*
X146538242Y-118347142D01*
X146507000Y-118190075D01*
X146507000Y-118029925D01*
X146538242Y-117872858D01*
X146599530Y-117724898D01*
X146688502Y-117591742D01*
X146801742Y-117478502D01*
X146934898Y-117389530D01*
X147082858Y-117328242D01*
X147239925Y-117297000D01*
X147400075Y-117297000D01*
X147557142Y-117328242D01*
X147557142Y-117328242D01*
G37*
G36*
X154610443Y-114675519D02*
X154676627Y-114682037D01*
X154769811Y-114710304D01*
X154846467Y-114733557D01*
X154924146Y-114775078D01*
X155002991Y-114817222D01*
X155033769Y-114842481D01*
X155140186Y-114929814D01*
X155223448Y-115031271D01*
X155252778Y-115067009D01*
X155252779Y-115067011D01*
X155336443Y-115223533D01*
X155336443Y-115223534D01*
X155387963Y-115393373D01*
X155405359Y-115570000D01*
X155387963Y-115746627D01*
X155353616Y-115859853D01*
X155336443Y-115916467D01*
X155262348Y-116055087D01*
X155252778Y-116072991D01*
X155223448Y-116108729D01*
X155140186Y-116210186D01*
X155042358Y-116290470D01*
X155002991Y-116322778D01*
X155002989Y-116322779D01*
X154846467Y-116406443D01*
X154789853Y-116423616D01*
X154676627Y-116457963D01*
X154610442Y-116464482D01*
X154544260Y-116471000D01*
X154455740Y-116471000D01*
X154389558Y-116464482D01*
X154323373Y-116457963D01*
X154210147Y-116423616D01*
X154153533Y-116406443D01*
X153997011Y-116322779D01*
X153997009Y-116322778D01*
X153957642Y-116290470D01*
X153859814Y-116210186D01*
X153776552Y-116108729D01*
X153747222Y-116072991D01*
X153737652Y-116055087D01*
X153663557Y-115916467D01*
X153646384Y-115859853D01*
X153612037Y-115746627D01*
X153594641Y-115570000D01*
X153612037Y-115393373D01*
X153663557Y-115223534D01*
X153663557Y-115223533D01*
X153747221Y-115067011D01*
X153747222Y-115067009D01*
X153776552Y-115031271D01*
X153859814Y-114929814D01*
X153966231Y-114842481D01*
X153997009Y-114817222D01*
X154075854Y-114775078D01*
X154153533Y-114733557D01*
X154230189Y-114710304D01*
X154323373Y-114682037D01*
X154389557Y-114675519D01*
X154455740Y-114669000D01*
X154544260Y-114669000D01*
X154610443Y-114675519D01*
X154610443Y-114675519D01*
G37*
G36*
X132317142Y-114788242D02*
X132431583Y-114835646D01*
X132448085Y-114842481D01*
X132465102Y-114849530D01*
X132532130Y-114894317D01*
X132598257Y-114938501D01*
X132711499Y-115051743D01*
X132737077Y-115090023D01*
X132800470Y-115184898D01*
X132861758Y-115332858D01*
X132893000Y-115489925D01*
X132893000Y-115650075D01*
X132861758Y-115807142D01*
X132816474Y-115916466D01*
X132800471Y-115955100D01*
X132711499Y-116088257D01*
X132598257Y-116201499D01*
X132532130Y-116245683D01*
X132465102Y-116290470D01*
X132317142Y-116351758D01*
X132160075Y-116383000D01*
X131999925Y-116383000D01*
X131842858Y-116351758D01*
X131694898Y-116290470D01*
X131627870Y-116245683D01*
X131561743Y-116201499D01*
X131448501Y-116088257D01*
X131359529Y-115955100D01*
X131343526Y-115916466D01*
X131298242Y-115807142D01*
X131267000Y-115650075D01*
X131267000Y-115489925D01*
X131298242Y-115332858D01*
X131359530Y-115184898D01*
X131422923Y-115090023D01*
X131448501Y-115051743D01*
X131561743Y-114938501D01*
X131627870Y-114894317D01*
X131694898Y-114849530D01*
X131711916Y-114842481D01*
X131728417Y-114835646D01*
X131842858Y-114788242D01*
X131999925Y-114757000D01*
X132160075Y-114757000D01*
X132317142Y-114788242D01*
X132317142Y-114788242D01*
G37*
G36*
X147557142Y-114788242D02*
X147671583Y-114835646D01*
X147688085Y-114842481D01*
X147705102Y-114849530D01*
X147772130Y-114894317D01*
X147838257Y-114938501D01*
X147951499Y-115051743D01*
X147977077Y-115090023D01*
X148040470Y-115184898D01*
X148101758Y-115332858D01*
X148133000Y-115489925D01*
X148133000Y-115650075D01*
X148101758Y-115807142D01*
X148056474Y-115916466D01*
X148040471Y-115955100D01*
X147951499Y-116088257D01*
X147838257Y-116201499D01*
X147772130Y-116245683D01*
X147705102Y-116290470D01*
X147557142Y-116351758D01*
X147400075Y-116383000D01*
X147239925Y-116383000D01*
X147082858Y-116351758D01*
X146934898Y-116290470D01*
X146867870Y-116245683D01*
X146801743Y-116201499D01*
X146688501Y-116088257D01*
X146599529Y-115955100D01*
X146583526Y-115916466D01*
X146538242Y-115807142D01*
X146507000Y-115650075D01*
X146507000Y-115489925D01*
X146538242Y-115332858D01*
X146599530Y-115184898D01*
X146662923Y-115090023D01*
X146688501Y-115051743D01*
X146801743Y-114938501D01*
X146867870Y-114894317D01*
X146934898Y-114849530D01*
X146951916Y-114842481D01*
X146968417Y-114835646D01*
X147082858Y-114788242D01*
X147239925Y-114757000D01*
X147400075Y-114757000D01*
X147557142Y-114788242D01*
X147557142Y-114788242D01*
G37*
G36*
X113399114Y-113239176D02*
X113493168Y-113248439D01*
X113694299Y-113309451D01*
X113726899Y-113326876D01*
X113879662Y-113408529D01*
X114042133Y-113541867D01*
X114175471Y-113704338D01*
X114239924Y-113824922D01*
X114274549Y-113889701D01*
X114335561Y-114090832D01*
X114356162Y-114300000D01*
X114335561Y-114509168D01*
X114274549Y-114710299D01*
X114274546Y-114710304D01*
X114175471Y-114895662D01*
X114042133Y-115058133D01*
X113879662Y-115191471D01*
X113726899Y-115273124D01*
X113694299Y-115290549D01*
X113493168Y-115351561D01*
X113399114Y-115360824D01*
X113336413Y-115367000D01*
X112723587Y-115367000D01*
X112660886Y-115360824D01*
X112566832Y-115351561D01*
X112365701Y-115290549D01*
X112333101Y-115273124D01*
X112180338Y-115191471D01*
X112017867Y-115058133D01*
X111884529Y-114895662D01*
X111785454Y-114710304D01*
X111785451Y-114710299D01*
X111724439Y-114509168D01*
X111703838Y-114300000D01*
X111724439Y-114090832D01*
X111785451Y-113889701D01*
X111820076Y-113824922D01*
X111884529Y-113704338D01*
X112017867Y-113541867D01*
X112180338Y-113408529D01*
X112333101Y-113326876D01*
X112365701Y-113309451D01*
X112566832Y-113248439D01*
X112660886Y-113239176D01*
X112723587Y-113233000D01*
X113336413Y-113233000D01*
X113399114Y-113239176D01*
X113399114Y-113239176D01*
G37*
G36*
X125896821Y-113461313D02*
X125896824Y-113461314D01*
X125896825Y-113461314D01*
X126057239Y-113509975D01*
X126057241Y-113509976D01*
X126057244Y-113509977D01*
X126205078Y-113588995D01*
X126334659Y-113695341D01*
X126441005Y-113824922D01*
X126520023Y-113972756D01*
X126520024Y-113972759D01*
X126520025Y-113972761D01*
X126555841Y-114090832D01*
X126568687Y-114133179D01*
X126585117Y-114300000D01*
X126568687Y-114466821D01*
X126568686Y-114466824D01*
X126568686Y-114466825D01*
X126543993Y-114548228D01*
X126520023Y-114627244D01*
X126441005Y-114775078D01*
X126334659Y-114904659D01*
X126205078Y-115011005D01*
X126057244Y-115090023D01*
X126057241Y-115090024D01*
X126057239Y-115090025D01*
X125896825Y-115138686D01*
X125896824Y-115138686D01*
X125896821Y-115138687D01*
X125771804Y-115151000D01*
X125688196Y-115151000D01*
X125563179Y-115138687D01*
X125563176Y-115138686D01*
X125563175Y-115138686D01*
X125402761Y-115090025D01*
X125402759Y-115090024D01*
X125402756Y-115090023D01*
X125254922Y-115011005D01*
X125125341Y-114904659D01*
X125018995Y-114775078D01*
X124939977Y-114627244D01*
X124916008Y-114548228D01*
X124891314Y-114466825D01*
X124891314Y-114466824D01*
X124891313Y-114466821D01*
X124874883Y-114300000D01*
X124891313Y-114133179D01*
X124904159Y-114090832D01*
X124939975Y-113972761D01*
X124939976Y-113972759D01*
X124939977Y-113972756D01*
X125018995Y-113824922D01*
X125125341Y-113695341D01*
X125254922Y-113588995D01*
X125402756Y-113509977D01*
X125402759Y-113509976D01*
X125402761Y-113509975D01*
X125563175Y-113461314D01*
X125563176Y-113461314D01*
X125563179Y-113461313D01*
X125688196Y-113449000D01*
X125771804Y-113449000D01*
X125896821Y-113461313D01*
X125896821Y-113461313D01*
G37*
G36*
X118358228Y-113481703D02*
X118513100Y-113545853D01*
X118652481Y-113638985D01*
X118771015Y-113757519D01*
X118864147Y-113896900D01*
X118928297Y-114051772D01*
X118961000Y-114216184D01*
X118961000Y-114383816D01*
X118928297Y-114548228D01*
X118864147Y-114703100D01*
X118771015Y-114842481D01*
X118652481Y-114961015D01*
X118513100Y-115054147D01*
X118358228Y-115118297D01*
X118193816Y-115151000D01*
X118026184Y-115151000D01*
X117861772Y-115118297D01*
X117706900Y-115054147D01*
X117567519Y-114961015D01*
X117448985Y-114842481D01*
X117355853Y-114703100D01*
X117291703Y-114548228D01*
X117259000Y-114383816D01*
X117259000Y-114216184D01*
X117291703Y-114051772D01*
X117355853Y-113896900D01*
X117448985Y-113757519D01*
X117567519Y-113638985D01*
X117706900Y-113545853D01*
X117861772Y-113481703D01*
X118026184Y-113449000D01*
X118193816Y-113449000D01*
X118358228Y-113481703D01*
X118358228Y-113481703D01*
G37*
G36*
X132317142Y-112248242D02*
X132465102Y-112309530D01*
X132532130Y-112354317D01*
X132598257Y-112398501D01*
X132711499Y-112511743D01*
X132755683Y-112577870D01*
X132800470Y-112644898D01*
X132861758Y-112792858D01*
X132893000Y-112949925D01*
X132893000Y-113110075D01*
X132861758Y-113267142D01*
X132814354Y-113381583D01*
X132800471Y-113415100D01*
X132713105Y-113545854D01*
X132711498Y-113548258D01*
X132598258Y-113661498D01*
X132465102Y-113750470D01*
X132465101Y-113750471D01*
X132465100Y-113750471D01*
X132431583Y-113764354D01*
X132317142Y-113811758D01*
X132160075Y-113843000D01*
X131999925Y-113843000D01*
X131842858Y-113811758D01*
X131728417Y-113764354D01*
X131694900Y-113750471D01*
X131694899Y-113750471D01*
X131694898Y-113750470D01*
X131561742Y-113661498D01*
X131448502Y-113548258D01*
X131446896Y-113545854D01*
X131359529Y-113415100D01*
X131345646Y-113381583D01*
X131298242Y-113267142D01*
X131267000Y-113110075D01*
X131267000Y-112949925D01*
X131298242Y-112792858D01*
X131359530Y-112644898D01*
X131404317Y-112577870D01*
X131448501Y-112511743D01*
X131561743Y-112398501D01*
X131627870Y-112354317D01*
X131694898Y-112309530D01*
X131842858Y-112248242D01*
X131999925Y-112217000D01*
X132160075Y-112217000D01*
X132317142Y-112248242D01*
X132317142Y-112248242D01*
G37*
G36*
X147557142Y-112248242D02*
X147705102Y-112309530D01*
X147772130Y-112354317D01*
X147838257Y-112398501D01*
X147951499Y-112511743D01*
X147995683Y-112577870D01*
X148040470Y-112644898D01*
X148101758Y-112792858D01*
X148133000Y-112949925D01*
X148133000Y-113110075D01*
X148101758Y-113267142D01*
X148054354Y-113381583D01*
X148040471Y-113415100D01*
X147953105Y-113545854D01*
X147951498Y-113548258D01*
X147838258Y-113661498D01*
X147705102Y-113750470D01*
X147705101Y-113750471D01*
X147705100Y-113750471D01*
X147671583Y-113764354D01*
X147557142Y-113811758D01*
X147400075Y-113843000D01*
X147239925Y-113843000D01*
X147082858Y-113811758D01*
X146968417Y-113764354D01*
X146934900Y-113750471D01*
X146934899Y-113750471D01*
X146934898Y-113750470D01*
X146801742Y-113661498D01*
X146688502Y-113548258D01*
X146686896Y-113545854D01*
X146599529Y-113415100D01*
X146585646Y-113381583D01*
X146538242Y-113267142D01*
X146507000Y-113110075D01*
X146507000Y-112949925D01*
X146538242Y-112792858D01*
X146599530Y-112644898D01*
X146644317Y-112577870D01*
X146688501Y-112511743D01*
X146801743Y-112398501D01*
X146867870Y-112354317D01*
X146934898Y-112309530D01*
X147082858Y-112248242D01*
X147239925Y-112217000D01*
X147400075Y-112217000D01*
X147557142Y-112248242D01*
X147557142Y-112248242D01*
G37*
G36*
X113399114Y-110699176D02*
X113493168Y-110708439D01*
X113694299Y-110769451D01*
X113726899Y-110786876D01*
X113879662Y-110868529D01*
X114042133Y-111001867D01*
X114175471Y-111164338D01*
X114249587Y-111303000D01*
X114274549Y-111349701D01*
X114335561Y-111550832D01*
X114356162Y-111760000D01*
X114335561Y-111969168D01*
X114274549Y-112170299D01*
X114274546Y-112170304D01*
X114175471Y-112355662D01*
X114042133Y-112518133D01*
X113879662Y-112651471D01*
X113726899Y-112733124D01*
X113694299Y-112750549D01*
X113493168Y-112811561D01*
X113399114Y-112820824D01*
X113336413Y-112827000D01*
X112723587Y-112827000D01*
X112660886Y-112820824D01*
X112566832Y-112811561D01*
X112365701Y-112750549D01*
X112333101Y-112733124D01*
X112180338Y-112651471D01*
X112017867Y-112518133D01*
X111884529Y-112355662D01*
X111785454Y-112170304D01*
X111785451Y-112170299D01*
X111724439Y-111969168D01*
X111703838Y-111760000D01*
X111724439Y-111550832D01*
X111785451Y-111349701D01*
X111810413Y-111303000D01*
X111884529Y-111164338D01*
X112017867Y-111001867D01*
X112180338Y-110868529D01*
X112333101Y-110786876D01*
X112365701Y-110769451D01*
X112566832Y-110708439D01*
X112660886Y-110699176D01*
X112723587Y-110693000D01*
X113336413Y-110693000D01*
X113399114Y-110699176D01*
X113399114Y-110699176D01*
G37*
G36*
X132317142Y-109708242D02*
X132465102Y-109769530D01*
X132532130Y-109814317D01*
X132598257Y-109858501D01*
X132711499Y-109971743D01*
X132755683Y-110037870D01*
X132800470Y-110104898D01*
X132861758Y-110252858D01*
X132893000Y-110409925D01*
X132893000Y-110570075D01*
X132861758Y-110727142D01*
X132814354Y-110841583D01*
X132800471Y-110875100D01*
X132715769Y-111001867D01*
X132711498Y-111008258D01*
X132598258Y-111121498D01*
X132465102Y-111210470D01*
X132317142Y-111271758D01*
X132160075Y-111303000D01*
X131999925Y-111303000D01*
X131842858Y-111271758D01*
X131694898Y-111210470D01*
X131561742Y-111121498D01*
X131448502Y-111008258D01*
X131444232Y-111001867D01*
X131359529Y-110875100D01*
X131345646Y-110841583D01*
X131298242Y-110727142D01*
X131267000Y-110570075D01*
X131267000Y-110409925D01*
X131298242Y-110252858D01*
X131359530Y-110104898D01*
X131404317Y-110037870D01*
X131448501Y-109971743D01*
X131561743Y-109858501D01*
X131627870Y-109814317D01*
X131694898Y-109769530D01*
X131842858Y-109708242D01*
X131999925Y-109677000D01*
X132160075Y-109677000D01*
X132317142Y-109708242D01*
X132317142Y-109708242D01*
G37*
G36*
X147557142Y-109708242D02*
X147705102Y-109769530D01*
X147772130Y-109814317D01*
X147838257Y-109858501D01*
X147951499Y-109971743D01*
X147995683Y-110037870D01*
X148040470Y-110104898D01*
X148101758Y-110252858D01*
X148133000Y-110409925D01*
X148133000Y-110570075D01*
X148101758Y-110727142D01*
X148054354Y-110841583D01*
X148040471Y-110875100D01*
X147955769Y-111001867D01*
X147951498Y-111008258D01*
X147838258Y-111121498D01*
X147705102Y-111210470D01*
X147557142Y-111271758D01*
X147400075Y-111303000D01*
X147239925Y-111303000D01*
X147082858Y-111271758D01*
X146934898Y-111210470D01*
X146801742Y-111121498D01*
X146688502Y-111008258D01*
X146684232Y-111001867D01*
X146599529Y-110875100D01*
X146585646Y-110841583D01*
X146538242Y-110727142D01*
X146507000Y-110570075D01*
X146507000Y-110409925D01*
X146538242Y-110252858D01*
X146599530Y-110104898D01*
X146644317Y-110037870D01*
X146688501Y-109971743D01*
X146801743Y-109858501D01*
X146867870Y-109814317D01*
X146934898Y-109769530D01*
X147082858Y-109708242D01*
X147239925Y-109677000D01*
X147400075Y-109677000D01*
X147557142Y-109708242D01*
X147557142Y-109708242D01*
G37*
G36*
X113399114Y-108159176D02*
X113493168Y-108168439D01*
X113694299Y-108229451D01*
X113726899Y-108246876D01*
X113879662Y-108328529D01*
X114042133Y-108461867D01*
X114175471Y-108624338D01*
X114249587Y-108763000D01*
X114274549Y-108809701D01*
X114335561Y-109010832D01*
X114356162Y-109220000D01*
X114335561Y-109429168D01*
X114274549Y-109630299D01*
X114274546Y-109630304D01*
X114175471Y-109815662D01*
X114042133Y-109978133D01*
X113879662Y-110111471D01*
X113726899Y-110193124D01*
X113694299Y-110210549D01*
X113493168Y-110271561D01*
X113399114Y-110280824D01*
X113336413Y-110287000D01*
X112723587Y-110287000D01*
X112660886Y-110280824D01*
X112566832Y-110271561D01*
X112365701Y-110210549D01*
X112333101Y-110193124D01*
X112180338Y-110111471D01*
X112017867Y-109978133D01*
X111884529Y-109815662D01*
X111785454Y-109630304D01*
X111785451Y-109630299D01*
X111724439Y-109429168D01*
X111703838Y-109220000D01*
X111724439Y-109010832D01*
X111785451Y-108809701D01*
X111810413Y-108763000D01*
X111884529Y-108624338D01*
X112017867Y-108461867D01*
X112180338Y-108328529D01*
X112333101Y-108246876D01*
X112365701Y-108229451D01*
X112566832Y-108168439D01*
X112660886Y-108159176D01*
X112723587Y-108153000D01*
X113336413Y-108153000D01*
X113399114Y-108159176D01*
X113399114Y-108159176D01*
G37*
G36*
X155401000Y-108901000D02*
X153599000Y-108901000D01*
X153599000Y-107099000D01*
X155401000Y-107099000D01*
X155401000Y-108901000D01*
X155401000Y-108901000D01*
G37*
G36*
X147557142Y-107168242D02*
X147705102Y-107229530D01*
X147838258Y-107318502D01*
X147951498Y-107431742D01*
X148040470Y-107564898D01*
X148101758Y-107712858D01*
X148133000Y-107869925D01*
X148133000Y-108030075D01*
X148101758Y-108187142D01*
X148054354Y-108301583D01*
X148040471Y-108335100D01*
X147955769Y-108461867D01*
X147951498Y-108468258D01*
X147838258Y-108581498D01*
X147705102Y-108670470D01*
X147557142Y-108731758D01*
X147400075Y-108763000D01*
X147239925Y-108763000D01*
X147082858Y-108731758D01*
X146934898Y-108670470D01*
X146801742Y-108581498D01*
X146688502Y-108468258D01*
X146684232Y-108461867D01*
X146599529Y-108335100D01*
X146585646Y-108301583D01*
X146538242Y-108187142D01*
X146507000Y-108030075D01*
X146507000Y-107869925D01*
X146538242Y-107712858D01*
X146599530Y-107564898D01*
X146688502Y-107431742D01*
X146801742Y-107318502D01*
X146934898Y-107229530D01*
X147082858Y-107168242D01*
X147239925Y-107137000D01*
X147400075Y-107137000D01*
X147557142Y-107168242D01*
X147557142Y-107168242D01*
G37*
G36*
X132317142Y-107168242D02*
X132465102Y-107229530D01*
X132598258Y-107318502D01*
X132711498Y-107431742D01*
X132800470Y-107564898D01*
X132861758Y-107712858D01*
X132893000Y-107869925D01*
X132893000Y-108030075D01*
X132861758Y-108187142D01*
X132814354Y-108301583D01*
X132800471Y-108335100D01*
X132715769Y-108461867D01*
X132711498Y-108468258D01*
X132598258Y-108581498D01*
X132465102Y-108670470D01*
X132317142Y-108731758D01*
X132160075Y-108763000D01*
X131999925Y-108763000D01*
X131842858Y-108731758D01*
X131694898Y-108670470D01*
X131561742Y-108581498D01*
X131448502Y-108468258D01*
X131444232Y-108461867D01*
X131359529Y-108335100D01*
X131345646Y-108301583D01*
X131298242Y-108187142D01*
X131267000Y-108030075D01*
X131267000Y-107869925D01*
X131298242Y-107712858D01*
X131359530Y-107564898D01*
X131448502Y-107431742D01*
X131561742Y-107318502D01*
X131694898Y-107229530D01*
X131842858Y-107168242D01*
X131999925Y-107137000D01*
X132160075Y-107137000D01*
X132317142Y-107168242D01*
X132317142Y-107168242D01*
G37*
G36*
X147557142Y-104628242D02*
X147705102Y-104689530D01*
X147838258Y-104778502D01*
X147951498Y-104891742D01*
X148040470Y-105024898D01*
X148101758Y-105172858D01*
X148133000Y-105329925D01*
X148133000Y-105490075D01*
X148101758Y-105647142D01*
X148040470Y-105795102D01*
X147951498Y-105928258D01*
X147838258Y-106041498D01*
X147705102Y-106130470D01*
X147557142Y-106191758D01*
X147400075Y-106223000D01*
X147239925Y-106223000D01*
X147082858Y-106191758D01*
X146934898Y-106130470D01*
X146801742Y-106041498D01*
X146688502Y-105928258D01*
X146599530Y-105795102D01*
X146538242Y-105647142D01*
X146507000Y-105490075D01*
X146507000Y-105329925D01*
X146538242Y-105172858D01*
X146599530Y-105024898D01*
X146688502Y-104891742D01*
X146801742Y-104778502D01*
X146934898Y-104689530D01*
X147082858Y-104628242D01*
X147239925Y-104597000D01*
X147400075Y-104597000D01*
X147557142Y-104628242D01*
X147557142Y-104628242D01*
G37*
G36*
X132317142Y-104628242D02*
X132465102Y-104689530D01*
X132598258Y-104778502D01*
X132711498Y-104891742D01*
X132800470Y-105024898D01*
X132861758Y-105172858D01*
X132893000Y-105329925D01*
X132893000Y-105490075D01*
X132861758Y-105647142D01*
X132800470Y-105795102D01*
X132711498Y-105928258D01*
X132598258Y-106041498D01*
X132465102Y-106130470D01*
X132317142Y-106191758D01*
X132160075Y-106223000D01*
X131999925Y-106223000D01*
X131842858Y-106191758D01*
X131694898Y-106130470D01*
X131561742Y-106041498D01*
X131448502Y-105928258D01*
X131359530Y-105795102D01*
X131298242Y-105647142D01*
X131267000Y-105490075D01*
X131267000Y-105329925D01*
X131298242Y-105172858D01*
X131359530Y-105024898D01*
X131448502Y-104891742D01*
X131561742Y-104778502D01*
X131694898Y-104689530D01*
X131842858Y-104628242D01*
X131999925Y-104597000D01*
X132160075Y-104597000D01*
X132317142Y-104628242D01*
X132317142Y-104628242D01*
G37*
G36*
X153121064Y-100848257D02*
X153233410Y-100870604D01*
X153515674Y-100987521D01*
X153769705Y-101157259D01*
X153985741Y-101373295D01*
X154155479Y-101627326D01*
X154272396Y-101909590D01*
X154332000Y-102209240D01*
X154332000Y-102514760D01*
X154272396Y-102814410D01*
X154155479Y-103096674D01*
X153985741Y-103350705D01*
X153769705Y-103566741D01*
X153515674Y-103736479D01*
X153233410Y-103853396D01*
X153133527Y-103873264D01*
X152933762Y-103913000D01*
X152628238Y-103913000D01*
X152428473Y-103873264D01*
X152328590Y-103853396D01*
X152046326Y-103736479D01*
X151792295Y-103566741D01*
X151576259Y-103350705D01*
X151406521Y-103096674D01*
X151289604Y-102814410D01*
X151230000Y-102514760D01*
X151230000Y-102209240D01*
X151289604Y-101909590D01*
X151406521Y-101627326D01*
X151576259Y-101373295D01*
X151792295Y-101157259D01*
X152046326Y-100987521D01*
X152328590Y-100870604D01*
X152440936Y-100848257D01*
X152628238Y-100811000D01*
X152933762Y-100811000D01*
X153121064Y-100848257D01*
X153121064Y-100848257D01*
G37*
G36*
X98384064Y-100848257D02*
X98496410Y-100870604D01*
X98778674Y-100987521D01*
X99032705Y-101157259D01*
X99248741Y-101373295D01*
X99418479Y-101627326D01*
X99535396Y-101909590D01*
X99595000Y-102209240D01*
X99595000Y-102514760D01*
X99535396Y-102814410D01*
X99418479Y-103096674D01*
X99248741Y-103350705D01*
X99032705Y-103566741D01*
X98778674Y-103736479D01*
X98496410Y-103853396D01*
X98396527Y-103873264D01*
X98196762Y-103913000D01*
X97891238Y-103913000D01*
X97691473Y-103873264D01*
X97591590Y-103853396D01*
X97309326Y-103736479D01*
X97055295Y-103566741D01*
X96839259Y-103350705D01*
X96669521Y-103096674D01*
X96552604Y-102814410D01*
X96493000Y-102514760D01*
X96493000Y-102209240D01*
X96552604Y-101909590D01*
X96669521Y-101627326D01*
X96839259Y-101373295D01*
X97055295Y-101157259D01*
X97309326Y-100987521D01*
X97591590Y-100870604D01*
X97703936Y-100848257D01*
X97891238Y-100811000D01*
X98196762Y-100811000D01*
X98384064Y-100848257D01*
X98384064Y-100848257D01*
G37*
G36*
X147557142Y-102088242D02*
X147705102Y-102149530D01*
X147838258Y-102238502D01*
X147951498Y-102351742D01*
X148040470Y-102484898D01*
X148101758Y-102632858D01*
X148133000Y-102789925D01*
X148133000Y-102950075D01*
X148101758Y-103107142D01*
X148040470Y-103255102D01*
X147951498Y-103388258D01*
X147838258Y-103501498D01*
X147705102Y-103590470D01*
X147557142Y-103651758D01*
X147400075Y-103683000D01*
X147239925Y-103683000D01*
X147082858Y-103651758D01*
X146934898Y-103590470D01*
X146801742Y-103501498D01*
X146688502Y-103388258D01*
X146599530Y-103255102D01*
X146538242Y-103107142D01*
X146507000Y-102950075D01*
X146507000Y-102789925D01*
X146538242Y-102632858D01*
X146599530Y-102484898D01*
X146688502Y-102351742D01*
X146801742Y-102238502D01*
X146934898Y-102149530D01*
X147082858Y-102088242D01*
X147239925Y-102057000D01*
X147400075Y-102057000D01*
X147557142Y-102088242D01*
X147557142Y-102088242D01*
G37*
G36*
X132317142Y-102088242D02*
X132465102Y-102149530D01*
X132598258Y-102238502D01*
X132711498Y-102351742D01*
X132800470Y-102484898D01*
X132861758Y-102632858D01*
X132893000Y-102789925D01*
X132893000Y-102950075D01*
X132861758Y-103107142D01*
X132800470Y-103255102D01*
X132711498Y-103388258D01*
X132598258Y-103501498D01*
X132465102Y-103590470D01*
X132317142Y-103651758D01*
X132160075Y-103683000D01*
X131999925Y-103683000D01*
X131842858Y-103651758D01*
X131694898Y-103590470D01*
X131561742Y-103501498D01*
X131448502Y-103388258D01*
X131359530Y-103255102D01*
X131298242Y-103107142D01*
X131267000Y-102950075D01*
X131267000Y-102789925D01*
X131298242Y-102632858D01*
X131359530Y-102484898D01*
X131448502Y-102351742D01*
X131561742Y-102238502D01*
X131694898Y-102149530D01*
X131842858Y-102088242D01*
X131999925Y-102057000D01*
X132160075Y-102057000D01*
X132317142Y-102088242D01*
X132317142Y-102088242D01*
G37*
G36*
X120772988Y-99331304D02*
X120942710Y-99365063D01*
X121125336Y-99440709D01*
X121289694Y-99550530D01*
X121429470Y-99690306D01*
X121539291Y-99854664D01*
X121614937Y-100037290D01*
X121653500Y-100231164D01*
X121653500Y-100428836D01*
X121614937Y-100622710D01*
X121539291Y-100805336D01*
X121429470Y-100969694D01*
X121289694Y-101109470D01*
X121125336Y-101219291D01*
X120942710Y-101294937D01*
X120772988Y-101328696D01*
X120748837Y-101333500D01*
X120551163Y-101333500D01*
X120527012Y-101328696D01*
X120357290Y-101294937D01*
X120174664Y-101219291D01*
X120010306Y-101109470D01*
X119870530Y-100969694D01*
X119760709Y-100805336D01*
X119685063Y-100622710D01*
X119646500Y-100428836D01*
X119646500Y-100231164D01*
X119685063Y-100037290D01*
X119760709Y-99854664D01*
X119870530Y-99690306D01*
X120010306Y-99550530D01*
X120174664Y-99440709D01*
X120357290Y-99365063D01*
X120527012Y-99331304D01*
X120551163Y-99326500D01*
X120748837Y-99326500D01*
X120772988Y-99331304D01*
X120772988Y-99331304D01*
G37*
G36*
X124193500Y-101333500D02*
X122186500Y-101333500D01*
X122186500Y-99326500D01*
X124193500Y-99326500D01*
X124193500Y-101333500D01*
X124193500Y-101333500D01*
G37*
G36*
X147557142Y-99548242D02*
X147705102Y-99609530D01*
X147772130Y-99654317D01*
X147825988Y-99690303D01*
X147838258Y-99698502D01*
X147951498Y-99811742D01*
X148040470Y-99944898D01*
X148101758Y-100092858D01*
X148133000Y-100249925D01*
X148133000Y-100410075D01*
X148101758Y-100567142D01*
X148054354Y-100681583D01*
X148040471Y-100715100D01*
X147951499Y-100848257D01*
X147838257Y-100961499D01*
X147799312Y-100987521D01*
X147705102Y-101050470D01*
X147557142Y-101111758D01*
X147400075Y-101143000D01*
X147239925Y-101143000D01*
X147082858Y-101111758D01*
X146934898Y-101050470D01*
X146840688Y-100987521D01*
X146801743Y-100961499D01*
X146688501Y-100848257D01*
X146599529Y-100715100D01*
X146585646Y-100681583D01*
X146538242Y-100567142D01*
X146507000Y-100410075D01*
X146507000Y-100249925D01*
X146538242Y-100092858D01*
X146599530Y-99944898D01*
X146688502Y-99811742D01*
X146801742Y-99698502D01*
X146814013Y-99690303D01*
X146867870Y-99654317D01*
X146934898Y-99609530D01*
X147082858Y-99548242D01*
X147239925Y-99517000D01*
X147400075Y-99517000D01*
X147557142Y-99548242D01*
X147557142Y-99548242D01*
G37*
G36*
X132317142Y-99548242D02*
X132465102Y-99609530D01*
X132532130Y-99654317D01*
X132585988Y-99690303D01*
X132598258Y-99698502D01*
X132711498Y-99811742D01*
X132800470Y-99944898D01*
X132861758Y-100092858D01*
X132893000Y-100249925D01*
X132893000Y-100410075D01*
X132861758Y-100567142D01*
X132814354Y-100681583D01*
X132800471Y-100715100D01*
X132711499Y-100848257D01*
X132598257Y-100961499D01*
X132559312Y-100987521D01*
X132465102Y-101050470D01*
X132317142Y-101111758D01*
X132160075Y-101143000D01*
X131999925Y-101143000D01*
X131842858Y-101111758D01*
X131694898Y-101050470D01*
X131600688Y-100987521D01*
X131561743Y-100961499D01*
X131448501Y-100848257D01*
X131359529Y-100715100D01*
X131345646Y-100681583D01*
X131298242Y-100567142D01*
X131267000Y-100410075D01*
X131267000Y-100249925D01*
X131298242Y-100092858D01*
X131359530Y-99944898D01*
X131448502Y-99811742D01*
X131561742Y-99698502D01*
X131574013Y-99690303D01*
X131627870Y-99654317D01*
X131694898Y-99609530D01*
X131842858Y-99548242D01*
X131999925Y-99517000D01*
X132160075Y-99517000D01*
X132317142Y-99548242D01*
X132317142Y-99548242D01*
G37*
G36*
X123312988Y-96791304D02*
X123482710Y-96825063D01*
X123665336Y-96900709D01*
X123829694Y-97010530D01*
X123969470Y-97150306D01*
X124079291Y-97314664D01*
X124154937Y-97497290D01*
X124193500Y-97691164D01*
X124193500Y-97888836D01*
X124154937Y-98082710D01*
X124079291Y-98265336D01*
X123969470Y-98429694D01*
X123829694Y-98569470D01*
X123665336Y-98679291D01*
X123482710Y-98754937D01*
X123312988Y-98788696D01*
X123288837Y-98793500D01*
X123091163Y-98793500D01*
X123067012Y-98788696D01*
X122897290Y-98754937D01*
X122714664Y-98679291D01*
X122550306Y-98569470D01*
X122410530Y-98429694D01*
X122300709Y-98265336D01*
X122225063Y-98082710D01*
X122186500Y-97888836D01*
X122186500Y-97691164D01*
X122225063Y-97497290D01*
X122300709Y-97314664D01*
X122410530Y-97150306D01*
X122550306Y-97010530D01*
X122714664Y-96900709D01*
X122897290Y-96825063D01*
X123067012Y-96791304D01*
X123091163Y-96786500D01*
X123288837Y-96786500D01*
X123312988Y-96791304D01*
X123312988Y-96791304D01*
G37*
G36*
X120772988Y-96791304D02*
X120942710Y-96825063D01*
X121125336Y-96900709D01*
X121289694Y-97010530D01*
X121429470Y-97150306D01*
X121539291Y-97314664D01*
X121614937Y-97497290D01*
X121653500Y-97691164D01*
X121653500Y-97888836D01*
X121614937Y-98082710D01*
X121539291Y-98265336D01*
X121429470Y-98429694D01*
X121289694Y-98569470D01*
X121125336Y-98679291D01*
X120942710Y-98754937D01*
X120772988Y-98788696D01*
X120748837Y-98793500D01*
X120551163Y-98793500D01*
X120527012Y-98788696D01*
X120357290Y-98754937D01*
X120174664Y-98679291D01*
X120010306Y-98569470D01*
X119870530Y-98429694D01*
X119760709Y-98265336D01*
X119685063Y-98082710D01*
X119646500Y-97888836D01*
X119646500Y-97691164D01*
X119685063Y-97497290D01*
X119760709Y-97314664D01*
X119870530Y-97150306D01*
X120010306Y-97010530D01*
X120174664Y-96900709D01*
X120357290Y-96825063D01*
X120527012Y-96791304D01*
X120551163Y-96786500D01*
X120748837Y-96786500D01*
X120772988Y-96791304D01*
X120772988Y-96791304D01*
G37*
G36*
X147557142Y-97008242D02*
X147705102Y-97069530D01*
X147772130Y-97114317D01*
X147825988Y-97150303D01*
X147838258Y-97158502D01*
X147951498Y-97271742D01*
X148040470Y-97404898D01*
X148101758Y-97552858D01*
X148133000Y-97709925D01*
X148133000Y-97870075D01*
X148101758Y-98027142D01*
X148054354Y-98141583D01*
X148040471Y-98175100D01*
X147951499Y-98308257D01*
X147838257Y-98421499D01*
X147772130Y-98465683D01*
X147705102Y-98510470D01*
X147557142Y-98571758D01*
X147400075Y-98603000D01*
X147239925Y-98603000D01*
X147082858Y-98571758D01*
X146934898Y-98510470D01*
X146867870Y-98465683D01*
X146801743Y-98421499D01*
X146688501Y-98308257D01*
X146599529Y-98175100D01*
X146585646Y-98141583D01*
X146538242Y-98027142D01*
X146507000Y-97870075D01*
X146507000Y-97709925D01*
X146538242Y-97552858D01*
X146599530Y-97404898D01*
X146688502Y-97271742D01*
X146801742Y-97158502D01*
X146814013Y-97150303D01*
X146867870Y-97114317D01*
X146934898Y-97069530D01*
X147082858Y-97008242D01*
X147239925Y-96977000D01*
X147400075Y-96977000D01*
X147557142Y-97008242D01*
X147557142Y-97008242D01*
G37*
G36*
X132317142Y-97008242D02*
X132465102Y-97069530D01*
X132532130Y-97114317D01*
X132585988Y-97150303D01*
X132598258Y-97158502D01*
X132711498Y-97271742D01*
X132800470Y-97404898D01*
X132861758Y-97552858D01*
X132893000Y-97709925D01*
X132893000Y-97870075D01*
X132861758Y-98027142D01*
X132814354Y-98141583D01*
X132800471Y-98175100D01*
X132711499Y-98308257D01*
X132598257Y-98421499D01*
X132532130Y-98465683D01*
X132465102Y-98510470D01*
X132317142Y-98571758D01*
X132160075Y-98603000D01*
X131999925Y-98603000D01*
X131842858Y-98571758D01*
X131694898Y-98510470D01*
X131627870Y-98465683D01*
X131561743Y-98421499D01*
X131448501Y-98308257D01*
X131359529Y-98175100D01*
X131345646Y-98141583D01*
X131298242Y-98027142D01*
X131267000Y-97870075D01*
X131267000Y-97709925D01*
X131298242Y-97552858D01*
X131359530Y-97404898D01*
X131448502Y-97271742D01*
X131561742Y-97158502D01*
X131574013Y-97150303D01*
X131627870Y-97114317D01*
X131694898Y-97069530D01*
X131842858Y-97008242D01*
X131999925Y-96977000D01*
X132160075Y-96977000D01*
X132317142Y-97008242D01*
X132317142Y-97008242D01*
G37*
G36*
X120772988Y-94251304D02*
X120942710Y-94285063D01*
X121125336Y-94360709D01*
X121289694Y-94470530D01*
X121429470Y-94610306D01*
X121539291Y-94774664D01*
X121614937Y-94957290D01*
X121653500Y-95151164D01*
X121653500Y-95348836D01*
X121614937Y-95542710D01*
X121539291Y-95725336D01*
X121429470Y-95889694D01*
X121289694Y-96029470D01*
X121125336Y-96139291D01*
X120942710Y-96214937D01*
X120772988Y-96248696D01*
X120748837Y-96253500D01*
X120551163Y-96253500D01*
X120527012Y-96248696D01*
X120357290Y-96214937D01*
X120174664Y-96139291D01*
X120010306Y-96029470D01*
X119870530Y-95889694D01*
X119760709Y-95725336D01*
X119685063Y-95542710D01*
X119646500Y-95348836D01*
X119646500Y-95151164D01*
X119685063Y-94957290D01*
X119760709Y-94774664D01*
X119870530Y-94610306D01*
X120010306Y-94470530D01*
X120174664Y-94360709D01*
X120357290Y-94285063D01*
X120527012Y-94251304D01*
X120551163Y-94246500D01*
X120748837Y-94246500D01*
X120772988Y-94251304D01*
X120772988Y-94251304D01*
G37*
G36*
X123312988Y-94251304D02*
X123482710Y-94285063D01*
X123665336Y-94360709D01*
X123829694Y-94470530D01*
X123969470Y-94610306D01*
X124079291Y-94774664D01*
X124154937Y-94957290D01*
X124193500Y-95151164D01*
X124193500Y-95348836D01*
X124154937Y-95542710D01*
X124079291Y-95725336D01*
X123969470Y-95889694D01*
X123829694Y-96029470D01*
X123665336Y-96139291D01*
X123482710Y-96214937D01*
X123312988Y-96248696D01*
X123288837Y-96253500D01*
X123091163Y-96253500D01*
X123067012Y-96248696D01*
X122897290Y-96214937D01*
X122714664Y-96139291D01*
X122550306Y-96029470D01*
X122410530Y-95889694D01*
X122300709Y-95725336D01*
X122225063Y-95542710D01*
X122186500Y-95348836D01*
X122186500Y-95151164D01*
X122225063Y-94957290D01*
X122300709Y-94774664D01*
X122410530Y-94610306D01*
X122550306Y-94470530D01*
X122714664Y-94360709D01*
X122897290Y-94285063D01*
X123067012Y-94251304D01*
X123091163Y-94246500D01*
X123288837Y-94246500D01*
X123312988Y-94251304D01*
X123312988Y-94251304D01*
G37*
G36*
X147557142Y-94468242D02*
X147705102Y-94529530D01*
X147772130Y-94574317D01*
X147825988Y-94610303D01*
X147838258Y-94618502D01*
X147951498Y-94731742D01*
X148040470Y-94864898D01*
X148101758Y-95012858D01*
X148133000Y-95169925D01*
X148133000Y-95330075D01*
X148101758Y-95487142D01*
X148054354Y-95601583D01*
X148040471Y-95635100D01*
X147951499Y-95768257D01*
X147838257Y-95881499D01*
X147772130Y-95925683D01*
X147705102Y-95970470D01*
X147557142Y-96031758D01*
X147400075Y-96063000D01*
X147239925Y-96063000D01*
X147082858Y-96031758D01*
X146934898Y-95970470D01*
X146867870Y-95925683D01*
X146801743Y-95881499D01*
X146688501Y-95768257D01*
X146599529Y-95635100D01*
X146585646Y-95601583D01*
X146538242Y-95487142D01*
X146507000Y-95330075D01*
X146507000Y-95169925D01*
X146538242Y-95012858D01*
X146599530Y-94864898D01*
X146688502Y-94731742D01*
X146801742Y-94618502D01*
X146814013Y-94610303D01*
X146867870Y-94574317D01*
X146934898Y-94529530D01*
X147082858Y-94468242D01*
X147239925Y-94437000D01*
X147400075Y-94437000D01*
X147557142Y-94468242D01*
X147557142Y-94468242D01*
G37*
G36*
X132317142Y-94468242D02*
X132465102Y-94529530D01*
X132532130Y-94574317D01*
X132585988Y-94610303D01*
X132598258Y-94618502D01*
X132711498Y-94731742D01*
X132800470Y-94864898D01*
X132861758Y-95012858D01*
X132893000Y-95169925D01*
X132893000Y-95330075D01*
X132861758Y-95487142D01*
X132814354Y-95601583D01*
X132800471Y-95635100D01*
X132711499Y-95768257D01*
X132598257Y-95881499D01*
X132532130Y-95925683D01*
X132465102Y-95970470D01*
X132317142Y-96031758D01*
X132160075Y-96063000D01*
X131999925Y-96063000D01*
X131842858Y-96031758D01*
X131694898Y-95970470D01*
X131627870Y-95925683D01*
X131561743Y-95881499D01*
X131448501Y-95768257D01*
X131359529Y-95635100D01*
X131345646Y-95601583D01*
X131298242Y-95487142D01*
X131267000Y-95330075D01*
X131267000Y-95169925D01*
X131298242Y-95012858D01*
X131359530Y-94864898D01*
X131448502Y-94731742D01*
X131561742Y-94618502D01*
X131574013Y-94610303D01*
X131627870Y-94574317D01*
X131694898Y-94529530D01*
X131842858Y-94468242D01*
X131999925Y-94437000D01*
X132160075Y-94437000D01*
X132317142Y-94468242D01*
X132317142Y-94468242D01*
G37*
G36*
X120772988Y-91711304D02*
X120942710Y-91745063D01*
X121125336Y-91820709D01*
X121289694Y-91930530D01*
X121429470Y-92070306D01*
X121539291Y-92234664D01*
X121614937Y-92417290D01*
X121653500Y-92611164D01*
X121653500Y-92808836D01*
X121614937Y-93002710D01*
X121539291Y-93185336D01*
X121429470Y-93349694D01*
X121289694Y-93489470D01*
X121125336Y-93599291D01*
X120942710Y-93674937D01*
X120772988Y-93708696D01*
X120748837Y-93713500D01*
X120551163Y-93713500D01*
X120527012Y-93708696D01*
X120357290Y-93674937D01*
X120174664Y-93599291D01*
X120010306Y-93489470D01*
X119870530Y-93349694D01*
X119760709Y-93185336D01*
X119685063Y-93002710D01*
X119646500Y-92808836D01*
X119646500Y-92611164D01*
X119685063Y-92417290D01*
X119760709Y-92234664D01*
X119870530Y-92070306D01*
X120010306Y-91930530D01*
X120174664Y-91820709D01*
X120357290Y-91745063D01*
X120527012Y-91711304D01*
X120551163Y-91706500D01*
X120748837Y-91706500D01*
X120772988Y-91711304D01*
X120772988Y-91711304D01*
G37*
G36*
X123312988Y-91711304D02*
X123482710Y-91745063D01*
X123665336Y-91820709D01*
X123829694Y-91930530D01*
X123969470Y-92070306D01*
X124079291Y-92234664D01*
X124154937Y-92417290D01*
X124193500Y-92611164D01*
X124193500Y-92808836D01*
X124154937Y-93002710D01*
X124079291Y-93185336D01*
X123969470Y-93349694D01*
X123829694Y-93489470D01*
X123665336Y-93599291D01*
X123482710Y-93674937D01*
X123312988Y-93708696D01*
X123288837Y-93713500D01*
X123091163Y-93713500D01*
X123067012Y-93708696D01*
X122897290Y-93674937D01*
X122714664Y-93599291D01*
X122550306Y-93489470D01*
X122410530Y-93349694D01*
X122300709Y-93185336D01*
X122225063Y-93002710D01*
X122186500Y-92808836D01*
X122186500Y-92611164D01*
X122225063Y-92417290D01*
X122300709Y-92234664D01*
X122410530Y-92070306D01*
X122550306Y-91930530D01*
X122714664Y-91820709D01*
X122897290Y-91745063D01*
X123067012Y-91711304D01*
X123091163Y-91706500D01*
X123288837Y-91706500D01*
X123312988Y-91711304D01*
X123312988Y-91711304D01*
G37*
G36*
X147557142Y-91928242D02*
X147705102Y-91989530D01*
X147772130Y-92034317D01*
X147825988Y-92070303D01*
X147838258Y-92078502D01*
X147951498Y-92191742D01*
X148040470Y-92324898D01*
X148101758Y-92472858D01*
X148133000Y-92629925D01*
X148133000Y-92790075D01*
X148101758Y-92947142D01*
X148054354Y-93061583D01*
X148040471Y-93095100D01*
X147951499Y-93228257D01*
X147838257Y-93341499D01*
X147772130Y-93385683D01*
X147705102Y-93430470D01*
X147557142Y-93491758D01*
X147400075Y-93523000D01*
X147239925Y-93523000D01*
X147082858Y-93491758D01*
X146934898Y-93430470D01*
X146867870Y-93385683D01*
X146801743Y-93341499D01*
X146688501Y-93228257D01*
X146599529Y-93095100D01*
X146585646Y-93061583D01*
X146538242Y-92947142D01*
X146507000Y-92790075D01*
X146507000Y-92629925D01*
X146538242Y-92472858D01*
X146599530Y-92324898D01*
X146688502Y-92191742D01*
X146801742Y-92078502D01*
X146814013Y-92070303D01*
X146867870Y-92034317D01*
X146934898Y-91989530D01*
X147082858Y-91928242D01*
X147239925Y-91897000D01*
X147400075Y-91897000D01*
X147557142Y-91928242D01*
X147557142Y-91928242D01*
G37*
G36*
X132317142Y-91928242D02*
X132465102Y-91989530D01*
X132532130Y-92034317D01*
X132585988Y-92070303D01*
X132598258Y-92078502D01*
X132711498Y-92191742D01*
X132800470Y-92324898D01*
X132861758Y-92472858D01*
X132893000Y-92629925D01*
X132893000Y-92790075D01*
X132861758Y-92947142D01*
X132814354Y-93061583D01*
X132800471Y-93095100D01*
X132711499Y-93228257D01*
X132598257Y-93341499D01*
X132532130Y-93385683D01*
X132465102Y-93430470D01*
X132317142Y-93491758D01*
X132160075Y-93523000D01*
X131999925Y-93523000D01*
X131842858Y-93491758D01*
X131694898Y-93430470D01*
X131627870Y-93385683D01*
X131561743Y-93341499D01*
X131448501Y-93228257D01*
X131359529Y-93095100D01*
X131345646Y-93061583D01*
X131298242Y-92947142D01*
X131267000Y-92790075D01*
X131267000Y-92629925D01*
X131298242Y-92472858D01*
X131359530Y-92324898D01*
X131448502Y-92191742D01*
X131561742Y-92078502D01*
X131574013Y-92070303D01*
X131627870Y-92034317D01*
X131694898Y-91989530D01*
X131842858Y-91928242D01*
X131999925Y-91897000D01*
X132160075Y-91897000D01*
X132317142Y-91928242D01*
X132317142Y-91928242D01*
G37*
G36*
X120772988Y-89171304D02*
X120942710Y-89205063D01*
X121125336Y-89280709D01*
X121289694Y-89390530D01*
X121429470Y-89530306D01*
X121539291Y-89694664D01*
X121614937Y-89877290D01*
X121653500Y-90071164D01*
X121653500Y-90268836D01*
X121614937Y-90462710D01*
X121539291Y-90645336D01*
X121429470Y-90809694D01*
X121289694Y-90949470D01*
X121125336Y-91059291D01*
X120942710Y-91134937D01*
X120772988Y-91168696D01*
X120748837Y-91173500D01*
X120551163Y-91173500D01*
X120527012Y-91168696D01*
X120357290Y-91134937D01*
X120174664Y-91059291D01*
X120010306Y-90949470D01*
X119870530Y-90809694D01*
X119760709Y-90645336D01*
X119685063Y-90462710D01*
X119646500Y-90268836D01*
X119646500Y-90071164D01*
X119685063Y-89877290D01*
X119760709Y-89694664D01*
X119870530Y-89530306D01*
X120010306Y-89390530D01*
X120174664Y-89280709D01*
X120357290Y-89205063D01*
X120527012Y-89171304D01*
X120551163Y-89166500D01*
X120748837Y-89166500D01*
X120772988Y-89171304D01*
X120772988Y-89171304D01*
G37*
G36*
X123312988Y-89171304D02*
X123482710Y-89205063D01*
X123665336Y-89280709D01*
X123829694Y-89390530D01*
X123969470Y-89530306D01*
X124079291Y-89694664D01*
X124154937Y-89877290D01*
X124193500Y-90071164D01*
X124193500Y-90268836D01*
X124154937Y-90462710D01*
X124079291Y-90645336D01*
X123969470Y-90809694D01*
X123829694Y-90949470D01*
X123665336Y-91059291D01*
X123482710Y-91134937D01*
X123312988Y-91168696D01*
X123288837Y-91173500D01*
X123091163Y-91173500D01*
X123067012Y-91168696D01*
X122897290Y-91134937D01*
X122714664Y-91059291D01*
X122550306Y-90949470D01*
X122410530Y-90809694D01*
X122300709Y-90645336D01*
X122225063Y-90462710D01*
X122186500Y-90268836D01*
X122186500Y-90071164D01*
X122225063Y-89877290D01*
X122300709Y-89694664D01*
X122410530Y-89530306D01*
X122550306Y-89390530D01*
X122714664Y-89280709D01*
X122897290Y-89205063D01*
X123067012Y-89171304D01*
X123091163Y-89166500D01*
X123288837Y-89166500D01*
X123312988Y-89171304D01*
X123312988Y-89171304D01*
G37*
G36*
X147557142Y-89388242D02*
X147705102Y-89449530D01*
X147772130Y-89494317D01*
X147825988Y-89530303D01*
X147838258Y-89538502D01*
X147951498Y-89651742D01*
X148040470Y-89784898D01*
X148101758Y-89932858D01*
X148133000Y-90089925D01*
X148133000Y-90250075D01*
X148101758Y-90407142D01*
X148054354Y-90521583D01*
X148040471Y-90555100D01*
X147951499Y-90688257D01*
X147838257Y-90801499D01*
X147772130Y-90845683D01*
X147705102Y-90890470D01*
X147557142Y-90951758D01*
X147400075Y-90983000D01*
X147239925Y-90983000D01*
X147082858Y-90951758D01*
X146934898Y-90890470D01*
X146867870Y-90845683D01*
X146801743Y-90801499D01*
X146688501Y-90688257D01*
X146599529Y-90555100D01*
X146585646Y-90521583D01*
X146538242Y-90407142D01*
X146507000Y-90250075D01*
X146507000Y-90089925D01*
X146538242Y-89932858D01*
X146599530Y-89784898D01*
X146688502Y-89651742D01*
X146801742Y-89538502D01*
X146814013Y-89530303D01*
X146867870Y-89494317D01*
X146934898Y-89449530D01*
X147082858Y-89388242D01*
X147239925Y-89357000D01*
X147400075Y-89357000D01*
X147557142Y-89388242D01*
X147557142Y-89388242D01*
G37*
G36*
X132317142Y-89388242D02*
X132465102Y-89449530D01*
X132532130Y-89494317D01*
X132585988Y-89530303D01*
X132598258Y-89538502D01*
X132711498Y-89651742D01*
X132800470Y-89784898D01*
X132861758Y-89932858D01*
X132893000Y-90089925D01*
X132893000Y-90250075D01*
X132861758Y-90407142D01*
X132814354Y-90521583D01*
X132800471Y-90555100D01*
X132711499Y-90688257D01*
X132598257Y-90801499D01*
X132532130Y-90845683D01*
X132465102Y-90890470D01*
X132317142Y-90951758D01*
X132160075Y-90983000D01*
X131999925Y-90983000D01*
X131842858Y-90951758D01*
X131694898Y-90890470D01*
X131627870Y-90845683D01*
X131561743Y-90801499D01*
X131448501Y-90688257D01*
X131359529Y-90555100D01*
X131345646Y-90521583D01*
X131298242Y-90407142D01*
X131267000Y-90250075D01*
X131267000Y-90089925D01*
X131298242Y-89932858D01*
X131359530Y-89784898D01*
X131448502Y-89651742D01*
X131561742Y-89538502D01*
X131574013Y-89530303D01*
X131627870Y-89494317D01*
X131694898Y-89449530D01*
X131842858Y-89388242D01*
X131999925Y-89357000D01*
X132160075Y-89357000D01*
X132317142Y-89388242D01*
X132317142Y-89388242D01*
G37*
G36*
X147557142Y-86848242D02*
X147705102Y-86909530D01*
X147838258Y-86998502D01*
X147951498Y-87111742D01*
X148040470Y-87244898D01*
X148101758Y-87392858D01*
X148133000Y-87549925D01*
X148133000Y-87710075D01*
X148101758Y-87867142D01*
X148040470Y-88015102D01*
X147951498Y-88148258D01*
X147838258Y-88261498D01*
X147705102Y-88350470D01*
X147557142Y-88411758D01*
X147400075Y-88443000D01*
X147239925Y-88443000D01*
X147082858Y-88411758D01*
X146934898Y-88350470D01*
X146801742Y-88261498D01*
X146688502Y-88148258D01*
X146599530Y-88015102D01*
X146538242Y-87867142D01*
X146507000Y-87710075D01*
X146507000Y-87549925D01*
X146538242Y-87392858D01*
X146599530Y-87244898D01*
X146688502Y-87111742D01*
X146801742Y-86998502D01*
X146934898Y-86909530D01*
X147082858Y-86848242D01*
X147239925Y-86817000D01*
X147400075Y-86817000D01*
X147557142Y-86848242D01*
X147557142Y-86848242D01*
G37*
G36*
X132317142Y-86848242D02*
X132465102Y-86909530D01*
X132598258Y-86998502D01*
X132711498Y-87111742D01*
X132800470Y-87244898D01*
X132861758Y-87392858D01*
X132893000Y-87549925D01*
X132893000Y-87710075D01*
X132861758Y-87867142D01*
X132800470Y-88015102D01*
X132711498Y-88148258D01*
X132598258Y-88261498D01*
X132465102Y-88350470D01*
X132317142Y-88411758D01*
X132160075Y-88443000D01*
X131999925Y-88443000D01*
X131842858Y-88411758D01*
X131694898Y-88350470D01*
X131561742Y-88261498D01*
X131448502Y-88148258D01*
X131359530Y-88015102D01*
X131298242Y-87867142D01*
X131267000Y-87710075D01*
X131267000Y-87549925D01*
X131298242Y-87392858D01*
X131359530Y-87244898D01*
X131448502Y-87111742D01*
X131561742Y-86998502D01*
X131694898Y-86909530D01*
X131842858Y-86848242D01*
X131999925Y-86817000D01*
X132160075Y-86817000D01*
X132317142Y-86848242D01*
X132317142Y-86848242D01*
G37*
G36*
X147557142Y-84308242D02*
X147705102Y-84369530D01*
X147838258Y-84458502D01*
X147951498Y-84571742D01*
X148040470Y-84704898D01*
X148101758Y-84852858D01*
X148133000Y-85009925D01*
X148133000Y-85170075D01*
X148101758Y-85327142D01*
X148040470Y-85475102D01*
X147951498Y-85608258D01*
X147838258Y-85721498D01*
X147705102Y-85810470D01*
X147557142Y-85871758D01*
X147400075Y-85903000D01*
X147239925Y-85903000D01*
X147082858Y-85871758D01*
X146934898Y-85810470D01*
X146801742Y-85721498D01*
X146688502Y-85608258D01*
X146599530Y-85475102D01*
X146538242Y-85327142D01*
X146507000Y-85170075D01*
X146507000Y-85009925D01*
X146538242Y-84852858D01*
X146599530Y-84704898D01*
X146688502Y-84571742D01*
X146801742Y-84458502D01*
X146934898Y-84369530D01*
X147082858Y-84308242D01*
X147239925Y-84277000D01*
X147400075Y-84277000D01*
X147557142Y-84308242D01*
X147557142Y-84308242D01*
G37*
G36*
X132317142Y-84308242D02*
X132465102Y-84369530D01*
X132598258Y-84458502D01*
X132711498Y-84571742D01*
X132800470Y-84704898D01*
X132861758Y-84852858D01*
X132893000Y-85009925D01*
X132893000Y-85170075D01*
X132861758Y-85327142D01*
X132800470Y-85475102D01*
X132711498Y-85608258D01*
X132598258Y-85721498D01*
X132465102Y-85810470D01*
X132317142Y-85871758D01*
X132160075Y-85903000D01*
X131999925Y-85903000D01*
X131842858Y-85871758D01*
X131694898Y-85810470D01*
X131561742Y-85721498D01*
X131448502Y-85608258D01*
X131359530Y-85475102D01*
X131298242Y-85327142D01*
X131267000Y-85170075D01*
X131267000Y-85009925D01*
X131298242Y-84852858D01*
X131359530Y-84704898D01*
X131448502Y-84571742D01*
X131561742Y-84458502D01*
X131694898Y-84369530D01*
X131842858Y-84308242D01*
X131999925Y-84277000D01*
X132160075Y-84277000D01*
X132317142Y-84308242D01*
X132317142Y-84308242D01*
G37*
G36*
X147557142Y-81768242D02*
X147705102Y-81829530D01*
X147838258Y-81918502D01*
X147951498Y-82031742D01*
X148040470Y-82164898D01*
X148101758Y-82312858D01*
X148133000Y-82469925D01*
X148133000Y-82630075D01*
X148101758Y-82787142D01*
X148040470Y-82935102D01*
X147951498Y-83068258D01*
X147838258Y-83181498D01*
X147705102Y-83270470D01*
X147557142Y-83331758D01*
X147400075Y-83363000D01*
X147239925Y-83363000D01*
X147082858Y-83331758D01*
X146934898Y-83270470D01*
X146801742Y-83181498D01*
X146688502Y-83068258D01*
X146599530Y-82935102D01*
X146538242Y-82787142D01*
X146507000Y-82630075D01*
X146507000Y-82469925D01*
X146538242Y-82312858D01*
X146599530Y-82164898D01*
X146688502Y-82031742D01*
X146801742Y-81918502D01*
X146934898Y-81829530D01*
X147082858Y-81768242D01*
X147239925Y-81737000D01*
X147400075Y-81737000D01*
X147557142Y-81768242D01*
X147557142Y-81768242D01*
G37*
G36*
X132317142Y-81768242D02*
X132465102Y-81829530D01*
X132598258Y-81918502D01*
X132711498Y-82031742D01*
X132800470Y-82164898D01*
X132861758Y-82312858D01*
X132893000Y-82469925D01*
X132893000Y-82630075D01*
X132861758Y-82787142D01*
X132800470Y-82935102D01*
X132711498Y-83068258D01*
X132598258Y-83181498D01*
X132465102Y-83270470D01*
X132317142Y-83331758D01*
X132160075Y-83363000D01*
X131999925Y-83363000D01*
X131842858Y-83331758D01*
X131694898Y-83270470D01*
X131561742Y-83181498D01*
X131448502Y-83068258D01*
X131359530Y-82935102D01*
X131298242Y-82787142D01*
X131267000Y-82630075D01*
X131267000Y-82469925D01*
X131298242Y-82312858D01*
X131359530Y-82164898D01*
X131448502Y-82031742D01*
X131561742Y-81918502D01*
X131694898Y-81829530D01*
X131842858Y-81768242D01*
X131999925Y-81737000D01*
X132160075Y-81737000D01*
X132317142Y-81768242D01*
X132317142Y-81768242D01*
G37*
G36*
X147557142Y-79228242D02*
X147671583Y-79275646D01*
X147688085Y-79282481D01*
X147705102Y-79289530D01*
X147772130Y-79334317D01*
X147838257Y-79378501D01*
X147951499Y-79491743D01*
X147991093Y-79551000D01*
X148040470Y-79624898D01*
X148101758Y-79772858D01*
X148133000Y-79929925D01*
X148133000Y-80090075D01*
X148101758Y-80247142D01*
X148040470Y-80395102D01*
X147951498Y-80528258D01*
X147838258Y-80641498D01*
X147705102Y-80730470D01*
X147557142Y-80791758D01*
X147400075Y-80823000D01*
X147239925Y-80823000D01*
X147082858Y-80791758D01*
X146934898Y-80730470D01*
X146801742Y-80641498D01*
X146688502Y-80528258D01*
X146599530Y-80395102D01*
X146538242Y-80247142D01*
X146507000Y-80090075D01*
X146507000Y-79929925D01*
X146538242Y-79772858D01*
X146599530Y-79624898D01*
X146648907Y-79551000D01*
X146688501Y-79491743D01*
X146801743Y-79378501D01*
X146867870Y-79334317D01*
X146934898Y-79289530D01*
X146951916Y-79282481D01*
X146968417Y-79275646D01*
X147082858Y-79228242D01*
X147239925Y-79197000D01*
X147400075Y-79197000D01*
X147557142Y-79228242D01*
X147557142Y-79228242D01*
G37*
G36*
X132317142Y-79228242D02*
X132431583Y-79275646D01*
X132448085Y-79282481D01*
X132465102Y-79289530D01*
X132532130Y-79334317D01*
X132598257Y-79378501D01*
X132711499Y-79491743D01*
X132751093Y-79551000D01*
X132800470Y-79624898D01*
X132861758Y-79772858D01*
X132893000Y-79929925D01*
X132893000Y-80090075D01*
X132861758Y-80247142D01*
X132800470Y-80395102D01*
X132711498Y-80528258D01*
X132598258Y-80641498D01*
X132465102Y-80730470D01*
X132317142Y-80791758D01*
X132160075Y-80823000D01*
X131999925Y-80823000D01*
X131842858Y-80791758D01*
X131694898Y-80730470D01*
X131561742Y-80641498D01*
X131448502Y-80528258D01*
X131359530Y-80395102D01*
X131298242Y-80247142D01*
X131267000Y-80090075D01*
X131267000Y-79929925D01*
X131298242Y-79772858D01*
X131359530Y-79624898D01*
X131408907Y-79551000D01*
X131448501Y-79491743D01*
X131561743Y-79378501D01*
X131627870Y-79334317D01*
X131694898Y-79289530D01*
X131711916Y-79282481D01*
X131728417Y-79275646D01*
X131842858Y-79228242D01*
X131999925Y-79197000D01*
X132160075Y-79197000D01*
X132317142Y-79228242D01*
X132317142Y-79228242D01*
G37*
G36*
X115818228Y-77921703D02*
X115973100Y-77985853D01*
X116112481Y-78078985D01*
X116231015Y-78197519D01*
X116324147Y-78336900D01*
X116388297Y-78491772D01*
X116421000Y-78656184D01*
X116421000Y-78823816D01*
X116388297Y-78988228D01*
X116324147Y-79143100D01*
X116231015Y-79282481D01*
X116112481Y-79401015D01*
X115973100Y-79494147D01*
X115818228Y-79558297D01*
X115653816Y-79591000D01*
X115486184Y-79591000D01*
X115321772Y-79558297D01*
X115166900Y-79494147D01*
X115027519Y-79401015D01*
X114908985Y-79282481D01*
X114815853Y-79143100D01*
X114751703Y-78988228D01*
X114719000Y-78823816D01*
X114719000Y-78656184D01*
X114751703Y-78491772D01*
X114815853Y-78336900D01*
X114908985Y-78197519D01*
X115027519Y-78078985D01*
X115166900Y-77985853D01*
X115321772Y-77921703D01*
X115486184Y-77889000D01*
X115653816Y-77889000D01*
X115818228Y-77921703D01*
X115818228Y-77921703D01*
G37*
G36*
X109468228Y-77881703D02*
X109623100Y-77945853D01*
X109762481Y-78038985D01*
X109881015Y-78157519D01*
X109974147Y-78296900D01*
X110038297Y-78451772D01*
X110071000Y-78616184D01*
X110071000Y-78783816D01*
X110038297Y-78948228D01*
X109974147Y-79103100D01*
X109881015Y-79242481D01*
X109762481Y-79361015D01*
X109623100Y-79454147D01*
X109468228Y-79518297D01*
X109303816Y-79551000D01*
X109136184Y-79551000D01*
X108971772Y-79518297D01*
X108816900Y-79454147D01*
X108677519Y-79361015D01*
X108558985Y-79242481D01*
X108465853Y-79103100D01*
X108401703Y-78948228D01*
X108369000Y-78783816D01*
X108369000Y-78616184D01*
X108401703Y-78451772D01*
X108465853Y-78296900D01*
X108558985Y-78157519D01*
X108677519Y-78038985D01*
X108816900Y-77945853D01*
X108971772Y-77881703D01*
X109136184Y-77849000D01*
X109303816Y-77849000D01*
X109468228Y-77881703D01*
X109468228Y-77881703D01*
G37*
G36*
X147557142Y-76688242D02*
X147705102Y-76749530D01*
X147747200Y-76777659D01*
X147838257Y-76838501D01*
X147951499Y-76951743D01*
X147979832Y-76994147D01*
X148040470Y-77084898D01*
X148101758Y-77232858D01*
X148133000Y-77389925D01*
X148133000Y-77550075D01*
X148101758Y-77707142D01*
X148054354Y-77821583D01*
X148040471Y-77855100D01*
X147953105Y-77985854D01*
X147951498Y-77988258D01*
X147838258Y-78101498D01*
X147705102Y-78190470D01*
X147705101Y-78190471D01*
X147705100Y-78190471D01*
X147671583Y-78204354D01*
X147557142Y-78251758D01*
X147400075Y-78283000D01*
X147239925Y-78283000D01*
X147082858Y-78251758D01*
X146968417Y-78204354D01*
X146934900Y-78190471D01*
X146934899Y-78190471D01*
X146934898Y-78190470D01*
X146801742Y-78101498D01*
X146688502Y-77988258D01*
X146686896Y-77985854D01*
X146599529Y-77855100D01*
X146585646Y-77821583D01*
X146538242Y-77707142D01*
X146507000Y-77550075D01*
X146507000Y-77389925D01*
X146538242Y-77232858D01*
X146599530Y-77084898D01*
X146660168Y-76994147D01*
X146688501Y-76951743D01*
X146801743Y-76838501D01*
X146892800Y-76777659D01*
X146934898Y-76749530D01*
X147082858Y-76688242D01*
X147239925Y-76657000D01*
X147400075Y-76657000D01*
X147557142Y-76688242D01*
X147557142Y-76688242D01*
G37*
G36*
X132317142Y-76688242D02*
X132465102Y-76749530D01*
X132507200Y-76777659D01*
X132598257Y-76838501D01*
X132711499Y-76951743D01*
X132739832Y-76994147D01*
X132800470Y-77084898D01*
X132861758Y-77232858D01*
X132893000Y-77389925D01*
X132893000Y-77550075D01*
X132861758Y-77707142D01*
X132814354Y-77821583D01*
X132800471Y-77855100D01*
X132713105Y-77985854D01*
X132711498Y-77988258D01*
X132598258Y-78101498D01*
X132465102Y-78190470D01*
X132465101Y-78190471D01*
X132465100Y-78190471D01*
X132431583Y-78204354D01*
X132317142Y-78251758D01*
X132160075Y-78283000D01*
X131999925Y-78283000D01*
X131842858Y-78251758D01*
X131728417Y-78204354D01*
X131694900Y-78190471D01*
X131694899Y-78190471D01*
X131694898Y-78190470D01*
X131561742Y-78101498D01*
X131448502Y-77988258D01*
X131446896Y-77985854D01*
X131359529Y-77855100D01*
X131345646Y-77821583D01*
X131298242Y-77707142D01*
X131267000Y-77550075D01*
X131267000Y-77389925D01*
X131298242Y-77232858D01*
X131359530Y-77084898D01*
X131420168Y-76994147D01*
X131448501Y-76951743D01*
X131561743Y-76838501D01*
X131652800Y-76777659D01*
X131694898Y-76749530D01*
X131842858Y-76688242D01*
X131999925Y-76657000D01*
X132160075Y-76657000D01*
X132317142Y-76688242D01*
X132317142Y-76688242D01*
G37*
G36*
X115818228Y-75421703D02*
X115973100Y-75485853D01*
X116112481Y-75578985D01*
X116231015Y-75697519D01*
X116324147Y-75836900D01*
X116388297Y-75991772D01*
X116421000Y-76156184D01*
X116421000Y-76323816D01*
X116388297Y-76488228D01*
X116324147Y-76643100D01*
X116231015Y-76782481D01*
X116112481Y-76901015D01*
X115973100Y-76994147D01*
X115818228Y-77058297D01*
X115653816Y-77091000D01*
X115486184Y-77091000D01*
X115321772Y-77058297D01*
X115166900Y-76994147D01*
X115027519Y-76901015D01*
X114908985Y-76782481D01*
X114815853Y-76643100D01*
X114751703Y-76488228D01*
X114719000Y-76323816D01*
X114719000Y-76156184D01*
X114751703Y-75991772D01*
X114815853Y-75836900D01*
X114908985Y-75697519D01*
X115027519Y-75578985D01*
X115166900Y-75485853D01*
X115321772Y-75421703D01*
X115486184Y-75389000D01*
X115653816Y-75389000D01*
X115818228Y-75421703D01*
X115818228Y-75421703D01*
G37*
G36*
X110071000Y-77051000D02*
X108369000Y-77051000D01*
X108369000Y-75349000D01*
X110071000Y-75349000D01*
X110071000Y-77051000D01*
X110071000Y-77051000D01*
G37*
G36*
X119948240Y-75389000D02*
X120047376Y-75398764D01*
X120122996Y-75421703D01*
X120200628Y-75445252D01*
X120341865Y-75520745D01*
X120465659Y-75622341D01*
X120567255Y-75746135D01*
X120642748Y-75887372D01*
X120642748Y-75887373D01*
X120689236Y-76040624D01*
X120704933Y-76200000D01*
X120689236Y-76359376D01*
X120658244Y-76461543D01*
X120642748Y-76512628D01*
X120567255Y-76653865D01*
X120465659Y-76777659D01*
X120341865Y-76879255D01*
X120200628Y-76954748D01*
X120149543Y-76970244D01*
X120047376Y-77001236D01*
X119967747Y-77009079D01*
X119927934Y-77013000D01*
X119086066Y-77013000D01*
X119046253Y-77009079D01*
X118966624Y-77001236D01*
X118864457Y-76970244D01*
X118813372Y-76954748D01*
X118672135Y-76879255D01*
X118548341Y-76777659D01*
X118446745Y-76653865D01*
X118371252Y-76512628D01*
X118355756Y-76461543D01*
X118324764Y-76359376D01*
X118309067Y-76200000D01*
X118324764Y-76040624D01*
X118371252Y-75887373D01*
X118371252Y-75887372D01*
X118446745Y-75746135D01*
X118548341Y-75622341D01*
X118672135Y-75520745D01*
X118813372Y-75445252D01*
X118891004Y-75421703D01*
X118966624Y-75398764D01*
X119065760Y-75389000D01*
X119086066Y-75387000D01*
X119927934Y-75387000D01*
X119948240Y-75389000D01*
X119948240Y-75389000D01*
G37*
G36*
X103311240Y-75389000D02*
X103410376Y-75398764D01*
X103485996Y-75421703D01*
X103563628Y-75445252D01*
X103704865Y-75520745D01*
X103828659Y-75622341D01*
X103930255Y-75746135D01*
X104005748Y-75887372D01*
X104005748Y-75887373D01*
X104052236Y-76040624D01*
X104067933Y-76200000D01*
X104052236Y-76359376D01*
X104021244Y-76461543D01*
X104005748Y-76512628D01*
X103930255Y-76653865D01*
X103828659Y-76777659D01*
X103704865Y-76879255D01*
X103563628Y-76954748D01*
X103512543Y-76970244D01*
X103410376Y-77001236D01*
X103330747Y-77009079D01*
X103290934Y-77013000D01*
X102449066Y-77013000D01*
X102409253Y-77009079D01*
X102329624Y-77001236D01*
X102227457Y-76970244D01*
X102176372Y-76954748D01*
X102035135Y-76879255D01*
X101911341Y-76777659D01*
X101809745Y-76653865D01*
X101734252Y-76512628D01*
X101718756Y-76461543D01*
X101687764Y-76359376D01*
X101672067Y-76200000D01*
X101687764Y-76040624D01*
X101734252Y-75887373D01*
X101734252Y-75887372D01*
X101809745Y-75746135D01*
X101911341Y-75622341D01*
X102035135Y-75520745D01*
X102176372Y-75445252D01*
X102254004Y-75421703D01*
X102329624Y-75398764D01*
X102428760Y-75389000D01*
X102449066Y-75387000D01*
X103290934Y-75387000D01*
X103311240Y-75389000D01*
X103311240Y-75389000D01*
G37*
M02*
