G04 #@! TF.GenerationSoftware,KiCad,Pcbnew,(5.0.1-3-g963ef8bb5)*
G04 #@! TF.CreationDate,2019-02-08T10:03:46-05:00*
G04 #@! TF.ProjectId,STMaytal32v02,53544D617974616C33327630322E6B69,rev?*
G04 #@! TF.SameCoordinates,Original*
G04 #@! TF.FileFunction,Copper,L1,Top,Signal*
G04 #@! TF.FilePolarity,Positive*
%FSLAX46Y46*%
G04 Gerber Fmt 4.6, Leading zero omitted, Abs format (unit mm)*
G04 Created by KiCad (PCBNEW (5.0.1-3-g963ef8bb5)) date Friday, February 08, 2019 at 10:03:46 AM*
%MOMM*%
%LPD*%
G01*
G04 APERTURE LIST*
G04 #@! TA.AperFunction,ComponentPad*
%ADD10C,1.905000*%
G04 #@! TD*
G04 #@! TA.AperFunction,ComponentPad*
%ADD11R,1.905000X1.905000*%
G04 #@! TD*
G04 #@! TA.AperFunction,ComponentPad*
%ADD12C,1.600000*%
G04 #@! TD*
G04 #@! TA.AperFunction,ComponentPad*
%ADD13R,1.600000X1.600000*%
G04 #@! TD*
G04 #@! TA.AperFunction,ComponentPad*
%ADD14O,1.600000X1.600000*%
G04 #@! TD*
G04 #@! TA.AperFunction,ComponentPad*
%ADD15C,1.524000*%
G04 #@! TD*
G04 #@! TA.AperFunction,ComponentPad*
%ADD16O,2.540000X2.032000*%
G04 #@! TD*
G04 #@! TA.AperFunction,ComponentPad*
%ADD17O,1.800000X1.800000*%
G04 #@! TD*
G04 #@! TA.AperFunction,ComponentPad*
%ADD18R,1.800000X1.800000*%
G04 #@! TD*
G04 #@! TA.AperFunction,ComponentPad*
%ADD19R,1.700000X1.700000*%
G04 #@! TD*
G04 #@! TA.AperFunction,ComponentPad*
%ADD20O,1.700000X1.700000*%
G04 #@! TD*
G04 #@! TA.AperFunction,ComponentPad*
%ADD21O,2.286000X1.524000*%
G04 #@! TD*
G04 #@! TA.AperFunction,Conductor*
%ADD22C,0.250000*%
G04 #@! TD*
G04 #@! TA.AperFunction,Conductor*
%ADD23C,0.254000*%
G04 #@! TD*
G04 APERTURE END LIST*
D10*
G04 #@! TO.P,J2,2*
G04 #@! TO.N,EN*
X120650000Y-100330000D03*
G04 #@! TO.P,J2,4*
G04 #@! TO.N,G1-PSTAT*
X120650000Y-97790000D03*
G04 #@! TO.P,J2,6*
G04 #@! TO.N,RST*
X120650000Y-95250000D03*
G04 #@! TO.P,J2,8*
G04 #@! TO.N,MOSI-KEY*
X120650000Y-92710000D03*
G04 #@! TO.P,J2,10*
G04 #@! TO.N,GND*
X120650000Y-90170000D03*
D11*
G04 #@! TO.P,J2,1*
G04 #@! TO.N,VCC*
X123190000Y-100330000D03*
D10*
G04 #@! TO.P,J2,9*
G04 #@! TO.N,MISO-TX*
X123190000Y-90170000D03*
G04 #@! TO.P,J2,3*
G04 #@! TO.N,G0*
X123190000Y-97790000D03*
G04 #@! TO.P,J2,7*
G04 #@! TO.N,SCK-RX*
X123190000Y-92710000D03*
G04 #@! TO.P,J2,5*
G04 #@! TO.N,CS-RI*
X123190000Y-95250000D03*
G04 #@! TD*
D12*
G04 #@! TO.P,C1,2*
G04 #@! TO.N,GND*
X109220000Y-78700000D03*
D13*
G04 #@! TO.P,C1,1*
G04 #@! TO.N,VBAT*
X109220000Y-76200000D03*
G04 #@! TD*
D12*
G04 #@! TO.P,R1,1*
G04 #@! TO.N,Net-(J1-Pad3)*
X125730000Y-118110000D03*
D14*
G04 #@! TO.P,R1,2*
G04 #@! TO.N,PRESSURE*
X118110000Y-118110000D03*
G04 #@! TD*
G04 #@! TO.P,R2,2*
G04 #@! TO.N,GND*
X125730000Y-114300000D03*
D12*
G04 #@! TO.P,R2,1*
G04 #@! TO.N,PRESSURE*
X118110000Y-114300000D03*
G04 #@! TD*
D15*
G04 #@! TO.P,U1,1*
G04 #@! TO.N,Net-(U1-Pad1)*
X132080000Y-77470000D03*
G04 #@! TO.P,U1,2*
G04 #@! TO.N,Net-(U1-Pad2)*
X132080000Y-80010000D03*
G04 #@! TO.P,U1,3*
G04 #@! TO.N,Net-(U1-Pad3)*
X132080000Y-82550000D03*
G04 #@! TO.P,U1,4*
G04 #@! TO.N,Net-(U1-Pad4)*
X132080000Y-85090000D03*
G04 #@! TO.P,U1,10*
G04 #@! TO.N,PRESSURE*
X132080000Y-87630000D03*
G04 #@! TO.P,U1,11*
G04 #@! TO.N,Net-(U1-Pad11)*
X132080000Y-90170000D03*
G04 #@! TO.P,U1,12*
G04 #@! TO.N,Net-(U1-Pad12)*
X132080000Y-92710000D03*
G04 #@! TO.P,U1,13*
G04 #@! TO.N,G0*
X132080000Y-95250000D03*
G04 #@! TO.P,U1,14*
G04 #@! TO.N,CS-RI*
X132080000Y-97790000D03*
G04 #@! TO.P,U1,15*
G04 #@! TO.N,SCK-RX*
X132080000Y-100330000D03*
G04 #@! TO.P,U1,16*
G04 #@! TO.N,MISO-TX*
X132080000Y-102870000D03*
G04 #@! TO.P,U1,17*
G04 #@! TO.N,MOSI-KEY*
X132080000Y-105410000D03*
G04 #@! TO.P,U1,18*
G04 #@! TO.N,RST*
X132080000Y-107950000D03*
G04 #@! TO.P,U1,19*
G04 #@! TO.N,Q1_BASE*
X132080000Y-110490000D03*
G04 #@! TO.P,U1,21*
G04 #@! TO.N,G1-PSTAT*
X132080000Y-113030000D03*
G04 #@! TO.P,U1,22*
G04 #@! TO.N,EN*
X132080000Y-115570000D03*
G04 #@! TO.P,U1,7*
G04 #@! TO.N,Net-(U1-Pad7)*
X132080000Y-118110000D03*
G04 #@! TO.P,U1,3V3*
G04 #@! TO.N,VCC*
X132080000Y-120650000D03*
G04 #@! TO.P,U1,GND*
G04 #@! TO.N,GND*
X132080000Y-123190000D03*
X132080000Y-125730000D03*
G04 #@! TO.P,U1,3V3*
G04 #@! TO.N,VCC*
X147320000Y-77470000D03*
G04 #@! TO.P,U1,42*
G04 #@! TO.N,Net-(U1-Pad42)*
X147320000Y-92710000D03*
G04 #@! TO.P,U1,27*
G04 #@! TO.N,Net-(U1-Pad27)*
X147320000Y-120650000D03*
G04 #@! TO.P,U1,32*
G04 #@! TO.N,Net-(U1-Pad32)*
X147320000Y-107950000D03*
G04 #@! TO.P,U1,31*
G04 #@! TO.N,SERIAL1.RX*
X147320000Y-110490000D03*
G04 #@! TO.P,U1,33*
G04 #@! TO.N,Net-(U1-Pad33)*
X147320000Y-105410000D03*
G04 #@! TO.P,U1,38*
G04 #@! TO.N,N/C*
X147320000Y-102870000D03*
G04 #@! TO.P,U1,30*
G04 #@! TO.N,SERIAL1.TX*
X147320000Y-113030000D03*
G04 #@! TO.P,U1,28*
G04 #@! TO.N,Net-(U1-Pad28)*
X147320000Y-118110000D03*
G04 #@! TO.P,U1,26*
G04 #@! TO.N,Net-(U1-Pad26)*
X147320000Y-123190000D03*
G04 #@! TO.P,U1,41*
G04 #@! TO.N,Net-(U1-Pad41)*
X147320000Y-95250000D03*
G04 #@! TO.P,U1,40*
G04 #@! TO.N,Net-(U1-Pad40)*
X147320000Y-97790000D03*
G04 #@! TO.P,U1,29*
G04 #@! TO.N,Net-(U1-Pad29)*
X147320000Y-115570000D03*
G04 #@! TO.P,U1,46*
G04 #@! TO.N,Net-(U1-Pad46)*
X147320000Y-85090000D03*
G04 #@! TO.P,U1,45*
G04 #@! TO.N,Net-(U1-Pad45)*
X147320000Y-87630000D03*
G04 #@! TO.P,U1,5V*
G04 #@! TO.N,VBAT*
X147320000Y-82550000D03*
G04 #@! TO.P,U1,25*
G04 #@! TO.N,Net-(U1-Pad25)*
X147320000Y-125730000D03*
G04 #@! TO.P,U1,GND*
G04 #@! TO.N,GND*
X147320000Y-80010000D03*
G04 #@! TO.P,U1,43*
G04 #@! TO.N,Net-(U1-Pad43)*
X147320000Y-90170000D03*
G04 #@! TO.P,U1,39*
G04 #@! TO.N,Net-(U1-Pad39)*
X147320000Y-100330000D03*
G04 #@! TD*
D16*
G04 #@! TO.P,Q1,1*
G04 #@! TO.N,Q1_BASE*
X113030000Y-109220000D03*
G04 #@! TO.P,Q1,3*
G04 #@! TO.N,GND*
X113030000Y-114300000D03*
G04 #@! TO.P,Q1,2*
G04 #@! TO.N,Net-(Q1-Pad2)*
X113030000Y-111760000D03*
G04 #@! TD*
D17*
G04 #@! TO.P,U2,3*
G04 #@! TO.N,Net-(J1-Pad1)*
X113411000Y-125730000D03*
G04 #@! TO.P,U2,2*
G04 #@! TO.N,Net-(Q1-Pad2)*
X113411000Y-123190000D03*
D18*
G04 #@! TO.P,U2,1*
G04 #@! TO.N,VBAT*
X113411000Y-120650000D03*
G04 #@! TD*
D12*
G04 #@! TO.P,C2,2*
G04 #@! TO.N,GND*
X115570000Y-76240000D03*
G04 #@! TO.P,C2,1*
G04 #@! TO.N,VBAT*
X115570000Y-78740000D03*
G04 #@! TD*
D19*
G04 #@! TO.P,J3,1*
G04 #@! TO.N,GND*
X154500000Y-108000000D03*
G04 #@! TD*
D20*
G04 #@! TO.P,J4,2*
G04 #@! TO.N,SERIAL1.RX*
X154500000Y-115570000D03*
D19*
G04 #@! TO.P,J4,1*
G04 #@! TO.N,SERIAL1.TX*
X154500000Y-118110000D03*
G04 #@! TD*
D21*
G04 #@! TO.P,BT1,2*
G04 #@! TO.N,GND*
X119507000Y-76200000D03*
G04 #@! TO.P,BT1,1*
G04 #@! TO.N,VBAT*
X102870000Y-76200000D03*
G04 #@! TD*
D15*
G04 #@! TO.P,J1,2*
G04 #@! TO.N,GND*
X121920000Y-124460000D03*
G04 #@! TO.P,J1,1*
G04 #@! TO.N,Net-(J1-Pad1)*
X119920000Y-124460000D03*
G04 #@! TO.P,J1,3*
G04 #@! TO.N,Net-(J1-Pad3)*
X123920000Y-124460000D03*
G04 #@! TD*
D22*
G04 #@! TO.N,Net-(J1-Pad3)*
X124460000Y-119380000D02*
X125730000Y-118110000D01*
X124460000Y-124460000D02*
X124460000Y-119380000D01*
G04 #@! TO.N,Net-(J1-Pad1)*
X119380000Y-124610000D02*
X119380000Y-124460000D01*
X118260000Y-125730000D02*
X119380000Y-124610000D01*
X113411000Y-125730000D02*
X118260000Y-125730000D01*
G04 #@! TO.N,PRESSURE*
X118110000Y-118110000D02*
X118110000Y-114300000D01*
X118110000Y-114300000D02*
X118110000Y-110490000D01*
X118110000Y-110490000D02*
X114300000Y-106680000D01*
X114300000Y-106680000D02*
X114300000Y-87630000D01*
X114300000Y-87630000D02*
X118110000Y-83820000D01*
X128270000Y-83820000D02*
X132080000Y-87630000D01*
X118110000Y-83820000D02*
X128270000Y-83820000D01*
G04 #@! TO.N,G0*
X129540000Y-97790000D02*
X132080000Y-95250000D01*
X123190000Y-97790000D02*
X129540000Y-97790000D01*
G04 #@! TO.N,Net-(Q1-Pad2)*
X111434990Y-113101010D02*
X112776000Y-111760000D01*
X111434990Y-121213990D02*
X111434990Y-113101010D01*
X112776000Y-111760000D02*
X113030000Y-111760000D01*
X113411000Y-123190000D02*
X111434990Y-121213990D01*
G04 #@! TO.N,SCK-RX*
X123190000Y-92710000D02*
X124460000Y-91440000D01*
X124460000Y-91440000D02*
X134620000Y-91440000D01*
X134620000Y-91440000D02*
X135890000Y-92710000D01*
X135890000Y-96520000D02*
X132080000Y-100330000D01*
X135890000Y-92710000D02*
X135890000Y-96520000D01*
G04 #@! TO.N,MISO-TX*
X123190000Y-90170000D02*
X124460000Y-88900000D01*
X124460000Y-88900000D02*
X133350000Y-88900000D01*
X137160000Y-97790000D02*
X132080000Y-102870000D01*
X137160000Y-97790000D02*
X137160000Y-92075000D01*
X137160000Y-92075000D02*
X133985000Y-88900000D01*
X133985000Y-88900000D02*
X133350000Y-88900000D01*
G04 #@! TO.N,CS-RI*
X134620000Y-95250000D02*
X132080000Y-97790000D01*
X133350000Y-93980000D02*
X134620000Y-95250000D01*
X124460000Y-93980000D02*
X133350000Y-93980000D01*
X123190000Y-95250000D02*
X124460000Y-93980000D01*
G04 #@! TO.N,G1-PSTAT*
X119372499Y-106277497D02*
X129935002Y-116840000D01*
X119372499Y-99067501D02*
X119372499Y-106277497D01*
X120650000Y-97790000D02*
X119372499Y-99067501D01*
X129935002Y-116840000D02*
X132715000Y-116840000D01*
X132715000Y-116840000D02*
X133985000Y-115570000D01*
X133985000Y-114935000D02*
X132080000Y-113030000D01*
X133985000Y-115570000D02*
X133985000Y-114935000D01*
G04 #@! TO.N,EN*
X120650000Y-104140000D02*
X132080000Y-115570000D01*
X120650000Y-100330000D02*
X120650000Y-104140000D01*
G04 #@! TO.N,VCC*
X146558001Y-78231999D02*
X147320000Y-77470000D01*
X124202000Y-100330000D02*
X128012000Y-104140000D01*
X123190000Y-100330000D02*
X124202000Y-100330000D01*
X128012000Y-104140000D02*
X133350000Y-104140000D01*
X133350000Y-104140000D02*
X140970000Y-96520000D01*
X140970000Y-83820000D02*
X147320000Y-77470000D01*
X140970000Y-96520000D02*
X140970000Y-83820000D01*
X140970000Y-111760000D02*
X140970000Y-96520000D01*
X132080000Y-120650000D02*
X140970000Y-111760000D01*
G04 #@! TO.N,SERIAL1.RX*
X149420000Y-110490000D02*
X154500000Y-115570000D01*
X147320000Y-110490000D02*
X149420000Y-110490000D01*
G04 #@! TO.N,SERIAL1.TX*
X149420000Y-113030000D02*
X154500000Y-118110000D01*
X147320000Y-113030000D02*
X149420000Y-113030000D01*
G04 #@! TD*
D23*
G04 #@! TO.N,VBAT*
G36*
X155500001Y-106532397D02*
X155350000Y-106502560D01*
X153650000Y-106502560D01*
X153402235Y-106551843D01*
X153192191Y-106692191D01*
X153051843Y-106902235D01*
X153002560Y-107150000D01*
X153002560Y-108850000D01*
X153051843Y-109097765D01*
X153192191Y-109307809D01*
X153402235Y-109448157D01*
X153650000Y-109497440D01*
X155350000Y-109497440D01*
X155500001Y-109467603D01*
X155500001Y-114452185D01*
X155079418Y-114171161D01*
X154646256Y-114085000D01*
X154353744Y-114085000D01*
X154133593Y-114128791D01*
X150010331Y-110005530D01*
X149967929Y-109942071D01*
X149716537Y-109774096D01*
X149494852Y-109730000D01*
X149494847Y-109730000D01*
X149420000Y-109715112D01*
X149345153Y-109730000D01*
X148517300Y-109730000D01*
X148504320Y-109698663D01*
X148111337Y-109305680D01*
X147904487Y-109220000D01*
X148111337Y-109134320D01*
X148504320Y-108741337D01*
X148717000Y-108227881D01*
X148717000Y-107672119D01*
X148504320Y-107158663D01*
X148111337Y-106765680D01*
X147904487Y-106680000D01*
X148111337Y-106594320D01*
X148504320Y-106201337D01*
X148717000Y-105687881D01*
X148717000Y-105132119D01*
X148504320Y-104618663D01*
X148111337Y-104225680D01*
X147904487Y-104140000D01*
X148111337Y-104054320D01*
X148504320Y-103661337D01*
X148717000Y-103147881D01*
X148717000Y-102592119D01*
X148504320Y-102078663D01*
X148362979Y-101937322D01*
X150646000Y-101937322D01*
X150646000Y-102786678D01*
X150971034Y-103571380D01*
X151571620Y-104171966D01*
X152356322Y-104497000D01*
X153205678Y-104497000D01*
X153990380Y-104171966D01*
X154590966Y-103571380D01*
X154916000Y-102786678D01*
X154916000Y-101937322D01*
X154590966Y-101152620D01*
X153990380Y-100552034D01*
X153205678Y-100227000D01*
X152356322Y-100227000D01*
X151571620Y-100552034D01*
X150971034Y-101152620D01*
X150646000Y-101937322D01*
X148362979Y-101937322D01*
X148111337Y-101685680D01*
X147904487Y-101600000D01*
X148111337Y-101514320D01*
X148504320Y-101121337D01*
X148717000Y-100607881D01*
X148717000Y-100052119D01*
X148504320Y-99538663D01*
X148111337Y-99145680D01*
X147904487Y-99060000D01*
X148111337Y-98974320D01*
X148504320Y-98581337D01*
X148717000Y-98067881D01*
X148717000Y-97512119D01*
X148504320Y-96998663D01*
X148111337Y-96605680D01*
X147904487Y-96520000D01*
X148111337Y-96434320D01*
X148504320Y-96041337D01*
X148717000Y-95527881D01*
X148717000Y-94972119D01*
X148504320Y-94458663D01*
X148111337Y-94065680D01*
X147904487Y-93980000D01*
X148111337Y-93894320D01*
X148504320Y-93501337D01*
X148717000Y-92987881D01*
X148717000Y-92432119D01*
X148504320Y-91918663D01*
X148111337Y-91525680D01*
X147904487Y-91440000D01*
X148111337Y-91354320D01*
X148504320Y-90961337D01*
X148717000Y-90447881D01*
X148717000Y-89892119D01*
X148504320Y-89378663D01*
X148111337Y-88985680D01*
X147904487Y-88900000D01*
X148111337Y-88814320D01*
X148504320Y-88421337D01*
X148717000Y-87907881D01*
X148717000Y-87352119D01*
X148504320Y-86838663D01*
X148111337Y-86445680D01*
X147904487Y-86360000D01*
X148111337Y-86274320D01*
X148504320Y-85881337D01*
X148717000Y-85367881D01*
X148717000Y-84812119D01*
X148504320Y-84298663D01*
X148111337Y-83905680D01*
X147920353Y-83826572D01*
X148051143Y-83772397D01*
X148120608Y-83530213D01*
X147320000Y-82729605D01*
X146519392Y-83530213D01*
X146588857Y-83772397D01*
X146729393Y-83822535D01*
X146528663Y-83905680D01*
X146135680Y-84298663D01*
X145923000Y-84812119D01*
X145923000Y-85367881D01*
X146135680Y-85881337D01*
X146528663Y-86274320D01*
X146735513Y-86360000D01*
X146528663Y-86445680D01*
X146135680Y-86838663D01*
X145923000Y-87352119D01*
X145923000Y-87907881D01*
X146135680Y-88421337D01*
X146528663Y-88814320D01*
X146735513Y-88900000D01*
X146528663Y-88985680D01*
X146135680Y-89378663D01*
X145923000Y-89892119D01*
X145923000Y-90447881D01*
X146135680Y-90961337D01*
X146528663Y-91354320D01*
X146735513Y-91440000D01*
X146528663Y-91525680D01*
X146135680Y-91918663D01*
X145923000Y-92432119D01*
X145923000Y-92987881D01*
X146135680Y-93501337D01*
X146528663Y-93894320D01*
X146735513Y-93980000D01*
X146528663Y-94065680D01*
X146135680Y-94458663D01*
X145923000Y-94972119D01*
X145923000Y-95527881D01*
X146135680Y-96041337D01*
X146528663Y-96434320D01*
X146735513Y-96520000D01*
X146528663Y-96605680D01*
X146135680Y-96998663D01*
X145923000Y-97512119D01*
X145923000Y-98067881D01*
X146135680Y-98581337D01*
X146528663Y-98974320D01*
X146735513Y-99060000D01*
X146528663Y-99145680D01*
X146135680Y-99538663D01*
X145923000Y-100052119D01*
X145923000Y-100607881D01*
X146135680Y-101121337D01*
X146528663Y-101514320D01*
X146735513Y-101600000D01*
X146528663Y-101685680D01*
X146135680Y-102078663D01*
X145923000Y-102592119D01*
X145923000Y-103147881D01*
X146135680Y-103661337D01*
X146528663Y-104054320D01*
X146735513Y-104140000D01*
X146528663Y-104225680D01*
X146135680Y-104618663D01*
X145923000Y-105132119D01*
X145923000Y-105687881D01*
X146135680Y-106201337D01*
X146528663Y-106594320D01*
X146735513Y-106680000D01*
X146528663Y-106765680D01*
X146135680Y-107158663D01*
X145923000Y-107672119D01*
X145923000Y-108227881D01*
X146135680Y-108741337D01*
X146528663Y-109134320D01*
X146735513Y-109220000D01*
X146528663Y-109305680D01*
X146135680Y-109698663D01*
X145923000Y-110212119D01*
X145923000Y-110767881D01*
X146135680Y-111281337D01*
X146528663Y-111674320D01*
X146735513Y-111760000D01*
X146528663Y-111845680D01*
X146135680Y-112238663D01*
X145923000Y-112752119D01*
X145923000Y-113307881D01*
X146135680Y-113821337D01*
X146528663Y-114214320D01*
X146735513Y-114300000D01*
X146528663Y-114385680D01*
X146135680Y-114778663D01*
X145923000Y-115292119D01*
X145923000Y-115847881D01*
X146135680Y-116361337D01*
X146528663Y-116754320D01*
X146735513Y-116840000D01*
X146528663Y-116925680D01*
X146135680Y-117318663D01*
X145923000Y-117832119D01*
X145923000Y-118387881D01*
X146135680Y-118901337D01*
X146528663Y-119294320D01*
X146735513Y-119380000D01*
X146528663Y-119465680D01*
X146135680Y-119858663D01*
X145923000Y-120372119D01*
X145923000Y-120927881D01*
X146135680Y-121441337D01*
X146528663Y-121834320D01*
X146735513Y-121920000D01*
X146528663Y-122005680D01*
X146135680Y-122398663D01*
X145923000Y-122912119D01*
X145923000Y-123467881D01*
X146135680Y-123981337D01*
X146528663Y-124374320D01*
X146735513Y-124460000D01*
X146528663Y-124545680D01*
X146135680Y-124938663D01*
X145923000Y-125452119D01*
X145923000Y-126007881D01*
X146135680Y-126521337D01*
X146528663Y-126914320D01*
X147042119Y-127127000D01*
X147597881Y-127127000D01*
X148111337Y-126914320D01*
X148504320Y-126521337D01*
X148717000Y-126007881D01*
X148717000Y-125452119D01*
X148504320Y-124938663D01*
X148111337Y-124545680D01*
X147904487Y-124460000D01*
X148111337Y-124374320D01*
X148504320Y-123981337D01*
X148717000Y-123467881D01*
X148717000Y-122912119D01*
X148504320Y-122398663D01*
X148111337Y-122005680D01*
X147904487Y-121920000D01*
X148111337Y-121834320D01*
X148504320Y-121441337D01*
X148717000Y-120927881D01*
X148717000Y-120372119D01*
X148504320Y-119858663D01*
X148111337Y-119465680D01*
X147904487Y-119380000D01*
X148111337Y-119294320D01*
X148504320Y-118901337D01*
X148717000Y-118387881D01*
X148717000Y-117832119D01*
X148504320Y-117318663D01*
X148111337Y-116925680D01*
X147904487Y-116840000D01*
X148111337Y-116754320D01*
X148504320Y-116361337D01*
X148717000Y-115847881D01*
X148717000Y-115292119D01*
X148504320Y-114778663D01*
X148111337Y-114385680D01*
X147904487Y-114300000D01*
X148111337Y-114214320D01*
X148504320Y-113821337D01*
X148517300Y-113790000D01*
X149105199Y-113790000D01*
X153002560Y-117687362D01*
X153002560Y-118960000D01*
X153051843Y-119207765D01*
X153192191Y-119417809D01*
X153402235Y-119558157D01*
X153650000Y-119607440D01*
X155350000Y-119607440D01*
X155500001Y-119577603D01*
X155500001Y-130100000D01*
X95960000Y-130100000D01*
X95960000Y-113101010D01*
X110660102Y-113101010D01*
X110674991Y-113175862D01*
X110674990Y-121139143D01*
X110660102Y-121213990D01*
X110674990Y-121288837D01*
X110674990Y-121288841D01*
X110719086Y-121510526D01*
X110887061Y-121761919D01*
X110950520Y-121804321D01*
X111927269Y-122781071D01*
X111845928Y-123190000D01*
X111965062Y-123788927D01*
X112304327Y-124296673D01*
X112548763Y-124460000D01*
X112304327Y-124623327D01*
X111965062Y-125131073D01*
X111845928Y-125730000D01*
X111965062Y-126328927D01*
X112304327Y-126836673D01*
X112812073Y-127175938D01*
X113259818Y-127265000D01*
X113562182Y-127265000D01*
X114009927Y-127175938D01*
X114517673Y-126836673D01*
X114749312Y-126490000D01*
X118185153Y-126490000D01*
X118260000Y-126504888D01*
X118334847Y-126490000D01*
X118334852Y-126490000D01*
X118556537Y-126445904D01*
X118807929Y-126277929D01*
X118850331Y-126214470D01*
X119335010Y-125729792D01*
X119642119Y-125857000D01*
X120197881Y-125857000D01*
X120711337Y-125644320D01*
X120920000Y-125435657D01*
X121128663Y-125644320D01*
X121642119Y-125857000D01*
X122197881Y-125857000D01*
X122711337Y-125644320D01*
X122920000Y-125435657D01*
X123128663Y-125644320D01*
X123642119Y-125857000D01*
X124197881Y-125857000D01*
X124711337Y-125644320D01*
X125104320Y-125251337D01*
X125317000Y-124737881D01*
X125317000Y-124182119D01*
X125220000Y-123947940D01*
X125220000Y-119694801D01*
X125391698Y-119523103D01*
X125444561Y-119545000D01*
X126015439Y-119545000D01*
X126542862Y-119326534D01*
X126946534Y-118922862D01*
X127165000Y-118395439D01*
X127165000Y-117824561D01*
X126946534Y-117297138D01*
X126542862Y-116893466D01*
X126015439Y-116675000D01*
X125444561Y-116675000D01*
X124917138Y-116893466D01*
X124513466Y-117297138D01*
X124295000Y-117824561D01*
X124295000Y-118395439D01*
X124316897Y-118448302D01*
X123975528Y-118789671D01*
X123912072Y-118832071D01*
X123869672Y-118895527D01*
X123869671Y-118895528D01*
X123744097Y-119083463D01*
X123685112Y-119380000D01*
X123700001Y-119454852D01*
X123700000Y-123063000D01*
X123642119Y-123063000D01*
X123128663Y-123275680D01*
X122920000Y-123484343D01*
X122711337Y-123275680D01*
X122197881Y-123063000D01*
X121642119Y-123063000D01*
X121128663Y-123275680D01*
X120920000Y-123484343D01*
X120711337Y-123275680D01*
X120197881Y-123063000D01*
X119642119Y-123063000D01*
X119128663Y-123275680D01*
X118735680Y-123668663D01*
X118523000Y-124182119D01*
X118523000Y-124392198D01*
X117945199Y-124970000D01*
X114749312Y-124970000D01*
X114517673Y-124623327D01*
X114273237Y-124460000D01*
X114517673Y-124296673D01*
X114856938Y-123788927D01*
X114976072Y-123190000D01*
X114856938Y-122591073D01*
X114553462Y-122136888D01*
X114670699Y-122088327D01*
X114849327Y-121909698D01*
X114946000Y-121676309D01*
X114946000Y-120935750D01*
X114787250Y-120777000D01*
X113538000Y-120777000D01*
X113538000Y-120797000D01*
X113284000Y-120797000D01*
X113284000Y-120777000D01*
X113264000Y-120777000D01*
X113264000Y-120523000D01*
X113284000Y-120523000D01*
X113284000Y-119273750D01*
X113538000Y-119273750D01*
X113538000Y-120523000D01*
X114787250Y-120523000D01*
X114946000Y-120364250D01*
X114946000Y-119623691D01*
X114849327Y-119390302D01*
X114670699Y-119211673D01*
X114437310Y-119115000D01*
X113696750Y-119115000D01*
X113538000Y-119273750D01*
X113284000Y-119273750D01*
X113125250Y-119115000D01*
X112384690Y-119115000D01*
X112194990Y-119193576D01*
X112194990Y-115867775D01*
X112613391Y-115951000D01*
X113446609Y-115951000D01*
X113928188Y-115855208D01*
X114474305Y-115490305D01*
X114839208Y-114944188D01*
X114967345Y-114300000D01*
X114839208Y-113655812D01*
X114474305Y-113109695D01*
X114355033Y-113030000D01*
X114474305Y-112950305D01*
X114839208Y-112404188D01*
X114967345Y-111760000D01*
X114839208Y-111115812D01*
X114474305Y-110569695D01*
X114355033Y-110490000D01*
X114474305Y-110410305D01*
X114839208Y-109864188D01*
X114967345Y-109220000D01*
X114839208Y-108575812D01*
X114474305Y-108029695D01*
X113928188Y-107664792D01*
X113446609Y-107569000D01*
X112613391Y-107569000D01*
X112131812Y-107664792D01*
X111585695Y-108029695D01*
X111220792Y-108575812D01*
X111092655Y-109220000D01*
X111220792Y-109864188D01*
X111585695Y-110410305D01*
X111704967Y-110490000D01*
X111585695Y-110569695D01*
X111220792Y-111115812D01*
X111092655Y-111760000D01*
X111193619Y-112267580D01*
X110950518Y-112510681D01*
X110887062Y-112553081D01*
X110844662Y-112616537D01*
X110844661Y-112616538D01*
X110719087Y-112804473D01*
X110660102Y-113101010D01*
X95960000Y-113101010D01*
X95960000Y-102909803D01*
X96234034Y-103571380D01*
X96834620Y-104171966D01*
X97619322Y-104497000D01*
X98468678Y-104497000D01*
X99253380Y-104171966D01*
X99853966Y-103571380D01*
X100179000Y-102786678D01*
X100179000Y-101937322D01*
X99853966Y-101152620D01*
X99253380Y-100552034D01*
X98468678Y-100227000D01*
X97619322Y-100227000D01*
X96834620Y-100552034D01*
X96234034Y-101152620D01*
X95960000Y-101814197D01*
X95960000Y-87630000D01*
X113525112Y-87630000D01*
X113540001Y-87704852D01*
X113540000Y-106605153D01*
X113525112Y-106680000D01*
X113540000Y-106754847D01*
X113540000Y-106754851D01*
X113584096Y-106976536D01*
X113752071Y-107227929D01*
X113815530Y-107270331D01*
X117350001Y-110804803D01*
X117350000Y-113061570D01*
X117297138Y-113083466D01*
X116893466Y-113487138D01*
X116675000Y-114014561D01*
X116675000Y-114585439D01*
X116893466Y-115112862D01*
X117297138Y-115516534D01*
X117350001Y-115538430D01*
X117350000Y-116891956D01*
X117075423Y-117075423D01*
X116758260Y-117550091D01*
X116646887Y-118110000D01*
X116758260Y-118669909D01*
X117075423Y-119144577D01*
X117550091Y-119461740D01*
X117968667Y-119545000D01*
X118251333Y-119545000D01*
X118669909Y-119461740D01*
X119144577Y-119144577D01*
X119461740Y-118669909D01*
X119573113Y-118110000D01*
X119461740Y-117550091D01*
X119144577Y-117075423D01*
X118870000Y-116891957D01*
X118870000Y-115538430D01*
X118922862Y-115516534D01*
X119326534Y-115112862D01*
X119545000Y-114585439D01*
X119545000Y-114014561D01*
X119326534Y-113487138D01*
X118922862Y-113083466D01*
X118870000Y-113061570D01*
X118870000Y-110564848D01*
X118884888Y-110490000D01*
X118870000Y-110415152D01*
X118870000Y-110415148D01*
X118829615Y-110212119D01*
X118825904Y-110193462D01*
X118700329Y-110005527D01*
X118657929Y-109942071D01*
X118594473Y-109899671D01*
X115060000Y-106365199D01*
X115060000Y-87944801D01*
X118424802Y-84580000D01*
X127955199Y-84580000D01*
X130695980Y-87320782D01*
X130683000Y-87352119D01*
X130683000Y-87907881D01*
X130779147Y-88140000D01*
X124534846Y-88140000D01*
X124459999Y-88125112D01*
X124385152Y-88140000D01*
X124385148Y-88140000D01*
X124163463Y-88184096D01*
X123912071Y-88352071D01*
X123869671Y-88415527D01*
X123645020Y-88640178D01*
X123505773Y-88582500D01*
X122874227Y-88582500D01*
X122290753Y-88824182D01*
X121920000Y-89194935D01*
X121549247Y-88824182D01*
X120965773Y-88582500D01*
X120334227Y-88582500D01*
X119750753Y-88824182D01*
X119304182Y-89270753D01*
X119062500Y-89854227D01*
X119062500Y-90485773D01*
X119304182Y-91069247D01*
X119674935Y-91440000D01*
X119304182Y-91810753D01*
X119062500Y-92394227D01*
X119062500Y-93025773D01*
X119304182Y-93609247D01*
X119674935Y-93980000D01*
X119304182Y-94350753D01*
X119062500Y-94934227D01*
X119062500Y-95565773D01*
X119304182Y-96149247D01*
X119674935Y-96520000D01*
X119304182Y-96890753D01*
X119062500Y-97474227D01*
X119062500Y-98105773D01*
X119120178Y-98245021D01*
X118888029Y-98477170D01*
X118824570Y-98519572D01*
X118656595Y-98770965D01*
X118612499Y-98992650D01*
X118612499Y-98992654D01*
X118597611Y-99067501D01*
X118612499Y-99142348D01*
X118612500Y-106202645D01*
X118597611Y-106277497D01*
X118612500Y-106352349D01*
X118656596Y-106574034D01*
X118824571Y-106825426D01*
X118888027Y-106867826D01*
X125049222Y-113029022D01*
X124695423Y-113265423D01*
X124378260Y-113740091D01*
X124266887Y-114300000D01*
X124378260Y-114859909D01*
X124695423Y-115334577D01*
X125170091Y-115651740D01*
X125588667Y-115735000D01*
X125871333Y-115735000D01*
X126289909Y-115651740D01*
X126764577Y-115334577D01*
X127000978Y-114980778D01*
X129344673Y-117324473D01*
X129387073Y-117387929D01*
X129638465Y-117555904D01*
X129860150Y-117600000D01*
X129860155Y-117600000D01*
X129935002Y-117614888D01*
X130009849Y-117600000D01*
X130779147Y-117600000D01*
X130683000Y-117832119D01*
X130683000Y-118387881D01*
X130895680Y-118901337D01*
X131288663Y-119294320D01*
X131495513Y-119380000D01*
X131288663Y-119465680D01*
X130895680Y-119858663D01*
X130683000Y-120372119D01*
X130683000Y-120927881D01*
X130895680Y-121441337D01*
X131288663Y-121834320D01*
X131495513Y-121920000D01*
X131288663Y-122005680D01*
X130895680Y-122398663D01*
X130683000Y-122912119D01*
X130683000Y-123467881D01*
X130895680Y-123981337D01*
X131288663Y-124374320D01*
X131495513Y-124460000D01*
X131288663Y-124545680D01*
X130895680Y-124938663D01*
X130683000Y-125452119D01*
X130683000Y-126007881D01*
X130895680Y-126521337D01*
X131288663Y-126914320D01*
X131802119Y-127127000D01*
X132357881Y-127127000D01*
X132871337Y-126914320D01*
X133264320Y-126521337D01*
X133477000Y-126007881D01*
X133477000Y-125452119D01*
X133264320Y-124938663D01*
X132871337Y-124545680D01*
X132664487Y-124460000D01*
X132871337Y-124374320D01*
X133264320Y-123981337D01*
X133477000Y-123467881D01*
X133477000Y-122912119D01*
X133264320Y-122398663D01*
X132871337Y-122005680D01*
X132664487Y-121920000D01*
X132871337Y-121834320D01*
X133264320Y-121441337D01*
X133477000Y-120927881D01*
X133477000Y-120372119D01*
X133464020Y-120340781D01*
X141454473Y-112350329D01*
X141517929Y-112307929D01*
X141685904Y-112056537D01*
X141730000Y-111834852D01*
X141730000Y-111834848D01*
X141744888Y-111760000D01*
X141730000Y-111685152D01*
X141730000Y-96594848D01*
X141744888Y-96520001D01*
X141730000Y-96445154D01*
X141730000Y-84134801D01*
X143522499Y-82342302D01*
X145910856Y-82342302D01*
X145938638Y-82897368D01*
X146097603Y-83281143D01*
X146339787Y-83350608D01*
X147140395Y-82550000D01*
X147499605Y-82550000D01*
X148300213Y-83350608D01*
X148542397Y-83281143D01*
X148729144Y-82757698D01*
X148701362Y-82202632D01*
X148542397Y-81818857D01*
X148300213Y-81749392D01*
X147499605Y-82550000D01*
X147140395Y-82550000D01*
X146339787Y-81749392D01*
X146097603Y-81818857D01*
X145910856Y-82342302D01*
X143522499Y-82342302D01*
X145923000Y-79941802D01*
X145923000Y-80287881D01*
X146135680Y-80801337D01*
X146528663Y-81194320D01*
X146719647Y-81273428D01*
X146588857Y-81327603D01*
X146519392Y-81569787D01*
X147320000Y-82370395D01*
X148120608Y-81569787D01*
X148051143Y-81327603D01*
X147910607Y-81277465D01*
X148111337Y-81194320D01*
X148504320Y-80801337D01*
X148717000Y-80287881D01*
X148717000Y-79732119D01*
X148504320Y-79218663D01*
X148111337Y-78825680D01*
X147904487Y-78740000D01*
X148111337Y-78654320D01*
X148504320Y-78261337D01*
X148717000Y-77747881D01*
X148717000Y-77192119D01*
X148504320Y-76678663D01*
X148111337Y-76285680D01*
X147597881Y-76073000D01*
X147042119Y-76073000D01*
X146528663Y-76285680D01*
X146135680Y-76678663D01*
X145923000Y-77192119D01*
X145923000Y-77747881D01*
X145935980Y-77779218D01*
X140485528Y-83229671D01*
X140422072Y-83272071D01*
X140379672Y-83335527D01*
X140379671Y-83335528D01*
X140254097Y-83523463D01*
X140195112Y-83820000D01*
X140210001Y-83894852D01*
X140210000Y-96205197D01*
X133477000Y-102938199D01*
X133477000Y-102592119D01*
X133464020Y-102560782D01*
X137644473Y-98380329D01*
X137707929Y-98337929D01*
X137875904Y-98086537D01*
X137920000Y-97864852D01*
X137920000Y-97864847D01*
X137934888Y-97790000D01*
X137920000Y-97715153D01*
X137920000Y-92149846D01*
X137934888Y-92074999D01*
X137920000Y-92000152D01*
X137920000Y-92000148D01*
X137875904Y-91778463D01*
X137707929Y-91527071D01*
X137644473Y-91484671D01*
X134575331Y-88415530D01*
X134532929Y-88352071D01*
X134281537Y-88184096D01*
X134059852Y-88140000D01*
X134059847Y-88140000D01*
X133985000Y-88125112D01*
X133910153Y-88140000D01*
X133380853Y-88140000D01*
X133477000Y-87907881D01*
X133477000Y-87352119D01*
X133264320Y-86838663D01*
X132871337Y-86445680D01*
X132664487Y-86360000D01*
X132871337Y-86274320D01*
X133264320Y-85881337D01*
X133477000Y-85367881D01*
X133477000Y-84812119D01*
X133264320Y-84298663D01*
X132871337Y-83905680D01*
X132664487Y-83820000D01*
X132871337Y-83734320D01*
X133264320Y-83341337D01*
X133477000Y-82827881D01*
X133477000Y-82272119D01*
X133264320Y-81758663D01*
X132871337Y-81365680D01*
X132664487Y-81280000D01*
X132871337Y-81194320D01*
X133264320Y-80801337D01*
X133477000Y-80287881D01*
X133477000Y-79732119D01*
X133264320Y-79218663D01*
X132871337Y-78825680D01*
X132664487Y-78740000D01*
X132871337Y-78654320D01*
X133264320Y-78261337D01*
X133477000Y-77747881D01*
X133477000Y-77192119D01*
X133264320Y-76678663D01*
X132871337Y-76285680D01*
X132357881Y-76073000D01*
X131802119Y-76073000D01*
X131288663Y-76285680D01*
X130895680Y-76678663D01*
X130683000Y-77192119D01*
X130683000Y-77747881D01*
X130895680Y-78261337D01*
X131288663Y-78654320D01*
X131495513Y-78740000D01*
X131288663Y-78825680D01*
X130895680Y-79218663D01*
X130683000Y-79732119D01*
X130683000Y-80287881D01*
X130895680Y-80801337D01*
X131288663Y-81194320D01*
X131495513Y-81280000D01*
X131288663Y-81365680D01*
X130895680Y-81758663D01*
X130683000Y-82272119D01*
X130683000Y-82827881D01*
X130895680Y-83341337D01*
X131288663Y-83734320D01*
X131495513Y-83820000D01*
X131288663Y-83905680D01*
X130895680Y-84298663D01*
X130683000Y-84812119D01*
X130683000Y-85158199D01*
X128860331Y-83335530D01*
X128817929Y-83272071D01*
X128566537Y-83104096D01*
X128344852Y-83060000D01*
X128344847Y-83060000D01*
X128270000Y-83045112D01*
X128195153Y-83060000D01*
X118184848Y-83060000D01*
X118110000Y-83045112D01*
X118035152Y-83060000D01*
X118035148Y-83060000D01*
X117861605Y-83094520D01*
X117813462Y-83104096D01*
X117626418Y-83229076D01*
X117562071Y-83272071D01*
X117519671Y-83335527D01*
X113815528Y-87039671D01*
X113752072Y-87082071D01*
X113709672Y-87145527D01*
X113709671Y-87145528D01*
X113584097Y-87333463D01*
X113525112Y-87630000D01*
X95960000Y-87630000D01*
X95960000Y-76543070D01*
X101134780Y-76543070D01*
X101149740Y-76617277D01*
X101411370Y-77098026D01*
X101837059Y-77442059D01*
X102362000Y-77597000D01*
X102743000Y-77597000D01*
X102743000Y-76327000D01*
X102997000Y-76327000D01*
X102997000Y-77597000D01*
X103378000Y-77597000D01*
X103902941Y-77442059D01*
X104328630Y-77098026D01*
X104590260Y-76617277D01*
X104605220Y-76543070D01*
X104572723Y-76485750D01*
X107785000Y-76485750D01*
X107785000Y-77126309D01*
X107881673Y-77359698D01*
X108060301Y-77538327D01*
X108266759Y-77623845D01*
X108003466Y-77887138D01*
X107785000Y-78414561D01*
X107785000Y-78985439D01*
X108003466Y-79512862D01*
X108407138Y-79916534D01*
X108934561Y-80135000D01*
X109505439Y-80135000D01*
X110032862Y-79916534D01*
X110201651Y-79747745D01*
X114741861Y-79747745D01*
X114815995Y-79993864D01*
X115353223Y-80186965D01*
X115923454Y-80159778D01*
X116324005Y-79993864D01*
X116398139Y-79747745D01*
X115570000Y-78919605D01*
X114741861Y-79747745D01*
X110201651Y-79747745D01*
X110436534Y-79512862D01*
X110655000Y-78985439D01*
X110655000Y-78523223D01*
X114123035Y-78523223D01*
X114150222Y-79093454D01*
X114316136Y-79494005D01*
X114562255Y-79568139D01*
X115390395Y-78740000D01*
X115749605Y-78740000D01*
X116577745Y-79568139D01*
X116823864Y-79494005D01*
X117016965Y-78956777D01*
X116989778Y-78386546D01*
X116823864Y-77985995D01*
X116577745Y-77911861D01*
X115749605Y-78740000D01*
X115390395Y-78740000D01*
X114562255Y-77911861D01*
X114316136Y-77985995D01*
X114123035Y-78523223D01*
X110655000Y-78523223D01*
X110655000Y-78414561D01*
X110436534Y-77887138D01*
X110173241Y-77623845D01*
X110379699Y-77538327D01*
X110558327Y-77359698D01*
X110655000Y-77126309D01*
X110655000Y-76485750D01*
X110496250Y-76327000D01*
X109347000Y-76327000D01*
X109347000Y-76347000D01*
X109093000Y-76347000D01*
X109093000Y-76327000D01*
X107943750Y-76327000D01*
X107785000Y-76485750D01*
X104572723Y-76485750D01*
X104482720Y-76327000D01*
X102997000Y-76327000D01*
X102743000Y-76327000D01*
X101257280Y-76327000D01*
X101134780Y-76543070D01*
X95960000Y-76543070D01*
X95960000Y-75856930D01*
X101134780Y-75856930D01*
X101257280Y-76073000D01*
X102743000Y-76073000D01*
X102743000Y-74803000D01*
X102997000Y-74803000D01*
X102997000Y-76073000D01*
X104482720Y-76073000D01*
X104605220Y-75856930D01*
X104590260Y-75782723D01*
X104328630Y-75301974D01*
X104293635Y-75273691D01*
X107785000Y-75273691D01*
X107785000Y-75914250D01*
X107943750Y-76073000D01*
X109093000Y-76073000D01*
X109093000Y-74923750D01*
X109347000Y-74923750D01*
X109347000Y-76073000D01*
X110496250Y-76073000D01*
X110614689Y-75954561D01*
X114135000Y-75954561D01*
X114135000Y-76525439D01*
X114353466Y-77052862D01*
X114757138Y-77456534D01*
X114822299Y-77483525D01*
X114815995Y-77486136D01*
X114741861Y-77732255D01*
X115570000Y-78560395D01*
X116398139Y-77732255D01*
X116324005Y-77486136D01*
X116317254Y-77483710D01*
X116382862Y-77456534D01*
X116786534Y-77052862D01*
X117005000Y-76525439D01*
X117005000Y-76200000D01*
X117701632Y-76200000D01*
X117810056Y-76745082D01*
X118118820Y-77207180D01*
X118580918Y-77515944D01*
X118988412Y-77597000D01*
X120025588Y-77597000D01*
X120433082Y-77515944D01*
X120895180Y-77207180D01*
X121203944Y-76745082D01*
X121312368Y-76200000D01*
X121203944Y-75654918D01*
X120895180Y-75192820D01*
X120433082Y-74884056D01*
X120025588Y-74803000D01*
X118988412Y-74803000D01*
X118580918Y-74884056D01*
X118118820Y-75192820D01*
X117810056Y-75654918D01*
X117701632Y-76200000D01*
X117005000Y-76200000D01*
X117005000Y-75954561D01*
X116786534Y-75427138D01*
X116382862Y-75023466D01*
X115855439Y-74805000D01*
X115284561Y-74805000D01*
X114757138Y-75023466D01*
X114353466Y-75427138D01*
X114135000Y-75954561D01*
X110614689Y-75954561D01*
X110655000Y-75914250D01*
X110655000Y-75273691D01*
X110558327Y-75040302D01*
X110379699Y-74861673D01*
X110146310Y-74765000D01*
X109505750Y-74765000D01*
X109347000Y-74923750D01*
X109093000Y-74923750D01*
X108934250Y-74765000D01*
X108293690Y-74765000D01*
X108060301Y-74861673D01*
X107881673Y-75040302D01*
X107785000Y-75273691D01*
X104293635Y-75273691D01*
X103902941Y-74957941D01*
X103378000Y-74803000D01*
X102997000Y-74803000D01*
X102743000Y-74803000D01*
X102362000Y-74803000D01*
X101837059Y-74957941D01*
X101411370Y-75301974D01*
X101149740Y-75782723D01*
X101134780Y-75856930D01*
X95960000Y-75856930D01*
X95960000Y-74370000D01*
X155500000Y-74370000D01*
X155500001Y-106532397D01*
X155500001Y-106532397D01*
G37*
X155500001Y-106532397D02*
X155350000Y-106502560D01*
X153650000Y-106502560D01*
X153402235Y-106551843D01*
X153192191Y-106692191D01*
X153051843Y-106902235D01*
X153002560Y-107150000D01*
X153002560Y-108850000D01*
X153051843Y-109097765D01*
X153192191Y-109307809D01*
X153402235Y-109448157D01*
X153650000Y-109497440D01*
X155350000Y-109497440D01*
X155500001Y-109467603D01*
X155500001Y-114452185D01*
X155079418Y-114171161D01*
X154646256Y-114085000D01*
X154353744Y-114085000D01*
X154133593Y-114128791D01*
X150010331Y-110005530D01*
X149967929Y-109942071D01*
X149716537Y-109774096D01*
X149494852Y-109730000D01*
X149494847Y-109730000D01*
X149420000Y-109715112D01*
X149345153Y-109730000D01*
X148517300Y-109730000D01*
X148504320Y-109698663D01*
X148111337Y-109305680D01*
X147904487Y-109220000D01*
X148111337Y-109134320D01*
X148504320Y-108741337D01*
X148717000Y-108227881D01*
X148717000Y-107672119D01*
X148504320Y-107158663D01*
X148111337Y-106765680D01*
X147904487Y-106680000D01*
X148111337Y-106594320D01*
X148504320Y-106201337D01*
X148717000Y-105687881D01*
X148717000Y-105132119D01*
X148504320Y-104618663D01*
X148111337Y-104225680D01*
X147904487Y-104140000D01*
X148111337Y-104054320D01*
X148504320Y-103661337D01*
X148717000Y-103147881D01*
X148717000Y-102592119D01*
X148504320Y-102078663D01*
X148362979Y-101937322D01*
X150646000Y-101937322D01*
X150646000Y-102786678D01*
X150971034Y-103571380D01*
X151571620Y-104171966D01*
X152356322Y-104497000D01*
X153205678Y-104497000D01*
X153990380Y-104171966D01*
X154590966Y-103571380D01*
X154916000Y-102786678D01*
X154916000Y-101937322D01*
X154590966Y-101152620D01*
X153990380Y-100552034D01*
X153205678Y-100227000D01*
X152356322Y-100227000D01*
X151571620Y-100552034D01*
X150971034Y-101152620D01*
X150646000Y-101937322D01*
X148362979Y-101937322D01*
X148111337Y-101685680D01*
X147904487Y-101600000D01*
X148111337Y-101514320D01*
X148504320Y-101121337D01*
X148717000Y-100607881D01*
X148717000Y-100052119D01*
X148504320Y-99538663D01*
X148111337Y-99145680D01*
X147904487Y-99060000D01*
X148111337Y-98974320D01*
X148504320Y-98581337D01*
X148717000Y-98067881D01*
X148717000Y-97512119D01*
X148504320Y-96998663D01*
X148111337Y-96605680D01*
X147904487Y-96520000D01*
X148111337Y-96434320D01*
X148504320Y-96041337D01*
X148717000Y-95527881D01*
X148717000Y-94972119D01*
X148504320Y-94458663D01*
X148111337Y-94065680D01*
X147904487Y-93980000D01*
X148111337Y-93894320D01*
X148504320Y-93501337D01*
X148717000Y-92987881D01*
X148717000Y-92432119D01*
X148504320Y-91918663D01*
X148111337Y-91525680D01*
X147904487Y-91440000D01*
X148111337Y-91354320D01*
X148504320Y-90961337D01*
X148717000Y-90447881D01*
X148717000Y-89892119D01*
X148504320Y-89378663D01*
X148111337Y-88985680D01*
X147904487Y-88900000D01*
X148111337Y-88814320D01*
X148504320Y-88421337D01*
X148717000Y-87907881D01*
X148717000Y-87352119D01*
X148504320Y-86838663D01*
X148111337Y-86445680D01*
X147904487Y-86360000D01*
X148111337Y-86274320D01*
X148504320Y-85881337D01*
X148717000Y-85367881D01*
X148717000Y-84812119D01*
X148504320Y-84298663D01*
X148111337Y-83905680D01*
X147920353Y-83826572D01*
X148051143Y-83772397D01*
X148120608Y-83530213D01*
X147320000Y-82729605D01*
X146519392Y-83530213D01*
X146588857Y-83772397D01*
X146729393Y-83822535D01*
X146528663Y-83905680D01*
X146135680Y-84298663D01*
X145923000Y-84812119D01*
X145923000Y-85367881D01*
X146135680Y-85881337D01*
X146528663Y-86274320D01*
X146735513Y-86360000D01*
X146528663Y-86445680D01*
X146135680Y-86838663D01*
X145923000Y-87352119D01*
X145923000Y-87907881D01*
X146135680Y-88421337D01*
X146528663Y-88814320D01*
X146735513Y-88900000D01*
X146528663Y-88985680D01*
X146135680Y-89378663D01*
X145923000Y-89892119D01*
X145923000Y-90447881D01*
X146135680Y-90961337D01*
X146528663Y-91354320D01*
X146735513Y-91440000D01*
X146528663Y-91525680D01*
X146135680Y-91918663D01*
X145923000Y-92432119D01*
X145923000Y-92987881D01*
X146135680Y-93501337D01*
X146528663Y-93894320D01*
X146735513Y-93980000D01*
X146528663Y-94065680D01*
X146135680Y-94458663D01*
X145923000Y-94972119D01*
X145923000Y-95527881D01*
X146135680Y-96041337D01*
X146528663Y-96434320D01*
X146735513Y-96520000D01*
X146528663Y-96605680D01*
X146135680Y-96998663D01*
X145923000Y-97512119D01*
X145923000Y-98067881D01*
X146135680Y-98581337D01*
X146528663Y-98974320D01*
X146735513Y-99060000D01*
X146528663Y-99145680D01*
X146135680Y-99538663D01*
X145923000Y-100052119D01*
X145923000Y-100607881D01*
X146135680Y-101121337D01*
X146528663Y-101514320D01*
X146735513Y-101600000D01*
X146528663Y-101685680D01*
X146135680Y-102078663D01*
X145923000Y-102592119D01*
X145923000Y-103147881D01*
X146135680Y-103661337D01*
X146528663Y-104054320D01*
X146735513Y-104140000D01*
X146528663Y-104225680D01*
X146135680Y-104618663D01*
X145923000Y-105132119D01*
X145923000Y-105687881D01*
X146135680Y-106201337D01*
X146528663Y-106594320D01*
X146735513Y-106680000D01*
X146528663Y-106765680D01*
X146135680Y-107158663D01*
X145923000Y-107672119D01*
X145923000Y-108227881D01*
X146135680Y-108741337D01*
X146528663Y-109134320D01*
X146735513Y-109220000D01*
X146528663Y-109305680D01*
X146135680Y-109698663D01*
X145923000Y-110212119D01*
X145923000Y-110767881D01*
X146135680Y-111281337D01*
X146528663Y-111674320D01*
X146735513Y-111760000D01*
X146528663Y-111845680D01*
X146135680Y-112238663D01*
X145923000Y-112752119D01*
X145923000Y-113307881D01*
X146135680Y-113821337D01*
X146528663Y-114214320D01*
X146735513Y-114300000D01*
X146528663Y-114385680D01*
X146135680Y-114778663D01*
X145923000Y-115292119D01*
X145923000Y-115847881D01*
X146135680Y-116361337D01*
X146528663Y-116754320D01*
X146735513Y-116840000D01*
X146528663Y-116925680D01*
X146135680Y-117318663D01*
X145923000Y-117832119D01*
X145923000Y-118387881D01*
X146135680Y-118901337D01*
X146528663Y-119294320D01*
X146735513Y-119380000D01*
X146528663Y-119465680D01*
X146135680Y-119858663D01*
X145923000Y-120372119D01*
X145923000Y-120927881D01*
X146135680Y-121441337D01*
X146528663Y-121834320D01*
X146735513Y-121920000D01*
X146528663Y-122005680D01*
X146135680Y-122398663D01*
X145923000Y-122912119D01*
X145923000Y-123467881D01*
X146135680Y-123981337D01*
X146528663Y-124374320D01*
X146735513Y-124460000D01*
X146528663Y-124545680D01*
X146135680Y-124938663D01*
X145923000Y-125452119D01*
X145923000Y-126007881D01*
X146135680Y-126521337D01*
X146528663Y-126914320D01*
X147042119Y-127127000D01*
X147597881Y-127127000D01*
X148111337Y-126914320D01*
X148504320Y-126521337D01*
X148717000Y-126007881D01*
X148717000Y-125452119D01*
X148504320Y-124938663D01*
X148111337Y-124545680D01*
X147904487Y-124460000D01*
X148111337Y-124374320D01*
X148504320Y-123981337D01*
X148717000Y-123467881D01*
X148717000Y-122912119D01*
X148504320Y-122398663D01*
X148111337Y-122005680D01*
X147904487Y-121920000D01*
X148111337Y-121834320D01*
X148504320Y-121441337D01*
X148717000Y-120927881D01*
X148717000Y-120372119D01*
X148504320Y-119858663D01*
X148111337Y-119465680D01*
X147904487Y-119380000D01*
X148111337Y-119294320D01*
X148504320Y-118901337D01*
X148717000Y-118387881D01*
X148717000Y-117832119D01*
X148504320Y-117318663D01*
X148111337Y-116925680D01*
X147904487Y-116840000D01*
X148111337Y-116754320D01*
X148504320Y-116361337D01*
X148717000Y-115847881D01*
X148717000Y-115292119D01*
X148504320Y-114778663D01*
X148111337Y-114385680D01*
X147904487Y-114300000D01*
X148111337Y-114214320D01*
X148504320Y-113821337D01*
X148517300Y-113790000D01*
X149105199Y-113790000D01*
X153002560Y-117687362D01*
X153002560Y-118960000D01*
X153051843Y-119207765D01*
X153192191Y-119417809D01*
X153402235Y-119558157D01*
X153650000Y-119607440D01*
X155350000Y-119607440D01*
X155500001Y-119577603D01*
X155500001Y-130100000D01*
X95960000Y-130100000D01*
X95960000Y-113101010D01*
X110660102Y-113101010D01*
X110674991Y-113175862D01*
X110674990Y-121139143D01*
X110660102Y-121213990D01*
X110674990Y-121288837D01*
X110674990Y-121288841D01*
X110719086Y-121510526D01*
X110887061Y-121761919D01*
X110950520Y-121804321D01*
X111927269Y-122781071D01*
X111845928Y-123190000D01*
X111965062Y-123788927D01*
X112304327Y-124296673D01*
X112548763Y-124460000D01*
X112304327Y-124623327D01*
X111965062Y-125131073D01*
X111845928Y-125730000D01*
X111965062Y-126328927D01*
X112304327Y-126836673D01*
X112812073Y-127175938D01*
X113259818Y-127265000D01*
X113562182Y-127265000D01*
X114009927Y-127175938D01*
X114517673Y-126836673D01*
X114749312Y-126490000D01*
X118185153Y-126490000D01*
X118260000Y-126504888D01*
X118334847Y-126490000D01*
X118334852Y-126490000D01*
X118556537Y-126445904D01*
X118807929Y-126277929D01*
X118850331Y-126214470D01*
X119335010Y-125729792D01*
X119642119Y-125857000D01*
X120197881Y-125857000D01*
X120711337Y-125644320D01*
X120920000Y-125435657D01*
X121128663Y-125644320D01*
X121642119Y-125857000D01*
X122197881Y-125857000D01*
X122711337Y-125644320D01*
X122920000Y-125435657D01*
X123128663Y-125644320D01*
X123642119Y-125857000D01*
X124197881Y-125857000D01*
X124711337Y-125644320D01*
X125104320Y-125251337D01*
X125317000Y-124737881D01*
X125317000Y-124182119D01*
X125220000Y-123947940D01*
X125220000Y-119694801D01*
X125391698Y-119523103D01*
X125444561Y-119545000D01*
X126015439Y-119545000D01*
X126542862Y-119326534D01*
X126946534Y-118922862D01*
X127165000Y-118395439D01*
X127165000Y-117824561D01*
X126946534Y-117297138D01*
X126542862Y-116893466D01*
X126015439Y-116675000D01*
X125444561Y-116675000D01*
X124917138Y-116893466D01*
X124513466Y-117297138D01*
X124295000Y-117824561D01*
X124295000Y-118395439D01*
X124316897Y-118448302D01*
X123975528Y-118789671D01*
X123912072Y-118832071D01*
X123869672Y-118895527D01*
X123869671Y-118895528D01*
X123744097Y-119083463D01*
X123685112Y-119380000D01*
X123700001Y-119454852D01*
X123700000Y-123063000D01*
X123642119Y-123063000D01*
X123128663Y-123275680D01*
X122920000Y-123484343D01*
X122711337Y-123275680D01*
X122197881Y-123063000D01*
X121642119Y-123063000D01*
X121128663Y-123275680D01*
X120920000Y-123484343D01*
X120711337Y-123275680D01*
X120197881Y-123063000D01*
X119642119Y-123063000D01*
X119128663Y-123275680D01*
X118735680Y-123668663D01*
X118523000Y-124182119D01*
X118523000Y-124392198D01*
X117945199Y-124970000D01*
X114749312Y-124970000D01*
X114517673Y-124623327D01*
X114273237Y-124460000D01*
X114517673Y-124296673D01*
X114856938Y-123788927D01*
X114976072Y-123190000D01*
X114856938Y-122591073D01*
X114553462Y-122136888D01*
X114670699Y-122088327D01*
X114849327Y-121909698D01*
X114946000Y-121676309D01*
X114946000Y-120935750D01*
X114787250Y-120777000D01*
X113538000Y-120777000D01*
X113538000Y-120797000D01*
X113284000Y-120797000D01*
X113284000Y-120777000D01*
X113264000Y-120777000D01*
X113264000Y-120523000D01*
X113284000Y-120523000D01*
X113284000Y-119273750D01*
X113538000Y-119273750D01*
X113538000Y-120523000D01*
X114787250Y-120523000D01*
X114946000Y-120364250D01*
X114946000Y-119623691D01*
X114849327Y-119390302D01*
X114670699Y-119211673D01*
X114437310Y-119115000D01*
X113696750Y-119115000D01*
X113538000Y-119273750D01*
X113284000Y-119273750D01*
X113125250Y-119115000D01*
X112384690Y-119115000D01*
X112194990Y-119193576D01*
X112194990Y-115867775D01*
X112613391Y-115951000D01*
X113446609Y-115951000D01*
X113928188Y-115855208D01*
X114474305Y-115490305D01*
X114839208Y-114944188D01*
X114967345Y-114300000D01*
X114839208Y-113655812D01*
X114474305Y-113109695D01*
X114355033Y-113030000D01*
X114474305Y-112950305D01*
X114839208Y-112404188D01*
X114967345Y-111760000D01*
X114839208Y-111115812D01*
X114474305Y-110569695D01*
X114355033Y-110490000D01*
X114474305Y-110410305D01*
X114839208Y-109864188D01*
X114967345Y-109220000D01*
X114839208Y-108575812D01*
X114474305Y-108029695D01*
X113928188Y-107664792D01*
X113446609Y-107569000D01*
X112613391Y-107569000D01*
X112131812Y-107664792D01*
X111585695Y-108029695D01*
X111220792Y-108575812D01*
X111092655Y-109220000D01*
X111220792Y-109864188D01*
X111585695Y-110410305D01*
X111704967Y-110490000D01*
X111585695Y-110569695D01*
X111220792Y-111115812D01*
X111092655Y-111760000D01*
X111193619Y-112267580D01*
X110950518Y-112510681D01*
X110887062Y-112553081D01*
X110844662Y-112616537D01*
X110844661Y-112616538D01*
X110719087Y-112804473D01*
X110660102Y-113101010D01*
X95960000Y-113101010D01*
X95960000Y-102909803D01*
X96234034Y-103571380D01*
X96834620Y-104171966D01*
X97619322Y-104497000D01*
X98468678Y-104497000D01*
X99253380Y-104171966D01*
X99853966Y-103571380D01*
X100179000Y-102786678D01*
X100179000Y-101937322D01*
X99853966Y-101152620D01*
X99253380Y-100552034D01*
X98468678Y-100227000D01*
X97619322Y-100227000D01*
X96834620Y-100552034D01*
X96234034Y-101152620D01*
X95960000Y-101814197D01*
X95960000Y-87630000D01*
X113525112Y-87630000D01*
X113540001Y-87704852D01*
X113540000Y-106605153D01*
X113525112Y-106680000D01*
X113540000Y-106754847D01*
X113540000Y-106754851D01*
X113584096Y-106976536D01*
X113752071Y-107227929D01*
X113815530Y-107270331D01*
X117350001Y-110804803D01*
X117350000Y-113061570D01*
X117297138Y-113083466D01*
X116893466Y-113487138D01*
X116675000Y-114014561D01*
X116675000Y-114585439D01*
X116893466Y-115112862D01*
X117297138Y-115516534D01*
X117350001Y-115538430D01*
X117350000Y-116891956D01*
X117075423Y-117075423D01*
X116758260Y-117550091D01*
X116646887Y-118110000D01*
X116758260Y-118669909D01*
X117075423Y-119144577D01*
X117550091Y-119461740D01*
X117968667Y-119545000D01*
X118251333Y-119545000D01*
X118669909Y-119461740D01*
X119144577Y-119144577D01*
X119461740Y-118669909D01*
X119573113Y-118110000D01*
X119461740Y-117550091D01*
X119144577Y-117075423D01*
X118870000Y-116891957D01*
X118870000Y-115538430D01*
X118922862Y-115516534D01*
X119326534Y-115112862D01*
X119545000Y-114585439D01*
X119545000Y-114014561D01*
X119326534Y-113487138D01*
X118922862Y-113083466D01*
X118870000Y-113061570D01*
X118870000Y-110564848D01*
X118884888Y-110490000D01*
X118870000Y-110415152D01*
X118870000Y-110415148D01*
X118829615Y-110212119D01*
X118825904Y-110193462D01*
X118700329Y-110005527D01*
X118657929Y-109942071D01*
X118594473Y-109899671D01*
X115060000Y-106365199D01*
X115060000Y-87944801D01*
X118424802Y-84580000D01*
X127955199Y-84580000D01*
X130695980Y-87320782D01*
X130683000Y-87352119D01*
X130683000Y-87907881D01*
X130779147Y-88140000D01*
X124534846Y-88140000D01*
X124459999Y-88125112D01*
X124385152Y-88140000D01*
X124385148Y-88140000D01*
X124163463Y-88184096D01*
X123912071Y-88352071D01*
X123869671Y-88415527D01*
X123645020Y-88640178D01*
X123505773Y-88582500D01*
X122874227Y-88582500D01*
X122290753Y-88824182D01*
X121920000Y-89194935D01*
X121549247Y-88824182D01*
X120965773Y-88582500D01*
X120334227Y-88582500D01*
X119750753Y-88824182D01*
X119304182Y-89270753D01*
X119062500Y-89854227D01*
X119062500Y-90485773D01*
X119304182Y-91069247D01*
X119674935Y-91440000D01*
X119304182Y-91810753D01*
X119062500Y-92394227D01*
X119062500Y-93025773D01*
X119304182Y-93609247D01*
X119674935Y-93980000D01*
X119304182Y-94350753D01*
X119062500Y-94934227D01*
X119062500Y-95565773D01*
X119304182Y-96149247D01*
X119674935Y-96520000D01*
X119304182Y-96890753D01*
X119062500Y-97474227D01*
X119062500Y-98105773D01*
X119120178Y-98245021D01*
X118888029Y-98477170D01*
X118824570Y-98519572D01*
X118656595Y-98770965D01*
X118612499Y-98992650D01*
X118612499Y-98992654D01*
X118597611Y-99067501D01*
X118612499Y-99142348D01*
X118612500Y-106202645D01*
X118597611Y-106277497D01*
X118612500Y-106352349D01*
X118656596Y-106574034D01*
X118824571Y-106825426D01*
X118888027Y-106867826D01*
X125049222Y-113029022D01*
X124695423Y-113265423D01*
X124378260Y-113740091D01*
X124266887Y-114300000D01*
X124378260Y-114859909D01*
X124695423Y-115334577D01*
X125170091Y-115651740D01*
X125588667Y-115735000D01*
X125871333Y-115735000D01*
X126289909Y-115651740D01*
X126764577Y-115334577D01*
X127000978Y-114980778D01*
X129344673Y-117324473D01*
X129387073Y-117387929D01*
X129638465Y-117555904D01*
X129860150Y-117600000D01*
X129860155Y-117600000D01*
X129935002Y-117614888D01*
X130009849Y-117600000D01*
X130779147Y-117600000D01*
X130683000Y-117832119D01*
X130683000Y-118387881D01*
X130895680Y-118901337D01*
X131288663Y-119294320D01*
X131495513Y-119380000D01*
X131288663Y-119465680D01*
X130895680Y-119858663D01*
X130683000Y-120372119D01*
X130683000Y-120927881D01*
X130895680Y-121441337D01*
X131288663Y-121834320D01*
X131495513Y-121920000D01*
X131288663Y-122005680D01*
X130895680Y-122398663D01*
X130683000Y-122912119D01*
X130683000Y-123467881D01*
X130895680Y-123981337D01*
X131288663Y-124374320D01*
X131495513Y-124460000D01*
X131288663Y-124545680D01*
X130895680Y-124938663D01*
X130683000Y-125452119D01*
X130683000Y-126007881D01*
X130895680Y-126521337D01*
X131288663Y-126914320D01*
X131802119Y-127127000D01*
X132357881Y-127127000D01*
X132871337Y-126914320D01*
X133264320Y-126521337D01*
X133477000Y-126007881D01*
X133477000Y-125452119D01*
X133264320Y-124938663D01*
X132871337Y-124545680D01*
X132664487Y-124460000D01*
X132871337Y-124374320D01*
X133264320Y-123981337D01*
X133477000Y-123467881D01*
X133477000Y-122912119D01*
X133264320Y-122398663D01*
X132871337Y-122005680D01*
X132664487Y-121920000D01*
X132871337Y-121834320D01*
X133264320Y-121441337D01*
X133477000Y-120927881D01*
X133477000Y-120372119D01*
X133464020Y-120340781D01*
X141454473Y-112350329D01*
X141517929Y-112307929D01*
X141685904Y-112056537D01*
X141730000Y-111834852D01*
X141730000Y-111834848D01*
X141744888Y-111760000D01*
X141730000Y-111685152D01*
X141730000Y-96594848D01*
X141744888Y-96520001D01*
X141730000Y-96445154D01*
X141730000Y-84134801D01*
X143522499Y-82342302D01*
X145910856Y-82342302D01*
X145938638Y-82897368D01*
X146097603Y-83281143D01*
X146339787Y-83350608D01*
X147140395Y-82550000D01*
X147499605Y-82550000D01*
X148300213Y-83350608D01*
X148542397Y-83281143D01*
X148729144Y-82757698D01*
X148701362Y-82202632D01*
X148542397Y-81818857D01*
X148300213Y-81749392D01*
X147499605Y-82550000D01*
X147140395Y-82550000D01*
X146339787Y-81749392D01*
X146097603Y-81818857D01*
X145910856Y-82342302D01*
X143522499Y-82342302D01*
X145923000Y-79941802D01*
X145923000Y-80287881D01*
X146135680Y-80801337D01*
X146528663Y-81194320D01*
X146719647Y-81273428D01*
X146588857Y-81327603D01*
X146519392Y-81569787D01*
X147320000Y-82370395D01*
X148120608Y-81569787D01*
X148051143Y-81327603D01*
X147910607Y-81277465D01*
X148111337Y-81194320D01*
X148504320Y-80801337D01*
X148717000Y-80287881D01*
X148717000Y-79732119D01*
X148504320Y-79218663D01*
X148111337Y-78825680D01*
X147904487Y-78740000D01*
X148111337Y-78654320D01*
X148504320Y-78261337D01*
X148717000Y-77747881D01*
X148717000Y-77192119D01*
X148504320Y-76678663D01*
X148111337Y-76285680D01*
X147597881Y-76073000D01*
X147042119Y-76073000D01*
X146528663Y-76285680D01*
X146135680Y-76678663D01*
X145923000Y-77192119D01*
X145923000Y-77747881D01*
X145935980Y-77779218D01*
X140485528Y-83229671D01*
X140422072Y-83272071D01*
X140379672Y-83335527D01*
X140379671Y-83335528D01*
X140254097Y-83523463D01*
X140195112Y-83820000D01*
X140210001Y-83894852D01*
X140210000Y-96205197D01*
X133477000Y-102938199D01*
X133477000Y-102592119D01*
X133464020Y-102560782D01*
X137644473Y-98380329D01*
X137707929Y-98337929D01*
X137875904Y-98086537D01*
X137920000Y-97864852D01*
X137920000Y-97864847D01*
X137934888Y-97790000D01*
X137920000Y-97715153D01*
X137920000Y-92149846D01*
X137934888Y-92074999D01*
X137920000Y-92000152D01*
X137920000Y-92000148D01*
X137875904Y-91778463D01*
X137707929Y-91527071D01*
X137644473Y-91484671D01*
X134575331Y-88415530D01*
X134532929Y-88352071D01*
X134281537Y-88184096D01*
X134059852Y-88140000D01*
X134059847Y-88140000D01*
X133985000Y-88125112D01*
X133910153Y-88140000D01*
X133380853Y-88140000D01*
X133477000Y-87907881D01*
X133477000Y-87352119D01*
X133264320Y-86838663D01*
X132871337Y-86445680D01*
X132664487Y-86360000D01*
X132871337Y-86274320D01*
X133264320Y-85881337D01*
X133477000Y-85367881D01*
X133477000Y-84812119D01*
X133264320Y-84298663D01*
X132871337Y-83905680D01*
X132664487Y-83820000D01*
X132871337Y-83734320D01*
X133264320Y-83341337D01*
X133477000Y-82827881D01*
X133477000Y-82272119D01*
X133264320Y-81758663D01*
X132871337Y-81365680D01*
X132664487Y-81280000D01*
X132871337Y-81194320D01*
X133264320Y-80801337D01*
X133477000Y-80287881D01*
X133477000Y-79732119D01*
X133264320Y-79218663D01*
X132871337Y-78825680D01*
X132664487Y-78740000D01*
X132871337Y-78654320D01*
X133264320Y-78261337D01*
X133477000Y-77747881D01*
X133477000Y-77192119D01*
X133264320Y-76678663D01*
X132871337Y-76285680D01*
X132357881Y-76073000D01*
X131802119Y-76073000D01*
X131288663Y-76285680D01*
X130895680Y-76678663D01*
X130683000Y-77192119D01*
X130683000Y-77747881D01*
X130895680Y-78261337D01*
X131288663Y-78654320D01*
X131495513Y-78740000D01*
X131288663Y-78825680D01*
X130895680Y-79218663D01*
X130683000Y-79732119D01*
X130683000Y-80287881D01*
X130895680Y-80801337D01*
X131288663Y-81194320D01*
X131495513Y-81280000D01*
X131288663Y-81365680D01*
X130895680Y-81758663D01*
X130683000Y-82272119D01*
X130683000Y-82827881D01*
X130895680Y-83341337D01*
X131288663Y-83734320D01*
X131495513Y-83820000D01*
X131288663Y-83905680D01*
X130895680Y-84298663D01*
X130683000Y-84812119D01*
X130683000Y-85158199D01*
X128860331Y-83335530D01*
X128817929Y-83272071D01*
X128566537Y-83104096D01*
X128344852Y-83060000D01*
X128344847Y-83060000D01*
X128270000Y-83045112D01*
X128195153Y-83060000D01*
X118184848Y-83060000D01*
X118110000Y-83045112D01*
X118035152Y-83060000D01*
X118035148Y-83060000D01*
X117861605Y-83094520D01*
X117813462Y-83104096D01*
X117626418Y-83229076D01*
X117562071Y-83272071D01*
X117519671Y-83335527D01*
X113815528Y-87039671D01*
X113752072Y-87082071D01*
X113709672Y-87145527D01*
X113709671Y-87145528D01*
X113584097Y-87333463D01*
X113525112Y-87630000D01*
X95960000Y-87630000D01*
X95960000Y-76543070D01*
X101134780Y-76543070D01*
X101149740Y-76617277D01*
X101411370Y-77098026D01*
X101837059Y-77442059D01*
X102362000Y-77597000D01*
X102743000Y-77597000D01*
X102743000Y-76327000D01*
X102997000Y-76327000D01*
X102997000Y-77597000D01*
X103378000Y-77597000D01*
X103902941Y-77442059D01*
X104328630Y-77098026D01*
X104590260Y-76617277D01*
X104605220Y-76543070D01*
X104572723Y-76485750D01*
X107785000Y-76485750D01*
X107785000Y-77126309D01*
X107881673Y-77359698D01*
X108060301Y-77538327D01*
X108266759Y-77623845D01*
X108003466Y-77887138D01*
X107785000Y-78414561D01*
X107785000Y-78985439D01*
X108003466Y-79512862D01*
X108407138Y-79916534D01*
X108934561Y-80135000D01*
X109505439Y-80135000D01*
X110032862Y-79916534D01*
X110201651Y-79747745D01*
X114741861Y-79747745D01*
X114815995Y-79993864D01*
X115353223Y-80186965D01*
X115923454Y-80159778D01*
X116324005Y-79993864D01*
X116398139Y-79747745D01*
X115570000Y-78919605D01*
X114741861Y-79747745D01*
X110201651Y-79747745D01*
X110436534Y-79512862D01*
X110655000Y-78985439D01*
X110655000Y-78523223D01*
X114123035Y-78523223D01*
X114150222Y-79093454D01*
X114316136Y-79494005D01*
X114562255Y-79568139D01*
X115390395Y-78740000D01*
X115749605Y-78740000D01*
X116577745Y-79568139D01*
X116823864Y-79494005D01*
X117016965Y-78956777D01*
X116989778Y-78386546D01*
X116823864Y-77985995D01*
X116577745Y-77911861D01*
X115749605Y-78740000D01*
X115390395Y-78740000D01*
X114562255Y-77911861D01*
X114316136Y-77985995D01*
X114123035Y-78523223D01*
X110655000Y-78523223D01*
X110655000Y-78414561D01*
X110436534Y-77887138D01*
X110173241Y-77623845D01*
X110379699Y-77538327D01*
X110558327Y-77359698D01*
X110655000Y-77126309D01*
X110655000Y-76485750D01*
X110496250Y-76327000D01*
X109347000Y-76327000D01*
X109347000Y-76347000D01*
X109093000Y-76347000D01*
X109093000Y-76327000D01*
X107943750Y-76327000D01*
X107785000Y-76485750D01*
X104572723Y-76485750D01*
X104482720Y-76327000D01*
X102997000Y-76327000D01*
X102743000Y-76327000D01*
X101257280Y-76327000D01*
X101134780Y-76543070D01*
X95960000Y-76543070D01*
X95960000Y-75856930D01*
X101134780Y-75856930D01*
X101257280Y-76073000D01*
X102743000Y-76073000D01*
X102743000Y-74803000D01*
X102997000Y-74803000D01*
X102997000Y-76073000D01*
X104482720Y-76073000D01*
X104605220Y-75856930D01*
X104590260Y-75782723D01*
X104328630Y-75301974D01*
X104293635Y-75273691D01*
X107785000Y-75273691D01*
X107785000Y-75914250D01*
X107943750Y-76073000D01*
X109093000Y-76073000D01*
X109093000Y-74923750D01*
X109347000Y-74923750D01*
X109347000Y-76073000D01*
X110496250Y-76073000D01*
X110614689Y-75954561D01*
X114135000Y-75954561D01*
X114135000Y-76525439D01*
X114353466Y-77052862D01*
X114757138Y-77456534D01*
X114822299Y-77483525D01*
X114815995Y-77486136D01*
X114741861Y-77732255D01*
X115570000Y-78560395D01*
X116398139Y-77732255D01*
X116324005Y-77486136D01*
X116317254Y-77483710D01*
X116382862Y-77456534D01*
X116786534Y-77052862D01*
X117005000Y-76525439D01*
X117005000Y-76200000D01*
X117701632Y-76200000D01*
X117810056Y-76745082D01*
X118118820Y-77207180D01*
X118580918Y-77515944D01*
X118988412Y-77597000D01*
X120025588Y-77597000D01*
X120433082Y-77515944D01*
X120895180Y-77207180D01*
X121203944Y-76745082D01*
X121312368Y-76200000D01*
X121203944Y-75654918D01*
X120895180Y-75192820D01*
X120433082Y-74884056D01*
X120025588Y-74803000D01*
X118988412Y-74803000D01*
X118580918Y-74884056D01*
X118118820Y-75192820D01*
X117810056Y-75654918D01*
X117701632Y-76200000D01*
X117005000Y-76200000D01*
X117005000Y-75954561D01*
X116786534Y-75427138D01*
X116382862Y-75023466D01*
X115855439Y-74805000D01*
X115284561Y-74805000D01*
X114757138Y-75023466D01*
X114353466Y-75427138D01*
X114135000Y-75954561D01*
X110614689Y-75954561D01*
X110655000Y-75914250D01*
X110655000Y-75273691D01*
X110558327Y-75040302D01*
X110379699Y-74861673D01*
X110146310Y-74765000D01*
X109505750Y-74765000D01*
X109347000Y-74923750D01*
X109093000Y-74923750D01*
X108934250Y-74765000D01*
X108293690Y-74765000D01*
X108060301Y-74861673D01*
X107881673Y-75040302D01*
X107785000Y-75273691D01*
X104293635Y-75273691D01*
X103902941Y-74957941D01*
X103378000Y-74803000D01*
X102997000Y-74803000D01*
X102743000Y-74803000D01*
X102362000Y-74803000D01*
X101837059Y-74957941D01*
X101411370Y-75301974D01*
X101149740Y-75782723D01*
X101134780Y-75856930D01*
X95960000Y-75856930D01*
X95960000Y-74370000D01*
X155500000Y-74370000D01*
X155500001Y-106532397D01*
G04 #@! TD*
M02*
